<svg width="16" height="15" viewBox="0 0 16 15" fill="none" xmlns="http://www.w3.org/2000/svg">
<path d="M8.51913 12.9655L7.09324 11.5397L15.078 5.51418L15.2318 0.262093L9.97461 0.410745L3.94912 8.39554L2.52836 6.97479C2.37962 6.82604 2.14413 6.82559 1.99596 6.97377L0.785004 8.18472C0.636829 8.3329 0.637277 8.56839 0.786021 8.71713L2.90433 10.8354L0.727678 13.0121C0.538625 13.2011 0.539213 13.5083 0.728989 13.6981L1.78558 14.7547C1.97536 14.9444 2.28251 14.945 2.47156 14.756L4.64822 12.5793L6.77678 14.7079C6.92553 14.8566 7.16101 14.8571 7.30919 14.7089L8.52014 13.498C8.66319 13.3446 8.66274 13.1092 8.51913 12.9655Z" fill="#4FFF8B"/>
</svg>
