<svg width="16" height="16" viewBox="0 0 16 16" fill="none" xmlns="http://www.w3.org/2000/svg">
  <path
    d="M8 0C5.87828 0 3.84372 0.842968 2.34367 2.34367C0.842968 3.84362 0 5.87828 0 8C0 10.1217 0.842968 12.1563 2.34367 13.6563C3.84362 15.157 5.87828 16 8 16C10.1217 16 12.1563 15.157 13.6563 13.6563C15.157 12.1564 16 10.1217 16 8C16 5.87828 15.157 3.84372 13.6563 2.34367C12.1564 0.842968 10.1217 0 8 0ZM8 14.3995C6.30281 14.3995 4.67467 13.7253 3.4747 12.5254C2.27474 11.3254 1.60052 9.69728 1.60052 8.00006C1.59827 6.57886 2.07451 5.1981 2.95198 4.07993L11.9202 13.0482C10.802 13.9256 9.42122 14.4019 8.00008 14.3996L8 14.3995ZM13.0481 11.9194L4.07987 2.95191C5.19808 2.07444 6.57886 1.5982 8 1.60044C9.69719 1.60044 11.3253 2.27467 12.5253 3.47463C13.7253 4.67459 14.3995 6.3027 14.3995 7.99992C14.4017 9.42112 13.9255 10.8019 13.048 11.9201L13.0481 11.9194Z"
    fill="currentColor" />
</svg>