<svg width="16" height="14" viewBox="0 0 16 14" fill="none" xmlns="http://www.w3.org/2000/svg">
<path fill-rule="evenodd" clip-rule="evenodd" d="M2.93443 0.547852C1.83755 0.547852 0.940674 1.45175 0.940674 2.54945V9.02045C0.940674 10.1181 1.83755 11.0221 2.93443 11.0221H3.69381V12.8682L3.6946 12.8689C3.69616 13.0947 3.82741 13.3002 4.0321 13.3963C4.23678 13.4924 4.4782 13.4627 4.65398 13.3205L7.44618 11.0229H13.061C14.1579 11.0229 15.0594 10.119 15.0594 9.02129V2.55029C15.0594 1.45263 14.1579 0.54869 13.061 0.54869L2.93443 0.547852ZM2.93443 1.72441H13.0602C13.522 1.72441 13.8821 2.08065 13.8821 2.54941V9.02041C13.8821 9.48917 13.5227 9.84541 13.0602 9.84541H7.23283C7.0969 9.84619 6.96487 9.89385 6.85939 9.98057L4.87033 11.6181V10.4321L4.87112 10.4313C4.86955 10.1071 4.60472 9.84463 4.2805 9.84541H2.93518C2.47346 9.84541 2.118 9.48995 2.118 9.02041V2.54941C2.118 2.07987 2.47268 1.72441 2.93518 1.72441L2.93443 1.72441ZM4.87505 3.81821C4.71959 3.81743 4.56959 3.87915 4.45865 3.98931C4.34772 4.09868 4.28522 4.24791 4.28444 4.40415C4.28444 4.56118 4.34615 4.71197 4.45709 4.82291C4.56803 4.93306 4.71881 4.99556 4.87505 4.99478H11.1251C11.2805 4.994 11.4305 4.9315 11.5399 4.82056C11.65 4.71041 11.711 4.5604 11.711 4.40416C11.7094 4.0815 11.4477 3.81978 11.125 3.81822L4.87505 3.81821ZM4.87505 6.57601C4.71959 6.57523 4.56959 6.63695 4.45865 6.74632C4.34772 6.85648 4.28522 7.0057 4.28444 7.16194C4.28444 7.31898 4.34615 7.46898 4.45709 7.5799C4.56803 7.69084 4.71881 7.75334 4.87505 7.75256H8.54845C8.70548 7.75334 8.85627 7.69084 8.96721 7.5799C9.07815 7.46897 9.13987 7.31896 9.13909 7.16194C9.1383 7.00569 9.0758 6.85648 8.96565 6.74632C8.85471 6.63695 8.70471 6.57523 8.54847 6.57601H4.87505Z" fill="#B2D1FF"/>
</svg>
