<svg width="18" height="18" viewBox="0 0 18 18" fill="none" xmlns="http://www.w3.org/2000/svg">
<path d="M12.9304 12.9307V15.4827C12.9301 15.9473 12.7454 16.3928 12.417 16.7213C12.0885 17.0499 11.6431 17.2347 11.1786 17.2351H2.75368C2.28879 17.2351 1.84293 17.0505 1.51409 16.7219C1.18525 16.3933 1.00034 15.9476 1 15.4827V7.05783C1.00024 6.59307 1.18496 6.14741 1.51358 5.81876C1.84219 5.49011 2.28783 5.30534 2.75259 5.30505H5.24336" stroke="#8192AA" stroke-width="1.34783" stroke-miterlimit="10"/>
<path d="M15.4217 1H6.99625C6.02832 1 5.24365 1.78466 5.24365 2.75259V11.178C5.24365 12.146 6.02832 12.9306 6.99625 12.9306H15.4217C16.3896 12.9306 17.1743 12.146 17.1743 11.178V2.75259C17.1743 1.78466 16.3896 1 15.4217 1Z" stroke="#8192AA" stroke-width="1.34783" stroke-miterlimit="10"/>
</svg>
