<svg width="13" height="15" viewBox="0 0 13 15" fill="none" xmlns="http://www.w3.org/2000/svg">
<path d="M12.9999 6.77373C12.9999 3.19713 10.0736 0.305664 6.497 0.305664C6.23572 0.305664 5.97445 0.305664 5.74801 0.340501C2.82751 0.694677 0.481816 2.97069 0.063772 5.897C-0.261373 8.23688 0.714062 10.5768 2.56623 11.9761V13.3115C2.56623 14.0256 3.15265 14.6121 3.86681 14.6121C4.29066 14.6121 4.71451 14.3856 4.94095 14.0256C5.00482 13.9269 5.06869 13.8979 5.16739 13.8979C5.2661 13.8979 5.3648 13.9618 5.39383 14.0256C5.49254 14.1882 5.62027 14.3159 5.78284 14.4146C6.36927 14.8037 7.18213 14.6411 7.57114 14.0256C7.63501 13.9269 7.69888 13.8979 7.79758 13.8979C7.89629 13.8979 7.99499 13.9618 8.02402 14.0256C8.25046 14.3856 8.63948 14.6121 9.09816 14.6121H9.16203C9.87619 14.583 10.4278 13.9618 10.3987 13.2476V11.9761C12.0593 10.7451 12.9999 8.82331 12.9999 6.77373ZM3.8552 9.7581C2.96685 9.7581 2.24689 9.03813 2.24689 8.14979C2.24689 7.26145 2.96685 6.54148 3.8552 6.54148C4.74354 6.54148 5.4635 7.26145 5.4635 8.14979C5.4635 9.03813 4.74354 9.7581 3.8552 9.7581ZM9.15622 9.7581C8.26788 9.7581 7.54792 9.03813 7.54792 8.14979C7.54792 7.26145 8.26788 6.54148 9.15622 6.54148C10.0446 6.54148 10.7645 7.26145 10.7645 8.14979C10.7587 9.03813 10.0388 9.7581 9.15622 9.7581Z" fill="#96A8C2"/>
</svg>
