<svg width="16" height="14" viewBox="0 0 16 14" fill="none" xmlns="http://www.w3.org/2000/svg">
<path d="M13.5447 1.9432C12.5249 1.47855 11.4313 1.13622 10.2879 0.940154C10.2671 0.936369 10.2463 0.945826 10.2356 0.96474C10.0949 1.21313 9.93915 1.53718 9.83006 1.79189C8.60027 1.60906 7.37679 1.60906 6.17221 1.79189C6.0631 1.53152 5.90166 1.21313 5.76038 0.96474C5.74966 0.946457 5.72886 0.937001 5.70803 0.940154C4.56527 1.1356 3.47171 1.47793 2.45129 1.9432C2.44246 1.94699 2.43488 1.9533 2.42986 1.96149C0.355594 5.03872 -0.212633 8.04032 0.0661201 11.0047C0.0673814 11.0192 0.0755799 11.0331 0.086932 11.0419C1.45547 12.0399 2.78114 12.6458 4.08219 13.0474C4.10301 13.0537 4.12507 13.0461 4.13832 13.0291C4.44608 12.6117 4.72043 12.1717 4.95565 11.7089C4.96953 11.6818 4.95628 11.6497 4.92791 11.6389C4.49275 11.475 4.0784 11.2752 3.67982 11.0482C3.64829 11.0299 3.64577 10.9852 3.67477 10.9637C3.75865 10.9013 3.84255 10.8364 3.92264 10.7708C3.93713 10.7588 3.95732 10.7563 3.97435 10.7639C6.59286 11.951 9.4277 11.951 12.0153 10.7639C12.0323 10.7557 12.0525 10.7582 12.0677 10.7702C12.1478 10.8357 12.2316 10.9013 12.3161 10.9637C12.3451 10.9852 12.3433 11.0299 12.3117 11.0482C11.9131 11.2796 11.4988 11.475 11.063 11.6383C11.0346 11.649 11.022 11.6818 11.0359 11.7089C11.2762 12.171 11.5505 12.6111 11.8526 13.0285C11.8652 13.0461 11.8879 13.0537 11.9087 13.0474C13.2161 12.6458 14.5417 12.0399 15.9103 11.0419C15.9223 11.0331 15.9298 11.0198 15.9311 11.0053C16.2647 7.57818 15.3723 4.6012 13.5655 1.96211C13.5611 1.9533 13.5535 1.94699 13.5447 1.9432ZM5.34668 9.19971C4.55833 9.19971 3.90876 8.481 3.90876 7.59836C3.90876 6.71572 4.54574 5.99702 5.34668 5.99702C6.15392 5.99702 6.79721 6.72203 6.78459 7.59836C6.78459 8.481 6.14761 9.19971 5.34668 9.19971ZM10.6632 9.19971C9.87484 9.19971 9.22526 8.481 9.22526 7.59836C9.22526 6.71572 9.86222 5.99702 10.6632 5.99702C11.4704 5.99702 12.1137 6.72203 12.1011 7.59836C12.1011 8.481 11.4704 9.19971 10.6632 9.19971Z" fill="currentColor"/>
</svg>
