<svg width="18" height="15" viewBox="0 0 18 15" fill="none" xmlns="http://www.w3.org/2000/svg">
  <mask id="path-1-outside-1_216_11463" maskUnits="userSpaceOnUse" x="0" y="-0.619141" width="18" height="16"
    fill="black">
    <rect fill="white" y="-0.619141" width="18" height="16" />
    <path
      d="M16.9656 4.72448C16.8135 3.47861 16.1237 2.31567 15.0726 1.5344C14.0435 0.769401 12.7508 0.434993 11.4221 0.592759C10.5184 0.717221 9.73895 1.02147 9.10024 1.49856C8.85524 1.32445 8.52327 1.10003 8.31875 0.992549C6.18355 -0.130127 3.55015 0.327498 2.05965 2.07876C1.04845 3.25675 0.758967 4.6905 1.19983 6.34122C1.45744 7.30799 2.05433 8.26969 2.85108 9.00638C2.86171 9.44954 3.06223 9.87007 3.4181 10.185C3.6724 10.41 3.98246 10.5546 4.29984 10.603C4.36225 10.9337 4.53289 11.2498 4.7759 11.4604C5.01824 11.6873 5.33695 11.8313 5.67755 11.8753C5.74528 12.2141 5.92854 12.5554 6.18083 12.7748C6.43247 12.9929 6.8262 13.2054 7.23453 13.2783C7.36333 13.6913 7.61564 14.1118 8.2079 14.2991C8.30218 14.3293 8.50204 14.3809 8.75035 14.3809C9.05178 14.3809 9.42426 14.3042 9.76555 14.0182C9.77219 14.0125 9.77949 14.0062 9.78547 13.9999C9.81269 13.9735 9.86315 13.9295 9.92888 13.8711C10.5039 13.3613 10.9361 12.9414 11.1745 12.5843C11.5841 12.6855 12.0675 12.6503 12.3948 12.4108C12.7859 12.1456 12.9572 11.7703 12.9771 11.3988C13.3543 11.3762 13.7301 11.2228 13.9624 11.0059C14.2081 10.7765 14.3721 10.4132 14.3794 10.0505C14.7997 10.0178 15.1775 9.85687 15.4497 9.58531C15.8109 9.2245 15.8368 8.76374 15.7697 8.44442C16.6966 7.37519 17.1308 6.03126 16.9655 4.72443L16.9656 4.72448ZM3.70376 9.01398L5.28266 7.56695C5.361 7.51792 5.76868 7.29414 6.09467 7.66438C6.34698 7.95101 6.24539 8.19994 6.19891 8.28355L4.52241 9.81606C4.3438 9.81229 4.15524 9.73497 3.99922 9.59731C3.81928 9.4389 3.71636 9.23147 3.70375 9.01397L3.70376 9.01398ZM5.12728 10.3818L6.78784 8.86374C6.89938 8.80905 7.28382 8.64498 7.4996 8.84677C7.73199 9.06427 7.70809 9.36221 7.67953 9.50302L5.90943 11.0839C5.73614 11.0839 5.52766 11.0324 5.36232 10.8784C5.23086 10.764 5.14122 10.5666 5.12728 10.3818V10.3818ZM6.50368 11.6597L8.26375 10.0876C8.43173 10.0631 8.78761 10.0424 8.98015 10.258C9.11162 10.4057 9.1083 10.6716 9.08772 10.83L7.40525 12.4889C7.19146 12.455 6.93252 12.3355 6.75656 12.1822C6.61448 12.0602 6.52152 11.8339 6.50359 11.6598L6.50368 11.6597ZM9.34801 13.2847C9.28095 13.3444 9.22717 13.3922 9.19331 13.4236C8.92174 13.6443 8.60304 13.5764 8.47757 13.5368C8.31888 13.4865 8.15622 13.4022 8.04201 13.0226L9.7431 11.3455C9.92304 11.26 10.2145 11.4115 10.3154 11.529C10.4462 11.6799 10.5053 11.9137 10.5259 12.0388C10.4774 12.1652 10.2497 12.4857 9.34805 13.2847L9.34801 13.2847ZM14.8324 9.03222C14.594 9.27047 14.2454 9.26858 14.035 9.23904L11.0225 6.36194C10.8572 6.20417 10.5883 6.20291 10.4216 6.35943C10.255 6.51595 10.2536 6.77053 10.419 6.92832L13.4885 9.86012C13.5782 10.0034 13.5197 10.2901 13.3657 10.4334C13.2223 10.5667 12.8551 10.6547 12.6997 10.561L9.595 7.54874C9.431 7.3897 9.1621 7.38656 8.99411 7.54182C8.82613 7.69709 8.82281 7.95167 8.98681 8.11071L12.1021 11.1336C12.1605 11.3373 12.1359 11.5969 11.8863 11.7666C11.7807 11.8439 11.5284 11.8489 11.3412 11.793C11.2941 11.583 11.1918 11.2738 10.9727 11.0198C10.7649 10.7791 10.3678 10.5421 9.94157 10.5138C9.91965 10.2636 9.83998 9.97762 9.62817 9.73938C9.33005 9.4056 8.91375 9.28742 8.54591 9.27044C8.5333 8.94734 8.42043 8.57835 8.09642 8.27475C7.79631 7.99376 7.43446 7.92022 7.1018 7.94661C7.08255 7.69517 6.98362 7.4186 6.74659 7.14893C6.09459 6.40844 5.17566 6.62657 4.74941 6.93772C4.73679 6.94715 4.72484 6.95658 4.71289 6.96727L3.28472 8.27663C2.67787 7.665 2.2257 6.90567 2.0232 6.14443C1.64606 4.73387 1.8738 3.56971 2.7197 2.58471C3.95134 1.13769 6.1331 0.763741 7.90524 1.69589C8.04467 1.76943 8.27041 1.91966 8.46497 2.05482L5.98505 4.35357C5.89077 4.43214 5.49837 4.7898 5.49439 5.29017C5.4924 5.5152 5.57208 5.84963 5.95917 6.1658C6.84554 6.88869 8.17885 6.80509 9.12883 5.96654C9.47808 5.65852 10.2735 4.92244 10.7124 4.51449L14.9279 8.57145C14.9524 8.66762 14.9783 8.88574 14.8323 9.03221L14.8324 9.03222ZM15.2646 7.74863L11.0205 3.66334C10.9415 3.58728 10.834 3.54391 10.7211 3.54328H10.7178C10.6062 3.54328 10.4993 3.58477 10.4197 3.65894C10.4057 3.67214 9.02669 4.95762 8.54996 5.37757C7.92252 5.93136 7.06667 6.00616 6.51487 5.5561C6.402 5.46432 6.3449 5.37694 6.3449 5.29774C6.34423 5.16699 6.48234 5.01046 6.54674 4.95767C6.55537 4.95075 6.56334 4.94384 6.57131 4.93692L9.40901 2.30749C9.96474 1.81655 10.6838 1.50728 11.5371 1.38974C12.6286 1.25962 13.6997 1.5362 14.5482 2.16668C15.4226 2.81665 15.9962 3.78216 16.1224 4.81816C16.2505 5.83523 15.9398 6.8818 15.2646 7.74868L15.2646 7.74863Z" />
  </mask>
  <path
    d="M16.9656 4.72448C16.8135 3.47861 16.1237 2.31567 15.0726 1.5344C14.0435 0.769401 12.7508 0.434993 11.4221 0.592759C10.5184 0.717221 9.73895 1.02147 9.10024 1.49856C8.85524 1.32445 8.52327 1.10003 8.31875 0.992549C6.18355 -0.130127 3.55015 0.327498 2.05965 2.07876C1.04845 3.25675 0.758967 4.6905 1.19983 6.34122C1.45744 7.30799 2.05433 8.26969 2.85108 9.00638C2.86171 9.44954 3.06223 9.87007 3.4181 10.185C3.6724 10.41 3.98246 10.5546 4.29984 10.603C4.36225 10.9337 4.53289 11.2498 4.7759 11.4604C5.01824 11.6873 5.33695 11.8313 5.67755 11.8753C5.74528 12.2141 5.92854 12.5554 6.18083 12.7748C6.43247 12.9929 6.8262 13.2054 7.23453 13.2783C7.36333 13.6913 7.61564 14.1118 8.2079 14.2991C8.30218 14.3293 8.50204 14.3809 8.75035 14.3809C9.05178 14.3809 9.42426 14.3042 9.76555 14.0182C9.77219 14.0125 9.77949 14.0062 9.78547 13.9999C9.81269 13.9735 9.86315 13.9295 9.92888 13.8711C10.5039 13.3613 10.9361 12.9414 11.1745 12.5843C11.5841 12.6855 12.0675 12.6503 12.3948 12.4108C12.7859 12.1456 12.9572 11.7703 12.9771 11.3988C13.3543 11.3762 13.7301 11.2228 13.9624 11.0059C14.2081 10.7765 14.3721 10.4132 14.3794 10.0505C14.7997 10.0178 15.1775 9.85687 15.4497 9.58531C15.8109 9.2245 15.8368 8.76374 15.7697 8.44442C16.6966 7.37519 17.1308 6.03126 16.9655 4.72443L16.9656 4.72448ZM3.70376 9.01398L5.28266 7.56695C5.361 7.51792 5.76868 7.29414 6.09467 7.66438C6.34698 7.95101 6.24539 8.19994 6.19891 8.28355L4.52241 9.81606C4.3438 9.81229 4.15524 9.73497 3.99922 9.59731C3.81928 9.4389 3.71636 9.23147 3.70375 9.01397L3.70376 9.01398ZM5.12728 10.3818L6.78784 8.86374C6.89938 8.80905 7.28382 8.64498 7.4996 8.84677C7.73199 9.06427 7.70809 9.36221 7.67953 9.50302L5.90943 11.0839C5.73614 11.0839 5.52766 11.0324 5.36232 10.8784C5.23086 10.764 5.14122 10.5666 5.12728 10.3818V10.3818ZM6.50368 11.6597L8.26375 10.0876C8.43173 10.0631 8.78761 10.0424 8.98015 10.258C9.11162 10.4057 9.1083 10.6716 9.08772 10.83L7.40525 12.4889C7.19146 12.455 6.93252 12.3355 6.75656 12.1822C6.61448 12.0602 6.52152 11.8339 6.50359 11.6598L6.50368 11.6597ZM9.34801 13.2847C9.28095 13.3444 9.22717 13.3922 9.19331 13.4236C8.92174 13.6443 8.60304 13.5764 8.47757 13.5368C8.31888 13.4865 8.15622 13.4022 8.04201 13.0226L9.7431 11.3455C9.92304 11.26 10.2145 11.4115 10.3154 11.529C10.4462 11.6799 10.5053 11.9137 10.5259 12.0388C10.4774 12.1652 10.2497 12.4857 9.34805 13.2847L9.34801 13.2847ZM14.8324 9.03222C14.594 9.27047 14.2454 9.26858 14.035 9.23904L11.0225 6.36194C10.8572 6.20417 10.5883 6.20291 10.4216 6.35943C10.255 6.51595 10.2536 6.77053 10.419 6.92832L13.4885 9.86012C13.5782 10.0034 13.5197 10.2901 13.3657 10.4334C13.2223 10.5667 12.8551 10.6547 12.6997 10.561L9.595 7.54874C9.431 7.3897 9.1621 7.38656 8.99411 7.54182C8.82613 7.69709 8.82281 7.95167 8.98681 8.11071L12.1021 11.1336C12.1605 11.3373 12.1359 11.5969 11.8863 11.7666C11.7807 11.8439 11.5284 11.8489 11.3412 11.793C11.2941 11.583 11.1918 11.2738 10.9727 11.0198C10.7649 10.7791 10.3678 10.5421 9.94157 10.5138C9.91965 10.2636 9.83998 9.97762 9.62817 9.73938C9.33005 9.4056 8.91375 9.28742 8.54591 9.27044C8.5333 8.94734 8.42043 8.57835 8.09642 8.27475C7.79631 7.99376 7.43446 7.92022 7.1018 7.94661C7.08255 7.69517 6.98362 7.4186 6.74659 7.14893C6.09459 6.40844 5.17566 6.62657 4.74941 6.93772C4.73679 6.94715 4.72484 6.95658 4.71289 6.96727L3.28472 8.27663C2.67787 7.665 2.2257 6.90567 2.0232 6.14443C1.64606 4.73387 1.8738 3.56971 2.7197 2.58471C3.95134 1.13769 6.1331 0.763741 7.90524 1.69589C8.04467 1.76943 8.27041 1.91966 8.46497 2.05482L5.98505 4.35357C5.89077 4.43214 5.49837 4.7898 5.49439 5.29017C5.4924 5.5152 5.57208 5.84963 5.95917 6.1658C6.84554 6.88869 8.17885 6.80509 9.12883 5.96654C9.47808 5.65852 10.2735 4.92244 10.7124 4.51449L14.9279 8.57145C14.9524 8.66762 14.9783 8.88574 14.8323 9.03221L14.8324 9.03222ZM15.2646 7.74863L11.0205 3.66334C10.9415 3.58728 10.834 3.54391 10.7211 3.54328H10.7178C10.6062 3.54328 10.4993 3.58477 10.4197 3.65894C10.4057 3.67214 9.02669 4.95762 8.54996 5.37757C7.92252 5.93136 7.06667 6.00616 6.51487 5.5561C6.402 5.46432 6.3449 5.37694 6.3449 5.29774C6.34423 5.16699 6.48234 5.01046 6.54674 4.95767C6.55537 4.95075 6.56334 4.94384 6.57131 4.93692L9.40901 2.30749C9.96474 1.81655 10.6838 1.50728 11.5371 1.38974C12.6286 1.25962 13.6997 1.5362 14.5482 2.16668C15.4226 2.81665 15.9962 3.78216 16.1224 4.81816C16.2505 5.83523 15.9398 6.8818 15.2646 7.74868L15.2646 7.74863Z"
    fill="#B2D1FF" />
  <path
    d="M16.9656 4.72448C16.8135 3.47861 16.1237 2.31567 15.0726 1.5344C14.0435 0.769401 12.7508 0.434993 11.4221 0.592759C10.5184 0.717221 9.73895 1.02147 9.10024 1.49856C8.85524 1.32445 8.52327 1.10003 8.31875 0.992549C6.18355 -0.130127 3.55015 0.327498 2.05965 2.07876C1.04845 3.25675 0.758967 4.6905 1.19983 6.34122C1.45744 7.30799 2.05433 8.26969 2.85108 9.00638C2.86171 9.44954 3.06223 9.87007 3.4181 10.185C3.6724 10.41 3.98246 10.5546 4.29984 10.603C4.36225 10.9337 4.53289 11.2498 4.7759 11.4604C5.01824 11.6873 5.33695 11.8313 5.67755 11.8753C5.74528 12.2141 5.92854 12.5554 6.18083 12.7748C6.43247 12.9929 6.8262 13.2054 7.23453 13.2783C7.36333 13.6913 7.61564 14.1118 8.2079 14.2991C8.30218 14.3293 8.50204 14.3809 8.75035 14.3809C9.05178 14.3809 9.42426 14.3042 9.76555 14.0182C9.77219 14.0125 9.77949 14.0062 9.78547 13.9999C9.81269 13.9735 9.86315 13.9295 9.92888 13.8711C10.5039 13.3613 10.9361 12.9414 11.1745 12.5843C11.5841 12.6855 12.0675 12.6503 12.3948 12.4108C12.7859 12.1456 12.9572 11.7703 12.9771 11.3988C13.3543 11.3762 13.7301 11.2228 13.9624 11.0059C14.2081 10.7765 14.3721 10.4132 14.3794 10.0505C14.7997 10.0178 15.1775 9.85687 15.4497 9.58531C15.8109 9.2245 15.8368 8.76374 15.7697 8.44442C16.6966 7.37519 17.1308 6.03126 16.9655 4.72443L16.9656 4.72448ZM3.70376 9.01398L5.28266 7.56695C5.361 7.51792 5.76868 7.29414 6.09467 7.66438C6.34698 7.95101 6.24539 8.19994 6.19891 8.28355L4.52241 9.81606C4.3438 9.81229 4.15524 9.73497 3.99922 9.59731C3.81928 9.4389 3.71636 9.23147 3.70375 9.01397L3.70376 9.01398ZM5.12728 10.3818L6.78784 8.86374C6.89938 8.80905 7.28382 8.64498 7.4996 8.84677C7.73199 9.06427 7.70809 9.36221 7.67953 9.50302L5.90943 11.0839C5.73614 11.0839 5.52766 11.0324 5.36232 10.8784C5.23086 10.764 5.14122 10.5666 5.12728 10.3818V10.3818ZM6.50368 11.6597L8.26375 10.0876C8.43173 10.0631 8.78761 10.0424 8.98015 10.258C9.11162 10.4057 9.1083 10.6716 9.08772 10.83L7.40525 12.4889C7.19146 12.455 6.93252 12.3355 6.75656 12.1822C6.61448 12.0602 6.52152 11.8339 6.50359 11.6598L6.50368 11.6597ZM9.34801 13.2847C9.28095 13.3444 9.22717 13.3922 9.19331 13.4236C8.92174 13.6443 8.60304 13.5764 8.47757 13.5368C8.31888 13.4865 8.15622 13.4022 8.04201 13.0226L9.7431 11.3455C9.92304 11.26 10.2145 11.4115 10.3154 11.529C10.4462 11.6799 10.5053 11.9137 10.5259 12.0388C10.4774 12.1652 10.2497 12.4857 9.34805 13.2847L9.34801 13.2847ZM14.8324 9.03222C14.594 9.27047 14.2454 9.26858 14.035 9.23904L11.0225 6.36194C10.8572 6.20417 10.5883 6.20291 10.4216 6.35943C10.255 6.51595 10.2536 6.77053 10.419 6.92832L13.4885 9.86012C13.5782 10.0034 13.5197 10.2901 13.3657 10.4334C13.2223 10.5667 12.8551 10.6547 12.6997 10.561L9.595 7.54874C9.431 7.3897 9.1621 7.38656 8.99411 7.54182C8.82613 7.69709 8.82281 7.95167 8.98681 8.11071L12.1021 11.1336C12.1605 11.3373 12.1359 11.5969 11.8863 11.7666C11.7807 11.8439 11.5284 11.8489 11.3412 11.793C11.2941 11.583 11.1918 11.2738 10.9727 11.0198C10.7649 10.7791 10.3678 10.5421 9.94157 10.5138C9.91965 10.2636 9.83998 9.97762 9.62817 9.73938C9.33005 9.4056 8.91375 9.28742 8.54591 9.27044C8.5333 8.94734 8.42043 8.57835 8.09642 8.27475C7.79631 7.99376 7.43446 7.92022 7.1018 7.94661C7.08255 7.69517 6.98362 7.4186 6.74659 7.14893C6.09459 6.40844 5.17566 6.62657 4.74941 6.93772C4.73679 6.94715 4.72484 6.95658 4.71289 6.96727L3.28472 8.27663C2.67787 7.665 2.2257 6.90567 2.0232 6.14443C1.64606 4.73387 1.8738 3.56971 2.7197 2.58471C3.95134 1.13769 6.1331 0.763741 7.90524 1.69589C8.04467 1.76943 8.27041 1.91966 8.46497 2.05482L5.98505 4.35357C5.89077 4.43214 5.49837 4.7898 5.49439 5.29017C5.4924 5.5152 5.57208 5.84963 5.95917 6.1658C6.84554 6.88869 8.17885 6.80509 9.12883 5.96654C9.47808 5.65852 10.2735 4.92244 10.7124 4.51449L14.9279 8.57145C14.9524 8.66762 14.9783 8.88574 14.8323 9.03221L14.8324 9.03222ZM15.2646 7.74863L11.0205 3.66334C10.9415 3.58728 10.834 3.54391 10.7211 3.54328H10.7178C10.6062 3.54328 10.4993 3.58477 10.4197 3.65894C10.4057 3.67214 9.02669 4.95762 8.54996 5.37757C7.92252 5.93136 7.06667 6.00616 6.51487 5.5561C6.402 5.46432 6.3449 5.37694 6.3449 5.29774C6.34423 5.16699 6.48234 5.01046 6.54674 4.95767C6.55537 4.95075 6.56334 4.94384 6.57131 4.93692L9.40901 2.30749C9.96474 1.81655 10.6838 1.50728 11.5371 1.38974C12.6286 1.25962 13.6997 1.5362 14.5482 2.16668C15.4226 2.81665 15.9962 3.78216 16.1224 4.81816C16.2505 5.83523 15.9398 6.8818 15.2646 7.74868L15.2646 7.74863Z"
    stroke="#B2D1FF" stroke-width="0.2" mask="url(#path-1-outside-1_216_11463)" />
</svg>