<svg width="13" height="12" viewBox="0 0 13 12" fill="none" xmlns="http://www.w3.org/2000/svg">
<path d="M12.9997 3.37513C12.9997 4.23902 12.6701 5.10261 12.0111 5.76157L11.2725 6.50015L6.95548 10.8172C6.70364 11.069 6.2956 11.069 6.04376 10.8172L1.72703 6.50015L0.988451 5.76157C-0.329484 4.44364 -0.329484 2.30661 0.988451 0.988678C1.64742 0.329408 2.5107 7.56611e-05 3.3749 7.56611e-05C4.23909 7.56611e-05 5.10238 0.329408 5.76135 0.988678L6.49992 1.72725L7.2385 0.988678C8.55643 -0.329559 10.6935 -0.329559 12.0114 0.988678C12.6704 1.64765 13 2.51123 13 3.37513H12.9997Z" fill="#4FFF8B"/>
</svg>
