<svg width="13" height="12" viewBox="0 0 13 12" fill="none" xmlns="http://www.w3.org/2000/svg">
<path d="M11.6578 1.34223C12.2087 1.89305 12.4892 2.61065 12.4997 3.33319V3.37513C12.4997 4.11177 12.219 4.84655 11.6575 5.40802L10.919 6.1466L6.60193 10.4636C6.54535 10.5202 6.45391 10.5202 6.39733 10.4636C6.39732 10.4636 6.39732 10.4636 6.39732 10.4636L2.08059 6.14661L2.08058 6.1466L1.342 5.40802C0.219332 4.28535 0.219332 2.4649 1.342 1.34223L1.34209 1.34215C1.90347 0.780507 2.63787 0.500076 3.3749 0.500076C4.11193 0.500076 4.84633 0.780507 5.40771 1.34215L5.40779 1.34223L6.14637 2.08081L6.49992 2.43436L6.85348 2.08081L7.59205 1.34223L7.59209 1.34219C8.71476 0.21927 10.5351 0.21927 11.6578 1.34219L11.6578 1.34223Z" stroke="#4F617B" stroke-miterlimit="10"/>
</svg>
