<svg width="19" height="19" viewBox="0 0 19 19" fill="none" xmlns="http://www.w3.org/2000/svg">
<path d="M9.9971 0.414016C6.456 0.414016 3.40292 2.67609 2.06985 5.91344L1.46317 4.7635V4.76331C1.39564 4.62724 1.29417 4.51394 1.16976 4.43616C1.04554 4.35818 0.903438 4.3188 0.759352 4.32228C0.485083 4.32884 0.234304 4.48962 0.0997491 4.74536C-0.0347691 5.00091 -0.0331421 5.31338 0.104083 5.56741L1.5278 8.29118C1.62674 8.47898 1.79015 8.61814 1.98335 8.67952C2.17655 8.7407 2.38455 8.71947 2.56331 8.61988L5.09508 7.23637C5.28719 7.14219 5.43526 6.96828 5.50477 6.75481C5.57429 6.54134 5.5593 6.30683 5.46342 6.10531C5.36755 5.90378 5.19908 5.75287 4.99666 5.68725C4.79424 5.62162 4.57578 5.6471 4.39123 5.7577L3.67949 6.14681C4.85203 3.73477 7.23233 2.07407 9.99725 2.07407C13.9293 2.07407 17.0916 5.41508 17.0916 9.54499C17.0916 13.6749 13.9296 17.0159 9.99725 17.0159C6.63347 17.0159 3.83573 14.5517 3.09754 11.2655L3.09736 11.2657C3.04988 11.0503 2.92421 10.8642 2.74798 10.7482C2.57176 10.6324 2.35942 10.5963 2.15827 10.648C1.95712 10.6997 1.78343 10.835 1.67579 11.024C1.56818 11.213 1.5355 11.4399 1.58479 11.6548C2.4903 15.6845 5.92323 18.6761 9.99738 18.6761C14.7574 18.6761 18.6443 14.584 18.6443 9.54494C18.6443 4.50582 14.7574 0.413818 9.99738 0.413818L9.9971 0.414016ZM10.0942 4.27058V4.27039C9.88678 4.2727 9.68889 4.36361 9.54442 4.52285C9.40015 4.68189 9.32143 4.89613 9.32558 5.1179V9.54521V9.54502C9.32558 9.79728 9.43265 10.036 9.61682 10.1937L12.2053 12.4074V12.4072C12.3662 12.5448 12.5717 12.6085 12.7766 12.5842C12.9813 12.5599 13.1688 12.4496 13.2975 12.2777C13.4263 12.1055 13.4857 11.8859 13.4629 11.667C13.4402 11.4481 13.3371 11.2478 13.176 11.1102L10.8788 9.14721V5.11771V5.1179C10.8831 4.89323 10.8022 4.67629 10.6543 4.51667C10.5064 4.35686 10.3044 4.26807 10.0942 4.27039V4.27058Z" fill="currentColor"/>
</svg>
