<svg width="12" height="6" viewBox="0 0 12 6" fill="none" xmlns="http://www.w3.org/2000/svg">
<path d="M3.35316 0.342329C3.67702 0.342329 3.97248 0.389204 4.23952 0.482954C4.50941 0.576704 4.75231 0.698864 4.96822 0.849432C5.18697 0.997159 5.37873 1.15057 5.5435 1.30966C5.63441 1.39489 5.7168 1.47869 5.79066 1.56108C5.86452 1.64347 5.93555 1.72585 6.00373 1.80824C6.06623 1.72585 6.13015 1.64631 6.19549 1.5696C6.26367 1.49006 6.3489 1.40341 6.45117 1.30966C6.69833 1.06818 7.00515 0.846591 7.37163 0.644886C7.74094 0.443181 8.1685 0.342329 8.6543 0.342329C9.10884 0.342329 9.52219 0.453125 9.89435 0.674716C10.2694 0.893466 10.5662 1.1875 10.785 1.55682C11.0066 1.92614 11.1174 2.33523 11.1174 2.78409C11.1174 3.125 11.0534 3.4446 10.9256 3.7429C10.7978 4.03835 10.6216 4.2983 10.3972 4.52273C10.1728 4.74432 9.9114 4.91903 9.6131 5.04688C9.31481 5.17188 8.99521 5.23438 8.6543 5.23438C8.33043 5.23438 8.03214 5.18892 7.75941 5.09801C7.48952 5.00426 7.24521 4.88494 7.02646 4.74006C6.81055 4.59517 6.62021 4.44602 6.45543 4.29261C6.36168 4.19886 6.27788 4.1108 6.20401 4.02841C6.13299 3.94318 6.06623 3.85937 6.00373 3.77699C5.93271 3.85937 5.86026 3.94318 5.7864 4.02841C5.71254 4.11364 5.63015 4.2017 5.53924 4.29261C5.37731 4.44602 5.18697 4.59517 4.96822 4.74006C4.75231 4.8821 4.50941 5 4.23952 5.09375C3.97248 5.1875 3.67702 5.23438 3.35316 5.23438C2.89293 5.23438 2.47674 5.125 2.10458 4.90625C1.73242 4.6875 1.43555 4.39347 1.21396 4.02415C0.992365 3.65199 0.88157 3.23864 0.88157 2.78409C0.88157 2.44602 0.94407 2.13068 1.06907 1.83807C1.19691 1.54261 1.37305 1.28267 1.59748 1.05824C1.82475 0.833807 2.08754 0.659091 2.38583 0.534091C2.68697 0.40625 3.00941 0.342329 3.35316 0.342329ZM2.05771 2.78409C2.05771 3.01989 2.11594 3.23438 2.23242 3.42756C2.3489 3.62074 2.50515 3.77415 2.70117 3.88778C2.89719 4.00142 3.11452 4.05824 3.35316 4.05824C3.62021 4.05824 3.86594 3.99858 4.09038 3.87926C4.31481 3.75994 4.52362 3.60937 4.7168 3.42756C4.83896 3.31108 4.94407 3.19886 5.03214 3.09091C5.12021 2.98295 5.19691 2.88068 5.26225 2.78409C5.19407 2.69318 5.1131 2.59233 5.01935 2.48153C4.92844 2.3679 4.82759 2.25994 4.7168 2.15767C4.53498 1.97869 4.32901 1.82812 4.0989 1.70597C3.86879 1.58097 3.62021 1.51847 3.35316 1.51847C3.11452 1.51847 2.89719 1.5767 2.70117 1.69318C2.50515 1.80682 2.3489 1.96023 2.23242 2.15341C2.11594 2.34375 2.05771 2.55398 2.05771 2.78409ZM9.93271 2.78409C9.93271 2.55398 9.87447 2.34375 9.75799 2.15341C9.64435 1.96023 9.49095 1.80682 9.29776 1.69318C9.10458 1.5767 8.89009 1.51847 8.6543 1.51847C8.47248 1.51847 8.29918 1.54687 8.13441 1.60369C7.96964 1.66051 7.81481 1.73722 7.66992 1.83381C7.52788 1.9304 7.39719 2.03835 7.27788 2.15767C7.15004 2.27699 7.03782 2.39915 6.94123 2.52415C6.84464 2.64631 6.77504 2.73295 6.73242 2.78409C6.80344 2.88352 6.88299 2.98722 6.97106 3.09517C7.05913 3.20028 7.1614 3.31108 7.27788 3.42756C7.46822 3.60937 7.6756 3.75994 7.90004 3.87926C8.12731 3.99858 8.37873 4.05824 8.6543 4.05824C8.89009 4.05824 9.10458 4.00142 9.29776 3.88778C9.49095 3.77415 9.64435 3.62074 9.75799 3.42756C9.87447 3.23438 9.93271 3.01989 9.93271 2.78409Z" fill="#4F617B"/>
</svg>
