<svg width="15" height="18" viewBox="0 0 15 18" fill="none" xmlns="http://www.w3.org/2000/svg">
  <path fill-rule="evenodd" clip-rule="evenodd"
    d="M13.3685 18H1.63137C0.730717 18 0 17.2534 0 16.3332V7.66753C0 6.74735 0.730717 6.00079 1.63137 6.00079H1.94573V5.67416H1.95635C1.95742 2.5404 4.44482 0 7.51225 0C10.5806 0 13.0415 2.54134 13.0415 5.67638C13.0415 5.7914 13.0458 5.89775 13.0458 6.00193H13.3676C14.2682 6.00193 14.9989 6.74849 14.9989 7.66867L15 16.3333C15 17.2545 14.2703 18 13.3686 18L13.3685 18ZM7.52387 2.00087C5.542 2.00087 3.93513 3.64267 3.93405 5.66744H3.92767V6.00165L11.0978 6.00056V5.97452C11.1074 5.87794 11.1137 5.77811 11.1137 5.66851C11.1137 3.64258 9.50679 2.00083 7.52392 2.00083L7.52387 2.00087ZM13.052 8.67536C13.052 8.30751 12.76 8.0091 12.3999 8.0091H2.60328C2.24324 8.0091 1.95117 8.30751 1.95117 8.67536V15.3368C1.95117 15.7046 2.24324 16.003 2.60328 16.003H12.3999C12.76 16.003 13.052 15.7046 13.052 15.3368V8.67536ZM7.65982 13.9937H7.33376C6.88451 13.9937 6.52126 13.6215 6.52126 13.1635V10.8598C6.52126 10.4008 6.88555 10.0297 7.33376 10.0297H7.65982C8.10907 10.0297 8.47232 10.4019 8.47232 10.8598V13.1635C8.47232 13.6225 8.10804 13.9937 7.65982 13.9937Z"
    fill="currentColor" />
</svg>