<svg width="10" height="12" viewBox="0 0 10 12" fill="none" xmlns="http://www.w3.org/2000/svg">
<path d="M9.4 5.875C9.4 5.22699 8.87301 4.7 8.225 4.7H7.6375V2.9375C7.6375 1.31776 6.31974 0 4.7 0C3.08026 0 1.7625 1.31776 1.7625 2.9375V4.7H1.175C0.526987 4.7 0 5.22699 0 5.875V10.575C0 11.223 0.526987 11.75 1.175 11.75H8.225C8.87301 11.75 9.4 11.223 9.4 10.575V5.875ZM2.9375 2.9375C2.9375 1.96578 3.72828 1.175 4.7 1.175C5.67173 1.175 6.4625 1.96578 6.4625 2.9375V4.7H2.9375V2.9375Z" fill="#8192AA"/>
</svg>
