<svg width="15" height="15" viewBox="0 0 15 15" fill="none" xmlns="http://www.w3.org/2000/svg">
<path d="M10.79 5.7101L10.7899 5.71007C10.6679 5.58805 10.5994 5.42256 10.5994 5.25C10.5994 5.07744 10.6679 4.91195 10.7899 4.78993C10.912 4.66792 11.0774 4.59937 11.25 4.59937C11.4226 4.59937 11.588 4.66792 11.7101 4.78993L13.9599 7.0398L13.9601 7.03993L13.854 7.146C13.9006 7.19245 13.9375 7.24762 13.9627 7.30837C13.9879 7.36911 14.0009 7.43423 14.0009 7.5C14.0009 7.56577 13.9879 7.63089 13.9627 7.69163C13.9375 7.75238 13.9006 7.80755 13.854 7.854L10.79 5.7101ZM10.79 5.7101L11.9307 6.85H5.5C5.32761 6.85 5.16228 6.91848 5.04038 7.04038C4.91848 7.16228 4.85 7.32761 4.85 7.5C4.85 7.67239 4.91848 7.83772 5.04038 7.95962C5.16228 8.08152 5.32761 8.15 5.5 8.15H11.9307L10.79 9.2899L10.7899 9.28993C10.6679 9.41195 10.5994 9.57744 10.5994 9.75C10.5994 9.92256 10.6679 10.088 10.7899 10.2101C10.912 10.3321 11.0774 10.4006 11.25 10.4006C11.4226 10.4006 11.588 10.3321 11.7101 10.2101L13.9599 7.9602L10.79 5.7101ZM2 0.85C1.695 0.85 1.40249 0.97116 1.18683 1.18683C0.97116 1.40249 0.85 1.695 0.85 2V13C0.85 13.305 0.97116 13.5975 1.18683 13.8132C1.40249 14.0288 1.695 14.15 2 14.15H9.5C9.67239 14.15 9.83772 14.0815 9.95962 13.9596C10.0815 13.8377 10.15 13.6724 10.15 13.5C10.15 13.3276 10.0815 13.1623 9.95962 13.0404C9.83772 12.9185 9.67239 12.85 9.5 12.85H2.15V2.15H9.5C9.67239 2.15 9.83772 2.08152 9.95962 1.95962C10.0815 1.83772 10.15 1.67239 10.15 1.5C10.15 1.32761 10.0815 1.16228 9.95962 1.04038C9.83772 0.918482 9.67239 0.85 9.5 0.85H2Z" fill="#5E6E88" stroke="#5E6E88" stroke-width="0.3"/>
</svg>
