<svg width="13" height="18" viewBox="0 0 13 18" fill="none" xmlns="http://www.w3.org/2000/svg">
  <path
    d="M11.4188 3.29286L1.16682 10.3637C0.45953 10.717 0.45953 10.717 1.16682 11.4243C1.52013 12.1316 1.52013 12.1316 1.87411 11.7776L12.4801 4.35346C12.8334 4.00015 12.8334 4.00015 12.4801 3.29286C12.1261 2.58623 12.1261 2.58623 11.4188 3.29286H11.4188ZM6.82312 0.818359C5.40921 0.818359 3.99463 1.87896 3.99463 3.64685V6.64571L9.5396 2.82162C9.179 1.55419 8.00108 0.818359 6.82312 0.818359V0.818359ZM9.6516 4.56558L3.99463 8.5256V9.30314C3.99463 11.071 5.40853 12.1316 6.82312 12.1316C8.2377 12.1316 9.6516 11.071 9.6516 9.30314V4.56558ZM11.7728 7.88924C11.0655 7.88924 11.0655 7.88924 11.0655 8.59653V9.30316C11.0655 11.7777 9.29762 13.5455 6.82312 13.5455C5.46555 13.5455 4.32011 13.008 3.64132 12.1316L2.42494 12.9092C3.27342 13.8849 4.51763 14.6061 6.11582 14.9595V17.0806C6.11582 17.7879 6.11582 17.7879 6.82312 17.7879C7.53041 17.7879 7.53041 17.7879 7.53041 17.0806V14.9595C10.7122 14.2528 12.4794 12.1316 12.4794 9.30316V8.59587C12.4794 7.88924 12.4794 7.88924 11.7728 7.88924H11.7728Z"
    fill="currentColor" />
</svg>