<svg width="18" height="18" viewBox="0 0 18 18" fill="none" xmlns="http://www.w3.org/2000/svg">
<path d="M16.0085 1.75027L16.0087 1.75026C16.2527 1.74283 16.4754 1.88629 16.5704 2.11026L16.5704 2.11043C16.6652 2.33417 16.6132 2.59317 16.4394 2.76303L2.13037 17.0722C2.02046 17.1847 1.86995 17.2489 1.71238 17.25C1.71227 17.25 1.71215 17.25 1.71204 17.25L1.71042 17C1.61914 17.0007 1.53144 16.9648 1.46691 16.9003C1.40237 16.8357 1.36648 16.748 1.3672 16.6568L16.0085 1.75027ZM16.0085 1.75027C15.856 1.75498 15.7111 1.81847 15.6042 1.92753L16.0085 1.75027Z" fill="#4F617B" stroke="#4F617B" stroke-width="0.5"/>
<path d="M4.60772 0.77764L4.60589 0.775492L4.48891 0.776623C4.01413 0.781215 3.53302 0.875773 3.07062 1.06994H3.06965L3.02189 1.09074C1.12662 1.91641 0.246557 4.11957 1.0436 6.02048V6.02137L1.06431 6.06903C1.88818 7.96502 4.09329 8.84475 5.9925 8.04767H5.9935L6.04126 8.02687C7.95277 7.19419 8.83146 4.96039 7.99889 3.04879L7.97997 3.00534L7.97929 3.00466C7.36332 1.63626 6.02202 0.808706 4.60772 0.77764ZM1.08551 6.1078C1.08483 6.10678 1.08408 6.10565 1.08328 6.1044L1.08785 6.11122L1.08551 6.1078ZM6.81873 3.52251L6.83328 3.55591C7.38713 4.82725 6.81525 6.29275 5.5496 6.85453L5.53299 6.86177C4.26366 7.41539 2.79615 6.843 2.23667 5.5779L2.22954 5.56154C1.67566 4.29014 2.24764 2.82455 3.51342 2.26284L3.52982 2.25569C3.84891 2.11654 4.18004 2.0488 4.50584 2.04502L4.50584 2.045C5.47289 2.03391 6.39604 2.58668 6.81873 3.52251Z" fill="#4F617B" stroke="#4F617B" stroke-width="0.5"/>
<path d="M10.3074 15.3146L10.3073 15.3143C9.47689 13.4029 10.3549 11.1674 12.2654 10.3362M10.3074 15.3146L13.7327 10.0222C13.241 10.0269 12.7429 10.1282 12.2654 10.3362M10.3074 15.3146C11.1403 17.2242 13.3739 18.1025 15.2856 17.2701C17.1976 16.4392 18.0765 14.2034 17.2436 12.2935C16.6187 10.8594 15.2056 10.0077 13.7327 10.0222L10.3074 15.3146ZM12.2654 10.3362L12.3651 10.5655L12.2653 10.3363C12.2653 10.3363 12.2654 10.3362 12.2654 10.3362ZM16.0784 12.8014L16.0785 12.8015C16.6344 14.0761 16.0549 15.5507 14.7789 16.105L14.7786 16.1051C13.5019 16.6612 12.0289 16.082 11.4728 14.8075C10.9185 13.5304 11.4985 12.0559 12.7723 11.502L12.7724 11.502C13.0925 11.3625 13.4241 11.2942 13.7498 11.2903C14.7285 11.2785 15.6612 11.8436 16.0784 12.8014Z" fill="#4F617B" stroke="#4F617B" stroke-width="0.5"/>
</svg>
