<svg width="18" height="15" viewBox="0 0 18 15" fill="none" xmlns="http://www.w3.org/2000/svg">
<path d="M4.46443 5.24141C4.57249 5.34947 4.74845 5.34947 4.8565 5.24141L6.519 3.57891C6.62706 3.47085 6.62706 3.29489 6.519 3.18684L3.74816 0.416009C3.6401 0.307945 3.46415 0.307945 3.3561 0.416009L1.6936 2.07851C1.58553 2.18657 1.58553 2.36253 1.6936 2.47058L4.46443 5.24141ZM3.55214 1.00403L5.93089 3.38278L4.66046 4.65321L2.2817 2.27446L3.55214 1.00403Z" fill="#4FFF8B"/>
<path d="M4.93743 2.82834C4.93743 2.49239 4.73516 2.18897 4.42414 2.06014C4.1138 1.93198 3.75637 2.00264 3.51807 2.24024C3.28048 2.47854 3.20981 2.83597 3.33797 3.1463C3.46681 3.45733 3.77022 3.65959 4.10618 3.65959C4.56544 3.65959 4.93743 3.2876 4.93743 2.82834ZM4.10618 3.10543C3.99396 3.10543 3.89283 3.03823 3.84988 2.93433C3.80762 2.83112 3.83118 2.71197 3.91014 2.63231C3.98981 2.55334 4.10895 2.52979 4.21216 2.57205C4.31607 2.615 4.38326 2.71613 4.38326 2.82835C4.38326 2.90177 4.35417 2.97243 4.30221 3.02439C4.25026 3.07635 4.1796 3.10544 4.10617 3.10544L4.10618 3.10543Z" fill="#4FFF8B"/>
<path d="M6.51899 9.83711L4.96732 8.28544L5.48339 6.2211C5.51872 6.07633 5.43283 5.92948 5.28943 5.8886L1.41026 4.78027C1.33752 4.75949 1.26063 4.76919 1.19553 4.80659C1.13041 4.844 1.08331 4.90634 1.0653 4.97908L0.51113 7.19575C0.47511 7.34121 0.561005 7.48806 0.705097 7.52825L4.13118 8.50773L1.69284 10.9461C1.58478 11.0541 1.58478 11.2294 1.69284 11.3381L3.35534 13.0006C3.46341 13.1087 3.63867 13.1087 3.74741 13.0006L6.51824 10.2298C6.5702 10.1778 6.59929 10.1072 6.59999 10.0338C6.59999 9.95963 6.57089 9.88898 6.51894 9.83702L6.51899 9.83711ZM1.53503 5.39065L4.8822 6.34797L4.46242 8.02639L1.11525 7.06838L1.53503 5.39065ZM3.5522 12.412L2.28176 11.1416L4.66051 8.76281L5.93095 10.0332L3.5522 12.412Z" fill="#4FFF8B"/>
<path d="M3.2749 10.5871C3.2749 10.9231 3.47717 11.2265 3.78819 11.3553C4.09853 11.4835 4.45596 11.4128 4.69426 11.1752C4.93185 10.9369 5.00252 10.5795 4.87436 10.2692C4.74552 9.95813 4.44211 9.75586 4.10615 9.75586C3.64689 9.75586 3.2749 10.1279 3.2749 10.5871ZM4.38324 10.5871C4.38324 10.6993 4.31604 10.8005 4.21214 10.8434C4.10892 10.8857 3.98978 10.8621 3.91012 10.7831C3.83115 10.7035 3.8076 10.5843 3.84986 10.4811C3.8928 10.3772 3.99394 10.31 4.10616 10.31C4.17958 10.31 4.25024 10.3391 4.3022 10.3911C4.35416 10.443 4.38324 10.5137 4.38324 10.5871L4.38324 10.5871Z" fill="#4FFF8B"/>
<path d="M2.99802 5.87695C2.66206 5.87695 2.35865 6.07922 2.22981 6.39024C2.10166 6.70058 2.17232 7.05801 2.40991 7.29631C2.64821 7.5339 3.00565 7.60457 3.31598 7.47641C3.62701 7.34757 3.82927 7.04416 3.82927 6.7082C3.82927 6.24895 3.45728 5.87695 2.99802 5.87695ZM2.99802 6.98529C2.8858 6.98529 2.78467 6.91809 2.74172 6.81419C2.69947 6.71098 2.72302 6.59183 2.80199 6.51217C2.88165 6.4332 3.0008 6.40965 3.104 6.45191C3.20791 6.49485 3.2751 6.59599 3.2751 6.70821C3.2751 6.78163 3.24601 6.85229 3.19405 6.90425C3.1421 6.95621 3.07144 6.9853 2.99801 6.9853L2.99802 6.98529Z" fill="#4FFF8B"/>
<path d="M16.852 3.93744H9.76275L8.65442 2.8291H7.70819V3.93744H6.87694C6.72385 3.93744 6.59985 4.06143 6.59985 4.21452V5.87702C6.59985 5.95045 6.62895 6.0211 6.6809 6.07306C6.73285 6.12502 6.80351 6.15411 6.87694 6.15411H7.15403V6.70828H6.87694C6.72385 6.70828 6.59986 6.83227 6.59986 6.98536V8.09369C6.59986 8.16712 6.62895 8.23778 6.68091 8.28973C6.73286 8.34169 6.80352 8.37078 6.87695 8.37078H9.64778V9.47912C9.64778 9.55254 9.67687 9.6232 9.72883 9.67516L10.283 10.2293C10.3349 10.2813 10.4056 10.3104 10.479 10.3104H12.3785L12.9174 12.6019L12.0737 12.8125C11.9254 12.8499 11.8354 13.0002 11.8728 13.1484L12.1499 14.2567C12.1804 14.38 12.2912 14.4666 12.4186 14.4666C12.4415 14.4666 12.4644 14.4639 12.4865 14.4583L15.8115 13.6271C15.9556 13.5911 16.0457 13.447 16.0152 13.3015L14.9768 8.37076H16.8519C16.9253 8.37076 16.996 8.34166 17.048 8.28971C17.0999 8.23776 17.129 8.1671 17.129 8.09367V4.2145C17.129 4.14107 17.0999 4.07041 17.048 4.01846C16.996 3.9665 16.9254 3.93741 16.8519 3.93741L16.852 3.93744ZM8.26234 3.38327H8.42443L8.9786 3.93744H8.26233L8.26234 3.38327ZM11.0332 9.75628H10.594L10.2019 9.36421V8.37086H10.7561V9.47919C10.7561 9.55262 10.7852 9.62328 10.8371 9.67523C10.8891 9.72719 10.9597 9.75628 11.0332 9.75628C11.0623 9.75628 11.0914 9.75143 11.1191 9.74243L12.1637 9.40023L12.2468 9.75628L11.0332 9.75628ZM11.9219 8.37086L12.0369 8.85922L11.3102 9.09681V8.37084L11.9219 8.37086ZM15.4173 13.1548L12.6203 13.8537L12.4776 13.2829L14.4254 12.7959L14.291 12.2584L13.4556 12.4676L12.4913 8.37086H14.4101L15.4173 13.1548ZM16.5748 7.81669H7.154V7.26253H7.43109C7.50451 7.26253 7.57517 7.23343 7.62713 7.18148C7.67909 7.12952 7.70817 7.05887 7.70817 6.98544V5.8771C7.70817 5.80368 7.67908 5.73302 7.62713 5.68106C7.57517 5.6291 7.50452 5.60001 7.43109 5.60001H7.154V4.49168H16.5748V7.81669Z" fill="#4FFF8B"/>
<path d="M15.4668 5.0459H16.021V5.60007H15.4668V5.0459Z" fill="#4FFF8B"/>
<path d="M15.4668 6.70801H16.021V7.26217H15.4668V6.70801Z" fill="#4FFF8B"/>
<path d="M8.26245 5.0459H8.81662V5.60007H8.26245V5.0459Z" fill="#4FFF8B"/>
<path d="M8.98633 7.26257H14.2806L15.019 5.0459H9.72529L8.98633 7.26257ZM10.1245 5.60007H14.251L13.8811 6.7084H9.75526L10.1245 5.60007Z" fill="#4FFF8B"/>
<path d="M13.5271 8.9248H14.0813V9.47897H13.5271V8.9248Z" fill="#4FFF8B"/>
<path d="M5.29565 1.08543L5.68772 0.693359L7.07314 2.07878L6.68107 2.47084L5.29565 1.08543Z" fill="#4FFF8B"/>
<path d="M0.970947 9.2153L2.63345 8.66113L2.8087 9.18689L1.1462 9.74106L0.970947 9.2153Z" fill="#4FFF8B"/>
<path d="M5.01855 12.3307L6.40397 10.9453L6.79604 11.3374L5.41062 12.7228L5.01855 12.3307Z" fill="#4FFF8B"/>
<path d="M1.16235 3.59896L1.5087 3.16602L2.89412 4.27435L2.54777 4.70729L1.16235 3.59896Z" fill="#4FFF8B"/>
</svg>
