<svg width="22" height="22" viewBox="0 0 22 22" fill="none" xmlns="http://www.w3.org/2000/svg">
<path d="M11 22C17.0751 22 22 17.0751 22 11C22 4.92487 17.0751 0 11 0C4.92487 0 0 4.92487 0 11C0 17.0751 4.92487 22 11 22Z" fill="#4FFF8B"/>
<path d="M10.9996 12.8337C8.78551 12.8337 7.3164 12.5758 5.49957 12.2225C5.08462 12.1425 4.27734 12.2225 4.27734 13.4448C4.27734 15.8892 7.0854 18.9448 10.9996 18.9448C14.9131 18.9448 17.7218 15.8892 17.7218 13.4448C17.7218 12.2225 16.9145 12.1419 16.4996 12.2225C14.6827 12.5758 13.2136 12.8337 10.9996 12.8337Z" fill="#0F4421"/>
<path d="M5.5 13.4443C5.5 13.4443 7.33333 14.0554 11 14.0554C14.6667 14.0554 16.5 13.4443 16.5 13.4443C16.5 13.4443 15.2778 15.8888 11 15.8888C6.72222 15.8888 5.5 13.4443 5.5 13.4443Z" fill="white"/>
<path d="M7.33344 10.3891C8.17721 10.3891 8.86122 9.43149 8.86122 8.25022C8.86122 7.06894 8.17721 6.11133 7.33344 6.11133C6.48967 6.11133 5.80566 7.06894 5.80566 8.25022C5.80566 9.43149 6.48967 10.3891 7.33344 10.3891Z" fill="#0F4421"/>
<path d="M14.6664 10.3891C15.5102 10.3891 16.1942 9.43149 16.1942 8.25022C16.1942 7.06894 15.5102 6.11133 14.6664 6.11133C13.8227 6.11133 13.1387 7.06894 13.1387 8.25022C13.1387 9.43149 13.8227 10.3891 14.6664 10.3891Z" fill="#0F4421"/>
</svg>
