<svg width="20" height="43" viewBox="0 0 20 43" fill="none" xmlns="http://www.w3.org/2000/svg">
<path d="M19.1824 29.2612H14.8113L17.8145 8.14692L10 0L2.16981 8.14692L5.17296 29.2612H0.81761C0.361635 29.2612 0 29.6154 0 30.062L0 33.7119C0 34.1585 0.361635 34.5128 0.81761 34.5128H7.31132L7.31132 41.0734C7.31132 41.6432 7.78302 42.1053 8.36478 42.1053H11.6038C12.1855 42.1053 12.6572 41.6432 12.6572 41.0734L12.6572 34.5128H19.1824C19.6384 34.5128 20 34.1585 20 33.7119V30.062C19.9843 29.6154 19.6226 29.2612 19.1824 29.2612Z" fill="#4FFF8B"/>
</svg>
