<svg width="20" height="25" viewBox="0 0 20 25" fill="none" xmlns="http://www.w3.org/2000/svg">
<path d="M1.52252 20.3546V1.52352H10.6627V5.59446C10.6627 6.0151 11.0043 6.3557 11.4239 6.3557H15.4949V13.7887C16.0201 13.8154 16.5454 13.92 17.0184 14.078V4.80653C17.0184 4.59622 16.9394 4.41257 16.8081 4.28125L12.7371 0.210318C12.6058 0.0789972 12.3955 0 12.2119 0H0.761239C0.340593 0 0 0.341643 0 0.761238V21.1159C0 21.5366 0.341643 21.8771 0.761239 21.8771H8.9299C8.7719 21.4052 8.6929 20.8799 8.66623 20.3546L1.52252 20.3546ZM12.1863 1.81164L15.2066 4.83201H12.1863V1.81164Z" fill="#4FFF8B"/>
<path d="M8.35116 16.2038H4.72645C4.3058 16.2038 3.96521 16.5455 3.96521 16.9651C3.96521 17.3857 4.30685 17.7263 4.72645 17.7263L8.35116 17.7273C8.7718 17.7273 9.11239 17.3857 9.11239 16.9661C9.11239 16.5455 8.77178 16.2038 8.35116 16.2038V16.2038Z" fill="#4FFF8B"/>
<path d="M12.2908 12.3976H4.72645C4.3058 12.3976 3.96521 12.7393 3.96521 13.1589C3.96521 13.5795 4.30685 13.9201 4.72645 13.9201L12.2908 13.9211C12.7114 13.9211 13.052 13.5795 13.052 13.1599C13.052 12.7392 12.7114 12.3976 12.2908 12.3976V12.3976Z" fill="#4FFF8B"/>
<path d="M12.2908 8.6149H4.72645C4.3058 8.6149 3.96521 8.95654 3.96521 9.37614C3.96521 9.79678 4.30685 10.1374 4.72645 10.1374L12.2908 10.1384C12.7114 10.1384 13.052 9.79676 13.052 9.37716C13.052 8.95652 12.7114 8.6149 12.2908 8.6149V8.6149Z" fill="#4FFF8B"/>
<path d="M4.72645 6.35567H7.82587C8.24652 6.35567 8.58711 6.01403 8.58711 5.59443C8.58711 5.17379 8.24547 4.83319 7.82587 4.83319L4.72645 4.83217C4.3058 4.83217 3.96521 5.17381 3.96521 5.59341C3.96521 6.01405 4.30685 6.35567 4.72645 6.35567V6.35567Z" fill="#4FFF8B"/>
<path d="M15.0217 15.2849C12.343 15.2849 10.1896 17.4384 10.1896 20.118C10.1896 22.7967 12.3431 24.9501 15.0217 24.9501C17.7004 24.9501 19.8538 22.7967 19.8538 20.118C19.8548 17.4383 17.7014 15.2849 15.0217 15.2849ZM17.3332 19.5662L14.8647 22.0346C14.7068 22.1926 14.5231 22.2449 14.3395 22.2449C14.1558 22.2449 13.9455 22.1659 13.8142 22.0346L12.5533 20.8271C12.264 20.5378 12.264 20.0392 12.5533 19.7498C12.8426 19.4605 13.3412 19.4605 13.6305 19.7498L14.3138 20.4331L16.257 18.49C16.5463 18.2007 17.0449 18.2007 17.3342 18.49C17.6225 18.805 17.6225 19.2769 17.3332 19.5662H17.3332Z" fill="#4FFF8B"/>
</svg>
