<svg width="18" height="18" viewBox="0 0 18 18" fill="none" xmlns="http://www.w3.org/2000/svg">
<path d="M10.6 8.2V12.2M2.6 4.2H15.4L14.136 15.576C14.0927 15.9675 13.9065 16.3293 13.613 16.592C13.3196 16.8548 12.9395 17 12.5456 17H5.4544C5.06051 17 4.68045 16.8548 4.387 16.592C4.09355 16.3293 3.90733 15.9675 3.864 15.576L2.6 4.2ZM5.276 1.9176C5.4054 1.64317 5.61017 1.4112 5.8664 1.24873C6.12264 1.08626 6.4198 0.999996 6.7232 1H11.2768C11.5803 0.999845 11.8777 1.08604 12.1341 1.24851C12.3905 1.41099 12.5953 1.64305 12.7248 1.9176L13.8 4.2H4.2L5.276 1.9176V1.9176ZM1 4.2H17H1ZM7.4 8.2V12.2V8.2Z" stroke="#768BAD" stroke-width="1.2" stroke-linecap="round" stroke-linejoin="round"/>
</svg>
