<svg width="16" height="16" viewBox="0 0 16 16" fill="none" xmlns="http://www.w3.org/2000/svg">
<path d="M14.9334 3.69968C14.423 3.92635 13.8747 4.07888 13.2992 4.14768C13.887 3.79568 14.3376 3.23835 14.5499 2.57381C14.0006 2.89968 13.3915 3.13648 12.743 3.26448C12.224 2.71141 11.4848 2.36581 10.6667 2.36581C9.09549 2.36581 7.8219 3.63995 7.8219 5.21061C7.8219 5.43355 7.8475 5.65115 7.8955 5.85861C5.53123 5.74021 3.43523 4.60741 2.0315 2.88581C1.78723 3.30608 1.64696 3.79461 1.64696 4.31675C1.64696 5.30341 2.14883 6.17435 2.91203 6.68421C2.4459 6.66928 2.00696 6.54128 1.6235 6.32848C1.6235 6.34075 1.6235 6.35195 1.6235 6.36421C1.6235 7.74288 2.60376 8.89275 3.90563 9.15355C3.66723 9.21861 3.4155 9.25328 3.15576 9.25328C2.97283 9.25328 2.79416 9.23515 2.62083 9.20261C2.98296 10.3327 4.03363 11.1557 5.27843 11.1786C4.3051 11.9418 3.07843 12.3967 1.7451 12.3967C1.51576 12.3967 1.2891 12.3834 1.06616 12.3567C2.32536 13.1637 3.8203 13.6346 5.42723 13.6346C10.6603 13.6346 13.5211 9.29968 13.5211 5.54021C13.5211 5.41701 13.5184 5.29435 13.5131 5.17221C14.0694 4.77061 14.552 4.26981 14.9334 3.69968Z" fill="currentColor"/>
</svg>
