<svg width="20" height="20" viewBox="0 0 20 20" fill="none" xmlns="http://www.w3.org/2000/svg">
  <path
    d="M9.8231 1.81836C8 1.81836 6.99461 3.00018 6.99461 4.00018V7.64571L12.6516 4.00018C12.6516 3.00018 11.5 1.81836 9.8231 1.81836ZM12.6516 4.00018L6.99461 7.64571V10.3031C6.99461 12.071 8.40852 13.1316 9.8231 13.1316C11.2377 13.1316 12.6516 12.071 12.6516 10.3031V4.00018ZM14.7728 8.88924C14.0655 8.88924 14.0655 8.88924 14.0655 9.59653V10.3032C14.0655 12.7777 12.2976 14.5455 9.8231 14.5455C8.46553 14.5455 7.15897 14.0145 6.48019 13.1382L5.42493 13.9092C6.2734 14.8849 7.51761 15.6061 9.11581 15.9595V18.0806C9.11581 18.7879 9.11581 18.7879 9.8231 18.7879C10.5304 18.7879 10.5304 18.7879 10.5304 18.0806V15.9595C13.7122 15.2528 15.4794 13.1316 15.4794 10.3032V9.59587C15.4794 8.88924 15.4794 8.88924 14.7728 8.88924Z"
    fill="#B2D1FF" />
  <path
    d="M9.80709 1.80859C11.6302 1.80859 12.6356 2.99042 12.6356 3.99042V7.63594L6.9786 3.99042C6.9786 2.99042 8.13019 1.80859 9.80709 1.80859ZM6.9786 3.99042L12.6356 7.63594V10.2934C12.6356 12.0613 11.2217 13.1219 9.80709 13.1219C8.39251 13.1219 6.9786 12.0613 6.9786 10.2934V3.99042ZM4.85741 8.87947C5.5647 8.87947 5.5647 8.87947 5.5647 9.58676V10.2934C5.5647 12.7679 7.33259 14.5358 9.80709 14.5358C11.1647 14.5358 12.4148 14.0325 13.0936 13.1562L14.2053 13.8994C13.3568 14.8752 12.1126 15.5964 10.5144 15.9497V18.0709C10.5144 18.7782 10.5144 18.7782 9.80709 18.7782C9.0998 18.7782 9.0998 18.7782 9.0998 18.0709V15.9497C5.91801 15.2431 4.15079 13.1219 4.15079 10.2934V9.5861C4.15079 8.87947 4.15078 8.87947 4.85741 8.87947Z"
    fill="#B2D1FF" />
</svg>