<svg width="16" height="16" viewBox="0 0 16 16" fill="none" xmlns="http://www.w3.org/2000/svg">
<path d="M6.89932 4.89822C9.81347 4.89822 12.0309 7.3782 12.6376 9.71248C12.7047 9.97154 12.9691 10.1259 13.2269 10.0588C13.4853 9.99167 13.6403 9.72791 13.5732 9.46951C13.1014 7.65532 11.7691 5.76673 9.90665 4.7312C10.0637 4.73657 10.2214 4.74865 10.3778 4.77214C10.8624 4.84396 11.3275 5.001 11.7597 5.23792C11.8335 5.27819 11.9127 5.29765 11.9919 5.29765C12.1624 5.29765 12.3288 5.20704 12.4161 5.04664C12.5443 4.81174 12.4584 4.51912 12.2248 4.39026C11.6919 4.09764 11.1174 3.90502 10.5201 3.81575C10.1966 3.76742 9.87177 3.75199 9.54759 3.76608L10.4993 2.48754C10.6597 2.27143 10.7167 1.99759 10.6557 1.73518C10.5959 1.47678 10.4261 1.25867 10.1906 1.13785C9.49928 0.783477 8.36709 0.361328 6.89584 0.361328C5.43273 0.361328 4.30522 0.778787 3.61658 1.13047C3.37429 1.25329 3.20046 1.47611 3.13873 1.73921C3.07833 2.00029 3.13605 2.27346 3.29712 2.48822C3.76022 3.10703 4.2213 3.72986 4.68171 4.35138C1.89711 5.42523 -0.000244141 8.3911 -0.000244141 11.1046C-0.000244141 15.3986 4.59374 15.5683 6.10314 15.6248C6.10918 15.6248 6.11522 15.6255 6.12126 15.6255C6.37965 15.6255 6.59442 15.4201 6.60315 15.1597C6.61321 14.8933 6.40516 14.6691 6.13804 14.6591C2.56155 14.5262 0.966072 13.4302 0.966072 11.1046C0.966072 8.23473 3.55807 4.89843 6.89901 4.89843L6.89932 4.89822ZM4.11128 1.96191C4.70928 1.66525 5.66433 1.32633 6.89657 1.32633C8.12948 1.32633 9.08377 1.66527 9.68461 1.96325L8.1262 4.05784C7.73089 3.97529 7.32215 3.93099 6.89934 3.93099C6.47719 3.93099 6.06913 3.98267 5.67247 4.06388C5.15301 3.36187 4.63353 2.65983 4.11138 1.9619L4.11128 1.96191Z" fill="#B2D1FF"/>
<path d="M13.5732 10.9648C13.0181 10.9648 12.5175 11.0883 12.1128 11.291V11.1695C12.1128 10.2574 11.0463 9.54199 9.68519 9.54199C8.32407 9.54199 7.2583 10.2574 7.2583 11.1695V14.0146C7.2583 14.9267 8.32409 15.6422 9.68519 15.6422C10.4926 15.6422 11.1899 15.3865 11.6288 14.9912C12.0677 15.3871 12.765 15.6422 13.5723 15.6422C14.9328 15.6422 15.9999 14.9267 15.9999 14.0146V12.5925C15.9999 11.6804 14.9334 10.9649 13.573 10.9649L13.5732 10.9648ZM13.5732 11.9313C14.4511 11.9313 15.0336 12.3286 15.0336 12.5917C15.0336 12.6924 14.9524 12.8112 14.8108 12.9159C14.2376 13.3367 12.9134 13.338 12.3389 12.9159C12.1953 12.8098 12.1134 12.6917 12.1134 12.5917C12.1127 12.3293 12.6953 11.9313 13.5731 11.9313H13.5732ZM8.22613 12.4776C8.64091 12.6817 9.15165 12.7971 9.68589 12.7971C10.2208 12.7971 10.7315 12.683 11.1463 12.479V12.5917C11.1463 12.8548 10.5638 13.2521 9.68589 13.2521C8.80802 13.2521 8.22613 12.8548 8.22613 12.5917V12.4776ZM9.68589 10.5091C10.5638 10.5091 11.1463 10.9065 11.1463 11.1696C11.1463 11.2709 11.0651 11.389 10.9242 11.4937C10.3523 11.9145 9.02612 11.9165 8.45226 11.4937C8.30863 11.3884 8.22675 11.2696 8.22675 11.1696C8.22608 10.9065 8.80797 10.5091 9.68584 10.5091H9.68589ZM9.68589 14.6757C8.80802 14.6757 8.22613 14.2783 8.22613 14.0152V13.8938C8.63017 14.0964 9.13084 14.2199 9.68589 14.2199C10.2409 14.2199 10.7416 14.0964 11.1463 13.8938V14.0146C11.1456 14.2776 10.5631 14.6757 9.68589 14.6757V14.6757ZM13.5732 14.6757C12.6953 14.6757 12.1128 14.2783 12.1128 14.0152V13.9011C12.5276 14.1058 13.0383 14.2206 13.5732 14.2206C14.1074 14.2206 14.6189 14.1058 15.0336 13.9025V14.0146C15.0336 14.2776 14.4511 14.6757 13.5732 14.6757V14.6757Z" fill="#B2D1FF"/>
</svg>
