<svg width="91" height="91" viewBox="0 0 91 91" fill="none" xmlns="http://www.w3.org/2000/svg">
<path d="M47.3682 62.0899L58.0904 72.0214M41.4295 25.9415L19.3974 1.90281H1.62176V19.6987L26.0861 42.3794M71.1333 58.3714L62.0933 48.4901M79.8178 86.2301L86.1518 79.8861M76.4734 82.9266L82.8172 76.5827M79.4933 73.2587L73.1593 79.6026M69.5215 75.8828L75.8151 69.5184M4.21619 79.4914L10.5502 85.8353M7.50975 76.1569L13.8537 82.5008M17.1677 79.1768L10.9256 72.8633M14.5839 69.205L20.9278 75.5998M61.1912 84.2847C62.4432 78.6979 65.2051 73.5625 69.1766 69.4368C73.1473 65.312 78.1749 62.3571 83.7103 60.8938L81.9267 53.7998C75.2761 55.4865 69.2061 58.9433 64.3639 63.8027C59.277 68.8925 55.6957 75.29 54.0167 82.2878L61.1912 84.2847ZM66.38 72.7923L82.595 89.0073L86.9121 89.1289L89.0003 87.0407L88.9388 82.6932L72.7238 66.4782L66.38 72.7923ZM32.0246 70.8668L88.5337 19.1816V1.33496H70.7682L18.4445 57.8137L32.0246 70.8668ZM6.14142 60.9149C11.9424 62.1965 17.2537 65.1161 21.4443 69.3266C25.3542 73.2315 28.1529 78.1079 29.5519 83.4538L36.6458 81.6604C34.9521 75.0132 31.496 68.9458 26.6436 64.0975C21.5553 59.0169 15.1665 55.4336 8.17883 53.7402L6.14142 60.9149ZM17.6743 66.1037L1.45935 82.3187L1.34766 86.6358L2.3614 87.7104L3.43594 88.7241L7.75308 88.6124L23.968 72.3975L17.6743 66.1037Z" stroke="currentColor" stroke-width="2.02687" stroke-linecap="square" stroke-linejoin="round"/>
</svg>
