<svg width="98" height="90" viewBox="0 0 98 90" fill="none" xmlns="http://www.w3.org/2000/svg">
<mask id="path-1-outside-1_85_5296" maskUnits="userSpaceOnUse" x="-0.376953" y="0" width="98" height="90" fill="black">
<rect fill="white" x="-0.376953" width="98" height="90"/>
<path d="M91.7228 1H6.18261C3.11756 1 0.623047 3.49451 0.623047 6.55956V69.2376C0.623047 72.3026 3.11756 74.7971 6.18261 74.7971H39.4247L36.8598 87.2407H29.3714C28.8864 87.2407 28.4928 87.635 28.4928 88.12C28.4928 88.6051 28.8856 88.9994 29.3714 88.9994H60.3256C60.3263 89.0002 60.3286 89.0002 60.3301 88.9994H68.53C69.015 88.9994 69.4094 88.6066 69.4094 88.12C69.4094 87.6358 69.0165 87.2407 68.53 87.2407H61.0416L58.4782 74.7971H91.7203C94.7854 74.7971 97.2807 72.3026 97.2807 69.2376V6.55956C97.2822 3.49316 94.7883 1 91.7227 1H91.7228ZM59.2485 87.2403H38.6549L41.2199 74.7967H56.6845L59.2485 87.2403ZM95.5231 69.2372C95.5231 71.3337 93.8173 73.0387 91.7208 73.0387H6.18067C4.08418 73.0387 2.37915 71.3343 2.37915 69.2372V6.56111C2.37915 4.46462 4.08502 2.75958 6.18067 2.75958H91.7189C93.8154 2.75958 95.5212 4.46545 95.5212 6.56111L95.5231 69.2372Z"/>
</mask>
<path d="M91.7228 1H6.18261C3.11756 1 0.623047 3.49451 0.623047 6.55956V69.2376C0.623047 72.3026 3.11756 74.7971 6.18261 74.7971H39.4247L36.8598 87.2407H29.3714C28.8864 87.2407 28.4928 87.635 28.4928 88.12C28.4928 88.6051 28.8856 88.9994 29.3714 88.9994H60.3256C60.3263 89.0002 60.3286 89.0002 60.3301 88.9994H68.53C69.015 88.9994 69.4094 88.6066 69.4094 88.12C69.4094 87.6358 69.0165 87.2407 68.53 87.2407H61.0416L58.4782 74.7971H91.7203C94.7854 74.7971 97.2807 72.3026 97.2807 69.2376V6.55956C97.2822 3.49316 94.7883 1 91.7227 1H91.7228ZM59.2485 87.2403H38.6549L41.2199 74.7967H56.6845L59.2485 87.2403ZM95.5231 69.2372C95.5231 71.3337 93.8173 73.0387 91.7208 73.0387H6.18067C4.08418 73.0387 2.37915 71.3343 2.37915 69.2372V6.56111C2.37915 4.46462 4.08502 2.75958 6.18067 2.75958H91.7189C93.8154 2.75958 95.5212 4.46545 95.5212 6.56111L95.5231 69.2372Z" fill="currentColor"/>
<path d="M39.4247 74.7971L39.6206 74.8375L39.6701 74.5971H39.4247V74.7971ZM36.8598 87.2407V87.4407H37.0228L37.0557 87.281L36.8598 87.2407ZM60.3256 88.9994L60.467 88.858L60.4084 88.7994H60.3256V88.9994ZM60.3301 88.9994V88.7994H60.2829L60.2406 88.8205L60.3301 88.9994ZM61.0416 87.2407L60.8457 87.281L60.8786 87.4407H61.0416V87.2407ZM58.4782 74.7971V74.5971H58.2328L58.2824 74.8375L58.4782 74.7971ZM97.2807 6.55956L97.0807 6.55946V6.55956H97.2807ZM59.2485 87.2403V87.4403H59.4939L59.4444 87.1999L59.2485 87.2403ZM38.6549 87.2403L38.4591 87.1999L38.4095 87.4403H38.6549V87.2403ZM41.2199 74.7967V74.5967H41.0569L41.024 74.7564L41.2199 74.7967ZM56.6845 74.7967L56.8804 74.7564L56.8475 74.5967H56.6845V74.7967ZM95.5231 69.2372H95.7231V69.2372L95.5231 69.2372ZM95.5212 6.56111H95.3212V6.56111L95.5212 6.56111ZM91.7228 0.8H6.18261V1.2H91.7228V0.8ZM6.18261 0.8C3.0071 0.8 0.423047 3.38405 0.423047 6.55956H0.823047C0.823047 3.60497 3.22802 1.2 6.18261 1.2V0.8ZM0.423047 6.55956V69.2376H0.823047V6.55956H0.423047ZM0.423047 69.2376C0.423047 72.4131 3.0071 74.9971 6.18261 74.9971V74.5971C3.22802 74.5971 0.823047 72.1922 0.823047 69.2376H0.423047ZM6.18261 74.9971H39.4247V74.5971H6.18261V74.9971ZM39.2288 74.7568L36.6639 87.2003L37.0557 87.281L39.6206 74.8375L39.2288 74.7568ZM36.8598 87.0407H29.3714V87.4407H36.8598V87.0407ZM29.3714 87.0407C28.7757 87.0407 28.2928 87.5248 28.2928 88.12H28.6928C28.6928 87.7453 28.9971 87.4407 29.3714 87.4407V87.0407ZM28.2928 88.12C28.2928 88.7152 28.7748 89.1994 29.3714 89.1994V88.7994C28.9964 88.7994 28.6928 88.4949 28.6928 88.12H28.2928ZM29.3714 89.1994H60.3256V88.7994H29.3714V89.1994ZM60.1841 89.1409C60.2177 89.1745 60.2543 89.1874 60.2732 89.1927C60.2945 89.1985 60.3134 89.2 60.3275 89.2C60.354 89.2 60.3866 89.1948 60.4195 89.1783L60.2406 88.8205C60.2721 88.8048 60.3027 88.8 60.3275 88.8C60.3409 88.8 60.3589 88.8014 60.3795 88.8071C60.3978 88.8121 60.4337 88.8248 60.467 88.858L60.1841 89.1409ZM60.3301 89.1994H68.53V88.7994H60.3301V89.1994ZM68.53 89.1994C69.1252 89.1994 69.6094 88.7173 69.6094 88.12H69.2094C69.2094 88.4959 68.9048 88.7994 68.53 88.7994V89.1994ZM69.6094 88.12C69.6094 87.5257 69.1273 87.0407 68.53 87.0407V87.4407C68.9057 87.4407 69.2094 87.7459 69.2094 88.12H69.6094ZM68.53 87.0407H61.0416V87.4407H68.53V87.0407ZM61.2375 87.2003L58.6741 74.7568L58.2824 74.8375L60.8457 87.281L61.2375 87.2003ZM58.4782 74.9971H91.7203V74.5971H58.4782V74.9971ZM91.7203 74.9971C94.8958 74.9971 97.4807 72.4131 97.4807 69.2376H97.0807C97.0807 72.1921 94.675 74.5971 91.7203 74.5971V74.9971ZM97.4807 69.2376V6.55956H97.0807V69.2376H97.4807ZM97.4807 6.55966C97.4822 3.38269 94.8987 0.8 91.7227 0.8V1.2C94.6779 1.2 97.0821 3.60363 97.0807 6.55946L97.4807 6.55966ZM91.7227 1.2H91.7228V0.8H91.7227V1.2ZM59.2485 87.0403H38.6549V87.4403H59.2485V87.0403ZM38.8508 87.2807L41.4157 74.8371L41.024 74.7564L38.4591 87.1999L38.8508 87.2807ZM41.2199 74.9967H56.6845V74.5967H41.2199V74.9967ZM56.4887 74.8371L59.0526 87.2806L59.4444 87.1999L56.8804 74.7564L56.4887 74.8371ZM95.3231 69.2372C95.3231 71.2232 93.7069 72.8387 91.7208 72.8387V73.2387C93.9277 73.2387 95.7231 71.4442 95.7231 69.2372H95.3231ZM91.7208 72.8387H6.18067V73.2387H91.7208V72.8387ZM6.18067 72.8387C4.19462 72.8387 2.57915 71.2239 2.57915 69.2372H2.17915C2.17915 71.4448 3.97375 73.2387 6.18067 73.2387V72.8387ZM2.57915 69.2372V6.56111H2.17915V69.2372H2.57915ZM2.57915 6.56111C2.57915 4.5751 4.19545 2.95958 6.18067 2.95958V2.55958C3.97459 2.55958 2.17915 4.35413 2.17915 6.56111H2.57915ZM6.18067 2.95958H91.7189V2.55958H6.18067V2.95958ZM91.7189 2.95958C93.705 2.95958 95.3212 4.57593 95.3212 6.56111H95.7212C95.7212 4.35497 93.9258 2.55958 91.7189 2.55958V2.95958ZM95.3212 6.56111L95.3231 69.2372L95.7231 69.2372L95.7212 6.5611L95.3212 6.56111Z" fill="currentColor" mask="url(#path-1-outside-1_85_5296)"/>
<path d="M92.5959 7.05514V7.05483C92.5942 6.515 92.1569 6.07651 91.6165 6.07651H6.29491C5.75483 6.07651 5.31553 6.51396 5.31553 7.05514V64.372C5.31553 64.9122 5.75302 65.3514 6.29491 65.3514H91.6165C92.1567 65.3514 92.5959 64.9139 92.5959 64.372V7.05514ZM90.6364 63.3934H7.2728L7.27356 8.03455H90.6371L90.6364 63.3934Z" fill="currentColor" stroke="currentColor" stroke-width="0.2"/>
<path d="M54.8543 68.055H43.0522C42.5121 68.055 42.0729 68.4925 42.0729 69.0344C42.0729 69.5762 42.5105 70.0138 43.0522 70.0138H54.8543C55.3944 70.0138 55.8336 69.5763 55.8336 69.0344C55.8336 68.4935 55.3961 68.055 54.8543 68.055Z" fill="currentColor" stroke="currentColor" stroke-width="0.2"/>
<path d="M48.7199 57.4611C60.7102 57.4611 70.4655 47.7054 70.4655 35.7155C70.4655 23.7236 60.7113 13.9698 48.7199 13.9698C36.7296 13.9698 26.9742 23.724 26.9742 35.7155C26.9742 47.7058 36.7299 57.4611 48.7199 57.4611ZM48.7199 15.9259C59.6304 15.9259 68.5075 24.8026 68.5075 35.7135C68.5075 46.6256 59.6308 55.5031 48.7199 55.5031C37.8078 55.5031 28.9323 46.6256 28.9323 35.7135C28.9323 24.8022 37.8097 15.9259 48.7199 15.9259Z" fill="currentColor" stroke="currentColor" stroke-width="0.2"/>
<path d="M61.023 28.7465L61.0231 28.7464C61.4042 28.3644 61.4043 27.7444 61.023 27.363L60.9523 27.4337L61.023 27.363C60.641 26.981 60.0209 26.9809 59.6395 27.3631L45.014 41.9886L37.8041 34.7787C37.4221 34.3967 36.8019 34.3966 36.4205 34.7788L36.4913 34.8494L36.4205 34.7788C36.0395 35.1606 36.0384 35.7807 36.4207 36.1622L44.3208 44.0638L44.3915 43.9931L44.3208 44.0638C44.5042 44.2472 44.7524 44.3507 45.0132 44.3507C45.274 44.3507 45.5215 44.248 45.7057 44.0638L61.023 28.7465Z" fill="currentColor" stroke="currentColor" stroke-width="0.2"/>
</svg>
