<svg width="93" height="87" viewBox="0 0 93 87" fill="none" xmlns="http://www.w3.org/2000/svg">
<path d="M19.7017 8.70992H49.5402V10.8513H19.7017V8.70992Z" fill="currentColor"/>
<path d="M19.7017 14.9908H43.4021V17.1322H19.7017V14.9908Z" fill="currentColor"/>
<path d="M42.2603 64.5327H56.8224V66.6741H42.2603V64.5327Z" fill="currentColor"/>
<path d="M42.2603 69.3865H71.6712V71.5279H42.2603V69.3865Z" fill="currentColor"/>
<path d="M84.9484 70.5282C85.8048 71.5277 87.0898 72.0986 88.3747 72.0986C89.5166 72.0986 90.6591 71.6701 91.5155 70.8137C92.3719 69.9573 92.9435 68.8148 92.8004 67.5299C92.8004 66.245 92.2295 65.103 91.3724 64.3891L80.3789 54.3951C82.5203 51.3966 83.5197 47.685 83.3774 43.9731C83.2343 41.1179 82.3779 38.4048 81.093 36.1211V30.2674C81.093 26.5557 78.0946 23.4143 74.3829 23.4143H57.6789V6.85311C57.6789 3.14145 54.6805 0 50.9688 0H7.56656V0.143058H6.99563C3.14078 -1.04308e-07 0 3.14083 0 6.85316V9.42306H11.7069V56.1081C11.7069 59.9629 14.8477 62.9612 18.56 62.9612H35.1212V79.6652C35.1212 83.5201 38.2619 86.6608 42.1168 86.5183H85.2323C88.6586 86.5183 91.2285 83.8054 91.2285 80.0936V76.9528H81.0921V65.6739L84.9484 70.5282ZM78.0953 53.9671L77.5243 54.6811L89.9451 65.9599C90.3737 66.3884 90.6591 66.9594 90.6591 67.6734C90.6591 68.3874 90.3737 68.9583 89.9451 69.3869C89.5166 69.8154 88.9457 70.1009 88.3747 70.1009C87.6607 70.1009 87.0898 69.8154 86.6612 69.2445L75.9533 56.2528L75.0969 56.8224C72.527 58.6783 69.5285 59.6777 66.3877 59.6777C58.9636 59.6777 52.3965 53.967 51.5394 46.686C50.9685 42.4026 52.3958 38.2624 55.2511 34.9791C58.3919 31.5528 62.8176 29.697 67.6719 29.9825C75.096 30.5535 80.9497 36.6926 81.2352 44.1168C81.379 47.6848 80.2366 51.2542 78.0953 53.9671ZM2.14129 7.28038V6.8525C2.14129 4.2826 4.28265 1.99823 6.99556 1.99823C9.56546 1.99823 11.8498 4.13959 11.8498 6.8525V7.28038H2.14129ZM13.8488 56.1081V6.85283C13.8488 4.997 13.1348 3.28351 11.85 1.99856H50.6835C53.2534 1.99856 55.5378 4.13992 55.5378 6.85283V23.414H30.9822V23.557H30.4113C26.5564 23.557 23.5582 26.6978 23.5582 30.4102V56.1091C23.5582 58.679 21.4168 60.9634 18.7039 60.9634C15.991 60.9628 13.8488 58.8203 13.8488 56.1081ZM23.5567 60.9624C24.6986 59.6774 25.5556 57.9639 25.5556 56.1081V30.4091C25.5556 27.8392 27.6969 25.5548 30.4098 25.5548C33.1227 25.5548 35.2641 27.6962 35.2641 30.4091V60.9619L23.5567 60.9624ZM89.0884 80.0941C89.0884 82.521 87.3749 84.3775 85.2336 84.3775H46.9718C48.1137 83.0925 48.9707 81.379 48.9707 79.5232V79.0947H89.0884V80.0941ZM78.809 77.0956H47.8287L46.4007 77.2387L46.6862 78.3806C46.8293 78.666 46.8293 79.237 46.8293 79.6655C46.8293 82.2354 44.6879 84.5198 41.975 84.5198C39.4051 84.5198 37.1207 82.3784 37.1207 79.6655V30.4102C37.1207 28.5544 36.4067 26.8409 35.1219 25.556H73.9554C76.5253 25.556 78.8096 27.6973 78.8096 30.4102V33.4087C75.9544 30.4102 72.0995 28.2689 67.6738 27.9835C62.2486 27.555 57.1089 29.697 53.5395 33.6942C50.2557 37.4059 48.8283 42.1178 49.3993 46.9721C50.3988 55.538 57.6799 61.9627 66.3884 61.9627C69.6721 61.9627 72.8131 60.9633 75.5253 59.2498L78.8091 63.2477L78.809 77.0956Z" fill="currentColor"/>
<path d="M62.9615 37.4069C62.1051 38.2633 61.5335 39.5483 61.5335 40.8332H63.6749C63.6749 40.1192 63.9604 39.4052 64.3889 38.9774C65.3883 37.9779 67.1018 37.9779 68.1005 38.9774C68.5291 39.4059 68.8145 40.1193 68.8145 40.8332C68.8145 41.5472 68.5291 42.1182 67.9581 42.8321C67.9581 42.8321 66.2446 44.4025 65.5312 46.9723C65.2458 47.8287 65.1027 48.6858 65.1027 49.5422H67.2441C67.2441 48.8282 67.3871 48.2572 67.5296 47.5433C68.1005 45.5445 69.3854 44.4025 69.3854 44.4025C70.3848 43.2607 70.9558 42.1182 70.9558 40.9762C70.9558 39.6913 70.5273 38.5493 69.5278 37.5499C67.9587 35.6941 64.8173 35.6941 62.9615 37.4069Z" fill="currentColor"/>
<path d="M65.245 51.2557H67.3863V53.3971H65.245V51.2557Z" fill="currentColor"/>
</svg>
