<svg width="73" height="67" viewBox="0 0 73 67" fill="none" xmlns="http://www.w3.org/2000/svg">
<g filter="url(#filter0_d_5033_31157)">
<path fill-rule="evenodd" clip-rule="evenodd" d="M14.5156 33.4635C14.5156 32.877 14.559 32.2811 14.6276 31.7033L15.0666 26.8876C15.0666 26.5163 14.9035 26.6803 15.2385 26.6803H16.2625C19.5922 20.5182 27.3017 16.1945 36.285 16.1945C45.2684 16.1945 52.9865 20.5182 56.3076 26.6803H57.0391C57.3749 26.6803 57.65 26.9822 57.65 27.3622L57.8566 27.2841C58.123 28.3633 58.0544 32.3331 58.0544 33.4635C58.0544 43.0002 48.3057 50.7412 36.285 50.7412C24.2644 50.7412 14.5156 43.0002 14.5156 33.4635Z" fill="url(#paint0_linear_5033_31157)"/>
<path fill-rule="evenodd" clip-rule="evenodd" d="M36.4534 12C48.3802 12 58.0636 19.741 58.0636 29.2777C58.0636 38.8145 48.3802 46.5468 36.4534 46.5468C24.5266 46.5468 14.8433 38.8145 14.8433 29.2777C14.8433 19.741 24.5171 12 36.4534 12Z" fill="url(#paint1_linear_5033_31157)"/>
<path fill-rule="evenodd" clip-rule="evenodd" d="M17.5962 37.58L22.2826 34.6886C23.2143 36.0697 24.4575 37.3033 25.9418 38.3218L21.0828 41.3165C19.7798 40.7639 17.8721 38.2611 17.5962 37.5792V37.58ZM47.12 19.2751L51.2538 16.7983C52.7208 17.7388 53.9292 18.9559 54.939 20.4142L50.6933 22.9604C49.7355 21.6313 48.5444 20.3543 47.1208 19.2751H47.12Z" fill="#82FFF4"/>
<path fill-rule="evenodd" clip-rule="evenodd" d="M52.2468 41.0666L47.3705 38.0806C48.7941 37.0448 50.1492 35.9317 51.0297 34.5593L55.5695 37.3467C54.577 38.995 53.5499 40.1254 52.2468 41.0666ZM22.2911 22.6758L18.0879 20.0958C19.089 18.7754 20.2368 17.5157 21.8851 16.5485L25.9503 19.06C24.4659 20.0784 23.2228 21.3042 22.2911 22.6758Z" fill="#82FFF4"/>
<path fill-rule="evenodd" clip-rule="evenodd" d="M20.125 28.5959C20.125 21.1221 27.7627 15.7113 36.4883 15.7113C45.2139 15.7113 52.8603 21.1655 52.8603 28.5959C52.8603 36.0263 45.2139 41.4892 36.4883 41.4892C27.7627 41.4892 20.125 36.0437 20.125 28.5959ZM50.5033 28.4493C50.5467 22.7358 44.2467 17.5149 36.445 17.5149C28.6433 17.5149 22.3606 22.4599 22.3606 28.3807C22.3606 33.3083 28.54 39.0825 36.3417 39.0825C44.1434 39.0825 50.5041 33.4123 50.5041 28.4501L50.5033 28.4493Z" fill="#4EEB9A"/>
<path fill-rule="evenodd" clip-rule="evenodd" d="M31.8443 40.5661L32.3362 39.5649C33.2853 39.7809 34.2778 39.9275 35.3136 39.9874V41.0918C34.1138 41.0225 32.9487 40.842 31.8443 40.5653V40.5661ZM37.6438 41.0926V39.9882C38.6189 39.9275 39.5593 39.7983 40.4658 39.5996L40.9664 40.6007C39.8959 40.8593 38.7828 41.0233 37.6438 41.0926ZM43.2619 39.8929L42.7874 38.9264C43.8318 38.5378 44.8069 38.0546 45.6875 37.5028L46.568 38.2106C45.5582 38.8752 44.4538 39.4451 43.2627 39.8936L43.2619 39.8929ZM26.1221 38.0285L27.0026 37.3293C27.9171 37.9332 28.9269 38.4511 30.0234 38.8657L29.5401 39.8408C28.3057 39.3576 27.1579 38.7451 26.1229 38.0285H26.1221ZM48.4402 36.7255L47.5943 36.0696C48.3369 35.3965 48.9754 34.6712 49.502 33.8861L50.5205 34.24C49.9505 35.1379 49.2521 35.9751 48.441 36.7255H48.4402ZM22.3683 34.1194L23.3781 33.7828C23.87 34.5254 24.4651 35.2325 25.1557 35.8797L24.3098 36.5355C23.5507 35.8016 22.9027 34.9905 22.3683 34.1194ZM51.4262 32.4624L50.4511 32.1345C50.8224 31.254 51.0549 30.3136 51.133 29.3558H52.1341C52.0561 30.4428 51.8148 31.4786 51.4262 32.4624ZM20.8232 29.3558H21.8244C21.8937 30.2789 22.1089 31.1681 22.4542 32.0226L21.4878 32.3418C21.1165 31.4014 20.8926 30.4003 20.8232 29.3558ZM21.7124 24.4369L22.6875 24.7648C22.3509 25.4987 22.0924 26.2578 21.945 27.0429H20.9265C21.0731 26.1364 21.3411 25.2654 21.7116 24.4369H21.7124ZM50.2099 24.6529L51.1937 24.3163C51.591 25.1794 51.8755 26.0938 52.0308 27.0437H51.0124C50.8571 26.2152 50.5812 25.4214 50.2099 24.6529ZM23.6634 23.1425L22.6363 22.7972C23.1976 21.9601 23.8794 21.1749 24.6559 20.4757L25.4844 21.1489C24.7939 21.7614 24.1814 22.4259 23.6634 23.1425ZM47.5005 21.1749L48.3464 20.5104C49.0716 21.1749 49.7101 21.9001 50.254 22.6853L49.2182 23.0306C48.7263 22.3747 48.1477 21.7449 47.5005 21.1749ZM27.1248 19.9239L26.2443 19.2247C27.2541 18.5341 28.3672 17.9477 29.5669 17.481L30.0415 18.4561C28.9883 18.8534 28.0132 19.354 27.1248 19.9231V19.9239ZM42.7716 18.4049L43.2461 17.4298C44.4112 17.8696 45.4896 18.4222 46.4742 19.0607L45.585 19.7686C44.7218 19.2334 43.7814 18.7762 42.7716 18.4049ZM32.3551 17.7577L31.8632 16.7566C32.9676 16.4807 34.1327 16.3167 35.3152 16.2386V17.343C34.2967 17.4037 33.3042 17.5504 32.3551 17.7577ZM37.6453 17.343V16.2386C38.7757 16.308 39.8809 16.472 40.942 16.7219L40.4501 17.723C39.5435 17.533 38.6118 17.4037 37.6453 17.343Z" fill="#BFFFFA"/>
<path fill-rule="evenodd" clip-rule="evenodd" d="M52.221 40.8396C52.221 40.7655 52.1572 43.8729 52.106 45.3242C53.193 44.4303 54.232 43.4638 55.3025 41.955L55.4491 37.338C54.336 39.1172 53.3436 40.0277 52.221 40.8396Z" fill="#4EFF9F"/>
<path fill-rule="evenodd" clip-rule="evenodd" d="M24.6475 43.8627V48.1005C26.0885 48.8084 27.6682 49.3862 29.3851 49.8182V45.5118C27.6847 45.2099 26.1405 44.5974 24.6475 43.8635V43.8627Z" fill="#4EFF9F"/>
<path fill-rule="evenodd" clip-rule="evenodd" d="M33.8467 46.3229V50.612C35.7197 50.802 37.6352 50.776 39.5941 50.5426V46.2535C37.6699 46.4955 35.7536 46.5042 33.8467 46.3229Z" fill="#4EFF9F"/>
<path fill-rule="evenodd" clip-rule="evenodd" d="M44.2207 45.3296V49.5588C45.6704 49.1103 47.1539 48.4631 48.751 47.6519V43.5087C47.2761 44.2938 45.7658 44.8898 44.2207 45.3296Z" fill="#4EFF9F"/>
<path fill-rule="evenodd" clip-rule="evenodd" d="M34.2441 46.4002C33.295 46.3143 32.3365 46.2189 31.396 46.0376C30.8521 45.9343 30.309 45.8302 29.7651 45.701C27.5728 45.1744 25.5272 44.4153 23.551 43.3101C23.0938 43.0515 22.6192 42.7662 22.1872 42.4642C21.2381 41.7997 20.3143 41.0832 19.5031 40.2547C18.7267 39.4695 18.0535 38.6584 17.4315 37.7258C16.7843 36.7594 16.223 35.6802 15.8179 34.5845C15.1187 32.6942 14.7994 30.822 14.8428 28.8111C15.1013 30.848 15.6626 32.8842 16.5604 34.7398C16.9404 35.5336 17.4149 36.3361 17.9328 37.0526C18.0881 37.2773 18.2521 37.4838 18.4161 37.6998C18.6581 38.0191 18.9513 38.347 19.2272 38.6489C20.2804 39.788 21.5314 40.8325 22.8604 41.6523C23.2577 41.8943 23.6629 42.1355 24.0776 42.3602C24.3109 42.4808 24.5521 42.5935 24.7854 42.7141C25.5446 43.0941 26.3392 43.4047 27.133 43.6979C27.7975 43.9399 28.4967 44.1465 29.1786 44.3191C31.3361 44.8717 33.5197 45.1563 35.7379 45.2256H37.9388L39.8378 45.0443C40.3211 44.9836 40.7869 44.8977 41.2615 44.811C42.4439 44.6123 43.6177 44.3104 44.7568 43.9391C48.9426 42.6014 53.0157 40.0726 55.3979 36.2927C55.7865 35.6889 56.157 35.0244 56.4337 34.3598C56.6063 33.9539 56.7703 33.5574 56.9082 33.1427C57.1668 32.3923 57.3394 31.6324 57.4869 30.8559C57.6161 30.1567 57.6942 29.3976 57.7289 28.6897C57.7462 28.3878 57.7462 28.0945 57.7549 27.7918C57.7635 27.6278 57.7549 27.4552 57.7549 27.2912C57.7549 27.0327 57.7549 26.7473 57.7289 26.4888C58.0048 27.6885 58.0741 28.9656 58.0308 30.1914C58.0048 31.1318 57.8495 32.1503 57.6161 33.0655C57.4695 33.6267 57.3055 34.1612 57.0982 34.7051C56.9343 35.145 56.7356 35.5683 56.5283 35.9908C56.2524 36.5607 55.9245 37.0865 55.5879 37.6131C55.2252 38.183 54.7594 38.7782 54.3022 39.2788C53.8103 39.8227 53.3184 40.3146 52.7745 40.8065C51.2814 42.1442 49.4692 43.2573 47.6482 44.0944C46.0086 44.8535 44.2909 45.4235 42.522 45.8208C41.5729 46.0454 40.6143 46.2094 39.6479 46.3213C39.1039 46.382 38.5521 46.4506 38.0082 46.4766C37.283 46.5113 36.5586 46.5027 35.8333 46.4853C35.3067 46.468 34.7715 46.442 34.2457 46.3994L34.2441 46.4002Z" fill="url(#paint2_radial_5033_31157)"/>
<path fill-rule="evenodd" clip-rule="evenodd" d="M22.5152 28.7425C22.5152 28.3712 22.5412 28.0086 22.5585 28.1812C22.5499 33.0662 28.6946 38.8397 36.4529 38.8397C44.2113 38.8397 50.5373 33.1695 50.4947 28.7164C50.4861 28.1039 50.5034 28.4579 50.5034 28.811C50.5034 33.7733 44.1253 39.4522 36.419 39.4522C28.7127 39.4522 22.516 33.6701 22.516 28.7417L22.5152 28.7425ZM36.5656 16.0731C28.436 16.0731 21.2468 20.828 20.3237 28.3972V28.3625C20.3237 20.8801 27.9268 15.4692 36.6003 15.4692C45.2739 15.4692 52.8769 20.9234 52.8769 28.3625L52.8423 28.9324C51.8931 20.8635 44.7386 16.0731 36.5656 16.0731Z" fill="#008A44"/>
<path fill-rule="evenodd" clip-rule="evenodd" d="M20.9795 41.6279C20.9795 41.5498 21.0575 44.286 21.1088 45.805C20.1857 45.1145 18.7439 44.0101 17.6655 42.4217L17.5796 37.9426C18.736 39.617 19.9011 40.5227 20.9803 41.6279H20.9795Z" fill="#3BE38A"/>
<path fill-rule="evenodd" clip-rule="evenodd" d="M36.4277 17.213C44.0828 17.213 50.3056 22.0113 50.3056 27.9148C50.3056 33.8183 44.0828 38.6253 36.4277 38.6253C28.7726 38.6253 22.542 33.827 22.542 27.9148C22.542 22.0027 28.7648 17.213 36.4277 17.213Z" fill="white"/>
<path fill-rule="evenodd" clip-rule="evenodd" d="M15.473 33.5322L15.3177 38.0372C14.3686 35.5864 14.1873 32.2118 14.7998 29.1824C14.8258 30.6234 15.1104 32.2031 15.473 33.5322Z" fill="#4EFF9F"/>
<path d="M31.3305 23.1417C33.3288 23.1417 35.4572 23.9221 35.4572 25.7076C35.4572 27.1265 34.1447 27.9424 32.3238 28.4982C30.964 28.9238 29.8525 29.4205 29.5805 29.8461H35.6235V31.6671H26.7427V30.6265C26.9555 29.0302 28.4217 27.6823 30.8812 26.9492C32.0755 26.5708 33.0214 26.3106 33.0214 25.7549C33.0214 25.1992 32.1346 24.9154 31.2241 24.9154C30.089 24.9154 29.0484 25.3883 28.1734 26.2515L26.8609 24.9863C27.7123 23.934 29.3677 23.1417 31.3305 23.1417Z" fill="#2D754D"/>
<path d="M41.24 30.048C42.4934 30.048 43.3565 29.7878 43.3565 29.0074C43.3565 28.227 42.4934 27.9078 41.1572 27.9078C40.3532 27.9078 39.4663 28.0497 38.615 28.4162L36.8886 27.7659L37.5981 23.3909H44.9536V25.1763H39.4072L39.1234 26.9618C39.963 26.4534 40.9444 26.1932 42.0559 26.1932C43.9359 26.1932 45.816 27.0801 45.816 29.0311C45.816 30.5919 44.468 31.9399 41.24 31.9399C39.2417 31.9399 37.669 31.3368 36.5103 30.3436L37.7873 28.9247C38.414 29.4449 39.6792 30.048 41.24 30.048Z" fill="#2D754D"/>
</g>
<defs>
<filter id="filter0_d_5033_31157" x="0.443848" y="0" width="71.6196" height="66.7412" filterUnits="userSpaceOnUse" color-interpolation-filters="sRGB">
<feFlood flood-opacity="0" result="BackgroundImageFix"/>
<feColorMatrix in="SourceAlpha" type="matrix" values="0 0 0 0 0 0 0 0 0 0 0 0 0 0 0 0 0 0 127 0" result="hardAlpha"/>
<feOffset dy="2"/>
<feGaussianBlur stdDeviation="7"/>
<feComposite in2="hardAlpha" operator="out"/>
<feColorMatrix type="matrix" values="0 0 0 0 0 0 0 0 0 1 0 0 0 0 0.64 0 0 0 0.4 0"/>
<feBlend mode="normal" in2="BackgroundImageFix" result="effect1_dropShadow_5033_31157"/>
<feBlend mode="normal" in="SourceGraphic" in2="effect1_dropShadow_5033_31157" result="shape"/>
</filter>
<linearGradient id="paint0_linear_5033_31157" x1="11.4713" y1="33.9199" x2="63.3415" y2="32.9748" gradientUnits="userSpaceOnUse">
<stop stop-color="#0C6132"/>
<stop offset="0.72" stop-color="#35D487"/>
<stop offset="1" stop-color="#096133"/>
</linearGradient>
<linearGradient id="paint1_linear_5033_31157" x1="35.7976" y1="49.2215" x2="36.7427" y2="20.4804" gradientUnits="userSpaceOnUse">
<stop stop-color="#45D49B"/>
<stop offset="1" stop-color="#30D47D"/>
</linearGradient>
<radialGradient id="paint2_radial_5033_31157" cx="0" cy="0" r="1" gradientUnits="userSpaceOnUse" gradientTransform="translate(37.0922 45.6663) scale(29.2511)">
<stop stop-color="#AAFFF7"/>
<stop offset="0.66" stop-color="#6EE6D7"/>
<stop offset="1" stop-color="#3EC4B5"/>
</radialGradient>
</defs>
</svg>
