<svg width="73" height="67" viewBox="0 0 73 67" fill="none" xmlns="http://www.w3.org/2000/svg">
<g filter="url(#filter0_d_4471_31527)">
<path fill-rule="evenodd" clip-rule="evenodd" d="M14.9355 33.3278C14.9355 32.7373 14.9758 32.1546 15.0475 31.5799L15.4867 26.7988C15.4867 26.4235 15.3274 26.5915 15.6625 26.5915H16.6764C19.9886 20.4693 27.6836 16.1669 36.6307 16.1669C45.5778 16.1669 53.265 20.4693 56.5772 26.5915H57.3112C57.6463 26.5915 57.9175 26.895 57.9175 27.2703L57.9877 26.9297C58.251 27.9996 58.3164 32.2027 58.3164 33.3286C58.3164 42.8031 48.6022 50.4895 36.6299 50.4895C24.6576 50.4895 14.9355 42.8031 14.9355 33.3286V33.3278Z" fill="url(#paint0_linear_4471_31527)"/>
<path fill-rule="evenodd" clip-rule="evenodd" d="M25.8394 43.9755L25.8551 48.2377C27.1884 48.8763 28.6485 49.3872 30.2372 49.7704L30.2214 45.4443C28.6493 45.1889 27.212 44.6299 25.8394 43.9755Z" fill="#524C4C"/>
<path fill-rule="evenodd" clip-rule="evenodd" d="M34.348 46.0664L34.2842 50.3925C36.0242 50.5439 37.8203 50.5999 39.6242 50.3767V46.1066C37.8526 46.3384 36.1204 46.202 34.348 46.0664Z" fill="#524C4C"/>
<path fill-rule="evenodd" clip-rule="evenodd" d="M43.8467 45.2205L43.8869 49.5308C45.2201 49.0996 46.6007 48.6446 48.0774 47.8948L48.0458 43.7043C46.6811 44.4305 45.2682 44.8058 43.8475 45.2213L43.8467 45.2205Z" fill="#524C4C"/>
<path fill-rule="evenodd" clip-rule="evenodd" d="M36.7266 12C48.5798 12 58.1978 19.6943 58.1978 29.1609C58.1978 38.6276 48.5798 46.3219 36.7266 46.3219C24.8733 46.3219 15.2632 38.6355 15.2632 29.1609C15.2632 19.6864 24.8812 12 36.7266 12Z" fill="#8A8A8A"/>
<path fill-rule="evenodd" clip-rule="evenodd" d="M18.0018 37.422L22.6551 34.5403C23.5807 35.9129 24.8185 37.1342 26.2866 38.1481L21.4653 41.1252C20.1644 40.5828 18.273 38.0922 18.001 37.422H18.0018ZM47.3273 19.2314L51.4382 16.7731C52.8913 17.6987 54.096 18.92 55.0942 20.3651L50.88 22.8873C49.9221 21.5707 48.741 20.3092 47.3281 19.2314H47.3273Z" fill="#CCCCCC"/>
<path fill-rule="evenodd" clip-rule="evenodd" d="M52.4107 40.8785L47.5816 37.9171C48.9866 36.8875 50.3356 35.786 51.2131 34.4213L55.7229 37.191C54.7334 38.8191 53.7116 39.9529 52.4107 40.8785ZM22.6625 22.6161L18.4878 20.0458C19.4773 18.7292 20.6189 17.4835 22.2549 16.5255L26.294 19.0162C24.8252 20.0301 23.5881 21.2435 22.6625 22.6161Z" fill="#DBDBDB"/>
<path fill-rule="evenodd" clip-rule="evenodd" d="M20.5078 28.4907C20.5078 21.0677 28.0988 15.6882 36.7668 15.6882C45.4348 15.6882 53.0257 21.1079 53.0257 28.4907C53.0257 35.8736 45.4348 41.3019 36.7668 41.3019C28.0988 41.3019 20.5078 35.8901 20.5078 28.4907ZM50.6873 28.3393C50.7354 22.6721 44.4697 17.4843 36.7195 17.4843C28.9692 17.4843 22.7351 22.393 22.7351 28.2755C22.7351 33.1685 28.873 38.9074 36.6233 38.9074C44.3735 38.9074 50.6873 33.2725 50.6873 28.3393Z" fill="#2E1914"/>
<path fill-rule="evenodd" clip-rule="evenodd" d="M32.1529 40.3833L32.6402 39.386C33.5902 39.6012 34.5797 39.7455 35.6015 39.8093V40.9029C34.4126 40.8311 33.2552 40.6553 32.1537 40.3841L32.1529 40.3833ZM37.9155 40.9021V39.8086C38.8814 39.7526 39.8149 39.617 40.7168 39.4254L41.212 40.4227C40.1507 40.6703 39.0485 40.8375 37.9155 40.9013V40.9021ZM43.5031 39.721L43.0246 38.7473C44.0621 38.3642 45.028 37.8935 45.9063 37.3424L46.7759 38.0448C45.7785 38.7071 44.6763 39.2661 43.5031 39.721ZM26.4699 37.8611L27.3482 37.1744C28.2502 37.7728 29.2562 38.2837 30.3411 38.6992L29.8704 39.6651C28.6413 39.1778 27.4996 38.5715 26.4699 37.8611ZM48.6437 36.5681L47.8056 35.9137C48.5396 35.2514 49.1704 34.5245 49.697 33.7503L50.7031 34.0932C50.1441 34.9873 49.4502 35.8175 48.6437 36.5673V36.5681ZM22.7344 33.9821L23.7404 33.6391C24.2276 34.3818 24.8261 35.0835 25.5041 35.7221L24.666 36.3844C23.9154 35.6504 23.261 34.8438 22.7344 33.9821ZM51.6042 32.3382L50.6384 32.011C51.0058 31.1248 51.2368 30.1992 51.3172 29.2491H52.3067C52.235 30.3269 51.9953 31.3566 51.6042 32.3382ZM21.2017 29.2491H22.1911C22.2629 30.159 22.4781 31.0452 22.8219 31.8912L21.8561 32.2184C21.4965 31.2762 21.2734 30.2788 21.2017 29.2491ZM22.0879 24.3562L23.0616 24.6912C22.7186 25.4174 22.4631 26.168 22.3189 26.9501H21.3049C21.4484 26.0481 21.7118 25.1785 22.0871 24.3562H22.0879ZM50.3916 24.5714L51.3653 24.2442C51.7722 25.0981 52.0521 26 52.2034 26.9501H51.1895C51.0381 26.1277 50.7661 25.3299 50.3916 24.5714ZM24.0274 23.071L22.9977 22.728C23.5567 21.8978 24.2347 21.1236 25.009 20.4211L25.8392 21.0913C25.1446 21.6976 24.5383 22.3606 24.0274 23.071ZM47.7094 21.1157L48.5475 20.4613C49.2658 21.1157 49.9044 21.8419 50.4389 22.6161L49.4093 22.9591C48.922 22.3047 48.348 21.6897 47.7094 21.1149V21.1157ZM27.4594 19.8708L26.5898 19.1841C27.5871 18.4973 28.6972 17.9147 29.8862 17.4519L30.3648 18.4177C29.3193 18.8088 28.3456 19.3039 27.4594 19.8708ZM43.008 18.3625L43.4787 17.3967C44.6282 17.8359 45.706 18.3783 46.6876 19.0248L45.8014 19.7194C44.9475 19.1849 44.0054 18.7299 43.008 18.3625ZM32.6559 17.7318L32.1687 16.7257C33.2701 16.4624 34.4197 16.2866 35.6007 16.2148V17.3084C34.5789 17.3723 33.5973 17.5157 32.6552 17.7318H32.6559ZM37.9163 17.3084V16.2148C39.0414 16.2866 40.135 16.4466 41.1891 16.6934L40.7018 17.6908C39.8078 17.4992 38.8743 17.3715 37.9163 17.3076V17.3084Z" fill="#9E9E9E"/>
<path fill-rule="evenodd" clip-rule="evenodd" d="M52.3957 40.6949C52.3957 40.6231 52.3318 43.672 52.2837 45.181C53.3536 44.2554 54.3912 43.441 55.4603 41.8688L55.6117 37.0476C54.4945 38.9075 53.5042 39.8489 52.3949 40.6957L52.3957 40.6949Z" fill="#524C4C"/>
<path fill-rule="evenodd" clip-rule="evenodd" d="M21.3292 40.9266C21.3292 40.847 21.393 44.0551 21.4332 45.5642C20.3633 44.6386 19.3179 44.0559 18.2488 42.483L17.9531 37.2628C19.0703 39.1227 20.212 40.0807 21.3292 40.9266Z" fill="#524C4C"/>
<path fill-rule="evenodd" clip-rule="evenodd" d="M15.8945 32.7294L15.7668 38.1175C14.8412 35.9943 14.633 31.8361 15.2638 28.8984C15.2874 30.2317 15.5594 31.5002 15.8945 32.7294Z" fill="#524C4C"/>
<path fill-rule="evenodd" clip-rule="evenodd" d="M22.0398 41.8207C21.361 41.3256 20.7547 40.8068 20.1405 40.232C19.9331 40.0326 19.7336 39.8173 19.5342 39.6092C18.8955 38.9469 18.3287 38.1963 17.8178 37.4378C17.2028 36.528 16.6682 35.466 16.2772 34.445C15.7584 33.0802 15.4312 31.6594 15.3035 30.2064C15.2633 29.6955 15.2554 29.209 15.2554 28.706C15.5029 30.7496 16.0375 32.753 16.9237 34.6129C17.3069 35.4108 17.7776 36.2016 18.2885 36.9277C18.4398 37.143 18.5999 37.3511 18.767 37.5663C19.0304 37.9259 19.3339 38.2531 19.6288 38.5803C19.8921 38.8759 20.1878 39.1708 20.4827 39.4341C21.1292 40.0326 21.8159 40.6073 22.5499 41.1025C23.101 41.4699 23.6356 41.8049 24.2182 42.1243C24.681 42.3876 25.184 42.643 25.6713 42.8504C25.9827 42.9939 26.2942 43.1295 26.6135 43.2572C28.3456 43.9518 30.2371 44.4548 32.0812 44.734C32.999 44.8774 33.9411 44.9973 34.8667 45.0454C35.3855 45.0769 35.8885 45.1014 36.4073 45.1171L38.2034 45.1014L39.8394 44.95C43.6869 44.4872 47.51 43.2257 50.7268 41.0867C51.3417 40.672 51.9401 40.217 52.507 39.7298C52.7301 39.5382 52.9462 39.3387 53.1614 39.1393C53.3128 39.0037 53.4729 38.8436 53.6085 38.6922C53.7922 38.5006 53.9759 38.3091 54.1509 38.1175C54.43 37.7982 54.6855 37.471 54.9409 37.1359C55.5638 36.3214 56.0747 35.4116 56.513 34.486C56.7921 33.8954 57.0082 33.2805 57.2076 32.6584C57.303 32.3872 57.359 32.0994 57.4394 31.8203C57.5033 31.5648 57.5672 31.2936 57.6074 31.0303C57.687 30.5675 57.7666 30.1047 57.8147 29.6332C57.8865 28.8511 57.9188 28.0689 57.9022 27.2789C57.8944 26.992 57.8944 26.6963 57.8707 26.4006C57.9267 26.6561 57.9748 26.9273 58.0063 27.1906C58.134 28.188 58.19 29.1459 58.134 30.152C58.0938 30.8545 58.0063 31.5806 57.8628 32.2673C57.8068 32.5385 57.7351 32.8019 57.6712 33.0652C57.5837 33.4405 57.4481 33.8394 57.3204 34.2069C57.0886 34.8297 56.8331 35.4439 56.5146 36.0266C56.0037 36.9687 55.4368 37.862 54.743 38.6843C52.7073 41.0867 50.0897 42.8827 47.1922 44.0961C45.5318 44.7907 43.8241 45.3332 42.0596 45.6761C41.2451 45.8354 40.4236 45.9718 39.6012 46.0593C39.0588 46.1153 38.5235 46.1713 37.9731 46.1791C32.4494 46.3226 26.5748 45.1258 22.0414 41.8207H22.0398Z" fill="url(#paint1_radial_4471_31527)"/>
<path fill-rule="evenodd" clip-rule="evenodd" d="M22.8862 28.6422C22.8862 28.2748 22.9099 27.9081 22.9265 28.0832C22.9265 32.9359 29.025 38.6749 36.735 38.6749C44.445 38.6749 50.7193 33.04 50.6791 28.6098C50.6712 27.9949 50.6949 28.3465 50.687 28.7052C50.687 33.6298 44.3496 39.2733 36.7027 39.2733C29.0557 39.2733 22.8862 33.5344 22.8862 28.6414V28.6422ZM36.8462 16.0549C28.7687 16.0549 21.6248 20.78 20.7149 28.2913L20.707 28.2598C20.707 20.8288 28.2578 15.4573 36.8785 15.4573C45.4992 15.4573 53.0499 20.869 53.0499 28.2598L53.0097 28.8266C52.0676 20.8131 44.9638 16.0557 36.8462 16.0557V16.0549Z" fill="black"/>
<path fill-rule="evenodd" clip-rule="evenodd" d="M36.8064 17.4117C44.421 17.4117 50.5991 22.177 50.5991 28.0516C50.5991 33.9262 44.421 38.6914 36.8064 38.6914C29.1917 38.6914 23.0215 33.9262 23.0215 28.0516C23.0215 22.177 29.1917 17.4117 36.8064 17.4117Z" fill="white"/>
<path d="M29.4211 24.7049C30.8742 24.7049 32.4211 25.2726 32.4211 26.5703C32.4211 27.6016 31.4671 28.1953 30.1425 28.5989C29.1538 28.9088 28.3457 29.2691 28.1478 29.579H32.5409V30.9027H26.0845V30.1458C26.239 28.9853 27.305 28.0052 29.0931 27.4723C29.9612 27.1971 30.6495 27.0079 30.6495 26.6042C30.6495 26.2005 30.0045 25.994 29.343 25.994C28.5176 25.994 27.7615 26.3377 27.1252 26.9653L26.1712 26.0452C26.7901 25.2804 27.994 24.7041 29.4211 24.7041V24.7049Z" fill="#2B2B2B"/>
<path d="M36.6255 29.7254C37.5369 29.7254 38.1645 29.5362 38.1645 28.9685C38.1645 28.4009 37.5369 28.1691 36.5655 28.1691C35.9805 28.1691 35.3364 28.2723 34.7175 28.5388L33.4623 28.0658L33.9779 24.8853H39.325V26.183H35.293L35.0864 27.4808C35.6967 27.111 36.4102 26.9218 37.2184 26.9218C38.5855 26.9218 39.9518 27.5667 39.9518 28.9851C39.9518 30.1196 38.9718 31.0996 36.6247 31.0996C35.1716 31.0996 34.0284 30.6613 33.1855 29.9391L34.1143 28.9078C34.57 29.2863 35.4901 29.7246 36.6247 29.7246L36.6255 29.7254Z" fill="#2B2B2B"/>
<path d="M40.5889 27.8939C40.5889 25.8653 42.0333 24.6874 44.337 24.6874C46.6408 24.6874 48.0939 25.8653 48.0939 27.8939C48.0939 29.9225 46.6495 31.1005 44.337 31.1005C42.0246 31.1005 40.5889 29.9225 40.5889 27.8939ZM46.3144 27.8939C46.3144 26.742 45.5749 26.1144 44.3457 26.1144C43.1166 26.1144 42.3683 26.742 42.3683 27.8939C42.3683 29.0458 43.1079 29.6734 44.3457 29.6734C45.5836 29.6734 46.3144 29.0458 46.3144 27.8939Z" fill="#2B2B2B"/>
</g>
<defs>
<filter id="filter0_d_4471_31527" x="0.901367" y="0" width="71.415" height="66.5255" filterUnits="userSpaceOnUse" color-interpolation-filters="sRGB">
<feFlood flood-opacity="0" result="BackgroundImageFix"/>
<feColorMatrix in="SourceAlpha" type="matrix" values="0 0 0 0 0 0 0 0 0 0 0 0 0 0 0 0 0 0 127 0" result="hardAlpha"/>
<feOffset dy="2"/>
<feGaussianBlur stdDeviation="7"/>
<feComposite in2="hardAlpha" operator="out"/>
<feColorMatrix type="matrix" values="0 0 0 0 0.704167 0 0 0 0 0.704167 0 0 0 0 0.704167 0 0 0 0.4 0"/>
<feBlend mode="normal" in2="BackgroundImageFix" result="effect1_dropShadow_4471_31527"/>
<feBlend mode="normal" in="SourceGraphic" in2="effect1_dropShadow_4471_31527" result="shape"/>
</filter>
<linearGradient id="paint0_linear_4471_31527" x1="11.9238" y1="33.7212" x2="59.179" y2="32.9691" gradientUnits="userSpaceOnUse">
<stop/>
<stop offset="0.44" stop-color="#363636"/>
<stop offset="1" stop-color="#121212"/>
</linearGradient>
<radialGradient id="paint1_radial_4471_31527" cx="0" cy="0" r="1" gradientUnits="userSpaceOnUse" gradientTransform="translate(38.395 45.468) scale(22.3007)">
<stop stop-color="white"/>
<stop offset="0.55" stop-color="#BFBDBD"/>
<stop offset="1" stop-color="#807D7D"/>
</radialGradient>
</defs>
</svg>
