<svg width="44" height="39" viewBox="0 0 44 39" fill="none" xmlns="http://www.w3.org/2000/svg">
<path fill-rule="evenodd" clip-rule="evenodd" d="M0.225699 21.4586C0.225699 20.872 0.269062 20.2847 0.337655 19.7067L0.777599 14.8902C0.777599 14.5102 0.622278 14.6742 0.958937 14.6742H1.98626C5.31816 8.51105 13.0605 4.18652 22.0636 4.18652C31.0666 4.18652 38.8177 8.51105 42.1496 14.6742H42.8836C43.2203 14.6742 43.4962 14.9848 43.4962 15.3562L43.5869 15.1228C43.8542 16.1935 43.9015 20.328 43.9015 21.4586C43.9015 31.0057 34.1218 38.7394 22.0628 38.7394C10.0038 38.7394 0.224121 31.0057 0.224121 21.4586H0.225699Z" fill="url(#paint0_linear_4471_31656)"/>
<path fill-rule="evenodd" clip-rule="evenodd" d="M19.8115 34.3896V38.6282C21.6848 38.7922 23.6007 38.7575 25.5513 38.5076V34.2611C23.6433 34.511 21.7187 34.5371 19.8115 34.3904V34.3896Z" fill="#CC8700"/>
<path fill-rule="evenodd" clip-rule="evenodd" d="M22.1682 0C34.0971 0 43.7821 7.73369 43.7821 17.2721C43.7821 26.8105 34.0971 34.5529 22.1682 34.5529C10.2392 34.5529 0.554199 26.8105 0.554199 17.2721C0.554199 7.73369 10.2392 0 22.1682 0Z" fill="url(#paint1_linear_4471_31656)"/>
<path fill-rule="evenodd" clip-rule="evenodd" d="M3.30762 25.5766L7.99482 22.6846C8.92674 24.066 10.1701 25.2999 11.6547 26.3185L6.80351 29.3137C5.49156 28.7611 3.58357 26.2665 3.30762 25.5758V25.5766ZM32.8366 7.2685L36.9711 4.79126C38.4384 5.73185 39.6557 6.95786 40.657 8.40778L36.4106 10.9544C35.4526 9.62511 34.2613 8.34786 32.8366 7.2685Z" fill="#FFDE1C"/>
<path fill-rule="evenodd" clip-rule="evenodd" d="M37.9552 29.0637L33.0954 26.0772C34.5106 25.0499 35.8659 23.9366 36.7466 22.5639L41.2871 25.3518C40.2945 26.9918 39.2672 28.131 37.9552 29.0637ZM8.00284 10.6784L3.80762 8.08919C4.80025 6.76857 5.9482 5.50866 7.5968 4.54126L11.6627 7.0532C10.1868 8.07184 8.94344 9.29785 8.00284 10.6784Z" fill="#FFDE1C"/>
<path fill-rule="evenodd" clip-rule="evenodd" d="M5.83643 16.5995C5.83643 9.11575 13.4842 3.70398 22.2026 3.70398C30.9211 3.70398 38.5775 9.15911 38.5775 16.5995C38.5775 24.0399 30.9297 29.4864 22.2026 29.4864C13.4755 29.4864 5.83643 24.0399 5.83643 16.5995ZM36.2201 16.4442C36.2634 10.7297 29.9623 5.51658 22.1593 5.51658C14.3562 5.51658 8.08108 10.4624 8.07241 16.3756C8.07241 21.3041 14.2529 27.088 22.056 27.088C29.859 27.088 36.2209 21.4081 36.2209 16.445L36.2201 16.4442Z" fill="#D99412"/>
<path fill-rule="evenodd" clip-rule="evenodd" d="M17.5591 28.5631L18.0511 27.5618C19.0004 27.7865 20.0017 27.9245 21.029 27.9844V29.089C19.8377 29.0196 18.6724 28.8391 17.5591 28.5623V28.5631ZM23.3596 29.0898V27.9852C24.3349 27.9332 25.2755 27.7952 26.1822 27.5965L26.6828 28.6065C25.6122 28.8564 24.4989 29.0212 23.3596 29.0898ZM28.9874 27.8985L28.5041 26.9232C29.5488 26.5345 30.5241 26.0599 31.4134 25.4993L32.2854 26.2073C31.2841 26.872 30.1708 27.442 28.9882 27.8993L28.9874 27.8985ZM11.8446 26.0252L12.7253 25.3345C13.6399 25.9384 14.6498 26.4478 15.7379 26.8712L15.2632 27.8378C14.0199 27.3545 12.8719 26.7419 11.8454 26.0252H11.8446ZM34.1579 24.7306L33.3206 24.0659C34.0546 23.4013 34.6933 22.6673 35.2199 21.8907L36.2386 22.236C35.6772 23.134 34.97 23.9713 34.1587 24.7306H34.1579ZM8.08145 22.124L9.09143 21.7787C9.58341 22.5214 10.1787 23.2286 10.8607 23.8759L10.032 24.5319C9.26409 23.7979 8.61679 22.9866 8.08145 22.1232V22.124ZM37.1445 20.4668L36.1692 20.1388C36.5406 19.2494 36.7818 18.3175 36.8512 17.3509H37.8525C37.7831 18.4381 37.5419 19.4741 37.1445 20.4668ZM6.53613 17.3509H7.53743C7.60681 18.2741 7.82206 19.1635 8.16739 20.0181L7.20078 20.3461C6.82943 19.3969 6.60551 18.3956 6.53613 17.3509ZM7.42548 12.4311L8.40943 12.7678C8.0641 13.5018 7.8055 14.2524 7.65885 15.0376H6.6402C6.78685 14.1309 7.05492 13.2597 7.42548 12.4311ZM35.9279 12.6471L36.9119 12.3191C37.3093 13.1825 37.5939 14.0884 37.7492 15.0384H36.7306C36.5752 14.2185 36.308 13.4158 35.9279 12.6471ZM9.37684 11.1365L8.34952 10.7912C8.91088 9.95386 9.59287 9.17726 10.3695 8.46058L11.2068 9.14257C10.5074 9.75518 9.89483 10.4198 9.37684 11.1365ZM33.2181 9.17726L34.0641 8.50394C34.7895 9.17726 35.4281 9.89394 35.9721 10.6792L34.9361 11.0245C34.4441 10.3686 33.8654 9.74729 33.2181 9.17726ZM12.8388 7.91735L11.9581 7.21801C12.9681 6.53602 14.0814 5.94943 15.2814 5.47401L15.7647 6.44929C14.7027 6.84666 13.7274 7.34732 12.8388 7.91656V7.91735ZM28.4883 6.39805L28.9716 5.42276C30.1283 5.86271 31.2076 6.4154 32.1916 7.05402L31.3109 7.76203C30.4476 7.22669 29.4983 6.7694 28.4883 6.39805ZM18.07 5.75942L17.5781 4.74944C18.6827 4.48217 19.8393 4.3095 21.0306 4.23145V5.33603C20.0033 5.39674 19.0193 5.54339 18.07 5.75863V5.75942ZM23.3612 5.33682V4.23223C24.4918 4.30162 25.5972 4.46561 26.6584 4.71554L26.1664 5.72552C25.2684 5.52683 24.3278 5.39753 23.3612 5.33682Z" fill="#FFDE1C"/>
<path fill-rule="evenodd" clip-rule="evenodd" d="M37.9382 29.0205C37.9382 28.9424 37.8002 32.0417 37.7568 33.561C38.8362 32.6291 39.9684 31.6247 41.0477 30.036L41.1755 25.3433C40.0535 27.2079 39.0609 28.1658 37.9382 29.0205Z" fill="#CC8700"/>
<path fill-rule="evenodd" clip-rule="evenodd" d="M6.69102 29.4691C6.69102 29.3997 6.69102 32.3003 6.74306 33.7502C5.6637 32.8609 4.56778 32.1537 3.48921 30.6257L3.29053 25.9385C4.62849 27.7858 5.66449 28.6751 6.69181 29.4691H6.69102Z" fill="#CC8700"/>
<path fill-rule="evenodd" clip-rule="evenodd" d="M10.8169 31.9723V36.3315C12.2581 37.0222 13.8208 37.5662 15.5388 37.9801L15.5561 33.561C13.8555 33.285 12.3023 32.6803 10.8177 31.9731L10.8169 31.9723Z" fill="#CC8700"/>
<path fill-rule="evenodd" clip-rule="evenodd" d="M30.0664 33.2157L30.0837 37.5315C31.5337 37.0656 33.0238 36.386 34.6204 35.5747L34.5896 31.3857C33.1137 32.171 31.6031 32.7671 30.0664 33.2157Z" fill="#CC8700"/>
<path fill-rule="evenodd" clip-rule="evenodd" d="M19.4572 34.3636C18.7318 34.2856 18.0246 34.191 17.3079 34.079C16.4533 33.941 15.6246 33.7423 14.7873 33.535C14.1227 33.3623 13.4494 33.1463 12.7934 32.9137C9.39212 31.6964 6.26758 29.7285 3.98902 26.8885C3.42766 26.1805 2.90178 25.4213 2.4784 24.6273C1.7964 23.3587 1.27841 22.0894 0.950421 20.6828C0.648453 19.3882 0.527825 18.1449 0.553055 16.8069C0.81166 18.8529 1.37302 20.8807 2.27104 22.7367C2.65973 23.548 3.12569 24.3159 3.64369 25.0499C3.79901 25.2746 3.963 25.4812 4.127 25.6972C4.36904 26.0252 4.66234 26.3445 4.93829 26.6465C5.99163 27.7858 7.25154 28.8391 8.57215 29.6504C8.98687 29.9003 9.40079 30.1597 9.83206 30.3844C13.5866 32.335 17.6872 33.155 21.8651 33.2417L23.643 33.233L25.1102 33.1037C25.6022 33.0517 26.0855 32.9831 26.5688 32.8964C27.3975 32.7497 28.2348 32.5857 29.0461 32.361C29.7454 32.171 30.4274 31.9723 31.118 31.7311C34.7346 30.4625 38.1098 28.3384 40.4491 25.2573C41.079 24.4286 41.5884 23.548 42.037 22.6074C42.5463 21.554 42.935 20.3028 43.1502 19.1462C43.3836 17.8863 43.4869 16.6516 43.4696 15.3743C43.4696 15.081 43.4782 14.7791 43.4522 14.4937C43.5129 14.7444 43.5555 15.0203 43.5989 15.2789C43.7455 16.2802 43.7975 17.2555 43.7455 18.2655C43.7021 19.2755 43.5382 20.2334 43.2969 21.2087C43.0982 22.0026 42.8049 22.7367 42.4856 23.4873C42.2956 23.9359 42.0543 24.3506 41.8209 24.7732C41.6309 25.1272 41.3897 25.5072 41.1563 25.8265C40.9836 26.0599 40.8283 26.2925 40.647 26.5172C40.2583 27.0178 39.8444 27.4925 39.3958 27.9411C37.4799 29.8917 35.2265 31.2903 32.732 32.3776C30.9966 33.1368 29.1068 33.6808 27.2508 34.0348C26.1029 34.2596 24.8855 34.4235 23.7202 34.4835C23.0989 34.5095 22.443 34.5095 21.8209 34.4921C21.0356 34.4748 20.2417 34.4401 19.4556 34.3628L19.4572 34.3636Z" fill="url(#paint2_radial_4471_31656)"/>
<path fill-rule="evenodd" clip-rule="evenodd" d="M8.23675 16.7461C8.23675 16.3748 8.2541 16.0121 8.27144 16.1848C8.26277 21.062 14.4172 26.8451 22.1683 26.8451C29.9193 26.8451 36.2551 21.174 36.2126 16.7114C36.2039 16.0988 36.2212 16.4528 36.2212 16.8061C36.2212 21.7692 29.842 27.4491 22.143 27.4491C14.444 27.4491 8.23754 21.6659 8.23754 16.7453L8.23675 16.7461ZM22.281 4.06585C14.15 4.06585 6.9595 8.83032 6.04492 16.3921V16.3574C6.04492 8.88236 13.6406 3.46191 22.3157 3.46191C30.9908 3.46191 38.5952 8.91705 38.5952 16.3574L38.5605 16.9275C37.6112 8.85713 30.4554 4.06585 22.281 4.06585Z" fill="#B56903"/>
<path d="M22.246 26.8626C29.9119 26.8626 36.1263 22.0665 36.1263 16.1502C36.1263 10.234 29.9119 5.43787 22.246 5.43787C14.5801 5.43787 8.36572 10.234 8.36572 16.1502C8.36572 22.0665 14.5801 26.8626 22.246 26.8626Z" fill="white"/>
<path fill-rule="evenodd" clip-rule="evenodd" d="M1.21879 21.6833L1.08949 26.2838C0.140224 23.8413 -0.110496 20.604 0.528131 17.5488C0.554149 18.9814 0.856118 20.3627 1.21879 21.6833Z" fill="#CC8700"/>
<path d="M13.5748 14.0294C13.0355 14.3826 12.3472 14.5781 11.6313 14.6987V13.1928C12.4868 13.0722 13.4258 12.607 14.0392 12.0677H15.471V18.5754H13.574V14.0294H13.5748Z" fill="#9C2E00"/>
<path d="M16.6245 15.3216C16.6245 13.1274 18.1864 11.8541 20.6778 11.8541C23.1693 11.8541 24.7406 13.1282 24.7406 15.3216C24.7406 17.515 23.1787 18.7891 20.6778 18.7891C18.1769 18.7891 16.6245 17.5158 16.6245 15.3216ZM22.816 15.3216C22.816 14.0759 22.0166 13.3971 20.6873 13.3971C19.358 13.3971 18.5491 14.0759 18.5491 15.3216C18.5491 16.5674 19.3485 17.2462 20.6873 17.2462C22.026 17.2462 22.816 16.5674 22.816 15.3216Z" fill="#9C2E00"/>
<path d="M25.522 15.3216C25.522 13.1274 27.0839 11.8541 29.5753 11.8541C32.0667 11.8541 33.6381 13.1282 33.6381 15.3216C33.6381 17.515 32.0762 18.7891 29.5753 18.7891C27.0744 18.7891 25.522 17.5158 25.522 15.3216ZM31.7135 15.3216C31.7135 14.0759 30.914 13.3971 29.5847 13.3971C28.2555 13.3971 27.4465 14.0759 27.4465 15.3216C27.4465 16.5674 28.246 17.2462 29.5847 17.2462C30.9235 17.2462 31.7135 16.5674 31.7135 15.3216Z" fill="#9C2E00"/>
<defs>
<linearGradient id="paint0_linear_4471_31656" x1="-5.79395" y1="22.2305" x2="47.7001" y2="20.7569" gradientUnits="userSpaceOnUse">
<stop stop-color="#452400"/>
<stop offset="0.61" stop-color="#C46B0A"/>
<stop offset="1" stop-color="#522100"/>
</linearGradient>
<linearGradient id="paint1_linear_4471_31656" x1="21.5122" y1="37.2193" x2="22.4583" y2="8.47008" gradientUnits="userSpaceOnUse">
<stop stop-color="#FFC221"/>
<stop offset="1" stop-color="#FFA100"/>
</linearGradient>
<radialGradient id="paint2_radial_4471_31656" cx="0" cy="0" r="1" gradientUnits="userSpaceOnUse" gradientTransform="translate(22.8758 33.5862) scale(35.745 35.745)">
<stop stop-color="#FFFAA6"/>
<stop offset="0.5" stop-color="#FFD975"/>
<stop offset="1" stop-color="#FFA808"/>
</radialGradient>
</defs>
</svg>
