<svg width="72" height="67" viewBox="0 0 72 67" fill="none" xmlns="http://www.w3.org/2000/svg">
<g filter="url(#filter0_d_4471_31507)">
<path fill-rule="evenodd" clip-rule="evenodd" d="M14.2257 33.4641C14.2257 32.8775 14.2691 32.2901 14.3377 31.7122L14.7776 26.8957C14.7776 26.5157 14.6223 26.6797 14.9589 26.6797H15.9863C19.3182 20.5165 27.0605 16.192 36.0636 16.192C45.0666 16.192 52.8177 20.5165 56.1496 26.6797H56.8836C57.2203 26.6797 57.4962 26.9903 57.4962 27.3617L57.5869 27.1283C57.8542 28.199 57.9015 32.3335 57.9015 33.4641C57.9015 43.0112 48.1218 50.7449 36.0628 50.7449C24.0038 50.7449 14.2241 43.0112 14.2241 33.4641H14.2257Z" fill="url(#paint0_linear_4471_31507)"/>
<path fill-rule="evenodd" clip-rule="evenodd" d="M33.8115 46.3951V50.6337C35.6848 50.7977 37.6007 50.763 39.5513 50.5131V46.2666C37.6433 46.5165 35.7187 46.5426 33.8115 46.3959V46.3951Z" fill="#CC8700"/>
<path fill-rule="evenodd" clip-rule="evenodd" d="M36.1682 12.0055C48.0971 12.0055 57.7821 19.7392 57.7821 29.2776C57.7821 38.816 48.0971 46.5584 36.1682 46.5584C24.2392 46.5584 14.5542 38.816 14.5542 29.2776C14.5542 19.7392 24.2392 12.0055 36.1682 12.0055Z" fill="url(#paint1_linear_4471_31507)"/>
<path fill-rule="evenodd" clip-rule="evenodd" d="M17.3076 37.5821L21.9948 34.6901C22.9267 36.0715 24.1701 37.3053 25.6547 38.324L20.8035 41.3192C19.4916 40.7665 17.5836 38.272 17.3076 37.5813V37.5821ZM46.8366 19.274L50.9711 16.7968C52.4384 17.7373 53.6557 18.9634 54.657 20.4133L50.4106 22.9599C49.4526 21.6306 48.2613 20.3534 46.8366 19.274Z" fill="#FFDE1C"/>
<path fill-rule="evenodd" clip-rule="evenodd" d="M51.9552 41.0692L47.0954 38.0827C48.5106 37.0553 49.8659 35.9421 50.7466 34.5694L55.2871 37.3573C54.2945 38.9973 53.2672 40.1365 51.9552 41.0692ZM22.0028 22.6839L17.8076 20.0947C18.8002 18.7741 19.9482 17.5142 21.5968 16.5468L25.6627 19.0587C24.1868 20.0773 22.9434 21.3033 22.0028 22.6839Z" fill="#FFDE1C"/>
<path fill-rule="evenodd" clip-rule="evenodd" d="M19.8364 28.605C19.8364 21.1212 27.4842 15.7095 36.2026 15.7095C44.9211 15.7095 52.5775 21.1646 52.5775 28.605C52.5775 36.0454 44.9297 41.4919 36.2026 41.4919C27.4755 41.4919 19.8364 36.0454 19.8364 28.605ZM50.2201 28.4497C50.2634 22.7352 43.9623 17.5221 36.1593 17.5221C28.3562 17.5221 22.0811 22.4679 22.0724 28.3811C22.0724 33.3096 28.2529 39.0935 36.056 39.0935C43.859 39.0935 50.2209 33.4136 50.2209 28.4505L50.2201 28.4497Z" fill="#D99412"/>
<path fill-rule="evenodd" clip-rule="evenodd" d="M31.5591 40.5686L32.0511 39.5673C33.0004 39.792 34.0017 39.93 35.029 39.9899V41.0945C33.8377 41.0251 32.6724 40.8446 31.5591 40.5678V40.5686ZM37.3596 41.0953V39.9907C38.3349 39.9387 39.2755 39.8007 40.1822 39.602L40.6828 40.612C39.6122 40.8619 38.4989 41.0267 37.3596 41.0953ZM42.9874 39.904L42.5041 38.9287C43.5488 38.54 44.5241 38.0654 45.4134 37.5048L46.2854 38.2128C45.2841 38.8774 44.1708 39.4475 42.9882 39.9048L42.9874 39.904ZM25.8446 38.0307L26.7253 37.34C27.6399 37.9439 28.6498 38.4533 29.7379 38.8767L29.2632 39.8433C28.0199 39.36 26.8719 38.7474 25.8454 38.0307H25.8446ZM48.1579 36.7361L47.3206 36.0714C48.0546 35.4068 48.6933 34.6728 49.2199 33.8962L50.2386 34.2415C49.6772 35.1395 48.97 35.9768 48.1587 36.7361H48.1579ZM22.0814 34.1295L23.0914 33.7842C23.5834 34.5269 24.1787 35.2341 24.8607 35.8814L24.032 36.5374C23.2641 35.8034 22.6168 34.9921 22.0814 34.1287V34.1295ZM51.1445 32.4723L50.1692 32.1443C50.5406 31.2549 50.7818 30.323 50.8512 29.3564H51.8525C51.7831 30.4436 51.5419 31.4796 51.1445 32.4723ZM20.5361 29.3564H21.5374C21.6068 30.2796 21.8221 31.169 22.1674 32.0236L21.2008 32.3516C20.8294 31.4024 20.6055 30.4011 20.5361 29.3564ZM21.4255 24.4366L22.4094 24.7733C22.0641 25.5073 21.8055 26.2579 21.6589 27.0431H20.6402C20.7868 26.1364 21.0549 25.2652 21.4255 24.4366ZM49.9279 24.6526L50.9119 24.3246C51.3093 25.188 51.5939 26.0939 51.7492 27.0439H50.7306C50.5752 26.224 50.308 25.4213 49.9279 24.6526ZM23.3768 23.142L22.3495 22.7967C22.9109 21.9594 23.5929 21.1827 24.3695 20.4661L25.2068 21.1481C24.5074 21.7607 23.8948 22.4253 23.3768 23.142ZM47.2181 21.1828L48.0641 20.5094C48.7895 21.1827 49.4281 21.8994 49.9721 22.6847L48.9361 23.03C48.4441 22.3741 47.8654 21.7528 47.2181 21.1828ZM26.8388 19.9228L25.9581 19.2235C26.9681 18.5415 28.0814 17.9549 29.2814 17.4795L29.7647 18.4548C28.7027 18.8522 27.7274 19.3528 26.8388 19.9221V19.9228ZM42.4883 18.4035L42.9716 17.4283C44.1283 17.8682 45.2076 18.4209 46.1916 19.0595L45.3109 19.7675C44.4476 19.2322 43.4983 18.7749 42.4883 18.4035ZM32.07 17.7649L31.5781 16.7549C32.6827 16.4877 33.8393 16.315 35.0306 16.2369V17.3415C34.0033 17.4022 33.0193 17.5489 32.07 17.7641V17.7649ZM37.3612 17.3423V16.2377C38.4918 16.3071 39.5972 16.4711 40.6584 16.721L40.1664 17.731C39.2684 17.5323 38.3278 17.403 37.3612 17.3423Z" fill="#FFDE1C"/>
<path fill-rule="evenodd" clip-rule="evenodd" d="M51.9382 41.026C51.9382 40.9479 51.8002 44.0472 51.7568 45.5665C52.8362 44.6346 53.9684 43.6302 55.0477 42.0415L55.1755 37.3488C54.0535 39.2134 53.0609 40.1713 51.9382 41.026Z" fill="#CC8700"/>
<path fill-rule="evenodd" clip-rule="evenodd" d="M20.691 41.4746C20.691 41.4052 20.691 44.3058 20.7431 45.7557C19.6637 44.8664 18.5678 44.1592 17.4892 42.6312L17.2905 37.944C18.6285 39.7913 19.6645 40.6806 20.6918 41.4746H20.691Z" fill="#CC8700"/>
<path fill-rule="evenodd" clip-rule="evenodd" d="M24.8169 43.9778V48.337C26.2581 49.0277 27.8208 49.5717 29.5388 49.9856L29.5561 45.5665C27.8555 45.2905 26.3023 44.6858 24.8177 43.9786L24.8169 43.9778Z" fill="#CC8700"/>
<path fill-rule="evenodd" clip-rule="evenodd" d="M44.0664 45.2212L44.0837 49.537C45.5337 49.0711 47.0238 48.3914 48.6204 47.5802L48.5896 43.3912C47.1137 44.1765 45.6031 44.7726 44.0664 45.2212Z" fill="#CC8700"/>
<path fill-rule="evenodd" clip-rule="evenodd" d="M33.4572 46.3691C32.7318 46.2911 32.0246 46.1964 31.3079 46.0845C30.4533 45.9465 29.6246 45.7478 28.7873 45.5405C28.1227 45.3678 27.4494 45.1518 26.7934 44.9192C23.3921 43.7019 20.2676 41.7339 17.989 38.894C17.4277 38.186 16.9018 37.4268 16.4784 36.6328C15.7964 35.3642 15.2784 34.0949 14.9504 32.6883C14.6485 31.3937 14.5278 30.1504 14.5531 28.8124C14.8117 30.8584 15.373 32.8862 16.271 34.7422C16.6597 35.5535 17.1257 36.3214 17.6437 37.0554C17.799 37.2801 17.963 37.4867 18.127 37.7027C18.369 38.0307 18.6623 38.35 18.9383 38.652C19.9916 39.7913 21.2515 40.8446 22.5722 41.6559C22.9869 41.9058 23.4008 42.1652 23.8321 42.3899C27.5866 44.3405 31.6872 45.1604 35.8651 45.2472L37.643 45.2385L39.1102 45.1092C39.6022 45.0572 40.0855 44.9886 40.5688 44.9018C41.3975 44.7552 42.2348 44.5912 43.0461 44.3665C43.7454 44.1765 44.4274 43.9778 45.118 43.7365C48.7346 42.468 52.1098 40.3439 54.4491 37.2628C55.079 36.4341 55.5884 35.5535 56.037 34.6129C56.5463 33.5595 56.935 32.3083 57.1502 31.1517C57.3836 29.8918 57.4869 28.6571 57.4696 27.3798C57.4696 27.0865 57.4782 26.7846 57.4522 26.4991C57.5129 26.7499 57.5555 27.0258 57.5989 27.2844C57.7455 28.2857 57.7975 29.261 57.7455 30.271C57.7021 31.281 57.5382 32.2389 57.2969 33.2142C57.0982 34.0081 56.8049 34.7422 56.4856 35.4927C56.2956 35.9414 56.0543 36.3561 55.8209 36.7787C55.6309 37.1327 55.3897 37.5127 55.1563 37.832C54.9836 38.0654 54.8283 38.298 54.647 38.5227C54.2583 39.0233 53.8444 39.498 53.3958 39.9466C51.4799 41.8971 49.2265 43.2958 46.732 44.3831C44.9966 45.1423 43.1068 45.6863 41.2508 46.0403C40.1029 46.265 38.8855 46.429 37.7202 46.489C37.0989 46.515 36.443 46.515 35.8209 46.4976C35.0356 46.4803 34.2417 46.4456 33.4556 46.3683L33.4572 46.3691Z" fill="url(#paint2_radial_4471_31507)"/>
<path fill-rule="evenodd" clip-rule="evenodd" d="M22.2368 28.7516C22.2368 28.3803 22.2541 28.0176 22.2714 28.1903C22.2628 33.0675 28.4172 38.8506 36.1683 38.8506C43.9193 38.8506 50.2551 33.1794 50.2126 28.7169C50.2039 28.1043 50.2212 28.4583 50.2212 28.8116C50.2212 33.7747 43.842 39.4545 36.143 39.4545C28.444 39.4545 22.2375 33.6714 22.2375 28.7508L22.2368 28.7516ZM36.281 16.0713C28.15 16.0713 20.9595 20.8358 20.0449 28.3976V28.3629C20.0449 20.8879 27.6406 15.4674 36.3157 15.4674C44.9908 15.4674 52.5952 20.9225 52.5952 28.3629L52.5605 28.933C51.6112 20.8626 44.4554 16.0713 36.281 16.0713Z" fill="#B56903"/>
<path d="M36.246 38.8681C43.9119 38.8681 50.1263 34.072 50.1263 28.1557C50.1263 22.2395 43.9119 17.4434 36.246 17.4434C28.5801 17.4434 22.3657 22.2395 22.3657 28.1557C22.3657 34.072 28.5801 38.8681 36.246 38.8681Z" fill="white"/>
<path fill-rule="evenodd" clip-rule="evenodd" d="M15.2188 33.6888L15.0895 38.2893C14.1402 35.8468 13.8895 32.6095 14.5281 29.5543C14.5541 30.9869 14.8561 32.3682 15.2188 33.6888Z" fill="#CC8700"/>
<path d="M27.5748 26.0349C27.0355 26.3881 26.3472 26.5836 25.6313 26.7042V25.1983C26.4868 25.0777 27.4258 24.6125 28.0392 24.0732H29.471V30.5809H27.574V26.0349H27.5748Z" fill="#9C2E00"/>
<path d="M30.6245 27.3271C30.6245 25.1329 32.1864 23.8596 34.6778 23.8596C37.1693 23.8596 38.7406 25.1337 38.7406 27.3271C38.7406 29.5205 37.1787 30.7946 34.6778 30.7946C32.1769 30.7946 30.6245 29.5213 30.6245 27.3271ZM36.816 27.3271C36.816 26.0814 36.0166 25.4026 34.6873 25.4026C33.358 25.4026 32.5491 26.0814 32.5491 27.3271C32.5491 28.5728 33.3485 29.2517 34.6873 29.2517C36.026 29.2517 36.816 28.5728 36.816 27.3271Z" fill="#9C2E00"/>
<path d="M39.522 27.3271C39.522 25.1329 41.0839 23.8596 43.5753 23.8596C46.0667 23.8596 47.6381 25.1337 47.6381 27.3271C47.6381 29.5205 46.0762 30.7946 43.5753 30.7946C41.0744 30.7946 39.522 29.5213 39.522 27.3271ZM45.7135 27.3271C45.7135 26.0814 44.914 25.4026 43.5847 25.4026C42.2555 25.4026 41.4465 26.0814 41.4465 27.3271C41.4465 28.5728 42.246 29.2517 43.5847 29.2517C44.9235 29.2517 45.7135 28.5728 45.7135 27.3271Z" fill="#9C2E00"/>
</g>
<defs>
<filter id="filter0_d_4471_31507" x="0.174805" y="0.00549316" width="71.7266" height="66.7394" filterUnits="userSpaceOnUse" color-interpolation-filters="sRGB">
<feFlood flood-opacity="0" result="BackgroundImageFix"/>
<feColorMatrix in="SourceAlpha" type="matrix" values="0 0 0 0 0 0 0 0 0 0 0 0 0 0 0 0 0 0 127 0" result="hardAlpha"/>
<feOffset dy="2"/>
<feGaussianBlur stdDeviation="7"/>
<feComposite in2="hardAlpha" operator="out"/>
<feColorMatrix type="matrix" values="0 0 0 0 1 0 0 0 0 0.42 0 0 0 0 0 0 0 0 0.4 0"/>
<feBlend mode="normal" in2="BackgroundImageFix" result="effect1_dropShadow_4471_31507"/>
<feBlend mode="normal" in="SourceGraphic" in2="effect1_dropShadow_4471_31507" result="shape"/>
</filter>
<linearGradient id="paint0_linear_4471_31507" x1="8.20605" y1="34.236" x2="61.7001" y2="32.7624" gradientUnits="userSpaceOnUse">
<stop stop-color="#452400"/>
<stop offset="0.61" stop-color="#C46B0A"/>
<stop offset="1" stop-color="#522100"/>
</linearGradient>
<linearGradient id="paint1_linear_4471_31507" x1="35.5122" y1="49.2248" x2="36.4583" y2="20.4756" gradientUnits="userSpaceOnUse">
<stop stop-color="#FFC221"/>
<stop offset="1" stop-color="#FFA100"/>
</linearGradient>
<radialGradient id="paint2_radial_4471_31507" cx="0" cy="0" r="1" gradientUnits="userSpaceOnUse" gradientTransform="translate(36.8758 45.5917) scale(35.745 35.745)">
<stop stop-color="#FFFAA6"/>
<stop offset="0.5" stop-color="#FFD975"/>
<stop offset="1" stop-color="#FFA808"/>
</radialGradient>
</defs>
</svg>
