<svg width="44" height="39" viewBox="0 0 44 39" fill="none" xmlns="http://www.w3.org/2000/svg">
<path fill-rule="evenodd" clip-rule="evenodd" d="M0.250602 21.4674C0.250602 20.8721 0.293968 20.2848 0.371234 19.7069L0.801712 14.8903C0.801712 14.5103 0.646395 14.683 0.982266 14.683H1.99776C5.32887 8.51117 13.0421 4.18665 22.0286 4.18665C31.0151 4.18665 38.7369 8.51117 42.0594 14.683H42.791C43.1269 14.683 43.4021 14.985 43.4021 15.3563L43.6086 15.2869C43.8751 16.3576 43.8152 20.3281 43.8152 21.4674C43.8152 31.0058 34.0537 38.7482 22.0278 38.7482C10.0019 38.7482 0.249023 31.0058 0.249023 21.4674H0.250602Z" fill="url(#paint0_linear_4471_31601)"/>
<path fill-rule="evenodd" clip-rule="evenodd" d="M22.1931 0C34.122 0 43.807 7.73369 43.807 17.2721C43.807 26.8105 34.122 34.5529 22.1931 34.5529C10.2641 34.5529 0.579102 26.8105 0.579102 17.2721C0.579102 7.73369 10.2641 0 22.1931 0Z" fill="url(#paint1_linear_4471_31601)"/>
<path fill-rule="evenodd" clip-rule="evenodd" d="M3.33301 25.5845L8.02022 22.6926C8.95214 24.0739 10.1955 25.2991 11.6801 26.3178L6.82022 29.3217C5.51695 28.7603 3.60896 26.2657 3.33301 25.5837V25.5845ZM32.862 7.27644L36.9965 4.79053C38.4638 5.73112 39.6811 6.95713 40.6824 8.40705L36.4359 10.9537C35.478 9.62438 34.2867 8.3558 32.862 7.27644Z" fill="#D6F7EB"/>
<path fill-rule="evenodd" clip-rule="evenodd" d="M37.981 29.0717L33.1124 26.0764C34.5363 25.0491 35.8917 23.9359 36.7723 22.5632L41.3129 25.3511C40.3203 26.991 39.2929 28.1303 37.981 29.0717ZM8.03728 10.6776L3.82471 8.09712C4.82601 6.76783 5.97397 5.5166 7.62257 4.54919L11.6885 7.06113C10.2039 8.0711 8.96921 9.30499 8.03728 10.6776Z" fill="#D6F7EB"/>
<path fill-rule="evenodd" clip-rule="evenodd" d="M5.86182 16.5988C5.86182 9.12369 13.5096 3.70325 22.228 3.70325C30.9465 3.70325 38.6029 9.15838 38.6029 16.5988C38.6029 24.0392 30.9551 29.4856 22.228 29.4856C13.5009 29.4856 5.86182 24.0392 5.86182 16.5988ZM36.2455 16.4435C36.2888 10.7289 29.9877 5.51584 22.1846 5.51584C14.3816 5.51584 8.10648 10.4617 8.10648 16.3749C8.10648 21.3033 14.2783 27.0872 22.0814 27.0872C29.8844 27.0872 36.2463 21.4074 36.2463 16.4442L36.2455 16.4435Z" fill="#428012"/>
<path fill-rule="evenodd" clip-rule="evenodd" d="M17.5836 28.5711L18.0755 27.5611C19.0248 27.7858 20.0261 27.9238 21.0534 27.9924V29.0883C19.8621 29.0189 18.6968 28.8462 17.5836 28.5703V28.5711ZM23.384 29.0891V27.9931C24.3593 27.9324 25.2999 27.7945 26.2066 27.5958L26.7072 28.6058C25.6366 28.8557 24.532 29.0284 23.384 29.0891ZM29.0118 27.8977L28.5285 26.9225C29.5732 26.5338 30.5485 26.0591 31.4291 25.4986L32.3098 26.2066C31.2998 26.8712 30.1952 27.4412 29.0126 27.8985L29.0118 27.8977ZM11.8604 26.0244L12.741 25.3338C13.6556 25.9377 14.6743 26.4557 15.7623 26.8704L15.279 27.8457C14.0443 27.3537 12.8964 26.7411 11.8611 26.0244H11.8604ZM34.1823 24.7298L33.345 24.0652C34.0791 23.4006 34.7177 22.6665 35.2443 21.8899L36.263 22.2353C35.693 23.1333 34.9944 23.9706 34.1831 24.7298H34.1823ZM8.10586 22.1233L9.11584 21.778C9.60781 22.5285 10.2031 23.2279 10.8937 23.8752L10.0478 24.5398C9.29718 23.8058 8.63253 22.9945 8.10586 22.1233ZM37.1689 20.466L36.2023 20.138C36.565 19.2487 36.8062 18.3168 36.8756 17.3588H37.8769C37.8075 18.4461 37.5576 19.4821 37.1689 20.466ZM6.56055 17.3588H7.56185C7.63123 18.2734 7.84647 19.1627 8.1918 20.0174L7.22519 20.3454C6.85384 19.3961 6.62993 18.3948 6.56055 17.3588ZM7.44989 12.439L8.43385 12.767C8.08852 13.4924 7.82992 14.2603 7.68327 15.0369H6.66462C6.81126 14.1302 7.07933 13.259 7.44989 12.439ZM35.9524 12.6464L36.9363 12.3184C37.3337 13.1817 37.6183 14.0876 37.7736 15.0377H36.755C36.5997 14.2177 36.3237 13.4151 35.9524 12.6464ZM9.40125 11.1444L8.37393 10.7904C8.93529 9.95312 9.61728 9.17652 10.3939 8.46851L11.2312 9.14183C10.5319 9.75443 9.91924 10.4278 9.40125 11.1444ZM33.2425 9.17652L34.0885 8.51187C34.8139 9.17652 35.4525 9.90187 35.9965 10.6785L34.9605 11.0238C34.4685 10.3678 33.8898 9.74655 33.2425 9.17652ZM12.8632 7.91661L11.9826 7.22595C12.9925 6.53528 14.1058 5.94869 15.3058 5.48194L15.7891 6.44856C14.7271 6.84592 13.7518 7.34658 12.8632 7.91582V7.91661ZM28.5127 6.39731L28.9961 5.42202C30.1527 5.86196 31.232 6.41465 32.216 7.06195L31.3353 7.76129C30.4633 7.22595 29.5227 6.76866 28.5127 6.39731ZM18.0945 5.75868L17.6025 4.75738C18.7071 4.48143 19.8637 4.30876 21.055 4.23938V5.33529C20.0364 5.40468 19.0437 5.54265 18.0945 5.75789V5.75868ZM23.3856 5.33608V4.24017C24.5162 4.30955 25.6216 4.46487 26.6828 4.7148L26.1908 5.72478C25.2928 5.52609 24.3522 5.39679 23.3856 5.33608Z" fill="#D6F7EB"/>
<path fill-rule="evenodd" clip-rule="evenodd" d="M38.0319 28.8148C38.0319 28.7367 37.8939 31.8361 37.8506 33.3554C38.9299 32.4234 40.0345 31.3788 41.1044 29.7901L41.2684 25.1376C40.1465 27.0109 39.1539 27.9601 38.0311 28.8148H38.0319Z" fill="#459E80"/>
<path fill-rule="evenodd" clip-rule="evenodd" d="M6.71671 29.2792C6.71671 29.2011 6.76007 32.2397 6.80265 33.759C5.94799 33.0857 4.73065 32.231 3.47942 30.5304L3.31543 25.5933C4.43736 27.4579 5.59399 28.4245 6.71671 29.2792Z" fill="#459E80"/>
<path fill-rule="evenodd" clip-rule="evenodd" d="M10.4712 31.851V36.0895C11.9124 36.7802 13.4838 37.4362 15.2096 37.8501V33.6462C13.0951 33.1889 11.7051 32.4983 10.4712 31.851Z" fill="#459E80"/>
<path fill-rule="evenodd" clip-rule="evenodd" d="M30.0477 33.2929V37.5228C31.4976 37.0568 33.0492 36.4466 34.6458 35.6093L34.5788 31.4196C33.1028 32.2222 31.5922 32.8348 30.0469 33.2929H30.0477Z" fill="#459E80"/>
<path fill-rule="evenodd" clip-rule="evenodd" d="M17.3251 34.0783C16.4792 33.9403 15.6505 33.7503 14.8132 33.5342C10.696 32.4722 6.6995 30.237 4.0149 26.8878C3.45354 26.1885 2.92766 25.4205 2.50427 24.6266C2.31426 24.2812 2.13293 23.9359 1.96893 23.5819C1.54634 22.65 1.21834 21.6826 0.976295 20.69C0.674327 19.3954 0.553704 18.126 0.578934 16.8054C0.837539 18.8513 1.39889 20.8879 2.29691 22.7438C2.67693 23.5378 3.15157 24.3404 3.66957 25.0571C3.82489 25.2731 3.98888 25.4797 4.15287 25.6957C4.39492 26.0237 4.68822 26.3517 4.96417 26.645C6.01751 27.7842 7.26874 28.8376 8.59803 29.6489C9.01275 29.8988 9.42667 30.1582 9.85794 30.3829C13.6124 32.3421 17.713 33.1621 21.8909 33.2402L23.6688 33.2315L25.3261 33.0762C29.202 32.6015 32.9652 31.3755 36.2364 29.2089C37.117 28.6302 37.911 27.9742 38.6876 27.267C39.3436 26.6631 39.9309 25.9638 40.4742 25.2644C41.1041 24.4444 41.6134 23.5378 42.0621 22.6145C42.5627 21.5612 42.9601 20.2926 43.1753 19.1446C43.2274 18.86 43.2786 18.5659 43.322 18.2813C43.4339 17.4787 43.4773 16.6847 43.4946 15.8727C43.5033 15.424 43.5033 14.9407 43.4773 14.4913C43.5806 14.9313 43.65 15.4146 43.6933 15.864C43.7793 16.6753 43.8053 17.4606 43.7714 18.2726C43.728 19.1273 43.6074 20.0166 43.4087 20.8453C43.3827 20.9659 43.348 21.0873 43.3228 21.208C43.1241 22.0019 42.8308 22.7446 42.5115 23.4952C42.3215 23.9351 42.0802 24.3585 41.8468 24.7724C41.6568 25.1264 41.4156 25.5065 41.1822 25.8258C41.0095 26.0591 40.8542 26.3004 40.6729 26.5251C40.2755 27.0171 39.8702 27.5004 39.4216 27.949C37.5057 29.8909 35.2524 31.2983 32.7578 32.3855C31.0225 33.1361 29.1326 33.6888 27.2767 34.0428C26.1287 34.2588 24.9114 34.4315 23.7461 34.4827C23.1248 34.5174 22.4688 34.5174 21.8381 34.5001C20.3101 34.4567 18.8429 34.3187 17.3236 34.0775L17.3251 34.0783Z" fill="url(#paint2_radial_4471_31601)"/>
<path fill-rule="evenodd" clip-rule="evenodd" d="M8.26105 16.7454C8.26105 16.3741 8.2784 16.0114 8.29575 16.184C8.28708 21.0613 14.4329 26.8444 22.1926 26.8444C29.9523 26.8444 36.2794 21.1645 36.2368 16.7194C36.2282 16.0981 36.2542 16.4521 36.2455 16.8053C36.2455 21.7772 29.8663 27.4483 22.1673 27.4483C14.4683 27.4483 8.26184 21.6739 8.26184 16.7446L8.26105 16.7454ZM22.3053 4.06511C14.1743 4.06511 6.9838 8.82958 6.06922 16.3914L6.06055 16.3567C6.06055 8.88162 13.6649 3.46985 22.3487 3.46985C31.0324 3.46985 38.6195 8.91631 38.6195 16.3567L38.5848 16.9267C37.6355 8.86427 30.4797 4.06511 22.3053 4.06511Z" fill="#2B570F"/>
<path d="M21.9775 26.3792C29.6669 26.3792 35.9004 21.5831 35.9004 15.6668C35.9004 9.75056 29.6669 4.95447 21.9775 4.95447C14.2882 4.95447 8.05469 9.75056 8.05469 15.6668C8.05469 21.5831 14.2882 26.3792 21.9775 26.3792Z" fill="white"/>
<path fill-rule="evenodd" clip-rule="evenodd" d="M19.5264 34.4496V38.6882C21.4083 38.8522 23.3242 38.8088 25.2748 38.5589V34.3203C23.3589 34.5789 21.4422 34.6049 19.5264 34.4496Z" fill="#459E80"/>
<path fill-rule="evenodd" clip-rule="evenodd" d="M1.28697 21.5706L1.07094 26.2665C0.130346 23.7546 -0.050999 20.6213 0.56161 17.6088C0.596301 19.0413 0.924292 20.25 1.28697 21.5706Z" fill="#459E80"/>
<path d="M22.2914 18.8845C23.7957 18.8845 24.8318 18.5722 24.8318 17.6356C24.8318 16.6989 23.7958 16.3158 22.1921 16.3158C21.2271 16.3158 20.1627 16.4861 19.1409 16.926L17.0689 16.1455L17.9204 10.8945H26.7476V13.0375H20.0917L19.7511 15.1804C20.7587 14.5702 21.9366 14.258 23.2707 14.258C25.5271 14.258 27.7836 15.3223 27.7836 17.664C27.7836 19.5373 26.1658 21.1551 22.2914 21.1551C19.893 21.1551 18.0055 20.4314 16.6147 19.2393L18.1475 17.5363C18.8996 18.1607 20.4181 18.8845 22.2914 18.8845Z" fill="#2B4C0A"/>
<defs>
<linearGradient id="paint0_linear_4471_31601" x1="-2.85186" y1="22.0942" x2="45.6089" y2="20.8737" gradientUnits="userSpaceOnUse">
<stop stop-color="#214A03"/>
<stop offset="0.73" stop-color="#459114"/>
<stop offset="1" stop-color="#2B4005"/>
</linearGradient>
<linearGradient id="paint1_linear_4471_31601" x1="21.5379" y1="37.2193" x2="22.4832" y2="8.46929" gradientUnits="userSpaceOnUse">
<stop stop-color="#66C233"/>
<stop offset="1" stop-color="#66AD2E"/>
</linearGradient>
<radialGradient id="paint2_radial_4471_31601" cx="0" cy="0" r="1" gradientUnits="userSpaceOnUse" gradientTransform="translate(24.4462 34.0609) scale(23.6 23.6)">
<stop stop-color="#C7FFA1"/>
<stop offset="0.62" stop-color="#DEFAF0"/>
<stop offset="1" stop-color="#80D642"/>
</radialGradient>
</defs>
</svg>
