<svg width="45" height="39" viewBox="0 0 45 39" fill="none" xmlns="http://www.w3.org/2000/svg">
<path fill-rule="evenodd" clip-rule="evenodd" d="M0.515625 21.4635C0.515625 20.877 0.558981 20.2811 0.627562 19.7033L1.06664 14.8876C1.06664 14.5163 0.903463 14.6803 1.23849 14.6803H2.26247C5.59221 8.51823 13.3017 4.19446 22.285 4.19446C31.2684 4.19446 38.9865 8.51823 42.3076 14.6803H43.0391C43.3749 14.6803 43.65 14.9822 43.65 15.3622L43.8566 15.2841C44.123 16.3633 44.0544 20.3331 44.0544 21.4635C44.0544 31.0002 34.3057 38.7412 22.285 38.7412C10.2644 38.7412 0.515625 31.0002 0.515625 21.4635Z" fill="url(#paint0_linear_5033_30819)"/>
<path fill-rule="evenodd" clip-rule="evenodd" d="M22.4534 0C34.3802 0 44.0636 7.741 44.0636 17.2777C44.0636 26.8145 34.3802 34.5468 22.4534 34.5468C10.5266 34.5468 0.843262 26.8145 0.843262 17.2777C0.843262 7.741 10.5171 0 22.4534 0Z" fill="url(#paint1_linear_5033_30819)"/>
<path fill-rule="evenodd" clip-rule="evenodd" d="M3.59619 25.58L8.28257 22.6886C9.21433 24.0697 10.4575 25.3033 11.9418 26.3218L7.0828 29.3165C5.77975 28.7639 3.87209 26.2611 3.59619 25.5792V25.58ZM33.12 7.27515L37.2538 4.79834C38.7208 5.73877 39.9292 6.95589 40.939 8.41422L36.6933 10.9604C35.7355 9.63134 34.5444 8.35431 33.1208 7.27515H33.12Z" fill="#82FFF4"/>
<path fill-rule="evenodd" clip-rule="evenodd" d="M38.2468 29.0666L33.3705 26.0806C34.7941 25.0448 36.1492 23.9317 37.0297 22.5593L41.5695 25.3467C40.577 26.995 39.5499 28.1254 38.2468 29.0666ZM8.29105 10.6758L4.08789 8.09576C5.08902 6.77538 6.23677 5.51569 7.88508 4.54846L11.9503 7.05995C10.4659 8.07842 9.22281 9.30421 8.29105 10.6758Z" fill="#82FFF4"/>
<path fill-rule="evenodd" clip-rule="evenodd" d="M6.125 16.5959C6.125 9.12212 13.7627 3.7113 22.4883 3.7113C31.2139 3.7113 38.8603 9.16548 38.8603 16.5959C38.8603 24.0263 31.2139 29.4892 22.4883 29.4892C13.7627 29.4892 6.125 24.0437 6.125 16.5959ZM36.5033 16.4493C36.5467 10.7358 30.2467 5.51491 22.445 5.51491C14.6433 5.51491 8.36059 10.4599 8.36059 16.3807C8.36059 21.3083 14.54 27.0825 22.3417 27.0825C30.1434 27.0825 36.5041 21.4123 36.5041 16.4501L36.5033 16.4493Z" fill="#4EEB9A"/>
<path fill-rule="evenodd" clip-rule="evenodd" d="M17.8443 28.5661L18.3362 27.5649C19.2853 27.7809 20.2778 27.9275 21.3136 27.9874V29.0918C20.1138 29.0225 18.9487 28.842 17.8443 28.5653V28.5661ZM23.6438 29.0926V27.9882C24.6189 27.9275 25.5593 27.7983 26.4658 27.5996L26.9664 28.6007C25.8959 28.8593 24.7828 29.0233 23.6438 29.0926ZM29.2619 27.8929L28.7874 26.9264C29.8318 26.5378 30.8069 26.0546 31.6875 25.5028L32.568 26.2106C31.5582 26.8752 30.4538 27.4451 29.2627 27.8936L29.2619 27.8929ZM12.1221 26.0285L13.0026 25.3293C13.9171 25.9332 14.9269 26.4511 16.0234 26.8657L15.5401 27.8408C14.3057 27.3576 13.1579 26.7451 12.1229 26.0285H12.1221ZM34.4402 24.7255L33.5943 24.0696C34.3369 23.3965 34.9754 22.6712 35.502 21.8861L36.5205 22.24C35.9505 23.1379 35.2521 23.9751 34.441 24.7255H34.4402ZM8.36829 22.1194L9.37809 21.7828C9.86998 22.5254 10.4651 23.2325 11.1557 23.8797L10.3098 24.5355C9.55072 23.8016 8.90275 22.9905 8.36829 22.1194ZM37.4262 20.4624L36.4511 20.1345C36.8224 19.254 37.0549 18.3136 37.133 17.3558H38.1341C38.0561 18.4428 37.8148 19.4786 37.4262 20.4624ZM6.82324 17.3558H7.82437C7.89374 18.2789 8.10894 19.1681 8.45421 20.0226L7.48777 20.3418C7.11649 19.4014 6.89261 18.4003 6.82324 17.3558ZM7.71243 12.4369L8.68755 12.7648C8.35095 13.4987 8.09239 14.2578 7.94498 15.0429H6.92651C7.07313 14.1364 7.34115 13.2654 7.71164 12.4369H7.71243ZM36.2099 12.6529L37.1937 12.3163C37.591 13.1794 37.8755 14.0938 38.0308 15.0437H37.0124C36.8571 14.2152 36.5812 13.4214 36.2099 12.6529ZM9.66345 11.1425L8.63631 10.7972C9.19757 9.96005 9.87944 9.17492 10.6559 8.4757L11.4844 9.1489C10.7939 9.7614 10.1814 10.4259 9.66345 11.1425ZM33.5005 9.17492L34.3464 8.51039C35.0716 9.17492 35.7101 9.90014 36.254 10.6853L35.2182 11.0306C34.7263 10.3747 34.1477 9.74485 33.5005 9.17492ZM13.1248 7.9239L12.2443 7.22469C13.2541 6.53415 14.3672 5.94766 15.5669 5.48099L16.0415 6.45611C14.9883 6.8534 14.0132 7.35397 13.1248 7.92311V7.9239ZM28.7716 6.40487L29.2461 5.42975C30.4112 5.86962 31.4896 6.42221 32.4742 7.06072L31.585 7.76861C30.7218 7.23336 29.7814 6.77615 28.7716 6.40487ZM18.3551 5.75768L17.8632 4.75655C18.9676 4.48065 20.1327 4.31669 21.3152 4.23865V5.34304C20.2967 5.40374 19.3042 5.55036 18.3551 5.75768ZM23.6453 5.34304V4.23865C24.7757 4.30802 25.8809 4.47198 26.942 4.72187L26.4501 5.723C25.5435 5.53302 24.6118 5.40374 23.6453 5.34304Z" fill="#BFFFFA"/>
<path fill-rule="evenodd" clip-rule="evenodd" d="M38.221 28.8396C38.221 28.7655 38.1572 31.8729 38.106 33.3242C39.193 32.4303 40.232 31.4638 41.3025 29.955L41.4491 25.338C40.336 27.1172 39.3436 28.0277 38.221 28.8396Z" fill="#4EFF9F"/>
<path fill-rule="evenodd" clip-rule="evenodd" d="M10.6475 31.8627V36.1005C12.0885 36.8084 13.6682 37.3862 15.3851 37.8182V33.5118C13.6847 33.2099 12.1405 32.5974 10.6475 31.8635V31.8627Z" fill="#4EFF9F"/>
<path fill-rule="evenodd" clip-rule="evenodd" d="M19.8467 34.3229V38.612C21.7197 38.802 23.6352 38.776 25.5941 38.5426V34.2535C23.6699 34.4955 21.7536 34.5042 19.8467 34.3229Z" fill="#4EFF9F"/>
<path fill-rule="evenodd" clip-rule="evenodd" d="M30.2207 33.3296V37.5588C31.6704 37.1103 33.1539 36.4631 34.751 35.6519V31.5087C33.2761 32.2938 31.7658 32.8898 30.2207 33.3296Z" fill="#4EFF9F"/>
<path fill-rule="evenodd" clip-rule="evenodd" d="M20.2441 34.4002C19.295 34.3143 18.3365 34.2189 17.396 34.0376C16.8521 33.9343 16.309 33.8302 15.7651 33.701C13.5728 33.1744 11.5272 32.4153 9.55099 31.3101C9.09378 31.0515 8.61923 30.7662 8.18725 30.4642C7.23814 29.7997 6.31427 29.0832 5.50312 28.2547C4.72665 27.4695 4.05345 26.6584 3.43149 25.7258C2.78431 24.7594 2.22305 23.6802 1.81787 22.5845C1.11865 20.6942 0.799395 18.822 0.842751 16.8111C1.10131 18.848 1.66257 20.8842 2.56043 22.7398C2.94039 23.5336 3.41494 24.3361 3.93285 25.0526C4.08814 25.2773 4.2521 25.4838 4.41607 25.6998C4.65807 26.0191 4.95132 26.347 5.22722 26.6489C6.28037 27.788 7.53139 28.8325 8.86044 29.6523C9.25774 29.8943 9.66292 30.1355 10.0776 30.3602C10.3109 30.4808 10.5521 30.5935 10.7854 30.7141C11.5446 31.0941 12.3392 31.4047 13.133 31.6979C13.7975 31.9399 14.4967 32.1465 15.1786 32.3191C17.3361 32.8717 19.5197 33.1563 21.7379 33.2256H23.9388L25.8378 33.0443C26.3211 32.9836 26.7869 32.8977 27.2615 32.811C28.4439 32.6123 29.6177 32.3104 30.7568 31.9391C34.9426 30.6014 39.0157 28.0726 41.3979 24.2927C41.7865 23.6889 42.157 23.0244 42.4337 22.3598C42.6063 21.9539 42.7703 21.5574 42.9082 21.1427C43.1668 20.3923 43.3394 19.6324 43.4869 18.8559C43.6161 18.1567 43.6942 17.3976 43.7289 16.6897C43.7462 16.3878 43.7462 16.0945 43.7549 15.7918C43.7635 15.6278 43.7549 15.4552 43.7549 15.2912C43.7549 15.0327 43.7549 14.7473 43.7289 14.4888C44.0048 15.6885 44.0741 16.9656 44.0308 18.1914C44.0048 19.1318 43.8495 20.1503 43.6161 21.0655C43.4695 21.6267 43.3055 22.1612 43.0982 22.7051C42.9343 23.145 42.7356 23.5683 42.5283 23.9908C42.2524 24.5607 41.9245 25.0865 41.5879 25.6131C41.2252 26.183 40.7594 26.7782 40.3022 27.2788C39.8103 27.8227 39.3184 28.3146 38.7745 28.8065C37.2814 30.1442 35.4692 31.2573 33.6482 32.0944C32.0086 32.8535 30.2909 33.4235 28.522 33.8208C27.5729 34.0454 26.6143 34.2094 25.6479 34.3213C25.1039 34.382 24.5521 34.4506 24.0082 34.4766C23.283 34.5113 22.5586 34.5027 21.8333 34.4853C21.3067 34.468 20.7715 34.442 20.2457 34.3994L20.2441 34.4002Z" fill="url(#paint2_radial_5033_30819)"/>
<path fill-rule="evenodd" clip-rule="evenodd" d="M8.51518 16.7425C8.51518 16.3712 8.54119 16.0086 8.55853 16.1812C8.54986 21.0662 14.6946 26.8397 22.4529 26.8397C30.2113 26.8397 36.5373 21.1695 36.4947 16.7164C36.4861 16.1039 36.5034 16.4579 36.5034 16.811C36.5034 21.7733 30.1253 27.4522 22.419 27.4522C14.7127 27.4522 8.51596 21.6701 8.51596 16.7417L8.51518 16.7425ZM22.5656 4.07307C14.436 4.07307 7.24682 8.82803 6.32373 16.3972V16.3625C6.32373 8.88006 13.9268 3.46924 22.6003 3.46924C31.2739 3.46924 38.8769 8.92341 38.8769 16.3625L38.8423 16.9324C37.8931 8.8635 30.7386 4.07307 22.5656 4.07307Z" fill="#008A44"/>
<path fill-rule="evenodd" clip-rule="evenodd" d="M6.97948 29.6279C6.97948 29.5498 7.05752 32.286 7.10876 33.805C6.18568 33.1145 4.74389 32.0101 3.66551 30.4217L3.57959 25.9426C4.73601 27.617 5.9011 28.5227 6.98027 29.6279H6.97948Z" fill="#3BE38A"/>
<path fill-rule="evenodd" clip-rule="evenodd" d="M22.4277 5.21301C30.0828 5.21301 36.3056 10.0113 36.3056 15.9148C36.3056 21.8183 30.0828 26.6253 22.4277 26.6253C14.7726 26.6253 8.54199 21.827 8.54199 15.9148C8.54199 10.0027 14.7648 5.21301 22.4277 5.21301Z" fill="white"/>
<path fill-rule="evenodd" clip-rule="evenodd" d="M1.47301 21.5322L1.31772 26.0372C0.368615 23.5864 0.187309 20.2118 0.79981 17.1824C0.825823 18.6234 1.1104 20.2031 1.47301 21.5322Z" fill="#4EFF9F"/>
<path d="M17.3305 11.1417C19.3288 11.1417 21.4572 11.9221 21.4572 13.7076C21.4572 15.1265 20.1447 15.9424 18.3238 16.4982C16.964 16.9238 15.8525 17.4205 15.5805 17.8461H21.6235V19.6671H12.7427V18.6265C12.9555 17.0302 14.4217 15.6823 16.8812 14.9492C18.0755 14.5708 19.0214 14.3106 19.0214 13.7549C19.0214 13.1992 18.1346 12.9154 17.2241 12.9154C16.089 12.9154 15.0484 13.3883 14.1734 14.2515L12.8609 12.9863C13.7123 11.934 15.3677 11.1417 17.3305 11.1417Z" fill="#2D754D"/>
<path d="M27.24 18.048C28.4934 18.048 29.3565 17.7878 29.3565 17.0074C29.3565 16.227 28.4934 15.9078 27.1572 15.9078C26.3532 15.9078 25.4663 16.0497 24.615 16.4162L22.8886 15.7659L23.5981 11.3909H30.9536V13.1763H25.4072L25.1234 14.9618C25.963 14.4534 26.9444 14.1932 28.0559 14.1932C29.9359 14.1932 31.816 15.0801 31.816 17.0311C31.816 18.5919 30.468 19.9399 27.24 19.9399C25.2417 19.9399 23.669 19.3368 22.5103 18.3436L23.7873 16.9247C24.414 17.4449 25.6792 18.048 27.24 18.048Z" fill="#2D754D"/>
<defs>
<linearGradient id="paint0_linear_5033_30819" x1="-2.52875" y1="21.9199" x2="49.3415" y2="20.9748" gradientUnits="userSpaceOnUse">
<stop stop-color="#0C6132"/>
<stop offset="0.72" stop-color="#35D487"/>
<stop offset="1" stop-color="#096133"/>
</linearGradient>
<linearGradient id="paint1_linear_5033_30819" x1="21.7976" y1="37.2215" x2="22.7427" y2="8.48042" gradientUnits="userSpaceOnUse">
<stop stop-color="#45D49B"/>
<stop offset="1" stop-color="#30D47D"/>
</linearGradient>
<radialGradient id="paint2_radial_5033_30819" cx="0" cy="0" r="1" gradientUnits="userSpaceOnUse" gradientTransform="translate(23.0922 33.6663) scale(29.2511)">
<stop stop-color="#AAFFF7"/>
<stop offset="0.66" stop-color="#6EE6D7"/>
<stop offset="1" stop-color="#3EC4B5"/>
</radialGradient>
</defs>
</svg>
