<svg width="45" height="39" viewBox="0 0 45 39" fill="none" xmlns="http://www.w3.org/2000/svg">
<path fill-rule="evenodd" clip-rule="evenodd" d="M0.896973 21.4761C0.896973 20.8808 0.931677 20.2934 1.00894 19.7068L1.44729 14.8903C1.44729 14.519 1.28409 14.683 1.62785 14.683H2.64256C5.96106 8.51984 13.6719 4.19531 22.6466 4.19531C31.6212 4.19531 39.3234 8.51984 42.6506 14.683H43.3727C43.7165 14.683 43.9917 14.9936 43.9917 15.3736L44.1982 15.2877C44.4647 16.3671 44.3961 20.3376 44.3961 21.4769C44.3961 31.0066 34.648 38.749 22.6473 38.749C10.6467 38.749 0.898551 31.0066 0.898551 21.4769L0.896973 21.4761Z" fill="url(#paint0_linear_4471_31618)"/>
<path fill-rule="evenodd" clip-rule="evenodd" d="M22.8303 0C34.7679 0 44.4442 7.74236 44.4442 17.2808C44.4442 26.8192 34.7679 34.5529 22.8303 34.5529C10.8927 34.5529 1.21631 26.8192 1.21631 17.2808C1.21631 7.74236 10.9014 0 22.8303 0Z" fill="url(#paint1_linear_4471_31618)"/>
<path fill-rule="evenodd" clip-rule="evenodd" d="M3.979 25.5853L8.6662 22.6933C9.59813 24.0746 10.8415 25.3085 12.3174 26.3272L7.46622 29.3224C6.16295 28.7697 4.25495 26.2751 3.979 25.5845V25.5853ZM33.508 7.27717L37.6425 4.79993C39.1098 5.74052 40.3184 6.95785 41.3284 8.41645L37.082 10.9631C36.124 9.63378 34.924 8.35653 33.5088 7.27717H33.508Z" fill="#C2F7FF"/>
<path fill-rule="evenodd" clip-rule="evenodd" d="M38.627 29.0725L33.7584 26.086C35.1823 25.05 36.5376 23.9454 37.4183 22.5641L41.9589 25.3606C40.9663 27.0005 39.9303 28.1398 38.627 29.0725ZM8.68327 10.6872L4.4707 8.09798C5.47201 6.77736 6.61995 5.51745 8.26856 4.55005L12.3258 7.06198C10.8499 8.08063 9.60652 9.30585 8.68327 10.6872Z" fill="#C2F7FF"/>
<path fill-rule="evenodd" clip-rule="evenodd" d="M6.5 16.5996C6.5 9.12454 14.1477 3.71277 22.8749 3.71277C31.602 3.71277 39.2411 9.15923 39.2411 16.5996C39.2411 24.04 31.5933 29.4952 22.8749 29.4952C14.1564 29.4952 6.5 24.0487 6.5 16.5996ZM36.8923 16.453C36.9357 10.7385 30.6259 5.51669 22.8228 5.51669C15.0198 5.51669 8.74465 10.4712 8.74465 16.3844C8.74465 21.3129 14.9251 27.0881 22.7282 27.0881C30.5313 27.0881 36.8931 21.4083 36.8931 16.4538L36.8923 16.453Z" fill="#3DB0D6"/>
<path fill-rule="evenodd" clip-rule="evenodd" d="M18.2212 28.5718L18.7219 27.5705C19.6712 27.7865 20.6725 27.9332 21.6998 27.9931V29.0977C20.4998 29.0283 19.3345 28.8477 18.2212 28.571V28.5718ZM24.0304 29.0985V27.9939C25.0057 27.9332 25.9463 27.8039 26.853 27.6052L27.3449 28.6065C26.2829 28.8651 25.1697 29.0291 24.0304 29.0985ZM29.6582 27.9071L29.1749 26.9319C30.2196 26.5432 31.1948 26.0685 32.0755 25.508L32.9475 26.216C31.9462 26.8806 30.8416 27.4506 29.659 27.9079L29.6582 27.9071ZM12.5067 26.0338L13.3874 25.3432C14.302 25.9384 15.3119 26.4564 16.4086 26.8712L15.934 27.8464C14.6907 27.3631 13.5427 26.7505 12.5075 26.0338H12.5067ZM34.8287 24.7392L33.9827 24.0746C34.7254 23.41 35.364 22.6759 35.8907 21.8993L36.9094 22.2447C36.3393 23.1427 35.6408 23.98 34.8295 24.7392H34.8287ZM8.75223 22.1327L9.76221 21.7874C10.2542 22.5301 10.8494 23.2373 11.5314 23.8846L10.6941 24.5406C9.93486 23.8065 9.2789 22.9952 8.75223 22.1319V22.1327ZM37.8066 20.4754L36.84 20.1474C37.2113 19.2581 37.4439 18.3262 37.522 17.3682H38.5233C38.4539 18.4476 38.204 19.4915 37.8066 20.4754ZM7.19824 17.3682H8.19954C8.2776 18.2828 8.49283 19.1721 8.83816 20.0268L7.86288 20.3461C7.5002 19.4055 7.2763 18.4042 7.19824 17.3682ZM8.09625 12.4398L9.07155 12.7764C8.72622 13.5018 8.47627 14.261 8.32884 15.0463H7.31019C7.45684 14.1396 7.7249 13.2684 8.09546 12.4398H8.09625ZM36.5987 12.6558L37.574 12.3191C37.9801 13.1911 38.2647 14.097 38.4113 15.0471H37.4013C37.246 14.2271 36.9701 13.4245 36.5987 12.6558ZM10.0476 11.1452L9.01163 10.7998C9.58166 9.96252 10.255 9.18592 11.0403 8.47791L11.8776 9.15123C11.1782 9.76383 10.5569 10.4372 10.0476 11.1452ZM33.8889 9.17724L34.7349 8.5126C35.4602 9.17724 36.0989 9.9026 36.6342 10.6879L35.6069 11.0332C35.1149 10.3772 34.5362 9.74728 33.8889 9.17724ZM13.5009 7.91734L12.6289 7.22667C13.6302 6.54468 14.7522 5.94942 15.9522 5.48267L16.4268 6.45796C15.3734 6.85532 14.3982 7.3473 13.5009 7.91655V7.91734ZM29.1591 6.40671L29.6337 5.42275C30.7904 5.87136 31.8784 6.42405 32.8624 7.07135L31.973 7.77069C31.1097 7.23535 30.1691 6.77806 29.1591 6.40671ZM18.7408 5.75941L18.2488 4.7581C19.3534 4.49083 20.5101 4.31816 21.7014 4.24878V5.34469C20.6741 5.4054 19.6901 5.55205 18.7408 5.75941ZM24.032 5.34469V4.24878C25.1626 4.30949 26.2679 4.47348 27.3292 4.72341L26.8372 5.73339C25.9392 5.53471 24.9986 5.4054 24.032 5.34469Z" fill="#C2F7FF"/>
<path fill-rule="evenodd" clip-rule="evenodd" d="M38.6091 28.7894C38.6091 28.7114 38.4711 31.8107 38.4277 33.3213C39.5071 32.3894 40.6093 31.4046 41.6887 29.8159L41.8377 25.1122C40.7244 26.9855 39.7318 27.9348 38.6091 28.7894Z" fill="#299CBF"/>
<path fill-rule="evenodd" clip-rule="evenodd" d="M11.3589 31.9983V36.2369C12.8001 36.9275 14.3628 37.5488 16.0808 37.9549L16.0981 33.5783C14.3975 33.3023 12.853 32.7063 11.3597 31.9991L11.3589 31.9983Z" fill="#299CBF"/>
<path fill-rule="evenodd" clip-rule="evenodd" d="M7.36221 29.279C7.36221 29.201 7.36616 32.2688 7.40952 33.7873C6.76222 33.3387 5.35961 32.1355 4.02165 30.3923L3.96094 25.5931C5.08287 27.4664 6.23949 28.4244 7.36221 29.279Z" fill="#299CBF"/>
<path fill-rule="evenodd" clip-rule="evenodd" d="M30.6167 33.2937V37.5236C32.0666 37.0576 33.5465 36.4308 35.1344 35.6022L35.1399 31.4125C33.6726 32.2238 32.1533 32.8364 30.6167 33.2945V33.2937Z" fill="#299CBF"/>
<path fill-rule="evenodd" clip-rule="evenodd" d="M20.1294 34.3635C19.4041 34.2942 18.6969 34.1996 17.9715 34.0876C17.1255 33.9496 16.2882 33.7509 15.4596 33.5436C11.3424 32.4816 7.33719 30.2464 4.66126 26.8885C4.0999 26.1891 3.56535 25.4212 3.14196 24.6359C2.45997 23.3587 1.95933 22.1066 1.62268 20.6914C1.31204 19.4055 1.19139 18.1361 1.21662 16.8155C1.47523 18.8528 2.03659 20.898 2.93461 22.7453C3.33198 23.5566 3.79793 24.3245 4.30726 25.0585C4.46258 25.2832 4.63525 25.4898 4.79058 25.7058C5.04051 26.0251 5.32592 26.3531 5.60187 26.6551C6.66388 27.7944 7.91511 28.8477 9.2444 29.659C9.65912 29.9089 10.073 30.1683 10.5043 30.3843C11.4883 30.9023 12.4722 31.3249 13.5169 31.705C16.0809 32.6282 18.8514 33.0863 21.5959 33.2156L24.3152 33.2329L25.7738 33.1123C26.2658 33.0516 26.7578 32.983 27.2411 32.905C28.0697 32.7583 28.907 32.5943 29.7183 32.3696C30.4176 32.1796 31.0996 31.9722 31.7816 31.7397C35.4068 30.4711 38.7734 28.3557 41.1213 25.2659C41.7513 24.4372 42.2519 23.5566 42.7092 22.616C43.2099 21.5626 43.6073 20.3027 43.8225 19.1548C43.8745 18.8701 43.9258 18.5761 43.9691 18.2828C44.0724 17.4888 44.1245 16.6862 44.1418 15.8828C44.1505 15.4255 44.1505 14.9509 44.1158 14.5015C44.2278 14.9414 44.2885 15.416 44.3405 15.8741C44.4264 16.6767 44.4524 17.462 44.4185 18.2741C44.3665 19.2841 44.2112 20.242 43.9613 21.2173C43.8406 21.7353 43.6593 22.262 43.4693 22.7626C43.3747 23.0125 43.2619 23.2546 43.1586 23.4966C42.9686 23.9453 42.7274 24.36 42.494 24.7826C42.304 25.1366 42.0627 25.5166 41.8294 25.8359C41.6567 26.0693 41.5014 26.3019 41.32 26.5266C40.9227 27.0272 40.5174 27.5019 40.0688 27.9505C38.1529 29.901 35.8909 31.2997 33.3963 32.387C31.6697 33.1375 29.7711 33.6902 27.9238 34.0442C27.1212 34.1996 26.3359 34.3028 25.5325 34.3982C25.2992 34.4243 25.0666 34.4416 24.8332 34.4589C24.6866 34.4676 24.5226 34.485 24.3759 34.4936C23.746 34.5023 23.116 34.5197 22.4853 34.5023C21.7 34.4763 20.906 34.4503 20.1287 34.3643L20.1294 34.3635Z" fill="url(#paint2_radial_4471_31618)"/>
<path fill-rule="evenodd" clip-rule="evenodd" d="M8.89915 16.7549C8.89915 16.3836 8.92518 16.0122 8.93385 16.1849C8.93385 21.0708 15.0796 26.8539 22.8393 26.8539C30.5991 26.8539 36.9175 21.1741 36.8836 16.7202C36.875 16.099 36.8923 16.4616 36.8923 16.8148C36.8923 21.778 30.5131 27.4492 22.8055 27.4492C15.0978 27.4492 8.89994 21.6747 8.89994 16.7541L8.89915 16.7549ZM22.9513 4.07463C14.8202 4.07463 7.62979 8.83043 6.70654 16.4009V16.3662C6.70654 8.89114 14.3109 3.47937 22.986 3.47937C31.6611 3.47937 39.2655 8.92583 39.2655 16.3662L39.2308 16.9363C38.2815 8.86591 31.1257 4.07463 22.9513 4.07463Z" fill="#366B82"/>
<path fill-rule="evenodd" clip-rule="evenodd" d="M22.8046 5.21387C30.4697 5.21387 36.6928 10.013 36.6928 15.9262C36.6928 21.8395 30.4689 26.6299 22.8046 26.6299C15.1403 26.6299 8.92432 21.8395 8.92432 15.9262C8.92432 10.013 15.1482 5.21387 22.8046 5.21387Z" fill="white"/>
<path fill-rule="evenodd" clip-rule="evenodd" d="M20.3447 34.4235V38.6621C22.2267 38.8261 24.1426 38.7827 26.0931 38.5328V34.2942C24.1773 34.5528 22.2606 34.5788 20.3447 34.4235Z" fill="#299CBF"/>
<path fill-rule="evenodd" clip-rule="evenodd" d="M1.92436 21.4161L1.78638 26.3445C0.776407 23.8846 0.517815 20.5094 1.20769 17.4456C1.23371 18.8868 1.57035 20.0955 1.92436 21.4161Z" fill="#299CBF"/>
<path d="M16.0481 13.7831C15.225 14.3224 14.1748 14.6205 13.082 14.8049V12.5059C14.3877 12.3214 15.821 11.6118 16.7577 10.7887H18.9432V20.7221H16.0481V13.7824V13.7831Z" fill="#005275"/>
<path d="M20.7036 15.7551C20.7036 12.4058 23.0878 10.4615 26.8912 10.4615C30.6946 10.4615 33.093 12.4058 33.093 15.7551C33.093 19.1043 30.7088 21.0486 26.8912 21.0486C23.0736 21.0486 20.7036 19.1043 20.7036 15.7551ZM30.1553 15.7551C30.1553 13.8534 28.9348 12.8174 26.9054 12.8174C24.876 12.8174 23.6413 13.8534 23.6413 15.7551C23.6413 17.6567 24.8618 18.6927 26.9054 18.6927C28.949 18.6927 30.1553 17.6567 30.1553 15.7551Z" fill="#005275"/>
<defs>
<linearGradient id="paint0_linear_4471_31618" x1="-2.12428" y1="21.8656" x2="45.3075" y2="21.1118" gradientUnits="userSpaceOnUse">
<stop stop-color="#004559"/>
<stop offset="0.71" stop-color="#0F80BD"/>
<stop offset="1" stop-color="#004D66"/>
</linearGradient>
<linearGradient id="paint1_linear_4471_31618" x1="22.1719" y1="37.2272" x2="23.1212" y2="8.47954" gradientUnits="userSpaceOnUse">
<stop stop-color="#36ADD4"/>
<stop offset="1" stop-color="#2499BF"/>
</linearGradient>
<radialGradient id="paint2_radial_4471_31618" cx="0" cy="0" r="1" gradientUnits="userSpaceOnUse" gradientTransform="translate(23.4266 33.6469) scale(28.1548 28.1548)">
<stop stop-color="#C2F7FF"/>
<stop offset="0.66" stop-color="#73D4EB"/>
<stop offset="1" stop-color="#269CC2"/>
</radialGradient>
</defs>
</svg>
