<svg width="72" height="67" viewBox="0 0 72 67" fill="none" xmlns="http://www.w3.org/2000/svg">
<g filter="url(#filter0_d_4471_31418)">
<path fill-rule="evenodd" clip-rule="evenodd" d="M14.0317 33.4761C14.0317 32.8808 14.0664 32.2848 14.1437 31.7155L14.5734 26.899C14.5734 26.519 14.4102 26.683 14.7539 26.683H15.7686C19.0974 20.5198 26.8129 16.1953 35.7924 16.1953C44.7718 16.1953 52.4779 20.5198 55.7979 26.683H56.5288C56.8726 26.683 57.1477 26.9936 57.1477 27.365L57.3456 27.2869C57.6121 28.3663 57.5435 32.3368 57.5435 33.4761C57.5435 43.0058 47.7985 50.7482 35.7916 50.7482C23.7846 50.7482 14.0317 43.0058 14.0317 33.4761Z" fill="url(#paint0_linear_4471_31418)"/>
<path fill-rule="evenodd" clip-rule="evenodd" d="M35.9646 12.0001C47.8935 12.0001 57.5785 19.7425 57.5785 29.2809C57.5785 38.8193 47.8935 46.553 35.9646 46.553C24.0356 46.553 14.3506 38.8193 14.3506 29.2817C14.3506 19.7441 24.0356 12.0001 35.9646 12.0001Z" fill="url(#paint1_linear_4471_31418)"/>
<path fill-rule="evenodd" clip-rule="evenodd" d="M17.104 37.5854L21.7999 34.6934C22.7231 36.0748 23.9752 37.3086 25.4511 38.3273L20.5999 41.3225C19.2879 40.7698 17.38 38.2666 17.104 37.5846V37.5854ZM46.6425 19.2773L50.777 16.8C52.2356 17.7406 53.4529 18.958 54.4542 20.4166L50.2077 22.9632C49.2498 21.6339 48.0585 20.3566 46.6425 19.2773Z" fill="#FFE552"/>
<path fill-rule="evenodd" clip-rule="evenodd" d="M19.6333 28.5996C19.6333 21.1245 27.2811 15.7128 35.9995 15.7128C44.7179 15.7128 52.3744 21.1679 52.3744 28.5996C52.3744 36.0314 44.7266 41.4952 35.9995 41.4952C27.2724 41.4952 19.6333 36.0487 19.6333 28.5996ZM50.017 28.453C50.069 22.7385 43.7592 17.5254 35.9561 17.5254C28.1531 17.5254 21.878 22.4625 21.878 28.3844C21.878 33.3129 28.0584 39.0881 35.8615 39.0881C43.6646 39.0881 50.0177 33.4169 50.0177 28.4538L50.017 28.453Z" fill="#F54A26"/>
<path fill-rule="evenodd" clip-rule="evenodd" d="M31.3555 40.5719L31.8475 39.5706C32.8055 39.7866 33.7981 39.9333 34.8254 39.9932V41.0978C33.6341 41.0284 32.4688 40.8471 31.3555 40.5711V40.5719ZM37.156 41.0986V39.994C38.1313 39.9333 39.0806 39.804 39.9872 39.6053L40.4792 40.6153C39.4085 40.866 38.2953 41.03 37.156 41.0986ZM42.7838 39.8986L42.3092 38.932C43.3452 38.5433 44.3204 38.06 45.2098 37.5081L46.0818 38.2161C45.0805 38.8807 43.9672 39.4508 42.7846 39.8994L42.7838 39.8986ZM25.641 38.034L26.5217 37.3433C27.4284 37.9386 28.4462 38.4566 29.5429 38.8713L29.0596 39.8466C27.825 39.3633 26.6683 38.7506 25.6418 38.034H25.641ZM47.963 36.7307L47.117 36.0747C47.851 35.4101 48.4983 34.6761 49.0163 33.8994L50.035 34.2448C49.4649 35.1428 48.7664 35.9801 47.963 36.7307ZM21.8778 34.1328L22.8965 33.7875C23.3798 34.5302 23.9758 35.2374 24.6657 35.8847L23.8197 36.5407C23.0692 35.8067 22.4124 34.9954 21.8778 34.132V34.1328ZM50.9409 32.4755L49.9743 32.1476C50.3456 31.2582 50.5782 30.3263 50.6476 29.3597H51.6489C51.5795 30.4469 51.3382 31.4829 50.9409 32.4755ZM20.3325 29.3597H21.3338C21.4032 30.2829 21.6184 31.1723 21.9638 32.0269L20.9972 32.3549C20.6258 31.4057 20.4019 30.4043 20.3325 29.3597ZM21.2219 24.4399L22.2058 24.7765C21.8605 25.5019 21.6019 26.2612 21.4552 27.0464H20.4366C20.5832 26.1397 20.8513 25.2685 21.2219 24.4399ZM49.7243 24.6559L50.7083 24.3193C51.1057 25.1826 51.3903 26.0972 51.5456 27.0472H50.5269C50.3716 26.2273 50.1044 25.4246 49.7243 24.6559ZM23.1732 23.1453L22.1459 22.8C22.7073 21.9626 23.3893 21.186 24.1659 20.478L25.0032 21.1514C24.3038 21.764 23.6912 22.4286 23.1732 23.1453ZM47.0145 21.1774L47.8605 20.5127C48.5858 21.1774 49.2331 21.9027 49.7685 22.688L48.7325 23.0333C48.2405 22.3774 47.6618 21.7561 47.0145 21.1774ZM26.6352 19.9261L25.7545 19.2268C26.7645 18.5448 27.8778 17.9582 29.0778 17.4828L29.5524 18.4581C28.4991 18.8555 27.5238 19.3561 26.6352 19.9253V19.9261ZM42.2847 18.4068L42.768 17.4315C43.9247 17.8715 45.004 18.4242 45.988 19.0628L45.1073 19.7621C44.244 19.2355 43.2947 18.7782 42.2847 18.4068ZM31.8751 17.7682L31.3745 16.7582C32.479 16.491 33.6443 16.3096 34.827 16.2402V17.3448C33.8083 17.4055 32.8157 17.5522 31.8751 17.7674V17.7682ZM37.1576 17.3456V16.241C38.2969 16.3104 39.3936 16.4744 40.4548 16.7243L39.9628 17.7343C39.0648 17.5356 38.1242 17.4063 37.1576 17.3456Z" fill="#FFE552"/>
<path fill-rule="evenodd" clip-rule="evenodd" d="M51.752 41.0726L46.8921 38.086C48.3073 37.05 49.6627 35.9454 50.5433 34.5728L55.0839 37.3607C54.0913 39.0006 53.0639 40.1312 51.752 41.0726ZM21.7996 22.6864L17.5957 20.0972C18.597 18.7766 19.745 17.5246 21.3936 16.5493L25.4595 19.0612C23.9835 20.0799 22.7402 21.3059 21.7996 22.6864Z" fill="#FFE552"/>
<path fill-rule="evenodd" clip-rule="evenodd" d="M51.7346 40.9873C51.7346 40.9108 51.6889 43.7886 51.6455 45.2819C52.7249 44.3689 53.6812 43.4969 54.7519 41.9263L54.9719 37.344C53.85 39.2047 52.8573 40.1429 51.7346 40.9881V40.9873Z" fill="url(#paint2_linear_4471_31418)"/>
<path fill-rule="evenodd" clip-rule="evenodd" d="M20.4878 41.2792C20.4878 41.2011 20.5312 44.2831 20.5824 45.8024C19.7972 45.1724 18.5712 44.3178 17.3712 42.6431L17.0952 37.5933C18.2085 39.4666 19.3651 40.4332 20.4878 41.2792Z" fill="url(#paint3_linear_4471_31418)"/>
<path fill-rule="evenodd" clip-rule="evenodd" d="M43.8108 45.6384L43.7935 49.5655C45.2347 49.1508 46.7713 48.4862 48.36 47.6497L48.334 43.8518C46.8581 44.6197 45.3474 45.2071 43.8108 45.6384Z" fill="#B55C05"/>
<path fill-rule="evenodd" clip-rule="evenodd" d="M33.5734 46.873C32.7188 46.8037 31.8381 46.6917 30.9929 46.545C30.7256 46.5017 30.4576 46.4418 30.199 46.3897C29.2923 46.2257 28.3777 45.975 27.5057 45.7077C23.0779 44.3438 19.09 41.6939 16.6293 37.7233C16.0853 36.8513 15.602 35.8587 15.2653 34.8921C14.6094 33.0361 14.3074 31.2582 14.3508 29.2903C14.6094 31.3363 15.1707 33.3728 16.0687 35.2287C16.4488 36.0227 16.9234 36.8166 17.4414 37.542C17.5967 37.758 17.7607 37.9646 17.9247 38.1806C18.1668 38.5086 18.46 38.8366 18.736 39.1299C19.798 40.2692 21.0406 41.3225 22.3699 42.1338C22.7846 42.3837 23.1985 42.6431 23.6298 42.8678C27.3843 44.8271 31.4849 45.647 35.6628 45.7251L37.4407 45.7164L39.3487 45.5264C39.9786 45.4405 40.6086 45.3364 41.248 45.2158C46.1339 44.2752 51.347 41.7459 54.3335 37.6374C54.9461 36.7914 55.4555 35.9281 55.8962 34.9701C56.4055 33.8655 56.7508 32.6742 56.9756 31.4829C57.1656 30.499 57.2602 29.4456 57.2688 28.4443C57.2688 27.961 57.2862 27.469 57.2515 26.9771C57.3122 27.2357 57.3635 27.5124 57.3982 27.771C57.4675 28.263 57.5275 28.7636 57.5448 29.2556C57.5708 29.7389 57.5708 30.1962 57.5535 30.6795C57.5188 31.6635 57.3548 32.6648 57.1135 33.6227C56.5183 36.0227 55.2229 38.2579 53.5483 40.0618C52.8749 40.7872 52.1669 41.4258 51.3903 42.0384C50.009 43.1343 48.4471 43.9976 46.8498 44.7317C46.3491 44.9564 45.8311 45.1629 45.3131 45.3443C44.1565 45.7669 42.9739 46.1209 41.7652 46.3803C40.4446 46.6562 39.1326 46.8549 37.7947 46.9503C37.3721 46.9763 36.9487 46.985 36.5174 46.985C35.5335 46.9937 34.5582 46.9503 33.5742 46.873H33.5734Z" fill="url(#paint4_radial_4471_31418)"/>
<path fill-rule="evenodd" clip-rule="evenodd" d="M22.0333 28.7549C22.0333 28.3836 22.0507 28.0122 22.068 28.1936C22.068 33.0708 28.2051 38.8539 35.9735 38.8539C43.7419 38.8539 50.0517 33.1741 50.0091 28.7289C50.0004 28.1076 50.0265 28.4616 50.0178 28.8148C50.0178 33.778 43.6386 39.4578 35.9396 39.4578C28.2406 39.4578 22.0341 33.6747 22.0341 28.7541L22.0333 28.7549ZM36.0768 16.0746C27.9457 16.0746 20.7553 20.8304 19.832 28.4009V28.3662C19.832 20.8911 27.4364 15.4707 36.1115 15.4707C44.7866 15.4707 52.391 20.9258 52.391 28.3662L52.3563 28.9363C51.4157 20.8659 44.2512 16.0746 36.0768 16.0746Z" fill="#961900"/>
<path d="M35.9561 38.9319C43.6454 38.9319 49.8789 34.1359 49.8789 28.2196C49.8789 22.3033 43.6454 17.5072 35.9561 17.5072C28.2667 17.5072 22.0332 22.3033 22.0332 28.2196C22.0332 34.1359 28.2667 38.9319 35.9561 38.9319Z" fill="white"/>
<path fill-rule="evenodd" clip-rule="evenodd" d="M24.2085 44.4124V48.0983C25.6497 48.8149 27.2298 49.4015 28.9477 49.8423V46.0791C27.2818 45.6991 25.7191 45.0951 24.2085 44.4131V44.4124Z" fill="#B55C05"/>
<path fill-rule="evenodd" clip-rule="evenodd" d="M33.4009 46.8556V50.6188C35.2829 50.8175 37.1877 50.7441 39.1383 50.5202L39.1493 46.8123C37.2334 47.037 35.3168 47.037 33.4009 46.8556Z" fill="#B55C05"/>
<path fill-rule="evenodd" clip-rule="evenodd" d="M14.9209 33.856L14.8516 38.1805C13.9882 35.8933 13.7296 32.8547 14.3162 29.6868C14.3509 31.128 14.5583 32.5267 14.9201 33.856H14.9209Z" fill="#B55C05"/>
<path d="M35.1609 25.8701C34.3378 26.4093 33.2876 26.7074 32.1948 26.8919V24.5928C33.5005 24.4083 34.9338 23.6987 35.8705 22.8756H38.056V32.809H35.1609V25.8693V25.8701Z" fill="#9C1F12"/>
</g>
<defs>
<filter id="filter0_d_4471_31418" x="0" y="0.00012207" width="71.5786" height="66.748" filterUnits="userSpaceOnUse" color-interpolation-filters="sRGB">
<feFlood flood-opacity="0" result="BackgroundImageFix"/>
<feColorMatrix in="SourceAlpha" type="matrix" values="0 0 0 0 0 0 0 0 0 0 0 0 0 0 0 0 0 0 127 0" result="hardAlpha"/>
<feOffset dy="2"/>
<feGaussianBlur stdDeviation="7"/>
<feComposite in2="hardAlpha" operator="out"/>
<feColorMatrix type="matrix" values="0 0 0 0 1 0 0 0 0 0.18 0 0 0 0 0 0 0 0 0.4 0"/>
<feBlend mode="normal" in2="BackgroundImageFix" result="effect1_dropShadow_4471_31418"/>
<feBlend mode="normal" in="SourceGraphic" in2="effect1_dropShadow_4471_31418" result="shape"/>
</filter>
<linearGradient id="paint0_linear_4471_31418" x1="10.9994" y1="33.8664" x2="58.4541" y2="33.111" gradientUnits="userSpaceOnUse">
<stop stop-color="#701A0A"/>
<stop offset="0.33" stop-color="#9C0D08"/>
<stop offset="0.62" stop-color="#A30808"/>
<stop offset="0.92" stop-color="#C42412"/>
<stop offset="1" stop-color="#540D00"/>
</linearGradient>
<linearGradient id="paint1_linear_4471_31418" x1="35.307" y1="49.2281" x2="36.2547" y2="20.4789" gradientUnits="userSpaceOnUse">
<stop stop-color="#ED3636"/>
<stop offset="1" stop-color="#BD2608"/>
</linearGradient>
<linearGradient id="paint2_linear_4471_31418" x1="54.226" y1="43.8572" x2="52.8936" y2="40.1618" gradientUnits="userSpaceOnUse">
<stop stop-color="#963805"/>
<stop offset="1" stop-color="#C97005"/>
</linearGradient>
<linearGradient id="paint3_linear_4471_31418" x1="17.6164" y1="46.4891" x2="19.1877" y2="40.333" gradientUnits="userSpaceOnUse">
<stop stop-color="#993D05"/>
<stop offset="1" stop-color="#C97005"/>
</linearGradient>
<radialGradient id="paint4_radial_4471_31418" cx="0" cy="0" r="1" gradientUnits="userSpaceOnUse" gradientTransform="translate(36.5426 45.9924) scale(28.4228 28.4228)">
<stop stop-color="#FFABAB"/>
<stop offset="0.76" stop-color="#FA4D38"/>
<stop offset="1" stop-color="#C92914"/>
</radialGradient>
</defs>
</svg>
