<svg width="45" height="39" viewBox="0 0 45 39" fill="none" xmlns="http://www.w3.org/2000/svg">
<path fill-rule="evenodd" clip-rule="evenodd" d="M0.499023 21.4761C0.499023 20.8808 0.533714 20.2848 0.61098 19.7069L1.04225 14.8903C1.04225 14.519 0.88693 14.683 1.22359 14.683H2.25091C5.58281 8.51984 13.3252 4.19531 22.3369 4.19531C31.3486 4.19531 39.0823 8.51984 42.4142 14.683H43.1483C43.4936 14.683 43.7609 14.9936 43.7609 15.365L43.8799 15.186C44.1472 16.2567 44.1756 20.3368 44.1756 21.4761C44.1756 31.0058 34.3872 38.7482 22.3369 38.7482C10.2866 38.7482 0.499023 31.0058 0.499023 21.4761Z" fill="url(#paint0_linear_4471_31637)"/>
<path fill-rule="evenodd" clip-rule="evenodd" d="M22.4318 0.00012207C34.3608 0.00012207 44.0458 7.74249 44.0458 17.2809C44.0458 26.8193 34.3608 34.553 22.4318 34.553C10.5029 34.553 0.817871 26.8193 0.817871 17.2809C0.817871 7.74249 10.5029 0.00012207 22.4318 0.00012207Z" fill="url(#paint1_linear_4471_31637)"/>
<path fill-rule="evenodd" clip-rule="evenodd" d="M3.57129 25.5845L8.25849 22.6926C9.19042 24.0739 10.4338 25.3078 11.9184 26.3264L7.05851 29.3217C5.75523 28.769 3.84724 26.2744 3.57129 25.5837V25.5845ZM33.109 7.27643L37.2435 4.79919C38.7107 5.73979 39.9194 6.95712 40.9207 8.41571L36.6742 10.9623C35.7163 9.63305 34.525 8.35579 33.109 7.27643Z" fill="#8FD9FF"/>
<path fill-rule="evenodd" clip-rule="evenodd" d="M38.2285 29.0718L33.36 26.0852C34.7752 25.0492 36.1392 23.9446 37.0112 22.5633L41.5518 25.3599C40.5591 26.9998 39.5318 28.1304 38.2285 29.0718ZM8.27616 10.6778L4.07227 8.09724C5.07357 6.77663 6.21285 5.51672 7.86145 4.54932L11.9274 7.06125C10.4514 8.0799 9.20809 9.3059 8.27616 10.6778Z" fill="#8FD9FF"/>
<path fill-rule="evenodd" clip-rule="evenodd" d="M6.1001 16.5988C6.1001 9.12369 13.7479 3.71191 22.475 3.71191C31.2021 3.71191 38.8412 9.16705 38.8412 16.5988C38.8412 24.0305 31.2021 29.4943 22.475 29.4943C13.7479 29.4943 6.1001 24.0392 6.1001 16.5988ZM36.4838 16.4521C36.5271 10.7376 30.226 5.51584 22.4229 5.51584C14.6199 5.51584 8.34475 10.4616 8.34475 16.3835C8.34475 21.312 14.5252 27.0872 22.3283 27.0872C30.1314 27.0872 36.4845 21.4161 36.4845 16.4529L36.4838 16.4521Z" fill="#0D45D1"/>
<path fill-rule="evenodd" clip-rule="evenodd" d="M17.8223 28.5711L18.3143 27.5698C19.2723 27.7858 20.2649 27.9324 21.3009 27.9924V29.0969C20.1009 29.0189 18.9356 28.847 17.8223 28.5703V28.5711ZM23.6228 29.0977V27.9931C24.5981 27.9324 25.5387 27.8031 26.4454 27.6044L26.946 28.6144C25.8753 28.8644 24.7707 29.0291 23.6228 29.0977ZM29.2506 27.8977L28.776 26.9225C29.8206 26.5424 30.7959 26.0591 31.6766 25.5072L32.5486 26.2152C31.5473 26.8799 30.434 27.4499 29.2514 27.8985L29.2506 27.8977ZM12.1078 26.0331L12.9885 25.3424C13.9031 25.9377 14.913 26.4557 16.0097 26.8704L15.5264 27.8457C14.2917 27.3624 13.1351 26.7498 12.1086 26.0331H12.1078ZM34.4211 24.7385L33.5838 24.0739C34.3265 23.4092 34.9565 22.6752 35.4918 21.8899L36.5104 22.2439C35.9404 23.1419 35.2419 23.9793 34.4219 24.7385H34.4211ZM8.34464 22.132L9.36329 21.778C9.84659 22.5285 10.4426 23.2366 11.1325 23.8839L10.2865 24.5398C9.53595 23.8058 8.87919 22.9945 8.34464 22.1312V22.132ZM37.4077 20.4747L36.4411 20.1467C36.8124 19.2574 37.045 18.3168 37.1231 17.3675H38.1244C38.0463 18.4469 37.805 19.4907 37.4077 20.4747ZM6.79932 17.3675H7.80062C7.87867 18.2821 8.08524 19.1714 8.43057 20.0261L7.46396 20.3454C7.10128 19.4048 6.8687 18.4035 6.79932 17.3675ZM7.69734 12.439L8.67262 12.7757C8.32729 13.501 8.07736 14.2603 7.92204 15.0456H6.90339C7.05004 14.1389 7.3181 13.2677 7.69734 12.439ZM36.1911 12.6551L37.1751 12.3184C37.5725 13.1817 37.8571 14.0963 38.0124 15.0464H36.9938C36.8384 14.2177 36.5712 13.4238 36.1911 12.6551ZM9.64002 11.1444L8.6127 10.7991C9.17406 9.96179 9.85605 9.17652 10.6327 8.46851L11.47 9.1505C10.7706 9.76311 10.158 10.4278 9.64002 11.1444ZM33.49 9.17652L34.3273 8.51187C35.0526 9.17652 35.6913 9.90187 36.2353 10.6871L35.1993 11.0325C34.7073 10.3765 34.1286 9.75522 33.49 9.17652ZM13.102 7.91661L12.2213 7.22595C13.2313 6.54396 14.3446 5.94869 15.5446 5.48194L16.0279 6.45723C14.9745 6.8546 13.9906 7.34658 13.102 7.91582V7.91661ZM28.7515 6.40598L29.2348 5.4307C30.3915 5.87064 31.4708 6.42333 32.4634 7.06196L31.5741 7.76996C30.7108 7.23462 29.7702 6.77733 28.7515 6.40598ZM18.3419 5.75868L17.8413 4.75738C18.9545 4.4901 20.1111 4.30876 21.3025 4.23938V5.34397C20.2751 5.40468 19.2825 5.55133 18.3419 5.75868ZM23.633 5.34397V4.23938C24.7637 4.30876 25.869 4.47275 26.9303 4.72269L26.4296 5.73266C25.5316 5.53398 24.591 5.40468 23.633 5.34397Z" fill="#618FFF"/>
<path fill-rule="evenodd" clip-rule="evenodd" d="M38.2017 29.0205C38.2017 28.9511 38.1387 31.8738 38.0874 33.4018C39.1668 32.4612 40.1838 31.586 41.2632 29.9974L41.439 25.3433C40.3171 27.2166 39.3244 28.1745 38.2017 29.0205Z" fill="#1761FA"/>
<path fill-rule="evenodd" clip-rule="evenodd" d="M10.9854 31.9983L10.994 36.2622C12.4353 36.9355 14.024 37.5221 15.7411 37.9194L15.7238 33.5342C14.0232 33.2669 12.47 32.6795 10.9854 31.9976V31.9983Z" fill="#1761FA"/>
<path fill-rule="evenodd" clip-rule="evenodd" d="M19.9712 34.3463L19.9799 38.6795C21.8618 38.8435 23.7777 38.8088 25.7283 38.5589L25.7196 34.2257C23.8037 34.4756 21.8871 34.5017 19.9712 34.3463Z" fill="#1761FA"/>
<path fill-rule="evenodd" clip-rule="evenodd" d="M30.2615 33.2843L30.2441 37.5741C31.7201 37.1255 33.2307 36.5121 34.7847 35.6409V31.4031C33.3088 32.2057 31.7981 32.827 30.2615 33.2851V33.2843Z" fill="#1761FA"/>
<path fill-rule="evenodd" clip-rule="evenodd" d="M20.0409 34.3976C19.1862 34.3282 18.3142 34.2076 17.4603 34.0609C17.1931 34.0175 16.925 33.9663 16.6664 33.9143C15.7684 33.7503 14.8451 33.4917 13.9731 33.2236C9.54532 31.8596 5.56612 29.2271 3.09677 25.2392C2.55275 24.3672 2.06944 23.3746 1.73279 22.408C1.07681 20.552 0.774845 18.7828 0.81742 16.8148C1.07602 18.8521 1.63739 20.8887 2.5354 22.7446C2.9241 23.5559 3.39006 24.3325 3.90806 25.0579C4.06338 25.2826 4.23604 25.4891 4.39136 25.7052C4.6413 26.0245 4.92671 26.3525 5.20266 26.6544C6.26467 27.7937 7.50723 28.8384 8.83652 29.6583C9.25124 29.9091 9.67383 30.159 10.1051 30.3837C13.8509 32.3429 17.9515 33.1716 22.1381 33.2496L23.9073 33.2323L25.8153 33.0509C26.4453 32.965 27.0839 32.8609 27.7146 32.7403C28.5086 32.585 29.3286 32.3863 30.0973 32.145C30.9866 31.8778 31.8578 31.5837 32.7125 31.2218C35.8457 29.8925 38.7724 27.9332 40.8002 25.1619C41.4128 24.3159 41.9308 23.4439 42.3629 22.4947C42.8722 21.3988 43.2262 20.1901 43.4501 19.0075C43.5967 18.1788 43.7008 17.3155 43.726 16.4782C43.7347 16.1502 43.7521 15.7962 43.7434 15.4682C43.726 15.1402 43.7434 14.8209 43.7174 14.4929C43.7781 14.7515 43.8207 15.0283 43.864 15.2869C44.0107 16.2708 44.054 17.2027 44.0193 18.1962C43.9846 19.1801 43.8207 20.1901 43.5794 21.1394C42.9841 23.548 41.6974 25.7745 40.0141 27.5871C39.3495 28.3038 38.6328 28.9424 37.8649 29.555C36.4749 30.651 34.9217 31.5143 33.3156 32.2483C32.9009 32.4383 32.4697 32.611 32.0471 32.7663C30.8124 33.241 29.5178 33.621 28.2319 33.8969C26.9199 34.1729 25.5993 34.3716 24.2613 34.467C23.8387 34.5016 23.4153 34.5016 22.9841 34.5103C22.0001 34.5103 21.0248 34.467 20.0409 34.3984V34.3976Z" fill="url(#paint2_radial_4471_31637)"/>
<path fill-rule="evenodd" clip-rule="evenodd" d="M8.49975 16.7462C8.49975 16.3836 8.52577 16.0122 8.53444 16.1936C8.53444 21.0708 14.6716 26.8452 22.4399 26.8452C30.2083 26.8452 36.5181 21.1741 36.4842 16.7289C36.4669 16.099 36.4929 16.4616 36.4842 16.8148C36.4842 21.778 30.105 27.4578 22.406 27.4578C14.707 27.4578 8.50054 21.6747 8.50054 16.7455L8.49975 16.7462ZM22.5519 4.07463C14.4122 4.07463 7.22171 8.83043 6.30713 16.4009V16.3662C6.30713 8.88246 13.9028 3.47937 22.5866 3.47937C31.2703 3.47937 38.8661 8.92583 38.8661 16.3662L38.8227 16.9363C37.8734 8.86591 30.7177 4.07463 22.5519 4.07463Z" fill="#00122E"/>
<path fill-rule="evenodd" clip-rule="evenodd" d="M6.95529 29.5385C6.95529 29.4604 6.96397 32.283 7.00733 33.8023C5.92797 32.8704 4.95269 32.3177 3.87412 30.729L3.56348 25.8518C4.67674 27.6037 5.83336 28.5451 6.95608 29.5377L6.95529 29.5385Z" fill="#1761FA"/>
<path fill-rule="evenodd" clip-rule="evenodd" d="M22.4062 5.21387C30.0713 5.21387 36.2864 10.013 36.2864 15.9262C36.2864 21.8394 30.0713 26.6299 22.4062 26.6299C14.7411 26.6299 8.52588 21.8308 8.52588 15.9262C8.52588 10.0217 14.7411 5.21387 22.4062 5.21387Z" fill="white"/>
<path fill-rule="evenodd" clip-rule="evenodd" d="M1.51617 21.64L1.36952 26.2665C0.40291 23.8412 0.160862 20.7246 0.799489 17.6694C0.825507 19.1107 1.15349 20.3193 1.51617 21.64Z" fill="#1761FA"/>
<path d="M17.1813 17.6009C18.4349 17.6009 19.2982 17.3407 19.2982 16.5602C19.2982 15.7796 18.4349 15.4603 17.0985 15.4603C16.2943 15.4603 15.4073 15.6022 14.5558 15.9689L12.8291 15.3184L13.5387 10.9426H20.8947V12.7284H15.3482L15.0643 14.5142C15.904 14.0057 16.8856 13.7455 17.9973 13.7455C19.8777 13.7455 21.7581 14.6325 21.7581 16.5838C21.7581 18.1449 20.4099 19.4931 17.1813 19.4931C15.1826 19.4931 13.6097 18.89 12.4507 17.8966L13.7279 16.4774C14.3547 16.9978 15.6202 17.6009 17.1813 17.6009Z" fill="#0833A1"/>
<path d="M22.6338 15.0826C22.6338 12.2916 24.6206 10.6714 27.7901 10.6714C30.9596 10.6714 32.9583 12.2916 32.9583 15.0826C32.9583 17.8737 30.9714 19.4939 27.7901 19.4939C24.6088 19.4939 22.6338 17.8737 22.6338 15.0826ZM30.5102 15.0826C30.5102 13.4979 29.4931 12.6346 27.8019 12.6346C26.1108 12.6346 25.0819 13.4979 25.0819 15.0826C25.0819 16.6674 26.0989 17.5307 27.8019 17.5307C29.5049 17.5307 30.5102 16.6674 30.5102 15.0826Z" fill="#0833A1"/>
<defs>
<linearGradient id="paint0_linear_4471_31637" x1="-15.279" y1="22.3836" x2="44.9632" y2="20.9234" gradientUnits="userSpaceOnUse">
<stop stop-color="#000D33"/>
<stop offset="0.79" stop-color="#0D409E"/>
<stop offset="1" stop-color="#001240"/>
</linearGradient>
<linearGradient id="paint1_linear_4471_31637" x1="21.7743" y1="37.2281" x2="22.7212" y2="8.47651" gradientUnits="userSpaceOnUse">
<stop stop-color="#0D42C7"/>
<stop offset="1" stop-color="#0336B0"/>
</linearGradient>
<radialGradient id="paint2_radial_4471_31637" cx="0" cy="0" r="1" gradientUnits="userSpaceOnUse" gradientTransform="translate(23.1828 34.0522) scale(24.1377 24.1377)">
<stop stop-color="#BAE6FF"/>
<stop offset="0.68" stop-color="#6EBAF5"/>
<stop offset="1" stop-color="#1270BA"/>
</radialGradient>
</defs>
</svg>
