<svg width="73" height="67" viewBox="0 0 73 67" fill="none" xmlns="http://www.w3.org/2000/svg">
<g filter="url(#filter0_d_4471_31488)">
<path fill-rule="evenodd" clip-rule="evenodd" d="M14.499 33.5178C14.499 32.9226 14.5337 32.3265 14.611 31.7486L15.0423 26.9321C15.0423 26.5607 14.8869 26.7247 15.2236 26.7247H16.2509C19.5828 20.5616 27.3252 16.2371 36.3369 16.2371C45.3486 16.2371 53.0823 20.5616 56.4142 26.7247H57.1483C57.4936 26.7247 57.7609 27.0354 57.7609 27.4067L57.8799 27.2278C58.1472 28.2984 58.1756 32.3785 58.1756 33.5178C58.1756 43.0476 48.3872 50.7899 36.3369 50.7899C24.2866 50.7899 14.499 43.0476 14.499 33.5178Z" fill="url(#paint0_linear_4471_31488)"/>
<path fill-rule="evenodd" clip-rule="evenodd" d="M36.4318 12.0419C48.3608 12.0419 58.0458 19.7842 58.0458 29.3226C58.0458 38.861 48.3608 46.5947 36.4318 46.5947C24.5029 46.5947 14.8179 38.861 14.8179 29.3226C14.8179 19.7842 24.5029 12.0419 36.4318 12.0419Z" fill="url(#paint1_linear_4471_31488)"/>
<path fill-rule="evenodd" clip-rule="evenodd" d="M17.5713 37.6263L22.2585 34.7343C23.1904 36.1156 24.4338 37.3495 25.9184 38.3682L21.0585 41.3634C19.7552 40.8107 17.8472 38.3161 17.5713 37.6255V37.6263ZM47.109 19.3182L51.2435 16.8409C52.7107 17.7815 53.9194 18.9989 54.9207 20.4575L50.6742 23.0041C49.7163 21.6748 48.525 20.3975 47.109 19.3182Z" fill="#8FD9FF"/>
<path fill-rule="evenodd" clip-rule="evenodd" d="M52.2285 41.1135L47.36 38.127C48.7752 37.091 50.1392 35.9864 51.0112 34.6051L55.5518 37.4016C54.5591 39.0416 53.5318 40.1722 52.2285 41.1135ZM22.2762 22.7195L18.0723 20.139C19.0736 18.8184 20.2128 17.5585 21.8615 16.5911L25.9274 19.103C24.4514 20.1216 23.2081 21.3477 22.2762 22.7195Z" fill="#8FD9FF"/>
<path fill-rule="evenodd" clip-rule="evenodd" d="M20.1001 28.6405C20.1001 21.1654 27.7479 15.7537 36.475 15.7537C45.2021 15.7537 52.8412 21.2088 52.8412 28.6405C52.8412 36.0722 45.2021 41.5361 36.475 41.5361C27.7479 41.5361 20.1001 36.0809 20.1001 28.6405ZM50.4838 28.4939C50.5271 22.7793 44.226 17.5576 36.4229 17.5576C28.6199 17.5576 22.3448 22.5034 22.3448 28.4253C22.3448 33.3537 28.5252 39.129 36.3283 39.129C44.1314 39.129 50.4845 33.4578 50.4845 28.4947L50.4838 28.4939Z" fill="#0D45D1"/>
<path fill-rule="evenodd" clip-rule="evenodd" d="M31.8223 40.6128L32.3143 39.6115C33.2723 39.8275 34.2649 39.9742 35.3009 40.0341V41.1387C34.1009 41.0606 32.9356 40.8888 31.8223 40.612V40.6128ZM37.6228 41.1395V40.0349C38.5981 39.9742 39.5387 39.8449 40.4454 39.6462L40.946 40.6562C39.8753 40.9061 38.7707 41.0709 37.6228 41.1395ZM43.2506 39.9395L42.776 38.9642C43.8206 38.5842 44.7959 38.1009 45.6766 37.549L46.5486 38.257C45.5473 38.9216 44.434 39.4917 43.2514 39.9403L43.2506 39.9395ZM26.1078 38.0749L26.9885 37.3842C27.9031 37.9795 28.913 38.4975 30.0097 38.9122L29.5264 39.8875C28.2917 39.4042 27.1351 38.7915 26.1086 38.0749H26.1078ZM48.4211 36.7803L47.5838 36.1156C48.3265 35.451 48.9565 34.7169 49.4918 33.9317L50.5104 34.2857C49.9404 35.1837 49.2419 36.021 48.4219 36.7803H48.4211ZM22.3446 34.1737L23.3633 33.8197C23.8466 34.5703 24.4426 35.2783 25.1325 35.9256L24.2865 36.5816C23.536 35.8475 22.8792 35.0363 22.3446 34.1729V34.1737ZM51.4077 32.5164L50.4411 32.1885C50.8124 31.2991 51.045 30.3585 51.1231 29.4092H52.1244C52.0463 30.4886 51.805 31.5325 51.4077 32.5164ZM20.7993 29.4092H21.8006C21.8787 30.3238 22.0852 31.2132 22.4306 32.0678L21.464 32.3871C21.1013 31.4465 20.8687 30.4452 20.7993 29.4092ZM21.6973 24.4808L22.6726 24.8174C22.3273 25.5428 22.0774 26.302 21.922 27.0873H20.9034C21.05 26.1806 21.3181 25.3094 21.6973 24.4808ZM50.1911 24.6968L51.1751 24.3602C51.5725 25.2235 51.8571 26.1381 52.0124 27.0881H50.9938C50.8384 26.2595 50.5712 25.4655 50.1911 24.6968ZM23.64 23.1862L22.6127 22.8409C23.1741 22.0035 23.8561 21.2183 24.6327 20.5103L25.47 21.1922C24.7706 21.8049 24.158 22.4695 23.64 23.1862ZM47.49 21.2183L48.3273 20.5536C49.0526 21.2183 49.6913 21.9436 50.2353 22.7289L49.1993 23.0742C48.7073 22.4183 48.1286 21.797 47.49 21.2183ZM27.102 19.9584L26.2213 19.2677C27.2313 18.5857 28.3446 17.9904 29.5446 17.5237L30.0279 18.499C28.9745 18.8963 27.9906 19.3883 27.102 19.9576V19.9584ZM42.7515 18.4477L43.2348 17.4724C44.3915 17.9124 45.4708 18.4651 46.4634 19.1037L45.5741 19.8117C44.7108 19.2764 43.7702 18.8191 42.7515 18.4477ZM32.3419 17.8004L31.8413 16.7991C32.9545 16.5318 34.1111 16.3505 35.3025 16.2811V17.3857C34.2751 17.4464 33.2825 17.5931 32.3419 17.8004ZM37.633 17.3857V16.2811C38.7637 16.3505 39.869 16.5145 40.9303 16.7644L40.4296 17.7744C39.5316 17.5757 38.591 17.4464 37.633 17.3857Z" fill="#618FFF"/>
<path fill-rule="evenodd" clip-rule="evenodd" d="M52.2017 41.0622C52.2017 40.9929 52.1387 43.9156 52.0874 45.4435C53.1668 44.5029 54.1838 43.6278 55.2632 42.0391L55.439 37.385C54.3171 39.2583 53.3244 40.2163 52.2017 41.0622Z" fill="#1761FA"/>
<path fill-rule="evenodd" clip-rule="evenodd" d="M24.9854 44.0401L24.994 48.3039C26.4353 48.9772 28.024 49.5638 29.7411 49.9612L29.7238 45.576C28.0232 45.3087 26.47 44.7213 24.9854 44.0393V44.0401Z" fill="#1761FA"/>
<path fill-rule="evenodd" clip-rule="evenodd" d="M33.9712 46.3881L33.9799 50.7213C35.8618 50.8853 37.7777 50.8506 39.7283 50.6007L39.7196 46.2675C37.8037 46.5174 35.8871 46.5434 33.9712 46.3881Z" fill="#1761FA"/>
<path fill-rule="evenodd" clip-rule="evenodd" d="M44.2615 45.326L44.2441 49.6159C45.7201 49.1672 47.2307 48.5538 48.7847 47.6826V43.4448C47.3088 44.2474 45.7981 44.8687 44.2615 45.3268V45.326Z" fill="#1761FA"/>
<path fill-rule="evenodd" clip-rule="evenodd" d="M34.0409 46.4393C33.1862 46.3699 32.3142 46.2493 31.4603 46.1027C31.1931 46.0593 30.925 46.0081 30.6664 45.956C29.7684 45.792 28.8451 45.5334 27.9731 45.2654C23.5453 43.9014 19.5661 41.2688 17.0968 37.2809C16.5528 36.4089 16.0694 35.4163 15.7328 34.4497C15.0768 32.5937 14.7748 30.8245 14.8174 28.8566C15.076 30.8939 15.6374 32.9304 16.5354 34.7864C16.9241 35.5977 17.3901 36.3743 17.9081 37.0996C18.0634 37.3243 18.236 37.5309 18.3914 37.7469C18.6413 38.0662 18.9267 38.3942 19.2027 38.6962C20.2647 39.8355 21.5072 40.8801 22.8365 41.7001C23.2512 41.9508 23.6738 42.2007 24.1051 42.4254C27.8509 44.3847 31.9515 45.2133 36.1381 45.2914L37.9073 45.274L39.8153 45.0927C40.4453 45.0068 41.0839 44.9027 41.7146 44.782C42.5086 44.6267 43.3286 44.428 44.0973 44.1868C44.9866 43.9195 45.8578 43.6254 46.7125 43.2635C49.8457 41.9342 52.7724 39.975 54.8002 37.2037C55.4128 36.3577 55.9308 35.4857 56.3629 34.5364C56.8722 33.4405 57.2262 32.2318 57.4501 31.0492C57.5967 30.2206 57.7008 29.3572 57.726 28.5199C57.7347 28.1919 57.7521 27.8379 57.7434 27.51C57.726 27.182 57.7434 26.8627 57.7174 26.5347C57.7781 26.7933 57.8207 27.07 57.864 27.3286C58.0107 28.3126 58.054 29.2445 58.0193 30.2379C57.9846 31.2219 57.8207 32.2318 57.5794 33.1811C56.9841 35.5898 55.6974 37.8163 54.0141 39.6289C53.3495 40.3456 52.6328 40.9842 51.8649 41.5968C50.4749 42.6927 48.9217 43.556 47.3156 44.2901C46.9009 44.4801 46.4697 44.6527 46.0471 44.8081C44.8124 45.2827 43.5178 45.6627 42.2319 45.9387C40.9199 46.2146 39.5993 46.4133 38.2613 46.5087C37.8387 46.5434 37.4153 46.5434 36.9841 46.5521C36.0001 46.5521 35.0248 46.5087 34.0409 46.4401V46.4393Z" fill="url(#paint2_radial_4471_31488)"/>
<path fill-rule="evenodd" clip-rule="evenodd" d="M22.4997 28.788C22.4997 28.4253 22.5258 28.054 22.5344 28.2353C22.5344 33.1125 28.6716 38.887 36.4399 38.887C44.2083 38.887 50.5181 33.2158 50.4842 28.7707C50.4669 28.1407 50.4929 28.5034 50.4842 28.8566C50.4842 33.8197 44.105 39.4996 36.406 39.4996C28.707 39.4996 22.5005 33.7165 22.5005 28.7872L22.4997 28.788ZM36.5519 16.1164C28.4122 16.1164 21.2217 20.8722 20.3071 28.4427V28.408C20.3071 20.9242 27.9028 15.5211 36.5866 15.5211C45.2703 15.5211 52.8661 20.9676 52.8661 28.408L52.8227 28.978C51.8734 20.9077 44.7177 16.1164 36.5519 16.1164Z" fill="#00122E"/>
<path fill-rule="evenodd" clip-rule="evenodd" d="M20.9553 41.5802C20.9553 41.5022 20.964 44.3248 21.0073 45.8441C19.928 44.9121 18.9527 44.3595 17.8741 42.7708L17.5635 37.8936C18.6767 39.6454 19.8334 40.5868 20.9561 41.5795L20.9553 41.5802Z" fill="#1761FA"/>
<path fill-rule="evenodd" clip-rule="evenodd" d="M36.4062 17.2556C44.0713 17.2556 50.2864 22.0548 50.2864 27.968C50.2864 33.8812 44.0713 38.6717 36.4062 38.6717C28.7411 38.6717 22.5259 33.8725 22.5259 27.968C22.5259 22.0634 28.7411 17.2556 36.4062 17.2556Z" fill="white"/>
<path fill-rule="evenodd" clip-rule="evenodd" d="M15.5162 33.6817L15.3695 38.3082C14.4029 35.883 14.1609 32.7663 14.7995 29.7112C14.8255 31.1524 15.1535 32.3611 15.5162 33.6817Z" fill="#1761FA"/>
<path d="M31.1813 29.6427C32.4349 29.6427 33.2982 29.3825 33.2982 28.6019C33.2982 27.8214 32.4349 27.5021 31.0985 27.5021C30.2943 27.5021 29.4073 27.644 28.5558 28.0106L26.8291 27.3602L27.5387 22.9844H34.8947V24.7702H29.3482L29.0643 26.556C29.904 26.0474 30.8856 25.7872 31.9973 25.7872C33.8777 25.7872 35.7581 26.6742 35.7581 28.6256C35.7581 30.1867 34.4099 31.5349 31.1813 31.5349C29.1826 31.5349 27.6097 30.9317 26.4507 29.9383L27.7279 28.5191C28.3547 29.0395 29.6202 29.6427 31.1813 29.6427Z" fill="#0833A1"/>
<path d="M36.6338 27.1244C36.6338 24.3334 38.6206 22.7131 41.7901 22.7131C44.9596 22.7131 46.9583 24.3334 46.9583 27.1244C46.9583 29.9154 44.9714 31.5356 41.7901 31.5356C38.6088 31.5356 36.6338 29.9154 36.6338 27.1244ZM44.5102 27.1244C44.5102 25.5397 43.4931 24.6763 41.8019 24.6763C40.1108 24.6763 39.0819 25.5397 39.0819 27.1244C39.0819 28.7091 40.0989 29.5725 41.8019 29.5725C43.5049 29.5725 44.5102 28.7091 44.5102 27.1244Z" fill="#0833A1"/>
</g>
<defs>
<filter id="filter0_d_4471_31488" x="0.444336" y="0.0418701" width="71.7314" height="66.7798" filterUnits="userSpaceOnUse" color-interpolation-filters="sRGB">
<feFlood flood-opacity="0" result="BackgroundImageFix"/>
<feColorMatrix in="SourceAlpha" type="matrix" values="0 0 0 0 0 0 0 0 0 0 0 0 0 0 0 0 0 0 127 0" result="hardAlpha"/>
<feOffset dy="2"/>
<feGaussianBlur stdDeviation="7"/>
<feComposite in2="hardAlpha" operator="out"/>
<feColorMatrix type="matrix" values="0 0 0 0 0 0 0 0 0 0.1 0 0 0 0 1 0 0 0 0.4 0"/>
<feBlend mode="normal" in2="BackgroundImageFix" result="effect1_dropShadow_4471_31488"/>
<feBlend mode="normal" in="SourceGraphic" in2="effect1_dropShadow_4471_31488" result="shape"/>
</filter>
<linearGradient id="paint0_linear_4471_31488" x1="-1.279" y1="34.4253" x2="58.9632" y2="32.9651" gradientUnits="userSpaceOnUse">
<stop stop-color="#000D33"/>
<stop offset="0.79" stop-color="#0D409E"/>
<stop offset="1" stop-color="#001240"/>
</linearGradient>
<linearGradient id="paint1_linear_4471_31488" x1="35.7743" y1="49.2699" x2="36.7212" y2="20.5183" gradientUnits="userSpaceOnUse">
<stop stop-color="#0D42C7"/>
<stop offset="1" stop-color="#0336B0"/>
</linearGradient>
<radialGradient id="paint2_radial_4471_31488" cx="0" cy="0" r="1" gradientUnits="userSpaceOnUse" gradientTransform="translate(37.1828 46.094) scale(24.1377 24.1377)">
<stop stop-color="#BAE6FF"/>
<stop offset="0.68" stop-color="#6EBAF5"/>
<stop offset="1" stop-color="#1270BA"/>
</radialGradient>
</defs>
</svg>
