<svg width="72" height="67" viewBox="0 0 72 67" fill="none" xmlns="http://www.w3.org/2000/svg">
<g filter="url(#filter0_d_4471_31547)">
<path fill-rule="evenodd" clip-rule="evenodd" d="M14.3174 33.3948C14.3174 32.8042 14.3576 32.2224 14.4293 31.6484L14.8677 26.8713C14.8677 26.4968 14.7084 26.664 15.0435 26.664H16.0567C19.3665 20.5387 27.0544 16.248 35.9952 16.248C44.936 16.248 52.6161 20.5387 55.9259 26.664H56.652C56.995 26.664 57.2662 26.9667 57.2662 27.3341L57.3435 27.0464C57.6147 28.1147 57.6652 32.2713 57.6652 33.3956C57.6652 42.8622 47.9588 50.5423 35.996 50.5423C24.0332 50.5423 14.319 42.8622 14.319 33.3956L14.3174 33.3948Z" fill="url(#paint0_linear_4471_31547)"/>
<path fill-rule="evenodd" clip-rule="evenodd" d="M25.0205 43.9219L25.0442 48.181C26.3758 48.8267 27.8273 49.3376 29.4223 49.72L29.3987 45.397C27.8273 45.1416 26.4003 44.5834 25.0205 43.9219Z" fill="#800D14"/>
<path fill-rule="evenodd" clip-rule="evenodd" d="M43.0444 45.2937L43.0846 49.6001C44.4242 49.1775 45.8678 48.747 47.3437 47.9972L47.2397 43.7783C45.8757 44.5045 44.4723 44.8868 43.0444 45.2937Z" fill="#800D14"/>
<path fill-rule="evenodd" clip-rule="evenodd" d="M36.0901 12.0842C47.9338 12.0842 57.544 19.7722 57.544 29.231C57.544 38.6897 47.9338 46.3777 36.0901 46.3777C24.2463 46.3777 14.644 38.6976 14.644 29.231C14.644 19.7643 24.2542 12.0842 36.0901 12.0842Z" fill="#B70027"/>
<path fill-rule="evenodd" clip-rule="evenodd" d="M17.3716 37.478L22.0288 34.6066C22.9537 35.9784 24.182 37.1989 25.658 38.2112L20.8407 41.186C19.5405 40.6357 17.6428 38.1553 17.3716 37.4772V37.478ZM46.6806 19.3103L50.7875 16.8535C52.239 17.7783 53.443 18.9909 54.4403 20.4346L50.2293 22.963C49.2722 21.6472 48.0919 20.3794 46.6806 19.3103Z" fill="#FF5966"/>
<path fill-rule="evenodd" clip-rule="evenodd" d="M51.7617 40.9393L46.9365 37.9724C48.3399 36.9514 49.6881 35.8508 50.5657 34.4876L55.0715 37.255C54.0829 38.8823 53.0618 40.0066 51.7617 40.9393ZM22.038 22.6919L17.8672 20.124C18.8559 18.8081 19.9967 17.564 21.6319 16.6068L25.6671 19.0951C24.1998 20.1003 22.9636 21.32 22.038 22.6919Z" fill="#FF5966"/>
<path fill-rule="evenodd" clip-rule="evenodd" d="M19.8838 28.5617C19.8838 21.1449 27.4685 15.7694 36.1294 15.7694C44.7902 15.7694 52.3749 21.1764 52.3749 28.5617C52.3749 35.9469 44.7824 41.3618 36.1294 41.3618C27.4764 41.3618 19.8838 35.9469 19.8838 28.5617ZM50.0388 28.4103C50.0869 22.7478 43.826 17.5639 36.082 17.5639C28.3381 17.5639 22.1095 22.4687 22.1016 28.3464C22.1016 33.2355 28.2427 38.9697 35.9866 38.9697C43.7306 38.9697 50.0396 33.3387 50.0396 28.4103H50.0388Z" fill="#B21926"/>
<path fill-rule="evenodd" clip-rule="evenodd" d="M31.5122 40.4448L32.0066 39.4483C32.948 39.6635 33.9367 39.807 34.9656 39.8709V40.9636C33.7774 40.8919 32.6208 40.7161 31.5122 40.4448ZM37.2788 40.9636V39.8709C38.2438 39.8149 39.1765 39.6793 40.0785 39.4877L40.5729 40.4843C39.5124 40.7318 38.4118 40.899 37.2788 40.9628V40.9636ZM42.8617 39.7755L42.3831 38.8104C43.4199 38.4272 44.3849 37.9574 45.2624 37.407L46.1321 38.1008C45.1355 38.771 44.0348 39.3292 42.8625 39.7755H42.8617ZM25.8426 37.925L26.7123 37.2391C27.6213 37.8375 28.6266 38.3476 29.7107 38.7623L29.24 39.7274C28.0116 39.2409 26.8715 38.6346 25.8426 37.925ZM47.9983 36.6328L47.161 35.9792C47.895 35.3169 48.5249 34.5916 49.0508 33.8181L50.0561 34.1611C49.4979 35.0544 48.804 35.8838 47.9983 36.6336V36.6328ZM22.1102 34.0491L23.1155 33.7061C23.6019 34.4481 24.1925 35.1498 24.8784 35.7876L24.0411 36.4412C23.2913 35.7151 22.6377 34.9101 22.111 34.0483L22.1102 34.0491ZM50.9572 32.406L49.9922 32.0788C50.3588 31.1934 50.5906 30.2686 50.6703 29.3193H51.659C51.5872 30.3963 51.3483 31.4244 50.9572 32.406ZM20.5791 29.3193H21.5678C21.6395 30.2284 21.8548 31.1138 22.1977 31.959L21.2327 32.2783C20.874 31.3369 20.6508 30.3482 20.5791 29.3193ZM21.4645 24.4303L22.4374 24.7654C22.0945 25.4828 21.839 26.2405 21.6955 27.0148H20.6824C20.8259 26.1215 21.0892 25.2518 21.4637 24.4311L21.4645 24.4303ZM49.7454 24.6455L50.7183 24.3183C51.1173 25.1714 51.4043 26.0726 51.5557 27.014H50.5425C50.3911 26.2003 50.1199 25.4032 49.7446 24.6455H49.7454ZM23.3946 23.1459L22.3736 22.803C22.9318 21.9735 23.6098 21.2001 24.3833 20.4984L25.2127 21.1686C24.5189 21.7749 23.9126 22.4364 23.3946 23.1467V23.1459ZM47.0656 21.1922L47.895 20.5299C48.6211 21.1922 49.2511 21.9176 49.7927 22.691L48.7638 23.034C48.2774 22.3804 47.7034 21.7662 47.0648 21.1914L47.0656 21.1922ZM26.8321 19.9481L25.9546 19.2543C26.9599 18.5762 28.0684 17.9944 29.2565 17.5315L29.7351 18.4966C28.6905 18.8876 27.7175 19.382 26.8321 19.9481ZM42.3681 18.4406L42.8388 17.4756C43.9875 17.9139 45.0637 18.4564 46.0445 19.0942L45.1591 19.7959C44.3061 19.2614 43.3647 18.8072 42.3681 18.4398V18.4406ZM32.0239 17.8028L31.5375 16.8062C32.6381 16.5429 33.7868 16.3678 34.9671 16.2961V17.3888C33.9461 17.4527 32.9653 17.5962 32.0239 17.8035V17.8028ZM37.2796 17.388V16.2953C38.4039 16.3592 39.4966 16.5263 40.5492 16.7739L40.0627 17.7704C39.1695 17.5788 38.2367 17.4511 37.2796 17.3873V17.388Z" fill="#FFDE1C"/>
<path fill-rule="evenodd" clip-rule="evenodd" d="M51.7454 40.7397C51.7454 40.6601 51.594 43.802 51.5459 45.3094C52.6142 44.3846 53.7393 43.4834 54.8076 41.9042L54.9511 37.0869C53.8426 38.9452 52.8539 39.8945 51.7454 40.7397Z" fill="#800D14"/>
<path fill-rule="evenodd" clip-rule="evenodd" d="M20.6737 40.8997C20.6737 40.8279 20.7375 44.1456 20.7856 45.6531C19.7173 44.7283 18.6561 44.0345 17.5878 42.4552L17.3008 37.239C18.4093 39.0973 19.5581 40.0545 20.6745 40.8997H20.6737Z" fill="#800D14"/>
<path fill-rule="evenodd" clip-rule="evenodd" d="M33.5536 46.0916L33.4897 50.4224C35.2282 50.5738 37.0227 50.6297 38.8251 50.3987V46.1318C37.0542 46.3628 35.3158 46.235 33.5536 46.0916Z" fill="#800D14"/>
<path fill-rule="evenodd" clip-rule="evenodd" d="M21.4151 41.8806C20.7371 41.3863 20.1308 40.8675 19.5174 40.2935C19.31 40.094 19.1106 39.8788 18.9032 39.6714C18.2732 39.0092 17.7072 38.2602 17.1963 37.5025C16.5821 36.5934 16.0475 35.5322 15.6572 34.512C15.1385 33.148 14.8121 31.7288 14.6843 30.2773C14.6441 29.7672 14.6362 29.2807 14.6362 28.7777C14.8838 30.8198 15.4176 32.8216 16.303 34.6791C16.6861 35.477 17.1561 36.2662 17.6591 36.9924C17.8183 37.2076 17.9784 37.415 18.1376 37.6302C18.4089 37.9811 18.7116 38.3161 19.0073 38.6433C19.2706 38.9382 19.5655 39.2339 19.8604 39.4964C20.5061 40.0948 21.192 40.6688 21.926 41.1631C22.4764 41.5298 23.0109 41.8648 23.5928 42.1842C24.0556 42.4475 24.5578 42.6943 25.0443 42.9103C25.3549 43.0459 25.6663 43.1894 25.9857 43.3171C27.7163 44.0031 29.5982 44.5053 31.4487 44.7923C32.3656 44.9358 33.307 45.0556 34.2318 45.1037C34.7506 45.1353 35.2528 45.1597 35.7708 45.1676L37.5653 45.1597L39.2005 45.0083C43.0449 44.5455 46.8648 43.2856 50.0706 41.1482C50.6926 40.7335 51.2911 40.2785 51.8571 39.7921C52.0803 39.6005 52.2955 39.401 52.5107 39.2015C52.6621 39.0659 52.8214 38.9067 52.957 38.7553C53.1407 38.5637 53.3157 38.3721 53.4916 38.1734C53.7785 37.8628 54.034 37.5356 54.2894 37.2005C54.9115 36.3869 55.4216 35.4778 55.8608 34.553C56.1399 33.9624 56.3551 33.349 56.5546 32.727C56.6421 32.4479 56.706 32.1688 56.7856 31.8897C56.8495 31.6342 56.9054 31.363 56.9527 31.1004C57.0324 30.6376 57.112 30.1756 57.1522 29.7049C57.2319 28.9236 57.2642 28.1415 57.2476 27.3523C57.2397 27.0574 57.2397 26.7704 57.2161 26.4747C57.2721 26.7302 57.3115 27.0014 57.3517 27.2639C57.4794 28.2526 57.5354 29.2177 57.4794 30.2229C57.4392 30.9246 57.3517 31.6508 57.2082 32.3367C57.1443 32.6079 57.0805 32.8634 57.0166 33.1346C56.9291 33.5091 56.7935 33.908 56.6658 34.2754C56.4348 34.8975 56.1793 35.5117 55.86 36.0936C55.3499 37.0349 54.783 37.9282 54.0892 38.749C52.0558 41.1497 49.4319 42.9442 46.5447 44.156C44.8859 44.8498 43.1789 45.3844 41.4168 45.7352C40.6031 45.8945 39.7816 46.0301 38.9521 46.1184C38.4097 46.1744 37.8751 46.2304 37.3335 46.2383C31.8145 46.3818 25.9447 45.1857 21.4143 41.8838L21.4151 41.8806Z" fill="url(#paint1_radial_4471_31547)"/>
<path fill-rule="evenodd" clip-rule="evenodd" d="M22.2611 28.7131C22.2611 28.3465 22.2848 27.9791 22.3013 28.1549C22.3013 32.9958 28.3943 38.7301 36.0988 38.7301C43.8033 38.7301 50.0713 33.0991 50.0319 28.6808C50.024 28.0666 50.0477 28.4174 50.0398 28.7762C50.0398 33.6967 43.7072 39.3356 36.0673 39.3356C28.4274 39.3356 22.2619 33.6013 22.2619 28.7123L22.2611 28.7131ZM36.21 16.1361C28.1389 16.1361 21.0012 20.8572 20.0835 28.3622V28.3307C20.0835 20.9053 27.628 15.5385 36.2415 15.5385C44.8551 15.5385 52.3996 20.9455 52.3996 28.3307L52.3594 28.8968C51.418 20.8895 44.3205 16.1361 36.2092 16.1361H36.21Z" fill="#540008"/>
<path fill-rule="evenodd" clip-rule="evenodd" d="M36.1694 17.4921C43.7777 17.4921 49.9425 22.2534 49.9425 28.1232C49.9425 33.9931 43.7777 38.7544 36.1694 38.7544C28.5611 38.7544 22.3877 33.9852 22.3877 28.1232C22.3877 22.2613 28.5603 17.4921 36.1694 17.4921Z" fill="white"/>
<path fill-rule="evenodd" clip-rule="evenodd" d="M15.298 33.4105L15.1861 38.1718C14.3085 35.9146 14.0696 32.4218 14.6673 29.5906C14.6909 30.9143 14.97 32.1908 15.2972 33.4105H15.298Z" fill="#800D14"/>
<path d="M28.7059 29.8044C29.6165 29.8044 30.2433 29.6151 30.2433 29.0483C30.2433 28.4814 29.6165 28.2496 28.646 28.2496C28.0617 28.2496 27.4176 28.3529 26.7995 28.6186L25.5451 28.1463L26.0607 24.9681H31.4039V26.2651H27.375L27.1692 27.5621C27.7795 27.1931 28.4922 27.0039 29.2996 27.0039C30.6651 27.0039 32.0315 27.648 32.0315 29.0656C32.0315 30.1994 31.0522 31.1786 28.7075 31.1786C27.256 31.1786 26.1135 30.7402 25.2715 30.0188L26.1995 28.9883C26.6544 29.366 27.5737 29.8044 28.7075 29.8044H28.7059Z" fill="#780812"/>
<path d="M32.666 27.9752C32.666 25.9481 34.1088 24.771 36.411 24.771C38.7133 24.771 40.1648 25.9481 40.1648 27.9752C40.1648 30.0022 38.7219 31.1793 36.411 31.1793C34.1002 31.1793 32.666 30.0022 32.666 27.9752ZM38.3869 27.9752C38.3869 26.8241 37.6481 26.1973 36.4197 26.1973C35.1914 26.1973 34.4439 26.8241 34.4439 27.9752C34.4439 29.1263 35.1827 29.7531 36.4197 29.7531C37.6568 29.7531 38.3869 29.1263 38.3869 27.9752Z" fill="#780812"/>
<path d="M40.8862 27.9752C40.8862 25.9481 42.3291 24.771 44.6313 24.771C46.9335 24.771 48.385 25.9481 48.385 27.9752C48.385 30.0022 46.9421 31.1793 44.6313 31.1793C42.3204 31.1793 40.8862 30.0022 40.8862 27.9752ZM46.6071 27.9752C46.6071 26.8241 45.8683 26.1973 44.6399 26.1973C43.4116 26.1973 42.6641 26.8241 42.6641 27.9752C42.6641 29.1263 43.4029 29.7531 44.6399 29.7531C45.877 29.7531 46.6071 29.1263 46.6071 27.9752Z" fill="#780812"/>
</g>
<defs>
<filter id="filter0_d_4471_31547" x="0.317383" y="0.0842285" width="71.3477" height="66.47" filterUnits="userSpaceOnUse" color-interpolation-filters="sRGB">
<feFlood flood-opacity="0" result="BackgroundImageFix"/>
<feColorMatrix in="SourceAlpha" type="matrix" values="0 0 0 0 0 0 0 0 0 0 0 0 0 0 0 0 0 0 127 0" result="hardAlpha"/>
<feOffset dy="2"/>
<feGaussianBlur stdDeviation="7"/>
<feComposite in2="hardAlpha" operator="out"/>
<feColorMatrix type="matrix" values="0 0 0 0 1 0 0 0 0 0 0 0 0 0 0 0 0 0 0.4 0"/>
<feBlend mode="normal" in2="BackgroundImageFix" result="effect1_dropShadow_4471_31547"/>
<feBlend mode="normal" in="SourceGraphic" in2="effect1_dropShadow_4471_31547" result="shape"/>
</filter>
<linearGradient id="paint0_linear_4471_31547" x1="11.308" y1="33.7874" x2="58.5277" y2="33.036" gradientUnits="userSpaceOnUse">
<stop stop-color="#452400"/>
<stop offset="0.46" stop-color="#521200"/>
<stop offset="1" stop-color="#290800"/>
</linearGradient>
<radialGradient id="paint1_radial_4471_31547" cx="0" cy="0" r="1" gradientUnits="userSpaceOnUse" gradientTransform="translate(36.5845 45.166) scale(20.9635 20.9635)">
<stop stop-color="#FFABB0"/>
<stop offset="0.5" stop-color="#DE4A54"/>
<stop offset="1" stop-color="#B0121F"/>
</radialGradient>
</defs>
</svg>
