<svg width="44" height="39" viewBox="0 0 44 39" fill="none" xmlns="http://www.w3.org/2000/svg">
<path fill-rule="evenodd" clip-rule="evenodd" d="M0.0317383 21.4761C0.0317383 20.8808 0.0664291 20.2848 0.143695 19.7155L0.573388 14.899C0.573388 14.519 0.410184 14.683 0.753939 14.683H1.76865C5.09739 8.51984 12.8129 4.19531 21.7924 4.19531C30.7718 4.19531 38.4779 8.51984 41.7979 14.683H42.5288C42.8726 14.683 43.1477 14.9936 43.1477 15.365L43.3456 15.2869C43.6121 16.3663 43.5435 20.3368 43.5435 21.4761C43.5435 31.0058 33.7985 38.7482 21.7916 38.7482C9.7846 38.7482 0.0317383 31.0058 0.0317383 21.4761Z" fill="url(#paint0_linear_4471_31567)"/>
<path fill-rule="evenodd" clip-rule="evenodd" d="M21.9646 0.00012207C33.8935 0.00012207 43.5785 7.74249 43.5785 17.2809C43.5785 26.8193 33.8935 34.553 21.9646 34.553C10.0356 34.553 0.350586 26.8193 0.350586 17.2817C0.350586 7.74406 10.0356 0.00012207 21.9646 0.00012207Z" fill="url(#paint1_linear_4471_31567)"/>
<path fill-rule="evenodd" clip-rule="evenodd" d="M3.104 25.5854L7.79988 22.6934C8.72313 24.0748 9.97515 25.3086 11.4511 26.3273L6.59989 29.3225C5.28795 28.7698 3.37995 26.2666 3.104 25.5846V25.5854ZM32.6425 7.27729L36.777 4.80005C38.2356 5.74064 39.4529 6.95798 40.4542 8.41657L36.2077 10.9632C35.2498 9.6339 34.0585 8.35665 32.6425 7.27729Z" fill="#FFE552"/>
<path fill-rule="evenodd" clip-rule="evenodd" d="M5.6333 16.5996C5.6333 9.12454 13.2811 3.71277 21.9995 3.71277C30.7179 3.71277 38.3744 9.1679 38.3744 16.5996C38.3744 24.0314 30.7266 29.4952 21.9995 29.4952C13.2724 29.4952 5.6333 24.0487 5.6333 16.5996ZM36.017 16.453C36.069 10.7385 29.7592 5.52536 21.9561 5.52536C14.1531 5.52536 7.87796 10.4625 7.87796 16.3844C7.87796 21.3129 14.0584 27.0881 21.8615 27.0881C29.6646 27.0881 36.0177 21.4169 36.0177 16.4538L36.017 16.453Z" fill="#F54A26"/>
<path fill-rule="evenodd" clip-rule="evenodd" d="M17.3555 28.5719L17.8475 27.5706C18.8055 27.7866 19.7981 27.9333 20.8254 27.9932V29.0978C19.6341 29.0284 18.4688 28.8471 17.3555 28.5711V28.5719ZM23.156 29.0986V27.994C24.1313 27.9333 25.0806 27.804 25.9872 27.6053L26.4792 28.6153C25.4085 28.866 24.2953 29.03 23.156 29.0986ZM28.7838 27.8986L28.3092 26.932C29.3452 26.5433 30.3204 26.06 31.2098 25.5081L32.0818 26.2161C31.0805 26.8807 29.9672 27.4508 28.7846 27.8994L28.7838 27.8986ZM11.641 26.034L12.5217 25.3433C13.4284 25.9386 14.4462 26.4566 15.5429 26.8713L15.0596 27.8466C13.825 27.3633 12.6683 26.7506 11.6418 26.034H11.641ZM33.963 24.7307L33.117 24.0747C33.851 23.4101 34.4983 22.6761 35.0163 21.8994L36.035 22.2448C35.4649 23.1428 34.7664 23.9801 33.963 24.7307ZM7.87784 22.1328L8.89649 21.7875C9.37979 22.5302 9.97585 23.2374 10.6657 23.8847L9.81974 24.5407C9.06915 23.8067 8.41239 22.9954 7.87784 22.132V22.1328ZM36.9409 20.4755L35.9743 20.1476C36.3456 19.2582 36.5782 18.3263 36.6476 17.3597H37.6489C37.5795 18.4469 37.3382 19.4829 36.9409 20.4755ZM6.33252 17.3597H7.33382C7.40321 18.2829 7.61845 19.1723 7.96378 20.0269L6.99716 20.3549C6.62581 19.4057 6.4019 18.4043 6.33252 17.3597ZM7.22187 12.4399L8.20582 12.7765C7.86049 13.5019 7.60189 14.2612 7.45524 15.0464H6.43659C6.58324 14.1397 6.85131 13.2685 7.22187 12.4399ZM35.7243 12.6559L36.7083 12.3193C37.1057 13.1826 37.3903 14.0972 37.5456 15.0472H36.5269C36.3716 14.2273 36.1044 13.4246 35.7243 12.6559ZM9.17323 11.1453L8.1459 10.8C8.70726 9.96265 9.38925 9.18604 10.1659 8.47804L11.0032 9.15135C10.3038 9.76396 9.69122 10.4286 9.17323 11.1453ZM33.0145 9.17737L33.8605 8.51273C34.5858 9.17737 35.2331 9.90273 35.7685 10.688L34.7325 11.0333C34.2405 10.3774 33.6618 9.75608 33.0145 9.17737ZM12.6352 7.92614L11.7545 7.2268C12.7645 6.54481 13.8778 5.95822 15.0778 5.4828L15.5524 6.45808C14.4991 6.85545 13.5238 7.3561 12.6352 7.92535V7.92614ZM28.2847 6.40684L28.768 5.43155C29.9247 5.87149 31.004 6.42418 31.988 7.06281L31.1073 7.76214C30.244 7.23547 29.2947 6.77818 28.2847 6.40684ZM17.8751 5.76821L17.3745 4.75823C18.479 4.49095 19.6443 4.30962 20.827 4.24023V5.34482C19.8083 5.40553 18.8157 5.55218 17.8751 5.76742V5.76821ZM23.1576 5.34561V4.24102C24.2969 4.3104 25.3936 4.4744 26.4548 4.72433L25.9628 5.73431C25.0648 5.53562 24.1242 5.40632 23.1576 5.34561Z" fill="#FFE552"/>
<path fill-rule="evenodd" clip-rule="evenodd" d="M37.752 29.0726L32.8921 26.086C34.3073 25.05 35.6627 23.9454 36.5433 22.5728L41.0839 25.3607C40.0913 27.0006 39.0639 28.1312 37.752 29.0726ZM7.7996 10.6864L3.5957 8.09724C4.59701 6.77663 5.74496 5.5246 7.39356 4.54932L11.4595 7.06125C9.98355 8.0799 8.7402 9.3059 7.7996 10.6864Z" fill="#FFE552"/>
<path fill-rule="evenodd" clip-rule="evenodd" d="M37.7346 28.9873C37.7346 28.9108 37.6889 31.7886 37.6455 33.2819C38.7249 32.3689 39.6812 31.4969 40.7519 29.9263L40.9719 25.344C39.85 27.2047 38.8573 28.1429 37.7346 28.9881V28.9873Z" fill="url(#paint2_linear_4471_31567)"/>
<path fill-rule="evenodd" clip-rule="evenodd" d="M6.48782 29.2792C6.48782 29.2011 6.53118 32.2831 6.58243 33.8024C5.79716 33.1724 4.57115 32.3178 3.37116 30.6431L3.09521 25.5933C4.20848 27.4666 5.3651 28.4332 6.48782 29.2792Z" fill="url(#paint3_linear_4471_31567)"/>
<path fill-rule="evenodd" clip-rule="evenodd" d="M29.8108 33.6384L29.7935 37.5655C31.2347 37.1508 32.7713 36.4862 34.36 35.6497L34.334 31.8518C32.8581 32.6197 31.3474 33.2071 29.8108 33.6384Z" fill="#B55C05"/>
<path fill-rule="evenodd" clip-rule="evenodd" d="M19.5734 34.873C18.7188 34.8037 17.8381 34.6917 16.9929 34.545C16.7256 34.5017 16.4576 34.4418 16.199 34.3897C15.2923 34.2257 14.3777 33.975 13.5057 33.7077C9.07787 32.3438 5.09 29.6939 2.62932 25.7233C2.0853 24.8513 1.602 23.8587 1.26534 22.8921C0.609366 21.0361 0.307398 19.2582 0.350761 17.2903C0.609366 19.3363 1.17073 21.3728 2.06875 23.2287C2.44877 24.0227 2.9234 24.8166 3.4414 25.542C3.59672 25.758 3.76071 25.9646 3.92471 26.1806C4.16675 26.5086 4.46005 26.8366 4.736 27.1299C5.79801 28.2692 7.04057 29.3225 8.36986 30.1338C8.78458 30.3837 9.1985 30.6431 9.62977 30.8678C13.3843 32.8271 17.4849 33.647 21.6628 33.7251L23.4407 33.7164L25.3487 33.5264C25.9786 33.4405 26.6086 33.3364 27.248 33.2158C32.1339 32.2752 37.347 29.7459 40.3335 25.6374C40.9461 24.7914 41.4555 23.9281 41.8962 22.9701C42.4055 21.8655 42.7508 20.6742 42.9756 19.4829C43.1656 18.499 43.2602 17.4456 43.2688 16.4443C43.2688 15.961 43.2862 15.469 43.2515 14.9771C43.3122 15.2357 43.3635 15.5124 43.3982 15.771C43.4675 16.263 43.5275 16.7636 43.5448 17.2556C43.5708 17.7389 43.5708 18.1962 43.5535 18.6795C43.5188 19.6635 43.3548 20.6648 43.1135 21.6227C42.5183 24.0227 41.2229 26.2579 39.5483 28.0618C38.8749 28.7872 38.1669 29.4258 37.3903 30.0384C36.009 31.1343 34.4471 31.9976 32.8498 32.7317C32.3491 32.9564 31.8311 33.1629 31.3131 33.3443C30.1565 33.7669 28.9739 34.1209 27.7652 34.3803C26.4446 34.6562 25.1326 34.8549 23.7947 34.9503C23.3721 34.9763 22.9487 34.985 22.5174 34.985C21.5335 34.9937 20.5582 34.9503 19.5742 34.873H19.5734Z" fill="url(#paint4_radial_4471_31567)"/>
<path fill-rule="evenodd" clip-rule="evenodd" d="M8.03332 16.7549C8.03332 16.3836 8.05067 16.0122 8.06801 16.1936C8.06801 21.0708 14.2051 26.8539 21.9735 26.8539C29.7419 26.8539 36.0517 21.1741 36.0091 16.7289C36.0004 16.1076 36.0265 16.4616 36.0178 16.8148C36.0178 21.778 29.6386 27.4578 21.9396 27.4578C14.2406 27.4578 8.03411 21.6747 8.03411 16.7541L8.03332 16.7549ZM22.0768 4.07464C13.9457 4.07464 6.75528 8.83044 5.83203 16.4009V16.3662C5.83203 8.89115 13.4364 3.4707 22.1115 3.4707C30.7866 3.4707 38.391 8.92584 38.391 16.3662L38.3563 16.9363C37.4157 8.86592 30.2512 4.07464 22.0768 4.07464Z" fill="#961900"/>
<path d="M21.9561 26.9319C29.6454 26.9319 35.8789 22.1359 35.8789 16.2196C35.8789 10.3033 29.6454 5.5072 21.9561 5.5072C14.2667 5.5072 8.0332 10.3033 8.0332 16.2196C8.0332 22.1359 14.2667 26.9319 21.9561 26.9319Z" fill="white"/>
<path fill-rule="evenodd" clip-rule="evenodd" d="M10.2085 32.4124V36.0983C11.6497 36.8149 13.2298 37.4015 14.9477 37.8423V34.0791C13.2818 33.6991 11.7191 33.0951 10.2085 32.4131V32.4124Z" fill="#B55C05"/>
<path fill-rule="evenodd" clip-rule="evenodd" d="M19.4009 34.8556V38.6188C21.2829 38.8175 23.1877 38.7441 25.1383 38.5202L25.1493 34.8123C23.2334 35.037 21.3168 35.037 19.4009 34.8556Z" fill="#B55C05"/>
<path fill-rule="evenodd" clip-rule="evenodd" d="M0.920934 21.856L0.851552 26.1805C-0.0117767 23.8933 -0.270381 20.8547 0.316209 17.6868C0.3509 19.128 0.558257 20.5267 0.920145 21.856H0.920934Z" fill="#B55C05"/>
<path d="M21.1609 13.8701C20.3378 14.4093 19.2876 14.7074 18.1948 14.8919V12.5928C19.5005 12.4083 20.9338 11.6987 21.8705 10.8756H24.056V20.809H21.1609V13.8693V13.8701Z" fill="#9C1F12"/>
<defs>
<linearGradient id="paint0_linear_4471_31567" x1="-3.00056" y1="21.8664" x2="44.4541" y2="21.111" gradientUnits="userSpaceOnUse">
<stop stop-color="#701A0A"/>
<stop offset="0.33" stop-color="#9C0D08"/>
<stop offset="0.62" stop-color="#A30808"/>
<stop offset="0.92" stop-color="#C42412"/>
<stop offset="1" stop-color="#540D00"/>
</linearGradient>
<linearGradient id="paint1_linear_4471_31567" x1="21.307" y1="37.2281" x2="22.2547" y2="8.47888" gradientUnits="userSpaceOnUse">
<stop stop-color="#ED3636"/>
<stop offset="1" stop-color="#BD2608"/>
</linearGradient>
<linearGradient id="paint2_linear_4471_31567" x1="40.226" y1="31.8572" x2="38.8936" y2="28.1618" gradientUnits="userSpaceOnUse">
<stop stop-color="#963805"/>
<stop offset="1" stop-color="#C97005"/>
</linearGradient>
<linearGradient id="paint3_linear_4471_31567" x1="3.61637" y1="34.4891" x2="5.1877" y2="28.333" gradientUnits="userSpaceOnUse">
<stop stop-color="#993D05"/>
<stop offset="1" stop-color="#C97005"/>
</linearGradient>
<radialGradient id="paint4_radial_4471_31567" cx="0" cy="0" r="1" gradientUnits="userSpaceOnUse" gradientTransform="translate(22.5426 33.9924) scale(28.4228 28.4228)">
<stop stop-color="#FFABAB"/>
<stop offset="0.76" stop-color="#FA4D38"/>
<stop offset="1" stop-color="#C92914"/>
</radialGradient>
</defs>
</svg>
