<svg width="45" height="39" viewBox="0 0 45 39" fill="none" xmlns="http://www.w3.org/2000/svg">
<path fill-rule="evenodd" clip-rule="evenodd" d="M0.935547 21.3278C0.935547 20.7373 0.975751 20.1546 1.0475 19.5799L1.48666 14.7988C1.48666 14.4235 1.32739 14.5915 1.66248 14.5915H2.67639C5.98858 8.46932 13.6836 4.16687 22.6307 4.16687C31.5778 4.16687 39.265 8.46932 42.5772 14.5915H43.3112C43.6463 14.5915 43.9175 14.895 43.9175 15.2703L43.9877 14.9297C44.251 15.9996 44.3164 20.2027 44.3164 21.3286C44.3164 30.8031 34.6022 38.4895 22.6299 38.4895C10.6576 38.4895 0.935547 30.8031 0.935547 21.3286V21.3278Z" fill="url(#paint0_linear_4471_31676)"/>
<path fill-rule="evenodd" clip-rule="evenodd" d="M11.8394 31.9755L11.8551 36.2377C13.1884 36.8763 14.6485 37.3872 16.2372 37.7704L16.2214 33.4443C14.6493 33.1889 13.212 32.6299 11.8394 31.9755Z" fill="#524C4C"/>
<path fill-rule="evenodd" clip-rule="evenodd" d="M20.348 34.0664L20.2842 38.3925C22.0242 38.5439 23.8203 38.5999 25.6242 38.3767V34.1066C23.8526 34.3384 22.1204 34.202 20.348 34.0664Z" fill="#524C4C"/>
<path fill-rule="evenodd" clip-rule="evenodd" d="M29.8467 33.2205L29.8869 37.5308C31.2201 37.0996 32.6007 36.6446 34.0774 35.8948L34.0458 31.7043C32.6811 32.4305 31.2682 32.8058 29.8475 33.2213L29.8467 33.2205Z" fill="#524C4C"/>
<path fill-rule="evenodd" clip-rule="evenodd" d="M22.7266 0C34.5798 0 44.1978 7.69427 44.1978 17.1609C44.1978 26.6276 34.5798 34.3219 22.7266 34.3219C10.8733 34.3219 1.26318 26.6355 1.26318 17.1609C1.26318 7.68639 10.8812 0 22.7266 0Z" fill="#8A8A8A"/>
<path fill-rule="evenodd" clip-rule="evenodd" d="M4.00177 25.422L8.65507 22.5403C9.58069 23.9129 10.8185 25.1342 12.2866 26.1481L7.46533 29.1252C6.16442 28.5828 4.27298 26.0922 4.00098 25.422H4.00177ZM33.3273 7.23139L37.4382 4.77307C38.8913 5.69869 40.096 6.91996 41.0942 8.36515L36.88 10.8873C35.9221 9.57066 34.741 8.30917 33.3281 7.23139H33.3273Z" fill="#CCCCCC"/>
<path fill-rule="evenodd" clip-rule="evenodd" d="M38.4107 28.8785L33.5816 25.9171C34.9866 24.8875 36.3356 23.786 37.2131 22.4213L41.7229 25.191C40.7334 26.8191 39.7116 27.9529 38.4107 28.8785ZM8.66253 10.6161L4.48779 8.04584C5.47727 6.72917 6.61892 5.48345 8.2549 4.52551L12.294 7.01615C10.8252 8.03007 9.58814 9.24347 8.66253 10.6161Z" fill="#DBDBDB"/>
<path fill-rule="evenodd" clip-rule="evenodd" d="M6.50781 16.4907C6.50781 9.06768 14.0988 3.68823 22.7668 3.68823C31.4348 3.68823 39.0257 9.10789 39.0257 16.4907C39.0257 23.8736 31.4348 29.3019 22.7668 29.3019C14.0988 29.3019 6.50781 23.8901 6.50781 16.4907ZM36.6873 16.3393C36.7354 10.6721 30.4697 5.48427 22.7195 5.48427C14.9692 5.48427 8.73512 10.393 8.73512 16.2755C8.73512 21.1685 14.873 26.9074 22.6233 26.9074C30.3735 26.9074 36.6873 21.2725 36.6873 16.3393Z" fill="#2E1914"/>
<path fill-rule="evenodd" clip-rule="evenodd" d="M18.1529 28.3833L18.6402 27.386C19.5902 27.6012 20.5797 27.7455 21.6015 27.8093V28.9029C20.4126 28.8311 19.2552 28.6553 18.1537 28.3841L18.1529 28.3833ZM23.9155 28.9021V27.8086C24.8814 27.7526 25.8149 27.617 26.7168 27.4254L27.212 28.4227C26.1507 28.6703 25.0485 28.8375 23.9155 28.9013V28.9021ZM29.5031 27.721L29.0246 26.7473C30.0621 26.3642 31.028 25.8935 31.9063 25.3424L32.7759 26.0448C31.7785 26.7071 30.6763 27.2661 29.5031 27.721ZM12.4699 25.8611L13.3482 25.1744C14.2502 25.7728 15.2562 26.2837 16.3411 26.6992L15.8704 27.6651C14.6413 27.1778 13.4996 26.5715 12.4699 25.8611ZM34.6437 24.5681L33.8056 23.9137C34.5396 23.2514 35.1704 22.5245 35.697 21.7503L36.7031 22.0932C36.1441 22.9873 35.4502 23.8175 34.6437 24.5673V24.5681ZM8.73436 21.9821L9.74039 21.6391C10.2276 22.3818 10.8261 23.0835 11.5041 23.7221L10.666 24.3844C9.91543 23.6504 9.26103 22.8438 8.73436 21.9821ZM37.6042 20.3382L36.6384 20.011C37.0058 19.1248 37.2368 18.1992 37.3172 17.2491H38.3067C38.235 18.3269 37.9953 19.3566 37.6042 20.3382ZM7.20166 17.2491H8.19114C8.26289 18.159 8.47813 19.0452 8.82188 19.8912L7.85606 20.2184C7.49654 19.2762 7.27341 18.2788 7.20166 17.2491ZM8.08785 12.3562L9.06156 12.6912C8.71859 13.4174 8.46315 14.168 8.31887 14.9501H7.30494C7.44843 14.0481 7.71177 13.1785 8.08706 12.3562H8.08785ZM36.3916 12.5714L37.3653 12.2442C37.7722 13.0981 38.0521 14 38.2034 14.9501H37.1895C37.0381 14.1277 36.7661 13.3299 36.3916 12.5714ZM10.0274 11.071L8.9977 10.728C9.5567 9.89783 10.2347 9.1236 11.009 8.42111L11.8392 9.09127C11.1446 9.69757 10.5383 10.3606 10.0274 11.071ZM33.7094 9.11571L34.5475 8.46132C35.2658 9.11571 35.9044 9.84186 36.4389 10.6161L35.4093 10.9591C34.922 10.3047 34.348 9.68969 33.7094 9.11492V9.11571ZM13.4594 7.87078L12.5898 7.18406C13.5871 6.49734 14.6972 5.91469 15.8862 5.45189L16.3648 6.41771C15.3193 6.80877 14.3456 7.3039 13.4594 7.87078ZM29.008 6.36252L29.4787 5.3967C30.6282 5.83585 31.706 6.37829 32.6876 7.0248L31.8014 7.71941C30.9475 7.18485 30.0054 6.72993 29.008 6.36252ZM18.6559 5.73178L18.1687 4.72574C19.2701 4.46241 20.4197 4.28659 21.6007 4.21484V5.30839C20.5789 5.37226 19.5973 5.51575 18.6552 5.73178H18.6559ZM23.9163 5.30839V4.21484C25.0414 4.28659 26.135 4.44664 27.1891 4.69342L26.7018 5.69078C25.8078 5.49919 24.8743 5.37147 23.9163 5.3076V5.30839Z" fill="#9E9E9E"/>
<path fill-rule="evenodd" clip-rule="evenodd" d="M38.3957 28.6949C38.3957 28.6231 38.3318 31.672 38.2837 33.181C39.3536 32.2554 40.3912 31.441 41.4603 29.8688L41.6117 25.0476C40.4945 26.9075 39.5042 27.8489 38.3949 28.6957L38.3957 28.6949Z" fill="#524C4C"/>
<path fill-rule="evenodd" clip-rule="evenodd" d="M7.32917 28.9266C7.32917 28.847 7.39303 32.0551 7.43324 33.5642C6.36334 32.6386 5.31789 32.0559 4.24879 30.483L3.95312 25.2628C5.07033 27.1227 6.21197 28.0807 7.32917 28.9266Z" fill="#524C4C"/>
<path fill-rule="evenodd" clip-rule="evenodd" d="M1.89452 20.7294L1.76679 26.1175C0.841175 23.9943 0.633039 19.8361 1.26378 16.8984C1.28743 18.2317 1.55944 19.5002 1.89452 20.7294Z" fill="#524C4C"/>
<path fill-rule="evenodd" clip-rule="evenodd" d="M8.0398 29.8207C7.36096 29.3256 6.75466 28.8068 6.14048 28.232C5.93312 28.0326 5.73364 27.8173 5.53417 27.6092C4.89555 26.9469 4.32866 26.1963 3.81776 25.4378C3.20279 24.528 2.66824 23.466 2.27718 22.445C1.75839 21.0802 1.43119 19.6594 1.30346 18.2064C1.26325 17.6955 1.25537 17.209 1.25537 16.706C1.50294 18.7496 2.03749 20.753 2.92369 22.6129C3.30686 23.4108 3.77756 24.2016 4.28846 24.9277C4.43984 25.143 4.59989 25.3511 4.76703 25.5663C5.03037 25.9259 5.33392 26.2531 5.62879 26.5803C5.89212 26.8759 6.18778 27.1708 6.48265 27.4341C7.12916 28.0326 7.81588 28.6073 8.54991 29.1025C9.10102 29.4699 9.63558 29.8049 10.2182 30.1243C10.681 30.3876 11.184 30.643 11.6713 30.8504C11.9827 30.9939 12.2942 31.1295 12.6135 31.2572C14.3456 31.9518 16.2371 32.4548 18.0812 32.734C18.999 32.8774 19.9411 32.9973 20.8667 33.0454C21.3855 33.0769 21.8885 33.1014 22.4073 33.1171L24.2034 33.1014L25.8394 32.95C29.6869 32.4872 33.51 31.2257 36.7268 29.0867C37.3417 28.672 37.9401 28.217 38.507 27.7298C38.7301 27.5382 38.9462 27.3387 39.1614 27.1393C39.3128 27.0037 39.4729 26.8436 39.6085 26.6922C39.7922 26.5006 39.9759 26.3091 40.1509 26.1175C40.43 25.7982 40.6855 25.471 40.9409 25.1359C41.5638 24.3214 42.0747 23.4116 42.513 22.486C42.7921 21.8954 43.0082 21.2805 43.2076 20.6584C43.303 20.3872 43.359 20.0994 43.4394 19.8203C43.5033 19.5648 43.5672 19.2936 43.6074 19.0303C43.687 18.5675 43.7666 18.1047 43.8147 17.6332C43.8865 16.8511 43.9188 16.0689 43.9022 15.2789C43.8944 14.992 43.8944 14.6963 43.8707 14.4006C43.9267 14.6561 43.9748 14.9273 44.0063 15.1906C44.134 16.188 44.19 17.1459 44.134 18.152C44.0938 18.8545 44.0063 19.5806 43.8628 20.2673C43.8068 20.5385 43.7351 20.8019 43.6712 21.0652C43.5837 21.4405 43.4481 21.8394 43.3204 22.2069C43.0886 22.8297 42.8331 23.4439 42.5146 24.0266C42.0037 24.9687 41.4368 25.862 40.743 26.6843C38.7073 29.0867 36.0897 30.8827 33.1922 32.0961C31.5318 32.7907 29.8241 33.3332 28.0596 33.6761C27.2451 33.8354 26.4236 33.9718 25.6012 34.0593C25.0588 34.1153 24.5235 34.1713 23.9731 34.1791C18.4494 34.3226 12.5748 33.1258 8.04138 29.8207H8.0398Z" fill="url(#paint1_radial_4471_31676)"/>
<path fill-rule="evenodd" clip-rule="evenodd" d="M8.88625 16.6422C8.88625 16.2748 8.9099 15.9081 8.92646 16.0832C8.92646 20.9359 15.025 26.6749 22.735 26.6749C30.445 26.6749 36.7193 21.04 36.6791 16.6098C36.6712 15.9949 36.6949 16.3465 36.687 16.7052C36.687 21.6298 30.3496 27.2733 22.7027 27.2733C15.0557 27.2733 8.88625 21.5344 8.88625 16.6414V16.6422ZM22.8462 4.0549C14.7687 4.0549 7.62476 8.77995 6.71491 16.2913L6.70703 16.2598C6.70703 8.82884 14.2578 3.45728 22.8785 3.45728C31.4992 3.45728 39.0499 8.86905 39.0499 16.2598L39.0097 16.8266C38.0676 8.81306 30.9638 4.05569 22.8462 4.05569V4.0549Z" fill="black"/>
<path fill-rule="evenodd" clip-rule="evenodd" d="M22.8064 5.41174C30.421 5.41174 36.5991 10.177 36.5991 16.0516C36.5991 21.9262 30.421 26.6914 22.8064 26.6914C15.1917 26.6914 9.02148 21.9262 9.02148 16.0516C9.02148 10.177 15.1917 5.41174 22.8064 5.41174Z" fill="white"/>
<path d="M15.4211 12.7049C16.8742 12.7049 18.4211 13.2726 18.4211 14.5703C18.4211 15.6016 17.4671 16.1953 16.1425 16.5989C15.1538 16.9088 14.3457 17.2691 14.1478 17.579H18.5409V18.9027H12.0845V18.1458C12.239 16.9853 13.305 16.0052 15.0931 15.4723C15.9612 15.1971 16.6495 15.0079 16.6495 14.6042C16.6495 14.2005 16.0045 13.994 15.343 13.994C14.5176 13.994 13.7615 14.3377 13.1252 14.9653L12.1712 14.0452C12.7901 13.2804 13.994 12.7041 15.4211 12.7041V12.7049Z" fill="#2B2B2B"/>
<path d="M22.6255 17.7254C23.5369 17.7254 24.1645 17.5362 24.1645 16.9685C24.1645 16.4009 23.5369 16.1691 22.5655 16.1691C21.9805 16.1691 21.3364 16.2723 20.7175 16.5388L19.4623 16.0658L19.9779 12.8853H25.325V14.183H21.293L21.0864 15.4808C21.6967 15.111 22.4102 14.9218 23.2184 14.9218C24.5855 14.9218 25.9518 15.5667 25.9518 16.9851C25.9518 18.1196 24.9718 19.0996 22.6247 19.0996C21.1716 19.0996 20.0284 18.6613 19.1855 17.9391L20.1143 16.9078C20.57 17.2863 21.4901 17.7246 22.6247 17.7246L22.6255 17.7254Z" fill="#2B2B2B"/>
<path d="M26.5889 15.8939C26.5889 13.8653 28.0333 12.6874 30.337 12.6874C32.6408 12.6874 34.0939 13.8653 34.0939 15.8939C34.0939 17.9225 32.6495 19.1005 30.337 19.1005C28.0246 19.1005 26.5889 17.9225 26.5889 15.8939ZM32.3144 15.8939C32.3144 14.742 31.5749 14.1144 30.3457 14.1144C29.1166 14.1144 28.3683 14.742 28.3683 15.8939C28.3683 17.0458 29.1079 17.6734 30.3457 17.6734C31.5836 17.6734 32.3144 17.0458 32.3144 15.8939Z" fill="#2B2B2B"/>
<defs>
<linearGradient id="paint0_linear_4471_31676" x1="-2.07625" y1="21.7212" x2="45.179" y2="20.9691" gradientUnits="userSpaceOnUse">
<stop/>
<stop offset="0.44" stop-color="#363636"/>
<stop offset="1" stop-color="#121212"/>
</linearGradient>
<radialGradient id="paint1_radial_4471_31676" cx="0" cy="0" r="1" gradientUnits="userSpaceOnUse" gradientTransform="translate(24.395 33.468) scale(22.3007)">
<stop stop-color="white"/>
<stop offset="0.55" stop-color="#BFBDBD"/>
<stop offset="1" stop-color="#807D7D"/>
</radialGradient>
</defs>
</svg>
