<svg width="73" height="67" viewBox="0 0 73 67" fill="none" xmlns="http://www.w3.org/2000/svg">
<g filter="url(#filter0_d_4471_31469)">
<path fill-rule="evenodd" clip-rule="evenodd" d="M14.897 33.7033C14.897 33.108 14.9317 32.5206 15.0089 31.934L15.4473 27.1175C15.4473 26.7462 15.2841 26.9102 15.6278 26.9102H16.6426C19.9611 20.747 27.6719 16.4225 36.6466 16.4225C45.6212 16.4225 53.3234 20.747 56.6506 26.9102H57.3727C57.7165 26.9102 57.9917 27.2208 57.9917 27.6008L58.1982 27.5149C58.4647 28.5942 58.3961 32.5648 58.3961 33.704C58.3961 43.2338 48.648 50.9761 36.6473 50.9761C24.6467 50.9761 14.8986 43.2338 14.8986 33.704L14.897 33.7033Z" fill="url(#paint0_linear_4471_31469)"/>
<path fill-rule="evenodd" clip-rule="evenodd" d="M36.8303 12.2272C48.7679 12.2272 58.4442 19.9695 58.4442 29.5079C58.4442 39.0463 48.7679 46.78 36.8303 46.78C24.8927 46.78 15.2163 39.0463 15.2163 29.5079C15.2163 19.9695 24.9014 12.2272 36.8303 12.2272Z" fill="url(#paint1_linear_4471_31469)"/>
<path fill-rule="evenodd" clip-rule="evenodd" d="M17.979 37.8124L22.6662 34.9205C23.5981 36.3018 24.8415 37.5357 26.3174 38.5543L21.4662 41.5496C20.1629 40.9969 18.255 38.5023 17.979 37.8116V37.8124ZM47.508 19.5043L51.6425 17.0271C53.1098 17.9677 54.3184 19.185 55.3284 20.6436L51.082 23.1902C50.124 21.861 48.924 20.5837 47.5088 19.5043H47.508Z" fill="#C2F7FF"/>
<path fill-rule="evenodd" clip-rule="evenodd" d="M52.627 41.2997L47.7584 38.3131C49.1823 37.2771 50.5376 36.1726 51.4183 34.7912L55.9589 37.5878C54.9663 39.2277 53.9303 40.367 52.627 41.2997ZM22.6833 22.9143L18.4707 20.3251C19.472 19.0045 20.62 17.7446 22.2686 16.7772L26.3258 19.2892C24.8499 20.3078 23.6065 21.533 22.6833 22.9143Z" fill="#C2F7FF"/>
<path fill-rule="evenodd" clip-rule="evenodd" d="M20.5 28.8268C20.5 21.3517 28.1477 15.9399 36.8749 15.9399C45.602 15.9399 53.2411 21.3864 53.2411 28.8268C53.2411 36.2672 45.5933 41.7223 36.8749 41.7223C28.1564 41.7223 20.5 36.2759 20.5 28.8268ZM50.8923 28.6802C50.9357 22.9656 44.6259 17.7439 36.8228 17.7439C29.0198 17.7439 22.7447 22.6983 22.7447 28.6116C22.7447 33.54 28.9251 39.3153 36.7282 39.3153C44.5313 39.3153 50.8931 33.6354 50.8931 28.6809L50.8923 28.6802Z" fill="#3DB0D6"/>
<path fill-rule="evenodd" clip-rule="evenodd" d="M32.2212 40.799L32.7219 39.7977C33.6712 40.0137 34.6725 40.1603 35.6998 40.2203V41.3248C34.4998 41.2555 33.3345 41.0749 32.2212 40.7982V40.799ZM38.0304 41.3256V40.221C39.0057 40.1603 39.9463 40.031 40.853 39.8323L41.3449 40.8337C40.2829 41.0923 39.1697 41.2563 38.0304 41.3256ZM43.6582 40.1343L43.1749 39.159C44.2196 38.7703 45.1948 38.2957 46.0755 37.7351L46.9475 38.4431C45.9462 39.1078 44.8416 39.6778 43.659 40.1351L43.6582 40.1343ZM26.5067 38.261L27.3874 37.5704C28.302 38.1656 29.3119 38.6836 30.4086 39.0983L29.934 40.0736C28.6907 39.5903 27.5427 38.9777 26.5075 38.261H26.5067ZM48.8287 36.9664L47.9827 36.3018C48.7254 35.6371 49.364 34.9031 49.8907 34.1265L50.9094 34.4718C50.3393 35.3698 49.6408 36.2072 48.8295 36.9664H48.8287ZM22.7522 34.3599L23.7622 34.0145C24.2542 34.7572 24.8494 35.4645 25.5314 36.1118L24.6941 36.7677C23.9349 36.0337 23.2789 35.2224 22.7522 34.3591V34.3599ZM51.8066 32.7026L50.84 32.3746C51.2113 31.4853 51.4439 30.5533 51.522 29.5954H52.5233C52.4539 30.6748 52.204 31.7186 51.8066 32.7026ZM21.1982 29.5954H22.1995C22.2776 30.51 22.4928 31.3993 22.8382 32.254L21.8629 32.5733C21.5002 31.6327 21.2763 30.6314 21.1982 29.5954ZM22.0963 24.6669L23.0715 25.0036C22.7262 25.7289 22.4763 26.4882 22.3288 27.2735H21.3102C21.4568 26.3668 21.7249 25.4956 22.0955 24.6669H22.0963ZM50.5987 24.883L51.574 24.5463C51.9801 25.4183 52.2647 26.3242 52.4113 27.2743H51.4013C51.246 26.4543 50.9701 25.6517 50.5987 24.883ZM24.0476 23.3723L23.0116 23.027C23.5817 22.1897 24.255 21.4131 25.0403 20.7051L25.8776 21.3784C25.1782 21.991 24.5569 22.6643 24.0476 23.3723ZM47.8889 21.4044L48.7349 20.7398C49.4602 21.4044 50.0989 22.1298 50.6342 22.915L49.6069 23.2604C49.1149 22.6044 48.5362 21.9745 47.8889 21.4044ZM27.5009 20.1445L26.6289 19.4538C27.6302 18.7719 28.7522 18.1766 29.9522 17.7098L30.4268 18.6851C29.3734 19.0825 28.3982 19.5745 27.5009 20.1437V20.1445ZM43.1591 18.6339L43.6337 17.6499C44.7904 18.0985 45.8784 18.6512 46.8624 19.2985L45.973 19.9979C45.1097 19.4625 44.1691 19.0052 43.1591 18.6339ZM32.7408 17.9866L32.2488 16.9853C33.3534 16.718 34.5101 16.5453 35.7014 16.476V17.5719C34.6741 17.6326 33.6901 17.7792 32.7408 17.9866ZM38.032 17.5719V16.476C39.1626 16.5367 40.2679 16.7007 41.3292 16.9506L40.8372 17.9606C39.9392 17.7619 38.9986 17.6326 38.032 17.5719Z" fill="#C2F7FF"/>
<path fill-rule="evenodd" clip-rule="evenodd" d="M52.6091 41.0166C52.6091 40.9385 52.4711 44.0378 52.4277 45.5485C53.5071 44.6165 54.6093 43.6318 55.6887 42.0431L55.8377 37.3394C54.7244 39.2127 53.7318 40.1619 52.6091 41.0166Z" fill="#299CBF"/>
<path fill-rule="evenodd" clip-rule="evenodd" d="M25.3589 44.2255V48.4641C26.8001 49.1547 28.3628 49.776 30.0808 50.182L30.0981 45.8055C28.3975 45.5295 26.853 44.9335 25.3597 44.2263L25.3589 44.2255Z" fill="#299CBF"/>
<path fill-rule="evenodd" clip-rule="evenodd" d="M21.3622 41.5062C21.3622 41.4282 21.3662 44.4959 21.4095 46.0144C20.7622 45.5658 19.3596 44.3627 18.0216 42.6195L17.9609 37.8203C19.0829 39.6936 20.2395 40.6516 21.3622 41.5062Z" fill="#299CBF"/>
<path fill-rule="evenodd" clip-rule="evenodd" d="M44.6167 45.5208V49.7508C46.0666 49.2848 47.5465 48.658 49.1344 47.8294L49.1399 43.6396C47.6726 44.4509 46.1533 45.0636 44.6167 45.5216V45.5208Z" fill="#299CBF"/>
<path fill-rule="evenodd" clip-rule="evenodd" d="M34.1294 46.5907C33.4041 46.5213 32.6969 46.4267 31.9715 46.3148C31.1255 46.1768 30.2882 45.9781 29.4596 45.7708C25.3424 44.7087 21.3372 42.4735 18.6613 39.1156C18.0999 38.4163 17.5653 37.6484 17.142 36.8631C16.46 35.5858 15.9593 34.3338 15.6227 32.9186C15.312 31.6327 15.1914 30.3633 15.2166 29.0427C15.4752 31.08 16.0366 33.1252 16.9346 34.9724C17.332 35.7837 17.7979 36.5517 18.3073 37.2857C18.4626 37.5104 18.6353 37.717 18.7906 37.933C19.0405 38.2523 19.3259 38.5803 19.6019 38.8823C20.6639 40.0215 21.9151 41.0749 23.2444 41.8862C23.6591 42.1361 24.073 42.3955 24.5043 42.6115C25.4883 43.1295 26.4722 43.5521 27.5169 43.9321C30.0809 44.8554 32.8514 45.3135 35.5959 45.4428L38.3152 45.4601L39.7738 45.3395C40.2658 45.2788 40.7578 45.2102 41.2411 45.1321C42.0697 44.9855 42.907 44.8215 43.7183 44.5968C44.4176 44.4068 45.0996 44.1994 45.7816 43.9668C49.4068 42.6982 52.7734 40.5829 55.1213 37.493C55.7513 36.6644 56.2519 35.7837 56.7092 34.8431C57.2099 33.7898 57.6073 32.5299 57.8225 31.3819C57.8745 31.0973 57.9258 30.8032 57.9691 30.5099C58.0724 29.716 58.1245 28.9134 58.1418 28.11C58.1505 27.6527 58.1505 27.178 58.1158 26.7286C58.2278 27.1686 58.2885 27.6432 58.3405 28.1013C58.4264 28.9039 58.4524 29.6892 58.4185 30.5013C58.3665 31.5112 58.2112 32.4692 57.9613 33.4445C57.8406 33.9625 57.6593 34.4891 57.4693 34.9898C57.3747 35.2397 57.2619 35.4818 57.1586 35.7238C56.9686 36.1724 56.7274 36.5871 56.494 37.0097C56.304 37.3637 56.0627 37.7438 55.8294 38.0631C55.6567 38.2965 55.5014 38.529 55.32 38.7537C54.9227 39.2544 54.5174 39.729 54.0688 40.1776C52.1529 42.1282 49.8909 43.5269 47.3963 44.6141C45.6697 45.3647 43.7711 45.9174 41.9238 46.2714C41.1212 46.4267 40.3359 46.53 39.5325 46.6254C39.2992 46.6514 39.0666 46.6688 38.8332 46.6861C38.6866 46.6948 38.5226 46.7121 38.3759 46.7208C37.746 46.7295 37.116 46.7468 36.4853 46.7295C35.7 46.7035 34.906 46.6774 34.1287 46.5915L34.1294 46.5907Z" fill="url(#paint2_radial_4471_31469)"/>
<path fill-rule="evenodd" clip-rule="evenodd" d="M22.8991 28.9821C22.8991 28.6107 22.9252 28.2394 22.9339 28.4121C22.9339 33.298 29.0796 39.0811 36.8393 39.0811C44.5991 39.0811 50.9175 33.4012 50.8836 28.9474C50.875 28.3261 50.8923 28.6888 50.8923 29.042C50.8923 34.0052 44.5131 39.6763 36.8055 39.6763C29.0978 39.6763 22.8999 33.9019 22.8999 28.9813L22.8991 28.9821ZM36.9513 16.3018C28.8202 16.3018 21.6298 21.0576 20.7065 28.6281V28.5934C20.7065 21.1183 28.3109 15.7065 36.986 15.7065C45.6611 15.7065 53.2655 21.153 53.2655 28.5934L53.2308 29.1634C52.2815 21.0931 45.1257 16.3018 36.9513 16.3018Z" fill="#366B82"/>
<path fill-rule="evenodd" clip-rule="evenodd" d="M36.8046 17.441C44.4697 17.441 50.6928 22.2402 50.6928 28.1534C50.6928 34.0666 44.4689 38.8571 36.8046 38.8571C29.1403 38.8571 22.9243 34.0666 22.9243 28.1534C22.9243 22.2402 29.1482 17.441 36.8046 17.441Z" fill="white"/>
<path fill-rule="evenodd" clip-rule="evenodd" d="M34.3447 46.6507V50.8893C36.2267 51.0532 38.1426 51.0099 40.0931 50.76V46.5214C38.1773 46.78 36.2606 46.806 34.3447 46.6507Z" fill="#299CBF"/>
<path fill-rule="evenodd" clip-rule="evenodd" d="M15.9244 33.6433L15.7864 38.5717C14.7764 36.1118 14.5178 32.7366 15.2077 29.6727C15.2337 31.114 15.5704 32.3226 15.9244 33.6433Z" fill="#299CBF"/>
<path d="M30.0481 26.0103C29.225 26.5496 28.1748 26.8476 27.082 27.0321V24.7331C28.3877 24.5486 29.821 23.839 30.7577 23.0159H32.9432V32.9493H30.0481V26.0095V26.0103Z" fill="#005275"/>
<path d="M34.7036 27.9822C34.7036 24.633 37.0878 22.6887 40.8912 22.6887C44.6946 22.6887 47.093 24.633 47.093 27.9822C47.093 31.3315 44.7088 33.2757 40.8912 33.2757C37.0736 33.2757 34.7036 31.3315 34.7036 27.9822ZM44.1553 27.9822C44.1553 26.0805 42.9348 25.0445 40.9054 25.0445C38.876 25.0445 37.6413 26.0805 37.6413 27.9822C37.6413 29.8839 38.8618 30.9199 40.9054 30.9199C42.949 30.9199 44.1553 29.8839 44.1553 27.9822Z" fill="#005275"/>
</g>
<defs>
<filter id="filter0_d_4471_31469" x="0.821289" y="0.227173" width="71.623" height="66.7594" filterUnits="userSpaceOnUse" color-interpolation-filters="sRGB">
<feFlood flood-opacity="0" result="BackgroundImageFix"/>
<feColorMatrix in="SourceAlpha" type="matrix" values="0 0 0 0 0 0 0 0 0 0 0 0 0 0 0 0 0 0 127 0" result="hardAlpha"/>
<feOffset dy="2"/>
<feGaussianBlur stdDeviation="7"/>
<feComposite in2="hardAlpha" operator="out"/>
<feColorMatrix type="matrix" values="0 0 0 0 0 0 0 0 0 0.76 0 0 0 0 1 0 0 0 0.4 0"/>
<feBlend mode="normal" in2="BackgroundImageFix" result="effect1_dropShadow_4471_31469"/>
<feBlend mode="normal" in="SourceGraphic" in2="effect1_dropShadow_4471_31469" result="shape"/>
</filter>
<linearGradient id="paint0_linear_4471_31469" x1="11.8757" y1="34.0927" x2="59.3075" y2="33.339" gradientUnits="userSpaceOnUse">
<stop stop-color="#004559"/>
<stop offset="0.71" stop-color="#0F80BD"/>
<stop offset="1" stop-color="#004D66"/>
</linearGradient>
<linearGradient id="paint1_linear_4471_31469" x1="36.1719" y1="49.4544" x2="37.1212" y2="20.7067" gradientUnits="userSpaceOnUse">
<stop stop-color="#36ADD4"/>
<stop offset="1" stop-color="#2499BF"/>
</linearGradient>
<radialGradient id="paint2_radial_4471_31469" cx="0" cy="0" r="1" gradientUnits="userSpaceOnUse" gradientTransform="translate(37.4266 45.874) scale(28.1548 28.1548)">
<stop stop-color="#C2F7FF"/>
<stop offset="0.66" stop-color="#73D4EB"/>
<stop offset="1" stop-color="#269CC2"/>
</radialGradient>
</defs>
</svg>
