<svg width="72" height="67" viewBox="0 0 72 67" fill="none" xmlns="http://www.w3.org/2000/svg">
<g filter="url(#filter0_d_4471_31452)">
<path fill-rule="evenodd" clip-rule="evenodd" d="M14.2506 33.4674C14.2506 32.8721 14.294 32.2848 14.3712 31.7069L14.8017 26.8903C14.8017 26.5103 14.6464 26.683 14.9823 26.683H15.9978C19.3289 20.5112 27.0421 16.1866 36.0286 16.1866C45.0151 16.1866 52.7369 20.5112 56.0594 26.683H56.791C57.1269 26.683 57.4021 26.985 57.4021 27.3563L57.6086 27.2869C57.8751 28.3576 57.8152 32.3281 57.8152 33.4674C57.8152 43.0058 48.0537 50.7482 36.0278 50.7482C24.0019 50.7482 14.249 43.0058 14.249 33.4674H14.2506Z" fill="url(#paint0_linear_4471_31452)"/>
<path fill-rule="evenodd" clip-rule="evenodd" d="M36.1931 12C48.122 12 57.807 19.7337 57.807 29.2721C57.807 38.8105 48.122 46.5529 36.1931 46.5529C24.2641 46.5529 14.5791 38.8105 14.5791 29.2721C14.5791 19.7337 24.2641 12 36.1931 12Z" fill="url(#paint1_linear_4471_31452)"/>
<path fill-rule="evenodd" clip-rule="evenodd" d="M17.333 37.5845L22.0202 34.6926C22.9521 36.0739 24.1955 37.2991 25.6801 38.3178L20.8202 41.3217C19.517 40.7603 17.609 38.2657 17.333 37.5837V37.5845ZM46.862 19.2764L50.9965 16.7905C52.4638 17.7311 53.6811 18.9571 54.6824 20.407L50.4359 22.9537C49.478 21.6244 48.2867 20.3558 46.862 19.2764Z" fill="#D6F7EB"/>
<path fill-rule="evenodd" clip-rule="evenodd" d="M51.981 41.0717L47.1124 38.0764C48.5363 37.0491 49.8917 35.9359 50.7723 34.5632L55.3129 37.3511C54.3203 38.991 53.2929 40.1303 51.981 41.0717ZM22.0373 22.6776L17.8247 20.0971C18.826 18.7678 19.974 17.5166 21.6226 16.5492L25.6885 19.0611C24.2039 20.0711 22.9692 21.305 22.0373 22.6776Z" fill="#D6F7EB"/>
<path fill-rule="evenodd" clip-rule="evenodd" d="M19.8618 28.5988C19.8618 21.1237 27.5096 15.7032 36.228 15.7032C44.9465 15.7032 52.6029 21.1584 52.6029 28.5988C52.6029 36.0392 44.9551 41.4856 36.228 41.4856C27.5009 41.4856 19.8618 36.0392 19.8618 28.5988ZM50.2455 28.4435C50.2888 22.7289 43.9877 17.5158 36.1846 17.5158C28.3816 17.5158 22.1065 22.4617 22.1065 28.3749C22.1065 33.3033 28.2783 39.0872 36.0814 39.0872C43.8844 39.0872 50.2463 33.4074 50.2463 28.4442L50.2455 28.4435Z" fill="#428012"/>
<path fill-rule="evenodd" clip-rule="evenodd" d="M31.5836 40.5711L32.0755 39.5611C33.0248 39.7858 34.0261 39.9238 35.0534 39.9924V41.0883C33.8621 41.0189 32.6968 40.8462 31.5836 40.5703V40.5711ZM37.384 41.0891V39.9931C38.3593 39.9324 39.2999 39.7945 40.2066 39.5958L40.7072 40.6058C39.6366 40.8557 38.532 41.0284 37.384 41.0891ZM43.0118 39.8977L42.5285 38.9225C43.5732 38.5338 44.5485 38.0591 45.4291 37.4986L46.3098 38.2066C45.2998 38.8712 44.1952 39.4412 43.0126 39.8985L43.0118 39.8977ZM25.8604 38.0244L26.741 37.3338C27.6556 37.9377 28.6743 38.4557 29.7623 38.8704L29.279 39.8457C28.0443 39.3537 26.8964 38.7411 25.8611 38.0244H25.8604ZM48.1823 36.7298L47.345 36.0652C48.0791 35.4006 48.7177 34.6665 49.2443 33.8899L50.263 34.2353C49.693 35.1333 48.9944 35.9706 48.1831 36.7298H48.1823ZM22.1059 34.1233L23.1158 33.778C23.6078 34.5285 24.2031 35.2279 24.8937 35.8752L24.0478 36.5398C23.2972 35.8058 22.6325 34.9945 22.1059 34.1233ZM51.1689 32.466L50.2023 32.138C50.565 31.2487 50.8062 30.3168 50.8756 29.3588H51.8769C51.8075 30.4461 51.5576 31.4821 51.1689 32.466ZM20.5605 29.3588H21.5618C21.6312 30.2734 21.8465 31.1627 22.1918 32.0174L21.2252 32.3454C20.8538 31.3961 20.6299 30.3948 20.5605 29.3588ZM21.4499 24.439L22.4339 24.767C22.0885 25.4924 21.8299 26.2603 21.6833 27.0369H20.6646C20.8113 26.1302 21.0793 25.259 21.4499 24.439ZM49.9524 24.6464L50.9363 24.3184C51.3337 25.1817 51.6183 26.0876 51.7736 27.0377H50.755C50.5997 26.2177 50.3237 25.4151 49.9524 24.6464ZM23.4012 23.1444L22.3739 22.7904C22.9353 21.9531 23.6173 21.1765 24.3939 20.4685L25.2312 21.1418C24.5319 21.7544 23.9192 22.4278 23.4012 23.1444ZM47.2425 21.1765L48.0885 20.5119C48.8139 21.1765 49.4525 21.9019 49.9965 22.6785L48.9605 23.0238C48.4685 22.3678 47.8898 21.7466 47.2425 21.1765ZM26.8632 19.9166L25.9826 19.2259C26.9925 18.5353 28.1058 17.9487 29.3058 17.4819L29.7891 18.4486C28.7271 18.8459 27.7518 19.3466 26.8632 19.9158V19.9166ZM42.5127 18.3973L42.9961 17.422C44.1527 17.862 45.232 18.4147 46.216 19.062L45.3353 19.7613C44.4633 19.2259 43.5227 18.7687 42.5127 18.3973ZM32.0945 17.7587L31.6025 16.7574C32.7071 16.4814 33.8637 16.3088 35.055 16.2394V17.3353C34.0364 17.4047 33.0437 17.5427 32.0945 17.7579V17.7587ZM37.3856 17.3361V16.2402C38.5162 16.3095 39.6216 16.4649 40.6828 16.7148L40.1908 17.7248C39.2928 17.5261 38.3522 17.3968 37.3856 17.3361Z" fill="#D6F7EB"/>
<path fill-rule="evenodd" clip-rule="evenodd" d="M52.0319 40.8148C52.0319 40.7367 51.8939 43.8361 51.8506 45.3554C52.9299 44.4234 54.0345 43.3788 55.1044 41.7901L55.2684 37.1376C54.1465 39.0109 53.1539 39.9601 52.0311 40.8148H52.0319Z" fill="#459E80"/>
<path fill-rule="evenodd" clip-rule="evenodd" d="M20.7167 41.2792C20.7167 41.2011 20.7601 44.2397 20.8026 45.759C19.948 45.0857 18.7307 44.231 17.4794 42.5304L17.3154 37.5933C18.4374 39.4579 19.594 40.4245 20.7167 41.2792Z" fill="#459E80"/>
<path fill-rule="evenodd" clip-rule="evenodd" d="M24.4712 43.851V48.0895C25.9124 48.7802 27.4838 49.4362 29.2096 49.8501V45.6462C27.0951 45.1889 25.7051 44.4983 24.4712 43.851Z" fill="#459E80"/>
<path fill-rule="evenodd" clip-rule="evenodd" d="M44.0477 45.2929V49.5228C45.4976 49.0568 47.0492 48.4466 48.6458 47.6093L48.5788 43.4196C47.1028 44.2222 45.5922 44.8348 44.0469 45.2929H44.0477Z" fill="#459E80"/>
<path fill-rule="evenodd" clip-rule="evenodd" d="M31.3251 46.0783C30.4792 45.9403 29.6505 45.7503 28.8132 45.5342C24.696 44.4722 20.6995 42.237 18.0149 38.8878C17.4535 38.1885 16.9277 37.4205 16.5043 36.6266C16.3143 36.2812 16.1329 35.9359 15.9689 35.5819C15.5463 34.65 15.2183 33.6826 14.9763 32.69C14.6743 31.3954 14.5537 30.126 14.5789 28.8054C14.8375 30.8513 15.3989 32.8879 16.2969 34.7438C16.6769 35.5378 17.1516 36.3404 17.6696 37.0571C17.8249 37.2731 17.9889 37.4797 18.1529 37.6957C18.3949 38.0237 18.6882 38.3517 18.9642 38.645C20.0175 39.7842 21.2687 40.8376 22.598 41.6489C23.0127 41.8988 23.4267 42.1582 23.8579 42.3829C27.6124 44.3421 31.713 45.1621 35.8909 45.2402L37.6688 45.2315L39.3261 45.0762C43.202 44.6015 46.9652 43.3755 50.2364 41.2089C51.117 40.6302 51.911 39.9742 52.6876 39.267C53.3436 38.6631 53.9309 37.9638 54.4742 37.2644C55.1041 36.4444 55.6134 35.5378 56.0621 34.6145C56.5627 33.5612 56.9601 32.2926 57.1753 31.1446C57.2274 30.86 57.2786 30.5659 57.322 30.2813C57.4339 29.4787 57.4773 28.6847 57.4946 27.8727C57.5033 27.424 57.5033 26.9407 57.4773 26.4913C57.5806 26.9313 57.65 27.4146 57.6933 27.864C57.7793 28.6753 57.8053 29.4606 57.7714 30.2726C57.728 31.1273 57.6074 32.0166 57.4087 32.8453C57.3827 32.9659 57.348 33.0873 57.3228 33.208C57.1241 34.0019 56.8308 34.7446 56.5115 35.4952C56.3215 35.9351 56.0802 36.3585 55.8468 36.7724C55.6568 37.1264 55.4156 37.5065 55.1822 37.8258C55.0095 38.0591 54.8542 38.3004 54.6729 38.5251C54.2755 39.0171 53.8702 39.5004 53.4216 39.949C51.5057 41.8909 49.2524 43.2983 46.7578 44.3855C45.0225 45.1361 43.1326 45.6888 41.2767 46.0428C40.1287 46.2588 38.9114 46.4315 37.7461 46.4827C37.1248 46.5174 36.4688 46.5174 35.8381 46.5001C34.3101 46.4567 32.8429 46.3187 31.3236 46.0775L31.3251 46.0783Z" fill="url(#paint2_radial_4471_31452)"/>
<path fill-rule="evenodd" clip-rule="evenodd" d="M22.2611 28.7454C22.2611 28.3741 22.2784 28.0114 22.2957 28.184C22.2871 33.0613 28.4329 38.8444 36.1926 38.8444C43.9523 38.8444 50.2794 33.1645 50.2368 28.7194C50.2282 28.0981 50.2542 28.4521 50.2455 28.8053C50.2455 33.7772 43.8663 39.4483 36.1673 39.4483C28.4683 39.4483 22.2618 33.6739 22.2618 28.7446L22.2611 28.7454ZM36.3053 16.0651C28.1743 16.0651 20.9838 20.8296 20.0692 28.3914L20.0605 28.3567C20.0605 20.8816 27.6649 15.4698 36.3487 15.4698C45.0324 15.4698 52.6195 20.9163 52.6195 28.3567L52.5848 28.9267C51.6355 20.8643 44.4797 16.0651 36.3053 16.0651Z" fill="#2B570F"/>
<path d="M35.9775 38.3792C43.6669 38.3792 49.9004 33.5831 49.9004 27.6668C49.9004 21.7506 43.6669 16.9545 35.9775 16.9545C28.2882 16.9545 22.0547 21.7506 22.0547 27.6668C22.0547 33.5831 28.2882 38.3792 35.9775 38.3792Z" fill="white"/>
<path fill-rule="evenodd" clip-rule="evenodd" d="M33.5264 46.4496V50.6882C35.4083 50.8522 37.3242 50.8088 39.2748 50.5589V46.3203C37.3589 46.5789 35.4422 46.6049 33.5264 46.4496Z" fill="#459E80"/>
<path fill-rule="evenodd" clip-rule="evenodd" d="M15.287 33.5706L15.0709 38.2665C14.1303 35.7546 13.949 32.6213 14.5616 29.6088C14.5963 31.0413 14.9243 32.25 15.287 33.5706Z" fill="#459E80"/>
<path d="M36.2914 30.8845C37.7957 30.8845 38.8318 30.5722 38.8318 29.6356C38.8318 28.6989 37.7958 28.3158 36.1921 28.3158C35.2271 28.3158 34.1627 28.4861 33.1409 28.926L31.0689 28.1455L31.9204 22.8945H40.7476V25.0375H34.0917L33.7511 27.1804C34.7587 26.5702 35.9366 26.258 37.2707 26.258C39.5271 26.258 41.7836 27.3223 41.7836 29.664C41.7836 31.5373 40.1658 33.1551 36.2914 33.1551C33.893 33.1551 32.0055 32.4314 30.6147 31.2393L32.1475 29.5363C32.8996 30.1607 34.4181 30.8845 36.2914 30.8845Z" fill="#2B4C0A"/>
</g>
<defs>
<filter id="filter0_d_4471_31452" x="0.205078" y="0" width="71.6157" height="66.7855" filterUnits="userSpaceOnUse" color-interpolation-filters="sRGB">
<feFlood flood-opacity="0" result="BackgroundImageFix"/>
<feColorMatrix in="SourceAlpha" type="matrix" values="0 0 0 0 0 0 0 0 0 0 0 0 0 0 0 0 0 0 127 0" result="hardAlpha"/>
<feOffset dy="2"/>
<feGaussianBlur stdDeviation="7"/>
<feComposite in2="hardAlpha" operator="out"/>
<feColorMatrix type="matrix" values="0 0 0 0 0.32 0 0 0 0 1 0 0 0 0 0 0 0 0 0.4 0"/>
<feBlend mode="normal" in2="BackgroundImageFix" result="effect1_dropShadow_4471_31452"/>
<feBlend mode="normal" in="SourceGraphic" in2="effect1_dropShadow_4471_31452" result="shape"/>
</filter>
<linearGradient id="paint0_linear_4471_31452" x1="11.1481" y1="34.0942" x2="59.6089" y2="32.8737" gradientUnits="userSpaceOnUse">
<stop stop-color="#214A03"/>
<stop offset="0.73" stop-color="#459114"/>
<stop offset="1" stop-color="#2B4005"/>
</linearGradient>
<linearGradient id="paint1_linear_4471_31452" x1="35.5379" y1="49.2193" x2="36.4832" y2="20.4693" gradientUnits="userSpaceOnUse">
<stop stop-color="#66C233"/>
<stop offset="1" stop-color="#66AD2E"/>
</linearGradient>
<radialGradient id="paint2_radial_4471_31452" cx="0" cy="0" r="1" gradientUnits="userSpaceOnUse" gradientTransform="translate(38.4462 46.0609) scale(23.6 23.6)">
<stop stop-color="#C7FFA1"/>
<stop offset="0.62" stop-color="#DEFAF0"/>
<stop offset="1" stop-color="#80D642"/>
</radialGradient>
</defs>
</svg>
