<svg width="73" height="67" viewBox="0 0 73 67" fill="none" xmlns="http://www.w3.org/2000/svg">
<g filter="url(#filter0_d_4471_31435)">
<path fill-rule="evenodd" clip-rule="evenodd" d="M14.6494 33.4674C14.6494 32.8808 14.6928 32.2848 14.7614 31.7068L15.2005 26.8903C15.2005 26.519 15.0373 26.683 15.3724 26.683H16.3966C19.7269 20.5198 27.4385 16.1953 36.4226 16.1953C45.4068 16.1953 53.1271 20.5198 56.4487 26.683H57.1804C57.5162 26.683 57.7914 26.985 57.7914 27.365L57.998 27.2869C58.2645 28.3663 58.1959 32.3368 58.1959 33.4674C58.1959 43.0058 48.4454 50.7482 36.4226 50.7482C24.3999 50.7482 14.6494 43.0058 14.6494 33.4674Z" fill="url(#paint0_linear_4471_31435)"/>
<path fill-rule="evenodd" clip-rule="evenodd" d="M36.5915 12.0001C48.5204 12.0001 58.2055 19.7425 58.2055 29.2809C58.2055 38.8193 48.5204 46.553 36.5915 46.553C24.6626 46.553 14.9775 38.8193 14.9775 29.2809C14.9775 19.7425 24.6539 12.0001 36.5915 12.0001Z" fill="url(#paint1_linear_4471_31435)"/>
<path fill-rule="evenodd" clip-rule="evenodd" d="M17.7314 37.5854L22.4187 34.6934C23.3506 36.0748 24.5939 37.3086 26.0785 38.3273L21.2187 41.3225C19.9154 40.7698 18.0074 38.2666 17.7314 37.5846V37.5854ZM47.2604 19.2773L51.395 16.8C52.8622 17.7406 54.0709 18.958 55.0809 20.4166L50.8344 22.9632C49.8764 21.6339 48.6851 20.3566 47.2612 19.2773H47.2604Z" fill="#FF75FA"/>
<path fill-rule="evenodd" clip-rule="evenodd" d="M52.3876 41.0725L47.5104 38.086C48.9343 37.05 50.2896 35.9367 51.1703 34.5641L55.7108 37.3519C54.7182 39.0005 53.6909 40.1311 52.3876 41.0725ZM22.4266 22.6785L18.2227 20.098C19.224 18.7774 20.3719 17.5175 22.0205 16.55L26.0864 19.062C24.6018 20.0806 23.3585 21.3066 22.4266 22.6785Z" fill="#FF75FA"/>
<path fill-rule="evenodd" clip-rule="evenodd" d="M20.2607 28.5996C20.2607 21.1245 27.8998 15.7128 36.6269 15.7128C45.354 15.7128 53.0018 21.1679 53.0018 28.5996C53.0018 36.0314 45.354 41.4952 36.6269 41.4952C27.8998 41.4952 20.2607 36.0487 20.2607 28.5996ZM50.6444 28.453C50.6878 22.7385 44.3866 17.5167 36.5836 17.5167C28.7805 17.5167 22.4967 22.4625 22.4967 28.3844C22.4967 33.3129 28.6772 39.0881 36.4803 39.0881C44.2834 39.0881 50.6452 33.4169 50.6452 28.4538L50.6444 28.453Z" fill="#AB3DEB"/>
<path fill-rule="evenodd" clip-rule="evenodd" d="M31.9825 40.5719L32.4745 39.5706C33.4237 39.7866 34.4164 39.9333 35.4524 39.9932V41.0978C34.2524 41.0284 33.0871 40.8479 31.9825 40.5711V40.5719ZM37.783 41.0986V39.994C38.7582 39.9333 39.6988 39.804 40.6055 39.6053L41.1062 40.6066C40.0355 40.8652 38.9222 41.0292 37.783 41.0986ZM43.4021 39.8986L42.9274 38.932C43.9721 38.5433 44.9474 38.06 45.8281 37.5081L46.7087 38.2161C45.6988 38.8807 44.5942 39.4508 43.4029 39.8994L43.4021 39.8986ZM26.2593 38.034L27.14 37.3346C28.0545 37.9386 29.0645 38.4566 30.1612 38.8713L29.6779 39.8466C28.4432 39.3633 27.2953 38.7506 26.2601 38.034H26.2593ZM48.5813 36.7307L47.7353 36.0747C48.478 35.4014 49.1166 34.6761 49.6433 33.8908L50.6619 34.2448C50.0919 35.1428 49.3933 35.9801 48.5821 36.7307H48.5813ZM22.5048 34.1242L23.5148 33.7875C24.0067 34.5302 24.602 35.2374 25.2927 35.8847L24.4467 36.5407C23.6874 35.8067 23.0393 34.9954 22.5048 34.1242ZM51.5678 32.4669L50.5925 32.1389C50.9639 31.2582 51.1965 30.3176 51.2745 29.3597H52.2758C52.1978 30.4469 51.9565 31.4829 51.5678 32.4669ZM20.9595 29.3597H21.9608C22.0302 30.2829 22.2454 31.1723 22.5907 32.0269L21.6241 32.3462C21.2528 31.4057 21.0289 30.4043 20.9595 29.3597ZM21.8488 24.4399L22.8241 24.7679C22.4874 25.5019 22.2288 26.2612 22.0814 27.0464H21.0628C21.2094 26.1397 21.4775 25.2685 21.848 24.4399H21.8488ZM50.3513 24.6559L51.3352 24.3193C51.7326 25.1826 52.0172 26.0972 52.1726 27.0472H51.1539C50.9986 26.2186 50.7226 25.4246 50.3513 24.6559ZM23.8002 23.1453L22.7729 22.8C23.3342 21.9626 24.0162 21.1774 24.7928 20.478L25.6214 21.1514C24.9308 21.764 24.3182 22.4286 23.8002 23.1453ZM47.6415 21.1774L48.4874 20.5127C49.2128 21.1774 49.8514 21.9027 50.3954 22.688L49.3594 23.0333C48.8675 22.3774 48.2888 21.7474 47.6415 21.1774ZM27.2622 19.9261L26.3815 19.2268C27.3915 18.5361 28.5047 17.9495 29.7047 17.4828L30.1793 18.4581C29.126 18.8555 28.1507 19.3561 27.2622 19.9253V19.9261ZM42.9117 18.4068L43.3863 17.4315C44.5516 17.8715 45.6302 18.4242 46.6149 19.0628L45.7256 19.7708C44.8622 19.2355 43.9216 18.7782 42.9117 18.4068ZM32.4934 17.7595L32.0014 16.7582C33.106 16.4823 34.2713 16.3183 35.4539 16.2402V17.3448C34.4353 17.4055 33.4427 17.5522 32.4934 17.7587V17.7595ZM37.7845 17.3456V16.241C38.9151 16.3104 40.0205 16.4744 41.0817 16.7243L40.5898 17.7256C39.6831 17.5356 38.7511 17.4063 37.7845 17.3456Z" fill="#FFB8FC"/>
<path fill-rule="evenodd" clip-rule="evenodd" d="M52.3627 40.8455C52.3627 40.7713 52.2988 43.8793 52.2476 45.3308C53.3348 44.4367 54.374 43.4701 55.4446 41.9611L55.5913 37.3433C54.478 39.1227 53.4854 40.0334 52.3627 40.8455Z" fill="#B23BFF"/>
<path fill-rule="evenodd" clip-rule="evenodd" d="M24.7832 43.8691V48.1077C26.2244 48.8157 27.8045 49.3937 29.5217 49.8257V45.5185C27.821 45.2166 26.2765 44.604 24.7832 43.8699V43.8691Z" fill="#B23BFF"/>
<path fill-rule="evenodd" clip-rule="evenodd" d="M33.9854 46.329V50.6189C35.8587 50.8089 37.7745 50.7829 39.7338 50.5495V46.2596C37.8092 46.5017 35.8926 46.5104 33.9854 46.329Z" fill="#B23BFF"/>
<path fill-rule="evenodd" clip-rule="evenodd" d="M44.3608 45.3364V49.5663C45.8108 49.1177 47.2946 48.4704 48.8919 47.6591V43.5151C47.4168 44.3004 45.9062 44.8965 44.3608 45.3364Z" fill="#B23BFF"/>
<path fill-rule="evenodd" clip-rule="evenodd" d="M34.3823 46.4062C33.433 46.3203 32.4743 46.2249 31.5337 46.0436C30.9897 45.9403 30.4465 45.8362 29.9025 45.7069C27.7098 45.1802 25.6639 44.421 23.6873 43.3156C23.23 43.057 22.7554 42.7716 22.3233 42.4696C21.374 41.805 20.45 41.0883 19.6387 40.2597C18.8621 39.4744 18.1888 38.6631 17.5667 37.7304C16.9194 36.7638 16.3581 35.6844 15.9528 34.5885C15.2535 32.6978 14.9342 30.8253 14.9775 28.814C15.2361 30.8513 15.7975 32.8879 16.6955 34.7438C17.0755 35.5378 17.5502 36.3404 18.0682 37.0571C18.2235 37.2818 18.3875 37.4883 18.5515 37.7044C18.7935 38.0237 19.0868 38.3517 19.3628 38.6536C20.4161 39.7929 21.6673 40.8376 22.9966 41.6575C23.394 41.8996 23.7992 42.1408 24.214 42.3655C24.4473 42.4862 24.6886 42.5989 24.922 42.7195C25.6812 43.0996 26.476 43.4102 27.2699 43.7035C27.9345 43.9456 28.6339 44.1521 29.3159 44.3248C31.4738 44.8775 33.6577 45.1621 35.8764 45.2315H38.0777L39.977 45.0501C40.4603 44.9894 40.9263 44.9035 41.4009 44.8168C42.5835 44.6181 43.7575 44.3161 44.8968 43.9448C49.0833 42.6068 53.1572 40.0775 55.5398 36.297C55.9285 35.6931 56.299 35.0284 56.5758 34.3638C56.7484 33.9577 56.9124 33.5612 57.0504 33.1465C57.309 32.3959 57.4817 31.6358 57.6291 30.8592C57.7584 30.1599 57.8365 29.4006 57.8712 28.6926C57.8885 28.3907 57.8885 28.0974 57.8972 27.7946C57.9059 27.6306 57.8972 27.4579 57.8972 27.294C57.8972 27.0353 57.8972 26.7499 57.8712 26.4913C58.1471 27.6913 58.2165 28.9686 58.1731 30.1946C58.1471 31.1352 57.9918 32.1538 57.7584 33.0692C57.6118 33.6305 57.4478 34.1651 57.2404 34.7091C57.0764 35.1491 56.8777 35.5724 56.6704 35.995C56.3944 36.5651 56.0665 37.091 55.7298 37.6176C55.3671 38.1877 54.9012 38.7829 54.4439 39.2836C53.9519 39.8276 53.4599 40.3196 52.9159 40.8116C51.4226 42.1495 49.61 43.2628 47.7887 44.1001C46.1488 44.8593 44.4308 45.4294 42.6616 45.8267C41.7123 46.0514 40.7536 46.2154 39.787 46.3274C39.243 46.3881 38.6911 46.4567 38.1471 46.4827C37.4217 46.5174 36.6971 46.5087 35.9718 46.4914C35.4451 46.474 34.9098 46.448 34.3839 46.4054L34.3823 46.4062Z" fill="url(#paint2_radial_4471_31435)"/>
<path fill-rule="evenodd" clip-rule="evenodd" d="M22.6516 28.7463C22.6516 28.3749 22.6776 28.0122 22.695 28.1849C22.6863 33.0708 28.8321 38.8452 36.5918 38.8452C44.3515 38.8452 50.6786 33.1741 50.6361 28.7202C50.6274 28.1076 50.6447 28.4616 50.6447 28.8148C50.6447 33.778 44.2656 39.4578 36.5579 39.4578C28.8502 39.4578 22.6524 33.6747 22.6524 28.7455L22.6516 28.7463ZM36.7038 16.0746C28.5727 16.0746 21.3822 20.8304 20.459 28.4009V28.3662C20.459 20.8825 28.0634 15.4707 36.7384 15.4707C45.4135 15.4707 53.0179 20.9258 53.0179 28.3662L52.9832 28.9363C52.0339 20.8659 44.8782 16.0746 36.7038 16.0746Z" fill="#59038A"/>
<path fill-rule="evenodd" clip-rule="evenodd" d="M21.1148 41.633C21.1148 41.555 21.1929 44.2916 21.2441 45.8109C20.3209 45.1203 18.8789 44.0157 17.8003 42.427L17.7144 37.9471C18.871 39.6218 20.0363 40.5277 21.1156 41.633H21.1148Z" fill="#9C29E3"/>
<path fill-rule="evenodd" clip-rule="evenodd" d="M36.5659 17.2139C44.2223 17.2139 50.4462 22.013 50.4462 27.9176C50.4462 33.8221 44.2223 38.6299 36.5659 38.6299C28.9095 38.6299 22.6777 33.8308 22.6777 27.9176C22.6777 22.0044 28.9016 17.2139 36.5659 17.2139Z" fill="white"/>
<path fill-rule="evenodd" clip-rule="evenodd" d="M15.6084 33.5367L15.4531 38.0426C14.5039 35.5913 14.3225 32.2161 14.9351 29.1862C14.9611 30.6274 15.2458 32.2074 15.6084 33.5367Z" fill="#B23BFF"/>
<path d="M37.0481 22.6707C39.4465 22.6707 42.001 23.6073 42.001 25.7503C42.001 27.4533 40.4257 28.4325 38.2402 29.0995C36.6081 29.6104 35.2741 30.2065 34.9477 30.7174H42.1997V32.9029H31.5425V31.654C31.7979 29.7381 33.5577 28.1203 36.5096 27.2404C37.9429 26.7862 39.0783 26.474 39.0783 25.807C39.0783 25.14 38.0139 24.7994 36.9211 24.7994C35.5587 24.7994 34.3099 25.3671 33.2597 26.4031L31.6844 24.8846C32.7062 23.6215 34.693 22.6707 37.0489 22.6707H37.0481Z" fill="#660D96"/>
</g>
<defs>
<filter id="filter0_d_4471_31435" x="0.579102" y="0.00012207" width="71.6265" height="66.748" filterUnits="userSpaceOnUse" color-interpolation-filters="sRGB">
<feFlood flood-opacity="0" result="BackgroundImageFix"/>
<feColorMatrix in="SourceAlpha" type="matrix" values="0 0 0 0 0 0 0 0 0 0 0 0 0 0 0 0 0 0 127 0" result="hardAlpha"/>
<feOffset dy="2"/>
<feGaussianBlur stdDeviation="7"/>
<feComposite in2="hardAlpha" operator="out"/>
<feColorMatrix type="matrix" values="0 0 0 0 0.8 0 0 0 0 0 0 0 0 0 1 0 0 0 0.4 0"/>
<feBlend mode="normal" in2="BackgroundImageFix" result="effect1_dropShadow_4471_31435"/>
<feBlend mode="normal" in="SourceGraphic" in2="effect1_dropShadow_4471_31435" result="shape"/>
</filter>
<linearGradient id="paint0_linear_4471_31435" x1="11.6053" y1="33.9239" x2="63.4846" y2="32.9794" gradientUnits="userSpaceOnUse">
<stop stop-color="#3B0361"/>
<stop offset="0.72" stop-color="#9924D4"/>
<stop offset="1" stop-color="#3D0061"/>
</linearGradient>
<linearGradient id="paint1_linear_4471_31435" x1="35.9363" y1="49.2281" x2="36.8809" y2="20.482" gradientUnits="userSpaceOnUse">
<stop stop-color="#AB36D4"/>
<stop offset="1" stop-color="#8F1FD4"/>
</linearGradient>
<radialGradient id="paint2_radial_4471_31435" cx="0" cy="0" r="1" gradientUnits="userSpaceOnUse" gradientTransform="translate(37.2309 45.673) scale(29.2562)">
<stop stop-color="#FFA1FC"/>
<stop offset="0.66" stop-color="#E661E6"/>
<stop offset="1" stop-color="#C430C2"/>
</radialGradient>
</defs>
</svg>
