<svg width="45" height="39" viewBox="0 0 45 39" fill="none" xmlns="http://www.w3.org/2000/svg">
<path fill-rule="evenodd" clip-rule="evenodd" d="M0.649414 21.4674C0.649414 20.8808 0.692776 20.2848 0.76137 19.7068L1.20052 14.8903C1.20052 14.519 1.03732 14.683 1.3724 14.683H2.39657C5.72689 8.51984 13.4385 4.19531 22.4226 4.19531C31.4068 4.19531 39.1271 8.51984 42.4487 14.683H43.1804C43.5162 14.683 43.7914 14.985 43.7914 15.365L43.998 15.2869C44.2645 16.3663 44.1959 20.3368 44.1959 21.4674C44.1959 31.0058 34.4454 38.7482 22.4226 38.7482C10.3999 38.7482 0.649414 31.0058 0.649414 21.4674Z" fill="url(#paint0_linear_4471_31584)"/>
<path fill-rule="evenodd" clip-rule="evenodd" d="M22.5915 0.00012207C34.5204 0.00012207 44.2055 7.74249 44.2055 17.2809C44.2055 26.8193 34.5204 34.553 22.5915 34.553C10.6626 34.553 0.977539 26.8193 0.977539 17.2809C0.977539 7.74249 10.6539 0.00012207 22.5915 0.00012207Z" fill="url(#paint1_linear_4471_31584)"/>
<path fill-rule="evenodd" clip-rule="evenodd" d="M3.73145 25.5854L8.41865 22.6934C9.35057 24.0748 10.5939 25.3086 12.0785 26.3273L7.21867 29.3225C5.91539 28.7698 4.0074 26.2666 3.73145 25.5846V25.5854ZM33.2604 7.27729L37.395 4.80005C38.8622 5.74064 40.0709 6.95798 41.0809 8.41657L36.8344 10.9632C35.8764 9.6339 34.6851 8.35665 33.2612 7.27729H33.2604Z" fill="#FF75FA"/>
<path fill-rule="evenodd" clip-rule="evenodd" d="M38.3876 29.0725L33.5104 26.086C34.9343 25.05 36.2896 23.9367 37.1703 22.5641L41.7108 25.3519C40.7182 27.0005 39.6909 28.1311 38.3876 29.0725ZM8.42656 10.6785L4.22266 8.09798C5.22396 6.77736 6.37191 5.51745 8.02051 4.55005L12.0864 7.06198C10.6018 8.08063 9.35848 9.30663 8.42656 10.6785Z" fill="#FF75FA"/>
<path fill-rule="evenodd" clip-rule="evenodd" d="M6.26074 16.5996C6.26074 9.12454 13.8998 3.71277 22.6269 3.71277C31.354 3.71277 39.0018 9.1679 39.0018 16.5996C39.0018 24.0314 31.354 29.4952 22.6269 29.4952C13.8998 29.4952 6.26074 24.0487 6.26074 16.5996ZM36.6444 16.453C36.6878 10.7385 30.3866 5.51669 22.5836 5.51669C14.7805 5.51669 8.49672 10.4625 8.49672 16.3844C8.49672 21.3129 14.6772 27.0881 22.4803 27.0881C30.2834 27.0881 36.6452 21.4169 36.6452 16.4538L36.6444 16.453Z" fill="#AB3DEB"/>
<path fill-rule="evenodd" clip-rule="evenodd" d="M17.9825 28.5719L18.4745 27.5706C19.4237 27.7866 20.4164 27.9333 21.4524 27.9932V29.0978C20.2524 29.0284 19.0871 28.8479 17.9825 28.5711V28.5719ZM23.783 29.0986V27.994C24.7582 27.9333 25.6988 27.804 26.6055 27.6053L27.1062 28.6066C26.0355 28.8652 24.9222 29.0292 23.783 29.0986ZM29.4021 27.8986L28.9274 26.932C29.9721 26.5433 30.9474 26.06 31.8281 25.5081L32.7087 26.2161C31.6988 26.8807 30.5942 27.4508 29.4029 27.8994L29.4021 27.8986ZM12.2593 26.034L13.14 25.3346C14.0545 25.9386 15.0645 26.4566 16.1612 26.8713L15.6779 27.8466C14.4432 27.3633 13.2953 26.7506 12.2601 26.034H12.2593ZM34.5813 24.7307L33.7353 24.0747C34.478 23.4014 35.1166 22.6761 35.6433 21.8908L36.6619 22.2448C36.0919 23.1428 35.3933 23.9801 34.5821 24.7307H34.5813ZM8.50479 22.1242L9.51477 21.7875C10.0067 22.5302 10.602 23.2374 11.2927 23.8847L10.4467 24.5407C9.68744 23.8067 9.03935 22.9954 8.50479 22.1242ZM37.5678 20.4669L36.5925 20.1389C36.9639 19.2582 37.1965 18.3176 37.2745 17.3597H38.2758C38.1978 18.4469 37.9565 19.4829 37.5678 20.4669ZM6.95947 17.3597H7.96078C8.03016 18.2829 8.2454 19.1723 8.59073 20.0269L7.62412 20.3462C7.25277 19.4057 7.02885 18.4043 6.95947 17.3597ZM7.84882 12.4399L8.82411 12.7679C8.48745 13.5019 8.22885 14.2612 8.08141 15.0464H7.06276C7.2094 14.1397 7.47747 13.2685 7.84803 12.4399H7.84882ZM36.3513 12.6559L37.3352 12.3193C37.7326 13.1826 38.0172 14.0972 38.1726 15.0472H37.1539C36.9986 14.2186 36.7226 13.4246 36.3513 12.6559ZM9.80018 11.1453L8.77286 10.8C9.33422 9.96265 10.0162 9.17737 10.7928 8.47804L11.6214 9.15135C10.9308 9.76396 10.3182 10.4286 9.80018 11.1453ZM33.6415 9.17737L34.4874 8.51273C35.2128 9.17737 35.8514 9.90273 36.3954 10.688L35.3594 11.0333C34.8675 10.3774 34.2888 9.74741 33.6415 9.17737ZM13.2622 7.92614L12.3815 7.2268C13.3915 6.53614 14.5047 5.94955 15.7047 5.4828L16.1793 6.45808C15.126 6.85545 14.1507 7.3561 13.2622 7.92535V7.92614ZM28.9117 6.40684L29.3863 5.43155C30.5516 5.87149 31.6302 6.42418 32.6149 7.06281L31.7256 7.77082C30.8622 7.23547 29.9216 6.77818 28.9117 6.40684ZM18.4934 5.75954L18.0014 4.75823C19.106 4.48228 20.2713 4.31829 21.4539 4.24023V5.34482C20.4353 5.40553 19.4427 5.55218 18.4934 5.75875V5.75954ZM23.7845 5.34561V4.24102C24.9151 4.3104 26.0205 4.4744 27.0817 4.72433L26.5898 5.72563C25.6831 5.53562 24.7511 5.40632 23.7845 5.34561Z" fill="#FFB8FC"/>
<path fill-rule="evenodd" clip-rule="evenodd" d="M38.3627 28.8455C38.3627 28.7713 38.2988 31.8793 38.2476 33.3308C39.3348 32.4367 40.374 31.4701 41.4446 29.9611L41.5913 25.3433C40.478 27.1227 39.4854 28.0334 38.3627 28.8455Z" fill="#B23BFF"/>
<path fill-rule="evenodd" clip-rule="evenodd" d="M10.7832 31.8691V36.1077C12.2244 36.8157 13.8045 37.3937 15.5217 37.8257V33.5185C13.821 33.2166 12.2765 32.604 10.7832 31.8699V31.8691Z" fill="#B23BFF"/>
<path fill-rule="evenodd" clip-rule="evenodd" d="M19.9854 34.329V38.6189C21.8587 38.8089 23.7745 38.7829 25.7338 38.5495V34.2596C23.8092 34.5017 21.8926 34.5104 19.9854 34.329Z" fill="#B23BFF"/>
<path fill-rule="evenodd" clip-rule="evenodd" d="M30.3608 33.3364V37.5663C31.8108 37.1177 33.2946 36.4704 34.8919 35.6591V31.5151C33.4168 32.3004 31.9062 32.8965 30.3608 33.3364Z" fill="#B23BFF"/>
<path fill-rule="evenodd" clip-rule="evenodd" d="M20.3823 34.4062C19.433 34.3203 18.4743 34.2249 17.5337 34.0436C16.9897 33.9403 16.4465 33.8362 15.9025 33.7069C13.7098 33.1802 11.6639 32.421 9.68729 31.3156C9.23 31.057 8.75536 30.7716 8.32331 30.4696C7.37404 29.805 6.45 29.0883 5.6387 28.2597C4.8621 27.4744 4.18879 26.6631 3.56672 25.7304C2.91942 24.7638 2.35805 23.6844 1.9528 22.5885C1.25347 20.6978 0.934154 18.8253 0.977518 16.814C1.23612 18.8513 1.79749 20.8879 2.69551 22.7438C3.07553 23.5378 3.55016 24.3404 4.06816 25.0571C4.22348 25.2818 4.38747 25.4883 4.55146 25.7044C4.79351 26.0237 5.0868 26.3517 5.36275 26.6536C6.41609 27.7929 7.66733 28.8376 8.99662 29.6575C9.39399 29.8996 9.79924 30.1408 10.214 30.3655C10.4473 30.4862 10.6886 30.5989 10.922 30.7195C11.6812 31.0996 12.476 31.4102 13.2699 31.7035C13.9345 31.9456 14.6339 32.1521 15.3159 32.3248C17.4738 32.8775 19.6577 33.1621 21.8764 33.2315H24.0777L25.977 33.0501C26.4603 32.9894 26.9263 32.9035 27.4009 32.8168C28.5835 32.6181 29.7575 32.3161 30.8968 31.9448C35.0833 30.6068 39.1572 28.0775 41.5398 24.297C41.9285 23.6931 42.299 23.0284 42.5758 22.3638C42.7484 21.9577 42.9124 21.5612 43.0504 21.1465C43.309 20.3959 43.4817 19.6358 43.6291 18.8592C43.7584 18.1599 43.8365 17.4006 43.8712 16.6926C43.8885 16.3907 43.8885 16.0974 43.8972 15.7946C43.9059 15.6306 43.8972 15.4579 43.8972 15.294C43.8972 15.0353 43.8972 14.7499 43.8712 14.4913C44.1471 15.6913 44.2165 16.9686 44.1731 18.1946C44.1471 19.1352 43.9918 20.1538 43.7584 21.0692C43.6118 21.6305 43.4478 22.1651 43.2404 22.7091C43.0764 23.1491 42.8777 23.5724 42.6704 23.995C42.3944 24.5651 42.0665 25.091 41.7298 25.6176C41.3671 26.1877 40.9012 26.7829 40.4439 27.2836C39.9519 27.8276 39.4599 28.3196 38.9159 28.8116C37.4226 30.1495 35.61 31.2628 33.7887 32.1001C32.1488 32.8593 30.4308 33.4294 28.6616 33.8267C27.7123 34.0514 26.7536 34.2154 25.787 34.3274C25.243 34.3881 24.6911 34.4567 24.1471 34.4827C23.4217 34.5174 22.6971 34.5087 21.9718 34.4914C21.4451 34.474 20.9098 34.448 20.3839 34.4054L20.3823 34.4062Z" fill="url(#paint2_radial_4471_31584)"/>
<path fill-rule="evenodd" clip-rule="evenodd" d="M8.6516 16.7463C8.6516 16.3749 8.67762 16.0122 8.69497 16.1849C8.68629 21.0708 14.8321 26.8452 22.5918 26.8452C30.3515 26.8452 36.6786 21.1741 36.6361 16.7202C36.6274 16.1076 36.6447 16.4616 36.6447 16.8148C36.6447 21.778 30.2656 27.4578 22.5579 27.4578C14.8502 27.4578 8.65239 21.6747 8.65239 16.7455L8.6516 16.7463ZM22.7038 4.07464C14.5727 4.07464 7.38223 8.83044 6.45898 16.4009V16.3662C6.45898 8.88247 14.0634 3.4707 22.7384 3.4707C31.4135 3.4707 39.0179 8.92584 39.0179 16.3662L38.9832 16.9363C38.0339 8.86592 30.8782 4.07464 22.7038 4.07464Z" fill="#59038A"/>
<path fill-rule="evenodd" clip-rule="evenodd" d="M7.11485 29.633C7.11485 29.555 7.1929 32.2916 7.24415 33.8109C6.3209 33.1203 4.87886 32.0157 3.80029 30.427L3.71436 25.9471C4.87098 27.6218 6.03628 28.5277 7.11564 29.633H7.11485Z" fill="#9C29E3"/>
<path fill-rule="evenodd" clip-rule="evenodd" d="M22.5659 5.21387C30.2223 5.21387 36.4462 10.013 36.4462 15.9176C36.4462 21.8221 30.2223 26.6299 22.5659 26.6299C14.9095 26.6299 8.67773 21.8308 8.67773 15.9176C8.67773 10.0044 14.9016 5.21387 22.5659 5.21387Z" fill="white"/>
<path fill-rule="evenodd" clip-rule="evenodd" d="M1.60844 21.5367L1.45312 26.0426C0.503856 23.5913 0.322517 20.2161 0.935126 17.1862C0.961144 18.6274 1.24576 20.2074 1.60844 21.5367Z" fill="#B23BFF"/>
<path d="M23.0481 10.6707C25.4465 10.6707 28.001 11.6073 28.001 13.7503C28.001 15.4533 26.4257 16.4325 24.2402 17.0995C22.6081 17.6104 21.2741 18.2065 20.9477 18.7174H28.1997V20.9029H17.5425V19.654C17.7979 17.7381 19.5577 16.1203 22.5096 15.2404C23.9429 14.7862 25.0783 14.474 25.0783 13.807C25.0783 13.14 24.0139 12.7994 22.9211 12.7994C21.5587 12.7994 20.3099 13.3671 19.2597 14.4031L17.6844 12.8846C18.7062 11.6215 20.693 10.6707 23.0489 10.6707H23.0481Z" fill="#660D96"/>
<defs>
<linearGradient id="paint0_linear_4471_31584" x1="-2.39471" y1="21.9239" x2="49.4846" y2="20.9794" gradientUnits="userSpaceOnUse">
<stop stop-color="#3B0361"/>
<stop offset="0.72" stop-color="#9924D4"/>
<stop offset="1" stop-color="#3D0061"/>
</linearGradient>
<linearGradient id="paint1_linear_4471_31584" x1="21.9363" y1="37.2281" x2="22.8809" y2="8.48203" gradientUnits="userSpaceOnUse">
<stop stop-color="#AB36D4"/>
<stop offset="1" stop-color="#8F1FD4"/>
</linearGradient>
<radialGradient id="paint2_radial_4471_31584" cx="0" cy="0" r="1" gradientUnits="userSpaceOnUse" gradientTransform="translate(23.2309 33.673) scale(29.2562)">
<stop stop-color="#FFA1FC"/>
<stop offset="0.66" stop-color="#E661E6"/>
<stop offset="1" stop-color="#C430C2"/>
</radialGradient>
</defs>
</svg>
