<svg width="44" height="39" viewBox="0 0 44 39" fill="none" xmlns="http://www.w3.org/2000/svg">
<path fill-rule="evenodd" clip-rule="evenodd" d="M0.317383 21.3104C0.317383 20.7199 0.357586 20.138 0.429333 19.5641L0.867704 14.787C0.867704 14.4125 0.70844 14.5796 1.04352 14.5796H2.05666C5.36648 8.45432 13.0544 4.1637 21.9952 4.1637C30.936 4.1637 38.6161 8.45432 41.9259 14.5796H42.652C42.995 14.5796 43.2662 14.8824 43.2662 15.2498L43.3435 14.962C43.6147 16.0303 43.6652 20.1869 43.6652 21.3112C43.6652 30.7779 33.9588 38.458 21.996 38.458C10.0332 38.458 0.318961 30.7779 0.318961 21.3112L0.317383 21.3104Z" fill="url(#paint0_linear_4471_31696)"/>
<path fill-rule="evenodd" clip-rule="evenodd" d="M11.0205 31.8375L11.0442 36.0966C12.3758 36.7423 13.8273 37.2532 15.4223 37.6356L15.3987 33.3127C13.8273 33.0572 12.4003 32.499 11.0205 31.8375Z" fill="#800D14"/>
<path fill-rule="evenodd" clip-rule="evenodd" d="M29.0444 33.2093L29.0846 37.5157C30.4242 37.0931 31.8678 36.6626 33.3437 35.9128L33.2397 31.694C31.8757 32.4201 30.4723 32.8025 29.0444 33.2093Z" fill="#800D14"/>
<path fill-rule="evenodd" clip-rule="evenodd" d="M22.0901 -0.00012207C33.9338 -0.00012207 43.544 7.68784 43.544 17.1466C43.544 26.6054 33.9338 34.2933 22.0901 34.2933C10.2463 34.2933 0.644043 26.6133 0.644043 17.1466C0.644043 7.67996 10.2542 -0.00012207 22.0901 -0.00012207Z" fill="#B70027"/>
<path fill-rule="evenodd" clip-rule="evenodd" d="M3.37158 25.3937L8.02883 22.5222C8.95366 23.8941 10.182 25.1146 11.658 26.1269L6.84067 29.1016C5.54055 28.5513 3.6428 26.0709 3.37158 25.3929V25.3937ZM32.6806 7.22591L36.7875 4.76917C38.239 5.69399 39.443 6.9066 40.4403 8.35021L36.2293 10.8787C35.2722 9.56281 34.0919 8.29502 32.6806 7.22591Z" fill="#FF5966"/>
<path fill-rule="evenodd" clip-rule="evenodd" d="M37.7617 28.8549L32.9365 25.8881C34.3399 24.8671 35.6881 23.7664 36.5657 22.4032L41.0715 25.1706C40.0829 26.7979 39.0618 27.9222 37.7617 28.8549ZM8.03796 10.6075L3.86719 8.03964C4.85588 6.72376 5.99673 5.47961 7.63193 4.52246L11.6671 7.01074C10.1998 8.01599 8.96358 9.23568 8.03796 10.6075Z" fill="#FF5966"/>
<path fill-rule="evenodd" clip-rule="evenodd" d="M5.88379 16.4773C5.88379 9.06056 13.4685 3.68506 22.1294 3.68506C30.7902 3.68506 38.3749 9.0921 38.3749 16.4773C38.3749 23.8625 30.7824 29.2774 22.1294 29.2774C13.4764 29.2774 5.88379 23.8625 5.88379 16.4773ZM36.0388 16.3259C36.0869 10.6634 29.826 5.47952 22.082 5.47952C14.3381 5.47952 8.10951 10.3843 8.10163 16.2621C8.10163 21.1511 14.2427 26.8853 21.9866 26.8853C29.7306 26.8853 36.0396 21.2544 36.0396 16.3259H36.0388Z" fill="#B21926"/>
<path fill-rule="evenodd" clip-rule="evenodd" d="M17.5122 28.3605L18.0066 27.3639C18.948 27.5792 19.9367 27.7227 20.9656 27.7865V28.8793C19.7774 28.8075 18.6208 28.6317 17.5122 28.3605ZM23.2788 28.8793V27.7865C24.2438 27.7305 25.1765 27.5949 26.0785 27.4033L26.5729 28.3999C25.5124 28.6475 24.4118 28.8146 23.2788 28.8785V28.8793ZM28.8617 27.6911L28.3831 26.7261C29.4199 26.3429 30.3849 25.873 31.2624 25.3227L32.1321 26.0165C31.1355 26.6867 30.0348 27.2449 28.8625 27.6911H28.8617ZM11.8426 25.8407L12.7123 25.1547C13.6213 25.7532 14.6266 26.2633 15.7107 26.678L15.24 27.643C14.0116 27.1566 12.8715 26.5503 11.8426 25.8407ZM33.9983 24.5484L33.161 23.8948C33.895 23.2325 34.5249 22.5072 35.0508 21.7338L36.0561 22.0767C35.4979 22.97 34.804 23.7994 33.9983 24.5492V24.5484ZM8.11024 21.9648L9.11549 21.6218C9.60195 22.3637 10.1925 23.0654 10.8784 23.7032L10.0411 24.3569C9.29131 23.6307 8.6377 22.8257 8.11103 21.964L8.11024 21.9648ZM36.9572 20.3217L35.9922 19.9945C36.3588 19.1091 36.5906 18.1842 36.6703 17.235H37.659C37.5872 18.312 37.3483 19.3401 36.9572 20.3217ZM6.5791 17.235H7.56779C7.63954 18.144 7.85478 19.0294 8.19775 19.8746L7.23271 20.1939C6.87398 19.2526 6.65085 18.2639 6.5791 17.235ZM7.46452 12.3459L8.43743 12.681C8.09447 13.3985 7.83902 14.1562 7.69553 14.9304H6.68239C6.82588 14.0371 7.08923 13.1675 7.46373 12.3467L7.46452 12.3459ZM35.7454 12.5612L36.7183 12.234C37.1173 13.0871 37.4043 13.9882 37.5557 14.9296H36.5425C36.3911 14.116 36.1199 13.3189 35.7446 12.5612H35.7454ZM9.39459 11.0616L8.37356 10.7186C8.93177 9.88919 9.60982 9.11575 10.3833 8.41405L11.2127 9.08421C10.5189 9.69051 9.91259 10.352 9.39459 11.0624V11.0616ZM33.0656 9.10786L33.895 8.44558C34.6211 9.10786 35.2511 9.83322 35.7927 10.6067L34.7638 10.9496C34.2774 10.296 33.7034 9.68184 33.0648 9.10707L33.0656 9.10786ZM12.8321 7.86372L11.9546 7.16991C12.9599 6.49186 14.0684 5.91 15.2565 5.44719L15.7351 6.41223C14.6905 6.80329 13.7175 7.29763 12.8321 7.86372ZM28.3681 6.35625L28.8388 5.39121C29.9875 5.82958 31.0637 6.37202 32.0445 7.00986L31.1591 7.71156C30.3061 7.177 29.3647 6.72287 28.3681 6.35546V6.35625ZM18.0239 5.71841L17.5375 4.72184C18.6381 4.4585 19.7868 4.28347 20.9671 4.21172V5.30449C19.9461 5.36835 18.9653 5.51184 18.0239 5.7192V5.71841ZM23.2796 5.3037V4.21094C24.4039 4.2748 25.4966 4.44194 26.5492 4.68951L26.0627 5.68608C25.1695 5.4945 24.2367 5.36677 23.2796 5.30291V5.3037Z" fill="#FFDE1C"/>
<path fill-rule="evenodd" clip-rule="evenodd" d="M37.7454 28.6553C37.7454 28.5757 37.594 31.7176 37.5459 33.2251C38.6142 32.3003 39.7393 31.3991 40.8076 29.8199L40.9511 25.0026C39.8426 26.8609 38.8539 27.8102 37.7454 28.6553Z" fill="#800D14"/>
<path fill-rule="evenodd" clip-rule="evenodd" d="M6.67368 28.8155C6.67368 28.7437 6.73754 32.0614 6.78563 33.5689C5.71731 32.6441 4.65608 31.9502 3.58776 30.371L3.30078 25.1548C4.40931 27.0131 5.55805 27.9703 6.67447 28.8155H6.67368Z" fill="#800D14"/>
<path fill-rule="evenodd" clip-rule="evenodd" d="M19.5536 34.0072L19.4897 38.338C21.2282 38.4894 23.0227 38.5454 24.8251 38.3144V34.0474C23.0542 34.2784 21.3158 34.1507 19.5536 34.0072Z" fill="#800D14"/>
<path fill-rule="evenodd" clip-rule="evenodd" d="M7.41513 29.7963C6.73709 29.3019 6.13078 28.7831 5.51738 28.2092C5.31003 28.0097 5.11055 27.7944 4.90319 27.5871C4.27324 26.9248 3.70716 26.1758 3.19625 25.4181C2.58207 24.5091 2.04751 23.4478 1.65724 22.4276C1.13846 21.0636 0.812058 19.6445 0.684333 18.193C0.644123 17.6829 0.63623 17.1964 0.63623 16.6934C0.883797 18.7354 1.41755 20.7372 2.30296 22.5948C2.68614 23.3926 3.15605 24.1819 3.65907 24.908C3.81833 25.1233 3.97837 25.3306 4.13763 25.5458C4.40885 25.8967 4.71161 26.2318 5.00727 26.559C5.27061 26.8538 5.56548 27.1495 5.86036 27.4121C6.50608 28.0105 7.19201 28.5844 7.92603 29.0788C8.47636 29.4454 9.01092 29.7805 9.59278 30.0998C10.0556 30.3631 10.5578 30.6099 11.0443 30.826C11.3549 30.9616 11.6663 31.1051 11.9857 31.2328C13.7163 31.9187 15.5982 32.4209 17.4487 32.7079C18.3656 32.8514 19.307 32.9713 20.2318 33.0194C20.7506 33.0509 21.2528 33.0753 21.7708 33.0832L23.5653 33.0753L25.2005 32.924C29.0449 32.4611 32.8648 31.2012 36.0706 29.0638C36.6926 28.6491 37.2911 28.1942 37.8571 27.7077C38.0803 27.5161 38.2955 27.3167 38.5107 27.1172C38.6621 26.9816 38.8214 26.8223 38.957 26.6709C39.1407 26.4794 39.3157 26.2878 39.4916 26.0891C39.7785 25.7784 40.034 25.4512 40.2894 25.1162C40.9115 24.3025 41.4216 23.3934 41.8608 22.4686C42.1399 21.8781 42.3551 21.2647 42.5546 20.6426C42.6421 20.3635 42.706 20.0844 42.7856 19.8053C42.8495 19.5499 42.9054 19.2786 42.9527 19.0161C43.0324 18.5533 43.112 18.0913 43.1522 17.6206C43.2319 16.8392 43.2642 16.0571 43.2476 15.2679C43.2397 14.973 43.2397 14.686 43.2161 14.3904C43.2721 14.6458 43.3115 14.9171 43.3517 15.1796C43.4794 16.1683 43.5354 17.1333 43.4794 18.1386C43.4392 18.8403 43.3517 19.5664 43.2082 20.2523C43.1443 20.5236 43.0805 20.779 43.0166 21.0502C42.9291 21.4247 42.7935 21.8237 42.6658 22.1911C42.4348 22.8132 42.1793 23.4273 41.86 24.0092C41.3499 24.9506 40.783 25.8439 40.0892 26.6646C38.0558 29.0654 35.4319 30.8599 32.5447 32.0717C30.8859 32.7655 29.1789 33.3 27.4168 33.6509C26.6031 33.8102 25.7816 33.9458 24.9521 34.0341C24.4097 34.09 23.8751 34.146 23.3335 34.1539C17.8145 34.2974 11.9447 33.1014 7.41435 29.7994L7.41513 29.7963Z" fill="url(#paint1_radial_4471_31696)"/>
<path fill-rule="evenodd" clip-rule="evenodd" d="M8.26112 16.6287C8.26112 16.2621 8.28478 15.8947 8.30134 16.0705C8.30134 20.9115 14.3943 26.6457 22.0988 26.6457C29.8033 26.6457 36.0713 21.0148 36.0319 16.5964C36.024 15.9822 36.0477 16.3331 36.0398 16.6918C36.0398 21.6124 29.7072 27.2512 22.0673 27.2512C14.4274 27.2512 8.26191 21.517 8.26191 16.6279L8.26112 16.6287ZM22.21 4.05173C14.1389 4.05173 7.00123 8.77284 6.0835 16.2779V16.2463C6.0835 8.82093 13.628 3.4541 22.2415 3.4541C30.8551 3.4541 38.3996 8.86114 38.3996 16.2463L38.3594 16.8124C37.418 8.80516 30.3205 4.05173 22.2092 4.05173H22.21Z" fill="#540008"/>
<path fill-rule="evenodd" clip-rule="evenodd" d="M22.1694 5.40771C29.7777 5.40771 35.9425 10.169 35.9425 16.0389C35.9425 21.9087 29.7777 26.67 22.1694 26.67C14.5611 26.67 8.3877 21.9008 8.3877 16.0389C8.3877 10.1769 14.5603 5.40771 22.1694 5.40771Z" fill="white"/>
<path fill-rule="evenodd" clip-rule="evenodd" d="M1.29801 21.3262L1.18606 26.0875C0.308536 23.8302 0.0696357 20.3375 0.667264 17.5062C0.690917 18.83 0.97002 20.1065 1.29722 21.3262H1.29801Z" fill="#800D14"/>
<path d="M14.7059 17.72C15.6165 17.72 16.2433 17.5308 16.2433 16.9639C16.2433 16.397 15.6165 16.1652 14.646 16.1652C14.0617 16.1652 13.4176 16.2685 12.7995 16.5342L11.5451 16.0619L12.0607 12.8838H17.4039V14.1807H13.375L13.1692 15.4777C13.7795 15.1087 14.4922 14.9195 15.2996 14.9195C16.6651 14.9195 18.0315 15.5637 18.0315 16.9812C18.0315 18.115 17.0522 19.0942 14.7075 19.0942C13.256 19.0942 12.1135 18.6559 11.2715 17.9345L12.1995 16.904C12.6544 17.2816 13.5737 17.72 14.7075 17.72H14.7059Z" fill="#780812"/>
<path d="M18.666 15.8908C18.666 13.8638 20.1088 12.6866 22.411 12.6866C24.7133 12.6866 26.1648 13.8638 26.1648 15.8908C26.1648 17.9179 24.7219 19.095 22.411 19.095C20.1002 19.095 18.666 17.9179 18.666 15.8908ZM24.3869 15.8908C24.3869 14.7397 23.6481 14.1129 22.4197 14.1129C21.1914 14.1129 20.4439 14.7397 20.4439 15.8908C20.4439 17.0419 21.1827 17.6687 22.4197 17.6687C23.6568 17.6687 24.3869 17.0419 24.3869 15.8908Z" fill="#780812"/>
<path d="M26.8862 15.8908C26.8862 13.8638 28.3291 12.6866 30.6313 12.6866C32.9335 12.6866 34.385 13.8638 34.385 15.8908C34.385 17.9179 32.9421 19.095 30.6313 19.095C28.3204 19.095 26.8862 17.9179 26.8862 15.8908ZM32.6071 15.8908C32.6071 14.7397 31.8683 14.1129 30.6399 14.1129C29.4116 14.1129 28.6641 14.7397 28.6641 15.8908C28.6641 17.0419 29.4029 17.6687 30.6399 17.6687C31.877 17.6687 32.6071 17.0419 32.6071 15.8908Z" fill="#780812"/>
<defs>
<linearGradient id="paint0_linear_4471_31696" x1="-2.69205" y1="21.7031" x2="44.5277" y2="20.9517" gradientUnits="userSpaceOnUse">
<stop stop-color="#452400"/>
<stop offset="0.46" stop-color="#521200"/>
<stop offset="1" stop-color="#290800"/>
</linearGradient>
<radialGradient id="paint1_radial_4471_31696" cx="0" cy="0" r="1" gradientUnits="userSpaceOnUse" gradientTransform="translate(22.5845 33.0816) scale(20.9635 20.9635)">
<stop stop-color="#FFABB0"/>
<stop offset="0.5" stop-color="#DE4A54"/>
<stop offset="1" stop-color="#B0121F"/>
</radialGradient>
</defs>
</svg>
