<svg width="1080" height="320" viewBox="0 0 1080 320" fill="none" xmlns="http://www.w3.org/2000/svg">
<g clip-path="url(#clip0_107_111)">
<path fill-rule="evenodd" clip-rule="evenodd" d="M391.995 74.7767L352.12 279.884H551.495L598.102 40.1444H539.33L504.685 74.8056L478.275 210.562H451.374L485.412 40.1444H426.553L391.995 74.7767Z" fill="white"/>
<path fill-rule="evenodd" clip-rule="evenodd" d="M626.044 74.6612L586.111 280H785.487L798.952 210.678L686.319 210.447L691.376 184.451H764.653L774.218 135.347L700.68 135.203L705.968 109.322H798.721L812.215 40L660.689 40.0289L626.044 74.6612Z" fill="white"/>
<path fill-rule="evenodd" clip-rule="evenodd" d="M860.092 74.6612L820.16 280H1019.54L1033 210.678L920.367 210.447L953.51 40H894.824L860.092 74.6612Z" fill="white"/>
<path fill-rule="evenodd" clip-rule="evenodd" d="M94.6076 40.1444H321.549L356.136 74.8056L342.873 142.713L201.086 279.884H48L76.0859 135.463H162.771L145.521 224.167L263.99 109.553L81.1425 109.467L94.6076 40.1444Z" fill="white"/>
</g>
<defs>
<clipPath id="clip0_107_111">
<rect width="985" height="240" fill="white" transform="translate(48 40)"/>
</clipPath>
</defs>
</svg>
