<svg width="1920" height="1080" viewBox="0 0 1920 1080" fill="none" xmlns="http://www.w3.org/2000/svg">
<g clip-path="url(#clip0_5938_37635)">
<path d="M441.234 141.295L440.787 138.289L440.542 141.321L436.159 137.334L440.226 141.672L437.395 142.145L440.261 142.408L436.956 146.509L440.585 142.732L441.032 145.738L441.287 142.688L444.986 145.799L441.602 142.355L444.434 141.882L441.576 141.619L445.468 136.843L441.234 141.295Z" fill="white"/>
<path d="M61.1954 393.669L63.3079 391.741L65.5344 393.502L63.7112 391.276L65.3854 388.91L63.2729 390.838L61.0464 389.077L62.8609 391.303L61.1954 393.669Z" fill="white"/>
<path d="M405.926 317.68L401.069 322.114L395.941 318.057L400.123 323.183L396.292 328.617L401.139 324.182L406.276 328.24L402.086 323.113L405.926 317.68Z" fill="white"/>
<path d="M287.501 173.843L282.653 178.268L277.516 174.211L281.706 179.338L277.876 184.771L282.723 180.345L287.86 184.403L283.67 179.276L287.501 173.843Z" fill="white"/>
<path d="M277.323 10.1909L280.067 6.30859L276.596 9.47226L272.923 6.5715L275.921 10.2347L273.177 14.117L276.649 10.9533L280.313 13.8541L277.323 10.1909Z" fill="white"/>
<path d="M185.458 11.9171L186.756 12.9512L185.695 11.6454L186.668 10.2607L185.441 11.3912L184.135 10.3571L185.195 11.6629L184.222 13.0388L185.458 11.9171Z" fill="white"/>
<path d="M251.333 200.782L249.431 202.517L247.415 200.922L249.054 202.938L247.555 205.068L249.457 203.332L251.465 204.919L249.825 202.903L251.333 200.782Z" fill="white"/>
<path d="M160.117 426.217L157.653 428.469L155.041 426.41L157.171 429.012L155.225 431.773L157.689 429.521L160.292 431.589L158.162 428.977L160.117 426.217Z" fill="white"/>
<path d="M302.823 303.158L306.286 299.994L309.958 302.895L306.969 299.223L309.704 295.341L306.242 298.505L302.569 295.612L305.567 299.276L302.823 303.158Z" fill="white"/>
<path d="M195.977 479.114L193.514 481.358L190.902 479.298L193.032 481.91L191.086 484.662L193.549 482.418L196.153 484.478L194.031 481.866L195.977 479.114Z" fill="white"/>
<path d="M156.155 297.733L152.789 300.809L149.23 297.996L152.131 301.546L149.484 305.314L152.841 302.247L156.4 305.06L153.499 301.502L156.155 297.733Z" fill="white"/>
<path d="M256.592 396.289L255.243 397.525L253.814 396.394L254.98 397.831L253.91 399.348L255.26 398.103L256.689 399.242L255.523 397.805L256.592 396.289Z" fill="white"/>
<path d="M72.3015 156.709L70.0224 158.803L67.603 156.893L69.5753 159.312L67.7696 161.871L70.0487 159.785L72.4768 161.695L70.4957 159.277L72.3015 156.709Z" fill="white"/>
<path d="M110.485 496.405L107.031 499.56L103.385 496.668L106.365 500.323L103.63 504.187L107.084 501.032L110.73 503.916L107.759 500.27L110.485 496.405Z" fill="white"/>
<path d="M496.555 242.374L503.471 247.851L497.817 240.928L502.998 233.602L496.458 239.587L489.533 234.11L495.187 241.033L490.007 248.351L496.555 242.374Z" fill="white"/>
<path d="M6.59347 279.759L10.5381 276.158L14.7106 279.461L11.3007 275.281L14.4213 270.873L10.4767 274.475L6.3042 271.171L9.70531 275.342L6.59347 279.759Z" fill="white"/>
<path d="M40.85 609.938L38.3869 612.19L35.7834 610.13L37.9048 612.742L35.9588 615.494L38.4219 613.241L41.0341 615.31L38.9041 612.698L40.85 609.938Z" fill="white"/>
<path d="M113.088 212.639L109.626 215.811L105.953 212.919L108.951 216.582L106.207 220.456L109.67 217.292L113.343 220.202L110.354 216.53L113.088 212.639Z" fill="white"/>
<path d="M871.369 75.313L873.832 73.0607L876.445 75.1202L874.314 72.5174L876.269 69.7568L873.797 72.0091L871.194 69.9409L873.315 72.5524L871.369 75.313Z" fill="white"/>
<path d="M354.672 311.939L357.512 311.457L354.637 311.194L357.942 307.102L354.313 310.879L353.866 307.864L353.612 310.922L349.913 307.811L353.296 311.256L350.465 311.729L353.331 311.992L349.43 316.768L353.664 312.316L354.12 315.322L354.357 312.29L358.74 316.277L354.672 311.939Z" fill="white"/>
<path d="M625.779 104.232L623.667 106.152L621.44 104.39L623.264 106.625L621.598 108.982L623.702 107.054L625.937 108.816L624.114 106.59L625.779 104.232Z" fill="white"/>
<path d="M394.776 130.419L398.606 124.994L393.759 129.429L388.622 125.371L392.812 130.498L388.973 135.931L393.829 131.497L398.957 135.554L394.776 130.419Z" fill="white"/>
<path d="M705.215 31.8809L702.743 34.1243L700.139 32.0649L702.26 34.6677L700.314 37.437L702.778 35.1847L705.39 37.2442L703.26 34.6326L705.215 31.8809Z" fill="white"/>
<path d="M800.288 34.79L796.843 37.9362L793.188 35.0529L796.168 38.7074L793.442 42.5634L796.887 39.4172L800.542 42.3005L797.562 38.646L800.288 34.79Z" fill="white"/>
<path d="M425.105 283.457L428.752 286.341L425.771 282.695L428.506 278.83L425.053 281.976L421.406 279.093L424.378 282.739L421.651 286.603L425.105 283.457Z" fill="white"/>
<path d="M431.837 400.154L429.374 402.407L426.762 400.347L428.892 402.95L426.946 405.71L429.409 403.467L432.021 405.518L429.891 402.915L431.837 400.154Z" fill="white"/>
<path d="M600.806 376.641L602.918 374.705L605.154 376.475L603.33 374.24L605.005 371.874L602.892 373.802L600.657 372.032L602.48 374.275L600.806 376.641Z" fill="white"/>
<path d="M450.061 264.405L448.703 265.632L447.274 264.502L448.44 265.939L447.37 267.446L448.72 266.219L450.158 267.35L448.992 265.913L450.061 264.405Z" fill="white"/>
<path d="M531.758 66.1201L529.286 68.3724L526.683 66.3129L528.813 68.9157L526.867 71.685L529.321 69.4328L531.933 71.4922L529.803 68.8807L531.758 66.1201Z" fill="white"/>
<path d="M410.764 194.665L408.301 196.917L405.689 194.849L407.819 197.461L405.873 200.221L408.336 197.969L410.94 200.028L408.81 197.426L410.764 194.665Z" fill="white"/>
<path d="M712.692 243.986L711.342 245.222L709.904 244.083L711.079 245.52L710.009 247.036L711.359 245.8L712.788 246.931L711.622 245.494L712.692 243.986Z" fill="white"/>
<path d="M729.39 162.8L726.927 165.061L724.315 162.993L726.445 165.604L724.49 168.365L726.962 166.112L729.566 168.172L727.444 165.569L729.39 162.8Z" fill="white"/>
<path d="M495.888 13.2314L493.434 15.4837L490.822 13.4242L492.952 16.027L490.997 18.7876L493.469 16.5353L496.072 18.5948L493.942 15.992L495.888 13.2314Z" fill="white"/>
<path d="M519.784 193.131L517.391 195.313L514.866 193.315L516.926 195.839L515.042 198.52L517.426 196.338L519.959 198.336L517.899 195.813L519.784 193.131Z" fill="white"/>
<path d="M433.073 98.5537L431.714 99.7894L430.286 98.6589L431.452 100.087L430.382 101.603L431.732 100.368L433.17 101.498L431.995 100.07L433.073 98.5537Z" fill="white"/>
<path d="M574.649 298.776L576.27 297.295L577.997 298.654L576.586 296.927L577.874 295.113L576.253 296.594L574.526 295.236L575.937 296.954L574.649 298.776Z" fill="white"/>
<path d="M576.498 1.48818L579.943 -1.66673L583.59 1.22527L580.618 -2.42916L583.344 -6.28516L579.891 -3.13901L576.244 -6.02225L579.225 -2.36782L576.498 1.48818Z" fill="white"/>
<path d="M398.115 533.361L400.579 531.109L403.191 533.168L401.061 530.565L403.007 527.805L400.544 530.057L397.94 527.997L400.07 530.6L398.115 533.361Z" fill="white"/>
<path d="M354.164 407.638L356.969 405.07L359.941 407.419L357.513 404.448L359.73 401.311L356.934 403.878L353.962 401.53L356.391 404.492L354.164 407.638Z" fill="white"/>
<path d="M621.37 211.298L618.565 213.857L615.602 211.517L618.022 214.479L615.804 217.616L618.6 215.057L621.572 217.406L619.152 214.435L621.37 211.298Z" fill="white"/>
<path d="M329.997 612.357L328.814 604.434L328.156 612.418L315.437 602.366L325.816 615.082L318.33 616.335L325.877 617.037L316.375 630.489L328.393 619.517L329.585 627.43L330.234 619.447L342.953 629.498L332.574 616.782L340.06 615.529L332.504 614.837L342.015 601.376L329.997 612.357Z" fill="white"/>
<path d="M613.875 258.508L608.116 263.757L602.024 258.937L606.994 265.028L602.445 271.478L608.195 266.211L614.287 271.022L609.317 264.94L613.875 258.508Z" fill="white"/>
<path d="M322.73 505.844L321.38 507.079L319.942 505.949L321.117 507.377L320.039 508.893L321.389 507.658L322.826 508.788L321.66 507.36L322.73 505.844Z" fill="white"/>
<path d="M515.866 451.343L515.007 461.798L505.224 463.437L515.094 464.339L516.646 474.707L517.505 464.252L527.296 462.613L517.417 461.71L515.866 451.343Z" fill="white"/>
<path d="M1432.32 18.0688L1434.78 15.8166L1437.38 17.876L1435.26 15.2644L1437.21 12.5039L1434.74 14.7562L1432.13 12.6967L1434.26 15.3083L1432.32 18.0688Z" fill="white"/>
<path d="M874.016 252.224L876.033 251.891L873.999 251.699L876.339 248.789L873.762 251.471L873.447 249.332L873.263 251.506L870.633 249.297L873.035 251.742L871.027 252.075L873.061 252.259L870.291 255.66L873.298 252.496L873.622 254.634L873.797 252.479L876.909 255.309L874.016 252.224Z" fill="white"/>
<path d="M1186.73 46.9805L1184.61 48.9085L1182.39 47.147L1184.2 49.3729L1182.54 51.7391L1184.64 49.8111L1186.87 51.5726L1185.05 49.3379L1186.73 46.9805Z" fill="white"/>
<path d="M905.257 119.315L901.804 122.47L898.157 119.587L901.137 123.233L898.403 127.098L901.856 123.943L905.503 126.826L902.531 123.18L905.257 119.315Z" fill="white"/>
<path d="M977.575 266.141L983.79 260.48L990.355 265.677L985 259.104L989.908 252.154L983.702 257.816L977.128 252.628L982.484 259.191L977.575 266.141Z" fill="white"/>
<path d="M989.829 345.706L987.883 348.466L990.347 346.214L992.959 348.273L990.829 345.671L992.783 342.91L990.312 345.162L987.708 343.094L989.829 345.706Z" fill="white"/>
<path d="M1137.36 340.01L1136.12 341.14L1134.82 340.106L1135.88 341.412L1134.91 342.788L1136.14 341.666L1137.44 342.691L1136.38 341.394L1137.36 340.01Z" fill="white"/>
<path d="M1028.71 226.179L1026.28 228.396L1023.7 226.363L1025.8 228.939L1023.88 231.665L1026.31 229.448L1028.89 231.481L1026.79 228.904L1028.71 226.179Z" fill="white"/>
<path d="M1092.7 8.87598L1090.23 11.1282L1087.63 9.06001L1089.75 11.6716L1087.8 14.4321L1090.27 12.1799L1092.88 14.2393L1090.75 11.6365L1092.7 8.87598Z" fill="white"/>
<path d="M953.601 106.581L958.29 110.288L954.46 105.591L957.966 100.622L953.53 104.68L948.841 100.964L952.663 105.661L949.156 110.63L953.601 106.581Z" fill="white"/>
<path d="M1273.64 186.733L1272.28 187.969L1270.85 186.839L1272.02 188.267L1270.95 189.792L1272.3 188.556L1273.73 189.687L1272.56 188.25L1273.64 186.733Z" fill="white"/>
<path d="M1287.38 108.352L1285.44 111.113L1287.9 108.861L1290.51 110.929L1288.38 108.317L1290.33 105.557L1287.86 107.809L1285.26 105.749L1287.38 108.352Z" fill="white"/>
<path d="M1080.55 129.787L1086.17 124.652L1092.12 129.358L1087.27 123.407L1091.71 117.106L1086.09 122.242L1080.13 117.536L1084.98 123.486L1080.55 129.787Z" fill="white"/>
<path d="M991.32 44.3603L992.678 43.1246L994.107 44.2551L992.941 42.8179L994.011 41.3018L992.652 42.5374L991.223 41.4069L992.389 42.8442L991.32 44.3603Z" fill="white"/>
<path d="M1135.59 241.532L1137.22 240.043L1138.93 241.401L1137.53 239.683L1138.82 237.869L1137.19 239.35L1135.47 237.992L1136.87 239.709L1135.59 241.532Z" fill="white"/>
<path d="M1020.23 481.691L1014.43 487.002L1008.26 482.147L1013.29 488.29L1008.69 494.802L1014.5 489.482L1020.65 494.346L1015.64 488.194L1020.23 481.691Z" fill="white"/>
<path d="M915.11 350.386L917.915 347.827L920.878 350.176L918.459 347.205L920.677 344.067L917.872 346.626L914.909 344.278L917.328 347.249L915.11 350.386Z" fill="white"/>
<path d="M1182.31 154.045L1179.5 156.613L1176.54 154.264L1178.96 157.235L1176.74 160.372L1179.55 157.813L1182.52 160.162L1180.09 157.191L1182.31 154.045Z" fill="white"/>
<path d="M849.928 613.031L854.355 612.286L849.884 611.883L855.521 603.908L848.403 610.411L847.693 605.722L847.307 610.455L839.769 604.495L845.922 612.023L841.487 612.768L845.957 613.18L840.33 621.155L847.447 614.652L848.149 619.341L848.543 614.609L856.073 620.568L849.928 613.031Z" fill="white"/>
<path d="M1111.49 196.207L1109.03 198.459L1106.41 196.4L1108.54 199.003L1106.59 201.772L1109.05 199.511L1111.66 201.57L1109.53 198.968L1111.49 196.207Z" fill="white"/>
<path d="M830.933 429.915L827.742 432.833L824.367 430.16L827.12 433.534L824.595 437.11L827.777 434.192L831.161 436.865L828.408 433.482L830.933 429.915Z" fill="white"/>
<path d="M1063.61 397.314L1063.11 403.396L1057.41 404.36L1063.16 404.886L1064.07 410.924L1064.57 404.834L1070.28 403.878L1064.52 403.353L1063.61 397.314Z" fill="white"/>
<path d="M655.066 727.555L652.602 729.807L649.99 727.739L652.12 730.35L650.174 733.111L652.638 730.859L655.241 732.918L653.12 730.315L655.066 727.555Z" fill="white"/>
<path d="M91.8753 967.274L93.8915 966.932L91.8578 966.748L94.1983 963.83L91.6211 966.521L91.3056 964.382L91.1215 966.547L88.4918 964.338L90.8936 966.783L88.8862 967.125L90.9199 967.309L88.1499 970.701L91.1565 967.537L91.4809 969.675L91.6562 967.52L94.768 970.359L91.8753 967.274Z" fill="white"/>
<path d="M404.585 762.03L402.472 763.95L400.246 762.188L402.06 764.423L400.395 766.78L402.498 764.852L404.734 766.614L402.91 764.388L404.585 762.03Z" fill="white"/>
<path d="M123.117 834.365L119.663 837.511L116.016 834.628L118.997 838.274L116.262 842.139L119.716 838.992L123.362 841.876L120.39 838.221L123.117 834.365Z" fill="white"/>
<path d="M484.011 689.678L481.548 691.921L478.936 689.862L481.066 692.465L479.111 695.234L481.583 692.982L484.186 695.041L482.056 692.429L484.011 689.678Z" fill="white"/>
<path d="M576.358 696.453L579.093 692.588L575.639 695.743L571.993 692.851L574.973 696.505L572.238 700.361L575.692 697.215L579.338 700.098L576.358 696.453Z" fill="white"/>
<path d="M204.576 940.493L207.303 936.628L203.858 939.774L200.202 936.891L203.183 940.537L200.457 944.401L203.902 941.255L207.557 944.138L204.576 940.493Z" fill="white"/>
<path d="M210.643 1057.95L208.171 1060.2L205.567 1058.14L207.688 1060.75L205.742 1063.51L208.206 1061.26L210.818 1063.32L208.688 1060.71L210.643 1057.95Z" fill="white"/>
<path d="M355.216 1055.06L353.98 1056.18L352.683 1055.16L353.743 1056.45L352.77 1057.84L353.997 1056.71L355.304 1057.74L354.243 1056.44L355.216 1055.06Z" fill="white"/>
<path d="M228.858 922.203L227.508 923.43L226.079 922.308L227.245 923.737L226.175 925.253L227.525 924.017L228.963 925.148L227.788 923.71L228.858 922.203Z" fill="white"/>
<path d="M310.554 723.918L308.091 726.17L305.488 724.111L307.609 726.714L305.663 729.483L308.126 727.231L310.738 729.29L308.608 726.679L310.554 723.918Z" fill="white"/>
<path d="M189.561 852.463L187.098 854.715L184.494 852.647L186.615 855.258L184.669 858.019L187.133 855.767L189.745 857.826L187.615 855.223L189.561 852.463Z" fill="white"/>
<path d="M491.497 901.784L490.138 903.02L488.709 901.889L489.875 903.318L488.806 904.834L490.156 903.598L491.593 904.729L490.419 903.3L491.497 901.784Z" fill="white"/>
<path d="M638.788 1013L637.429 1014.24L636 1013.11L637.166 1014.53L636.096 1016.05L637.446 1014.81L638.884 1015.94L637.709 1014.52L638.788 1013Z" fill="white"/>
<path d="M508.196 820.606L505.724 822.859L503.12 820.799L505.242 823.402L503.296 826.163L505.759 823.91L508.371 825.97L506.241 823.367L508.196 820.606Z" fill="white"/>
<path d="M274.694 671.029L272.231 673.282L269.618 671.222L271.748 673.825L269.802 676.585L272.266 674.333L274.878 676.393L272.748 673.79L274.694 671.029Z" fill="white"/>
<path d="M298.58 850.929L296.196 853.111L293.663 851.113L295.723 853.645L293.838 856.318L296.231 854.136L298.756 856.134L296.696 853.61L298.58 850.929Z" fill="white"/>
<path d="M211.87 756.352L210.511 757.587L209.082 756.457L210.248 757.885L209.179 759.401L210.537 758.166L211.966 759.296L210.8 757.868L211.87 756.352Z" fill="white"/>
<path d="M356.68 952.911L355.049 954.392L353.331 953.034L354.734 954.751L353.454 956.574L355.076 955.093L356.794 956.452L355.391 954.725L356.68 952.911Z" fill="white"/>
<path d="M482.349 985L480.718 986.481L479 985.123L480.402 986.84L479.123 988.663L480.744 987.182L482.462 988.54L481.06 986.814L482.349 985Z" fill="white"/>
<path d="M383.398 665.333L377.577 670.653L371.415 665.789L376.438 671.95L371.836 678.47L377.656 673.141L383.819 678.023L378.796 671.853L383.398 665.333Z" fill="white"/>
<path d="M138.535 1059.11L135.73 1061.68L132.768 1059.33L135.187 1062.3L132.969 1065.44L135.774 1062.87L138.737 1065.22L136.318 1062.25L138.535 1059.11Z" fill="white"/>
<path d="M400.167 869.096L397.362 871.655L394.399 869.315L396.818 872.277L394.6 875.423L397.405 872.855L400.377 875.204L397.949 872.233L400.167 869.096Z" fill="white"/>
<path d="M503.567 572.211L504.996 573.341L503.83 571.913L504.9 570.396L503.541 571.632L502.112 570.502L503.278 571.93L502.209 573.446L503.567 572.211Z" fill="white"/>
<path d="M429.821 540.197L427.358 542.45L424.746 540.381L426.876 542.993L424.921 545.753L427.393 543.501L429.997 545.569L427.866 542.958L429.821 540.197Z" fill="white"/>
<path d="M542.741 579.116L540.296 581.342L537.701 579.3L539.814 581.894L537.876 584.637L540.322 582.394L542.926 584.445L540.804 581.859L542.741 579.116Z" fill="white"/>
<path d="M1242.77 544.193L1247.2 543.448L1242.73 543.036L1248.36 535.07L1241.24 541.573L1240.54 536.884L1240.15 541.608L1232.61 535.658L1238.76 543.185L1234.33 543.93L1238.8 544.342L1233.18 552.308L1240.29 545.806L1240.99 550.494L1241.38 545.771L1248.91 551.721L1242.77 544.193Z" fill="white"/>
<path d="M329.348 911.258L326.885 913.51L324.273 911.442L326.403 914.053L324.448 916.814L326.911 914.562L329.523 916.621L327.393 914.018L329.348 911.258Z" fill="white"/>
<path d="M496.458 384.564L500.683 380.708L505.154 384.24L501.507 379.762L504.847 375.029L500.622 378.894L496.152 375.362L499.798 379.832L496.458 384.564Z" fill="white"/>
<path d="M621.239 481.937L620.003 483.067L618.697 482.033L619.766 483.339L618.784 484.723L620.02 483.602L621.326 484.627L620.266 483.33L621.239 481.937Z" fill="white"/>
<path d="M718.433 431.65L720.327 428.978L717.934 431.16L715.409 429.162L717.469 431.694L715.585 434.367L717.969 432.185L720.493 434.174L718.433 431.65Z" fill="white"/>
<path d="M755.024 317.673L756.918 315L754.525 317.182L752 315.184L754.06 317.717L752.175 320.39L754.56 318.207L757.084 320.197L755.024 317.673Z" fill="white"/>
<path d="M584.545 384.1L583.686 394.546L573.895 396.193L583.774 397.096L585.326 407.455L586.185 397L595.976 395.361L586.097 394.467L584.545 384.1Z" fill="white"/>
<path d="M627.042 866.659L626.533 872.75L620.835 873.714L626.586 874.24L627.497 880.278L627.997 874.187L633.704 873.232L627.944 872.697L627.042 866.659Z" fill="white"/>
<path d="M738.06 574.357L735.947 576.285L733.721 574.524L735.535 576.75L733.87 579.116L735.982 577.188L738.209 578.95L736.394 576.724L738.06 574.357Z" fill="white"/>
<path d="M620.704 588.063L617.25 591.218L613.604 588.326L616.584 591.981L613.849 595.837L617.303 592.682L620.949 595.574L617.978 591.919L620.704 588.063Z" fill="white"/>
<path d="M642.259 573.63L640.909 574.874L639.471 573.735L640.646 575.164L639.568 576.688L640.927 575.453L642.355 576.583L641.19 575.155L642.259 573.63Z" fill="white"/>
<path d="M711.982 502.364L709.589 504.546L707.064 502.548L709.124 505.072L707.239 507.754L709.632 505.572L712.157 507.57L710.097 505.046L711.982 502.364Z" fill="white"/>
<path d="M646.16 370.191L643.696 372.452L641.084 370.384L643.214 372.987L641.26 375.756L643.731 373.504L646.335 375.564L644.214 372.961L646.16 370.191Z" fill="white"/>
<path d="M808.002 526.859L810.807 524.3L813.77 526.639L811.35 523.669L813.568 520.531L810.763 523.099L807.8 520.75L810.219 523.712L808.002 526.859Z" fill="white"/>
<path d="M1448.92 919.758L1448.44 921.861L1449.39 919.916L1451.26 923.693L1449.69 919.767L1451.69 920.187L1449.86 919.267L1453.11 917.409L1449.72 918.969L1450.21 916.866L1449.25 918.82L1447.6 915.806L1448.95 918.961L1446.95 918.54L1448.79 919.451L1444.96 921.616L1448.92 919.758Z" fill="white"/>
<path d="M1812.95 843.208L1811.52 840.754L1812.41 843.488L1810 845.083L1812.65 844.058L1814.09 846.512L1813.21 843.769L1815.62 842.174L1812.95 843.208Z" fill="white"/>
<path d="M1504.52 776.885L1502.14 769.523L1508.62 765.238L1501.46 768.007L1497.59 761.399L1499.98 768.77L1493.49 773.055L1500.65 770.286L1504.52 776.885Z" fill="white"/>
<path d="M1912.81 804.833L1911.13 801.967L1912.16 805.166L1909.34 807.032L1912.46 805.832L1914.13 808.697L1913.1 805.49L1915.92 803.632L1912.81 804.833Z" fill="white"/>
<path d="M1538.35 925.182L1544.84 920.897L1537.68 923.666L1533.81 917.059L1536.19 924.429L1529.71 928.714L1536.87 925.954L1540.74 932.553L1538.35 925.182Z" fill="white"/>
<path d="M1130.64 1009.12L1137.13 1004.84L1129.97 1007.61L1126.1 1001L1128.48 1008.37L1122 1012.66L1129.16 1009.9L1133.03 1016.49L1130.64 1009.12Z" fill="white"/>
<path d="M1524.25 1048.6L1522.57 1045.74L1523.6 1048.93L1520.79 1050.8L1523.9 1049.6L1525.58 1052.47L1524.55 1049.27L1527.36 1047.4L1524.25 1048.6Z" fill="white"/>
<path d="M1615.28 964.015L1613.77 961.43L1614.7 964.322L1612.15 966.004L1614.97 964.918L1616.48 967.503L1615.55 964.62L1618.1 962.937L1615.28 964.015Z" fill="white"/>
<path d="M1738.76 773.712L1737.08 770.847L1738.12 774.045L1735.29 775.912L1738.41 774.711L1740.1 777.577L1739.06 774.378L1741.88 772.512L1738.76 773.712Z" fill="white"/>
<path d="M1594.46 834.629L1591.71 829.905L1593.4 835.172L1588.77 838.239L1593.89 836.268L1596.66 840.974L1594.96 835.716L1599.58 832.648L1594.46 834.629Z" fill="white"/>
<path d="M1844.08 1004.62L1843.16 1003.04L1843.72 1004.79L1842.18 1005.83L1843.88 1005.16L1844.81 1006.74L1844.24 1004.98L1845.79 1003.95L1844.08 1004.62Z" fill="white"/>
<path d="M1275.9 1048.58L1274.98 1047L1275.54 1048.75L1274 1049.79L1275.71 1049.12L1276.63 1050.7L1276.06 1048.94L1277.61 1047.91L1275.9 1048.58Z" fill="white"/>
<path d="M783.902 1027.58L782.982 1026L783.543 1027.75L782 1028.79L783.709 1028.12L784.63 1029.7L784.06 1027.94L785.612 1026.91L783.902 1027.58Z" fill="white"/>
<path d="M530.902 1027.58L529.982 1026L530.543 1027.75L529 1028.79L530.709 1028.12L531.63 1029.7L531.06 1027.94L532.612 1026.91L530.902 1027.58Z" fill="white"/>
<path d="M1887.74 935.594L1886.06 932.729L1887.09 935.927L1884.27 937.794L1887.39 936.593L1889.06 939.459L1888.03 936.26L1890.85 934.394L1887.74 935.594Z" fill="white"/>
<path d="M1724.58 711.412L1722.9 708.546L1723.93 711.745L1721.11 713.603L1724.23 712.402L1725.91 715.268L1724.87 712.069L1727.69 710.211L1724.58 711.412Z" fill="white"/>
<path d="M1681.53 887.648L1679.9 884.87L1680.9 887.972L1678.18 889.778L1681.19 888.612L1682.82 891.399L1681.82 888.297L1684.55 886.483L1681.53 887.648Z" fill="white"/>
<path d="M1636.43 767.526L1635.51 765.957L1636.08 767.71L1634.53 768.735L1636.24 768.078L1637.17 769.647L1636.6 767.894L1638.15 766.868L1636.43 767.526Z" fill="white"/>
<path d="M1699.55 1003.39L1698.43 1001.5L1699.13 1003.62L1697.27 1004.84L1699.32 1004.05L1700.42 1005.94L1699.74 1003.83L1701.6 1002.6L1699.55 1003.39Z" fill="white"/>
<path d="M1809.55 721.464L1811 725.951L1807.05 728.554L1811.41 726.871L1813.76 730.885L1812.32 726.398L1816.26 723.795L1811.9 725.478L1809.55 721.464Z" fill="white"/>
<path d="M1420.68 872.207L1419 869.341L1420.03 872.54L1417.21 874.406L1420.33 873.197L1422.01 876.071L1420.97 872.864L1423.79 871.006L1420.68 872.207Z" fill="white"/>
<path d="M1456.23 1023.65L1454.32 1020.38L1455.49 1024.03L1452.28 1026.15L1455.83 1024.78L1457.74 1028.04L1456.56 1024.4L1459.77 1022.28L1456.23 1023.65Z" fill="white"/>
<path d="M1769.04 941.685L1767.13 938.425L1768.31 942.071L1765.11 944.191L1768.65 942.824L1770.56 946.084L1769.38 942.439L1772.58 940.318L1769.04 941.685Z" fill="white"/>
<path d="M1916.66 645.886L1914.97 643.012L1916.01 646.219L1913.2 648.086L1916.31 646.876L1917.98 649.751L1916.96 646.543L1919.77 644.686L1916.66 645.886Z" fill="white"/>
<path d="M1255.72 923.71L1256.77 919.083L1254.69 923.351L1249.84 915.061L1252.83 924.315L1248.43 923.395L1252.44 925.402L1244.3 930.783L1253.29 927.312L1252.25 931.931L1254.33 927.671L1259.18 935.953L1256.19 926.707L1260.59 927.619L1256.57 925.612L1264.71 920.24L1255.72 923.71Z" fill="white"/>
<path d="M1688.17 955.067L1686.49 952.192L1687.52 955.4L1684.7 957.267L1687.82 956.057L1689.5 958.932L1688.46 955.724L1691.28 953.866L1688.17 955.067Z" fill="white"/>
<path d="M1000.47 1022.87L998.788 1020L999.823 1023.21L997 1025.07L1000.12 1023.86L1001.8 1026.74L1000.76 1023.53L1003.58 1021.67L1000.47 1022.87Z" fill="white"/>
<path d="M1541.8 699.248L1539.12 704.743L1533.45 703.569L1538.63 706.145L1537.28 712.095L1539.95 706.609L1545.62 707.793L1540.45 705.207L1541.8 699.248Z" fill="white"/>
<path d="M1679.12 593.26L1681.51 597.335L1680.04 592.778L1684.05 590.123L1679.61 591.841L1677.21 587.748L1678.69 592.314L1674.68 594.969L1679.12 593.26Z" fill="white"/>
<path d="M1861.44 554.512L1863.83 558.587L1862.36 554.03L1866.37 551.375L1861.93 553.093L1859.53 549L1861.01 553.566L1857 556.221L1861.44 554.512Z" fill="white"/>
<path d="M810.807 619.744L812.157 616.975L814.821 622.356L812.577 616.756L815.426 617.352L812.823 616.046L817.442 613.4L812.63 615.626L813.314 612.62L811.955 615.407L809.606 611.121L811.525 615.608L808.685 615.012L811.289 616.309L805.854 619.385L811.482 616.739L810.807 619.744Z" fill="white"/>
<path d="M1330.01 507.702L1327.97 504.205L1329.23 508.105L1325.79 510.383L1329.58 508.911L1331.63 512.408L1330.37 508.508L1333.81 506.238L1330.01 507.702Z" fill="white"/>
<path d="M907.02 459.002L914.918 472.48L910.061 457.433L923.306 448.679L908.668 454.331L900.761 440.853L905.643 455.9L892.381 464.655L907.02 459.002Z" fill="white"/>
<path d="M1472.23 453.043L1469.84 448.959L1471.31 453.516L1467.3 456.18L1471.73 454.463L1474.13 458.546L1472.66 453.981L1476.67 451.334L1472.23 453.043Z" fill="white"/>
<path d="M1595.13 506.799L1591.77 501.085L1593.84 507.474L1588.22 511.181L1594.43 508.788L1597.78 514.502L1595.72 508.113L1601.34 504.406L1595.13 506.799Z" fill="white"/>
<path d="M975.997 639.541L981.616 635.834L975.41 638.227L972.061 632.504L974.121 638.893L968.502 642.6L974.709 640.207L978.057 645.93L975.997 639.541Z" fill="white"/>
<path d="M1756.49 1030.04L1762.11 1026.33L1755.91 1028.72L1752.56 1023L1754.62 1029.39L1749 1033.1L1755.21 1030.7L1758.55 1036.43L1756.49 1030.04Z" fill="white"/>
<path d="M918.783 800.266L916.39 796.183L917.863 800.74L913.848 803.395L918.284 801.686L920.677 805.77L919.204 801.213L923.219 798.558L918.783 800.266Z" fill="white"/>
<path d="M1114.36 870.393L1113.15 868.351L1113.89 870.629L1111.88 871.961L1114.1 871.102L1115.29 873.144L1114.57 870.866L1116.57 869.534L1114.36 870.393Z" fill="white"/>
<path d="M1015.25 628.78L1013.94 626.536L1014.75 629.043L1012.54 630.497L1014.98 629.56L1016.29 631.803L1015.49 629.297L1017.69 627.842L1015.25 628.78Z" fill="white"/>
<path d="M1224.33 408.717L1221.94 404.633L1223.41 409.199L1219.4 411.854L1223.83 410.136L1226.23 414.22L1224.75 409.663L1228.77 407.008L1224.33 408.717Z" fill="white"/>
<path d="M997.219 516.676L994.826 512.583L996.299 517.149L992.284 519.804L996.72 518.095L999.113 522.179L997.64 517.613L1001.65 514.967L997.219 516.676Z" fill="white"/>
<path d="M1374.34 737.616L1373.02 735.363L1373.83 737.87L1371.63 739.333L1374.06 738.387L1375.38 740.639L1374.57 738.124L1376.78 736.669L1374.34 737.616Z" fill="white"/>
<path d="M1436.53 639.305L1434.13 635.221L1435.61 639.778L1431.59 642.433L1436.03 640.715L1438.43 644.808L1436.95 640.242L1440.97 637.587L1436.53 639.305Z" fill="white"/>
<path d="M1204.13 319.967L1201.73 315.892L1203.21 320.449L1199.2 323.095L1203.63 321.386L1206.03 325.47L1204.55 320.913L1208.56 318.267L1204.13 319.967Z" fill="white"/>
<path d="M1142.81 571.01L1140.49 567.049L1141.92 571.475L1138.03 574.042L1142.33 572.386L1144.65 576.347L1143.22 571.93L1147.11 569.345L1142.81 571.01Z" fill="white"/>
<path d="M1078.58 399.909L1077.27 397.665L1078.07 400.171L1075.87 401.626L1078.31 400.688L1079.63 402.932L1078.81 400.426L1081.02 398.971L1078.58 399.909Z" fill="white"/>
<path d="M1168.48 735.871L1166.9 733.181L1167.87 736.187L1165.22 737.939L1168.14 736.809L1169.73 739.499L1168.75 736.493L1171.4 734.749L1168.48 735.871Z" fill="white"/>
<path d="M1325.15 334.305L1327.21 340.685L1321.6 344.392L1327.81 341.99L1331.16 347.713L1329.1 341.324L1334.72 337.617L1328.51 340.01L1325.15 334.305Z" fill="white"/>
<path d="M814.436 954.743L812.034 950.65L813.515 955.216L809.5 957.872L813.936 956.154L816.32 960.238L814.856 955.681L818.871 953.025L814.436 954.743Z" fill="white"/>
<path d="M821.887 764.73L819.169 760.076L820.852 765.264L816.277 768.288L821.326 766.333L824.043 770.987L822.369 765.79L826.936 762.775L821.887 764.73Z" fill="white"/>
<path d="M1267.47 647.981L1264.74 643.336L1266.42 648.524L1261.86 651.539L1266.9 649.593L1269.62 654.247L1267.95 649.05L1272.51 646.035L1267.47 647.981Z" fill="white"/>
<path d="M1563.44 305.577L1564.76 307.821L1563.94 305.323L1566.15 303.868L1563.71 304.797L1562.4 302.562L1563.21 305.06L1561.01 306.524L1563.44 305.577Z" fill="white"/>
<path d="M1477.72 226.643L1475.33 222.551L1476.8 227.117L1472.79 229.772L1477.22 228.063L1479.62 232.147L1478.14 227.581L1482.16 224.926L1477.72 226.643Z" fill="white"/>
<path d="M1607.45 336.706L1605.07 332.648L1606.53 337.188L1602.55 339.826L1606.95 338.126L1609.34 342.183L1607.87 337.652L1611.86 335.015L1607.45 336.706Z" fill="white"/>
<path d="M605.977 918.4L607.476 911.81L604.514 917.883L597.597 906.087L601.858 919.259L595.59 917.953L601.305 920.81L589.708 928.478L602.524 923.527L601.034 930.117L603.996 924.044L610.904 935.839L606.652 922.668L612.911 923.974L607.196 921.117L618.793 913.448L605.977 918.4Z" fill="white"/>
<path d="M1152.27 667.042L1149.87 662.949L1151.35 667.515L1147.33 670.17L1151.77 668.453L1154.16 672.537L1152.69 667.98L1156.7 665.333L1152.27 667.042Z" fill="white"/>
<path d="M1650.4 75.9794L1648.01 71.8955L1649.48 76.4526L1645.47 79.1167L1649.91 77.4078L1652.29 81.4829L1650.82 76.9258L1654.83 74.2705L1650.4 75.9794Z" fill="white"/>
<path d="M721.273 883.276L719.958 881.032L720.765 883.539L718.565 884.993L720.993 884.056L722.308 886.299L721.501 883.793L723.701 882.338L721.273 883.276Z" fill="white"/>
<path d="M1766.33 246.686L1764.11 247.554L1762.92 245.503L1763.65 247.79L1761.64 249.114L1763.86 248.263L1765.06 250.305L1764.33 248.027L1766.33 246.686Z" fill="white"/>
<path d="M1920.94 229.351L1918.63 225.39L1920.06 229.815L1916.16 232.383L1920.46 230.727L1922.79 234.679L1921.36 230.262L1925.25 227.694L1920.94 229.351Z" fill="white"/>
<path d="M1729.26 122.89L1731.19 114.407L1727.38 122.224L1719.31 120.542L1726.68 124.222L1724.75 132.706L1728.57 124.88L1736.64 126.562L1729.26 122.89Z" fill="white"/>
<path d="M989.049 907.41L985.228 915.236L977.163 913.553L984.526 917.225L982.607 925.709L986.42 917.891L994.493 919.574L987.121 915.893L989.049 907.41Z" fill="white"/>
<path d="M1869.71 431.256L1867.66 427.76L1868.92 431.66L1865.48 433.929L1869.28 432.475L1871.33 435.963L1870.07 432.063L1873.5 429.793L1869.71 431.256Z" fill="white"/>
<path d="M1704.47 389.638L1701.12 383.915L1703.18 390.304L1697.56 394.011L1703.77 391.61L1707.12 397.332L1705.06 390.952L1710.68 387.236L1704.47 389.638Z" fill="white"/>
<path d="M1744.31 380.191L1743.01 377.947L1743.81 380.445L1741.61 381.908L1744.04 380.971L1745.36 383.214L1744.54 380.708L1746.75 379.244L1744.31 380.191Z" fill="white"/>
<path d="M1871.87 322.421L1869.56 318.46L1870.99 322.877L1867.09 325.453L1871.39 323.797L1873.71 327.749L1872.29 323.333L1876.18 320.756L1871.87 322.421Z" fill="white"/>
<path d="M1852.83 113.015L1850.43 108.931L1851.91 113.488L1847.89 116.152L1852.33 114.434L1854.72 118.518L1853.26 113.961L1857.27 111.306L1852.83 113.015Z" fill="white"/>
<path d="M1841.94 56.0838L1839.54 52L1841.01 56.5571L1837 59.2212L1841.44 57.5036L1843.83 61.5874L1842.36 57.0303L1846.38 54.3749L1841.94 56.0838Z" fill="white"/>
</g>
<defs>
<clipPath id="clip0_5938_37635">
<rect width="2163" height="1120" fill="white" transform="translate(-122 -11)"/>
</clipPath>
</defs>
</svg>
